<?xml version="1.0" encoding="iso-8859-1"?>
<!-- Generator: Adobe Illustrator 18.0.0, SVG Export Plug-In . SVG Version: 6.00 Build 0)  -->
<!DOCTYPE svg PUBLIC "-//W3C//DTD SVG 1.1//EN" "http://www.w3.org/Graphics/SVG/1.1/DTD/svg11.dtd">
<svg version="1.1" id="Capa_1" xmlns="http://www.w3.org/2000/svg" xmlns:xlink="http://www.w3.org/1999/xlink" x="0px" y="0px" fill="#8c8c8c"
	 viewBox="0 0 443.5 443.5" style="enable-background:new 0 0 443.5 443.5;" xml:space="preserve">
<g>
	<path d="M367.418,228.897c9.344-3.676,17.596-9.106,24.668-16.317c31.753-32.376,28.65-88.233,28.502-90.595
		c-0.038-0.609-0.207-1.204-0.496-1.742c-29.1-54.32-28.506-115.316-28.497-115.926c0.036-2.346-1.836-4.279-4.183-4.315
		c-2.344-0.064-4.278,1.834-4.316,4.18c-0.04,2.498-0.627,60.061,26.824,114.892c-5.372,0.101-15.577-1.435-31.466-10.514
		c-3.106-1.775-6.434-3.903-9.956-6.156c-27.964-17.883-70.223-44.908-139.939,15.637
		C153.358,183.348,42.977,220.957,27.261,220.016l0,0c-2.077-0.124-3.987,1.29-4.414,3.389c-0.112,0.553-0.103,1.132-0.005,1.656
		l0,0c0.002,0.012-0.003-0.015,0,0c0.001,0.009-0.002-0.009,0,0c0.58,2.939,12.227,53.298,135.628,114.003
		c61.13,30.072,110.826,36.881,143.28,36.881c1.964,0,3.866-0.025,5.703-0.071c7.939-0.2,15.074-0.796,21.386-1.6
		c-1.132,0.784-2.269,1.596-3.406,2.442c-9.447,7.032-17.011,14.849-22.615,23.284h-48.473c-2.347,0-4.25,1.903-4.25,4.25
		s1.903,4.25,4.25,4.25h43.597c-1.822,3.736-3.291,7.573-4.391,11.5H182.346c-2.347,0-4.25,1.903-4.25,4.25s1.903,4.25,4.25,4.25
		h109.417c-0.507,3.55-0.732,7.162-0.666,10.827c0.042,2.321,1.936,4.173,4.248,4.173c0.026,0,0.053,0,0.079,0
		c2.347-0.043,4.215-1.98,4.172-4.327c-0.931-51.172,62.439-72.675,63.076-72.885c0.505-0.166,0.974-0.425,1.383-0.763
		c24.813-20.524,37.357-43.24,37.283-67.516C401.238,264.688,377.485,238.502,367.418,228.897z M132.616,190.5h102.729
		c2.347,0,4.25-1.903,4.25-4.25c0-2.347-1.903-4.25-4.25-4.25h-86.31c14.891-8.002,30.697-17.331,46.399-27.973
		c0.577,0.292,1.22,0.473,1.911,0.473h30c2.347,0,4.25-1.903,4.25-4.25c0-2.347-1.903-4.25-4.25-4.25h-20.448
		c9.276-6.716,18.427-13.893,27.235-21.541c64.919-56.378,102.41-32.401,129.786-14.894c3.614,2.312,7.028,4.495,10.319,6.375
		c18.977,10.844,31.29,12.154,37.969,11.552c-0.022,14.078-2.273,54.75-26.19,79.136c-10.573,10.781-24.234,17.098-40.714,18.91
		c11.33-8.979,19.316-22.632,23.433-40.325c4.292-18.452,2.904-34.662,2.843-35.343c-0.209-2.336-2.276-4.062-4.61-3.851
		c-2.337,0.208-4.063,2.272-3.857,4.609c0.053,0.603,4.807,59.962-35.474,75.252c-7.197-0.311-13.779-0.604-19.822-0.872
		c-68.519-3.043-68.518-3.042-113.309,6.441l-3.041,0.644c-36.9,7.808-106.52-2.063-141.856-8.049
		c15.338-4.438,36.261-12.052,59.177-22.288C116.101,198.489,124.122,194.734,132.616,190.5z M359.228,358.484
		c-0.695,0.245-1.816,0.656-3.276,1.236c-7.063,2.379-24.074,7.097-49.259,7.669c-31.127,0.7-81.46-4.956-144.47-35.953
		c-62.661-30.825-94.978-58.602-111.055-76.476c-9.89-10.996-14.988-19.665-17.55-25.102c2.512,0.472,5.593,1.037,9.14,1.664
		c0.157,0.247,0.339,0.483,0.552,0.701c1.903,1.944,47.295,47.906,107.402,72.95c0.535,0.223,1.088,0.328,1.633,0.328
		c1.664,0,3.245-0.984,3.925-2.616c0.903-2.167-0.122-4.655-2.288-5.558C110,279.002,73.257,248.304,57.557,234.021
		c26.657,4.295,65.681,9.477,98.836,9.476c13.709-0.001,26.424-0.887,36.832-3.088l3.043-0.644
		c17.263-3.655,27.711-5.866,38.183-7.021c3.528,4.225,35.349,43.494,32.655,81.204c-0.167,2.341,1.595,4.375,3.936,4.542
		c0.103,0.007,0.205,0.011,0.307,0.011c2.209,0,4.075-1.709,4.235-3.947c2.505-35.067-21.045-69.764-30.883-82.604
		c13.58-0.631,30.409,0.115,62.737,1.55c5.792,0.257,12.083,0.537,18.931,0.833c3.467,2.915,16.379,14.401,25.382,30.865
		c13.628,24.92,12.276,49.122-4.02,71.935c-1.364,1.91-0.922,4.564,0.988,5.929c0.749,0.535,1.612,0.792,2.467,0.792
		c1.326,0,2.632-0.619,3.462-1.78c18.149-25.408,19.682-53.483,4.431-81.192c-6.284-11.416-14.133-20.471-19.986-26.358
		c6.702-0.246,13.027-1.129,18.977-2.629c3.927,3.387,34.69,31.057,34.767,66.191C392.886,319.49,381.579,339.807,359.228,358.484z"
		/>
	<path d="M360.342,75.5c0.107,0,0.215-0.004,0.324-0.012c2.34-0.176,4.095-2.217,3.918-4.558l-4-53
		c-0.177-2.34-2.202-4.098-4.558-3.918c-2.34,0.176-4.095,2.217-3.918,4.558l4,53C356.277,73.802,358.139,75.5,360.342,75.5z"/>
	<path d="M201.221,314.091c-18.371-3.868-35.091-10.703-35.258-10.772c-2.169-0.892-4.654,0.142-5.547,2.313
		c-0.893,2.17,0.142,4.653,2.312,5.547c0.709,0.292,17.581,7.195,36.743,11.229c0.295,0.063,0.59,0.092,0.88,0.092
		c1.967,0,3.733-1.374,4.154-3.375C204.989,316.829,203.518,314.575,201.221,314.091z"/>
</g>
<g>
</g>
<g>
</g>
<g>
</g>
<g>
</g>
<g>
</g>
<g>
</g>
<g>
</g>
<g>
</g>
<g>
</g>
<g>
</g>
<g>
</g>
<g>
</g>
<g>
</g>
<g>
</g>
<g>
</g>
</svg>
