<?xml version="1.0" encoding="iso-8859-1"?>
<!-- Generator: Adobe Illustrator 18.0.0, SVG Export Plug-In . SVG Version: 6.00 Build 0)  -->
<!DOCTYPE svg PUBLIC "-//W3C//DTD SVG 1.1//EN" "http://www.w3.org/Graphics/SVG/1.1/DTD/svg11.dtd">
<svg version="1.1" id="Capa_1" xmlns="http://www.w3.org/2000/svg" xmlns:xlink="http://www.w3.org/1999/xlink" x="0px" y="0px" fill="#8c8c8c"
	 viewBox="0 0 485.5 485.5" style="enable-background:new 0 0 485.5 485.5;" xml:space="preserve">
<g>
	<path d="M236.548,208.006c0.667,0.383,1.395,0.565,2.112,0.565c1.472,0,2.904-0.767,3.689-2.135
		c1.169-2.035,0.466-4.633-1.569-5.802C141.769,143.778,56.976,26.042,56.131,24.859c-1.365-1.91-4.019-2.353-5.928-0.987
		c-1.91,1.364-2.353,4.018-0.988,5.928C50.07,30.998,135.908,150.213,236.548,208.006z"/>
	<path d="M478.75,296.25c0-16.144-6.228-31.376-17.536-42.892c-9.561-9.737-21.845-15.896-35.161-17.75
		c7.672-13.141,11.697-27.99,11.697-43.358c0-47.559-38.691-86.25-86.25-86.25c-45.236,0-82.423,35.012-85.95,79.356
		C176.166,117.583,62.821,2.804,61.773,1.539c-1.497-1.807-4.175-2.059-5.984-0.562c-1.808,1.497-2.06,4.177-0.563,5.984
		c1.063,1.284,117.195,121.185,211.494,188.48c0.806,0.575,1.711,1.059,2.78,1.059c2.347,0,4.25-1.902,4.25-4.25
		c0-42.871,34.878-77.75,77.75-77.75c42.871,0,77.75,34.879,77.75,77.75c0,16.047-4.867,31.465-14.074,44.588
		c-0.902,1.286-1.021,2.964-0.311,4.364c0.711,1.4,2.135,2.295,3.705,2.326c28.497,0.568,51.68,24.22,51.68,52.722
		c0,27.903-21.802,51.029-49.634,52.649c-1.364,0.08-2.607,0.81-3.34,1.964c-0.733,1.152-0.867,2.588-0.359,3.856
		c2.875,7.193,4.334,14.773,4.334,22.53c0,33.498-27.253,60.75-60.75,60.75c-16.268,0-31.552-6.349-43.037-17.877
		c-1.197-1.202-2.994-1.576-4.573-0.953c-1.578,0.623-2.634,2.126-2.686,3.821C309.274,453.276,284.805,477,254.5,477
		c-30.741,0-55.75-25.01-55.75-55.75c0-12.847,4.479-25.387,12.611-35.31c1.247-1.521,1.287-3.698,0.098-5.265
		c-1.189-1.566-3.298-2.111-5.098-1.319C197.856,383.101,188.819,385,179.5,385c-36.806,0-66.75-29.944-66.75-66.75
		c0-36.806,29.944-66.75,66.75-66.75c2.347,0,4.25-1.902,4.25-4.25c0-0.647-0.156-1.254-0.415-1.803
		c-0.033-0.132-0.094-0.286-0.21-0.488c-3.82-6.649-7.875-13.239-12.109-19.751l22.49-22.953c1.66-1.659,1.66-4.351,0-6.01
		c-1.66-1.66-4.351-1.66-6.011,0l-21.459,21.459c-6.156-9.082-12.641-17.989-19.325-26.663l22.795-22.786
		c1.66-1.659,1.66-4.351,0-6.01c-1.66-1.66-4.351-1.66-6.011,0l-22,22c-0.02,0.02-0.032,0.043-0.051,0.063
		c-10.05-12.673-20.457-24.8-30.802-36.188l17.364-17.364c1.66-1.659,1.66-4.351,0-6.01c-1.66-1.66-4.351-1.66-6.011,0
		l-17.106,17.106c-9.606-10.354-19.085-20.036-28.091-28.89l16.207-16.207c1.66-1.659,1.66-4.351,0-6.01
		c-1.66-1.66-4.351-1.66-6.011,0L70.709,107.03c-7.537-7.275-14.665-13.911-21.166-19.813l16.462-16.462
		c1.66-1.659,1.66-4.351,0-6.01c-1.66-1.66-4.351-1.66-6.011,0l-16.78,16.78c-17.579-15.666-29.253-24.858-29.62-25.142
		c-1.858-1.432-4.527-1.088-5.96,0.771c-1.433,1.858-1.088,4.527,0.771,5.961c1.123,0.865,106.844,81.723,163.953,180.231
		c-38.155,3.61-68.108,35.818-68.108,74.902c0,41.493,33.757,75.25,75.25,75.25c6.186,0,12.263-0.742,18.172-2.215
		c-4.836,9.183-7.422,19.484-7.422,29.965c0,35.428,28.822,64.25,64.25,64.25c16.811,0,32.706-6.451,44.758-18.166
		c9.943-9.665,16.385-22.042,18.608-35.504c12.125,9.514,26.979,14.67,42.634,14.67c38.184,0,69.25-31.065,69.25-69.25
		c0-6.978-1.035-13.831-3.083-20.441C456.285,352.365,478.75,326.767,478.75,296.25z"/>
	<path d="M420.859,335.582c0.083,0,0.167-0.002,0.251-0.007c20.791-1.21,37.078-18.483,37.078-39.325c0-2.348-1.903-4.25-4.25-4.25
		c-2.347,0-4.25,1.902-4.25,4.25c0,16.345-12.77,29.891-29.072,30.839c-2.343,0.137-4.132,2.147-3.996,4.49
		C416.751,333.837,418.624,335.582,420.859,335.582z"/>
	<path d="M351.5,128.557c-32.942,0-59.743,26.801-59.743,59.743c0,2.348,1.903,4.25,4.25,4.25s4.25-1.902,4.25-4.25
		c0-28.256,22.988-51.243,51.243-51.243c28.255,0,51.243,22.987,51.243,51.243c0,10.574-3.207,20.735-9.276,29.385
		c-1.348,1.922-0.883,4.572,1.038,5.921c0.743,0.521,1.594,0.771,2.437,0.771c1.338,0,2.656-0.63,3.483-1.809
		c7.077-10.088,10.818-21.937,10.818-34.268C411.243,155.358,384.442,128.557,351.5,128.557z"/>
	<path d="M357.781,412.793c-10.85,0-21.043-4.234-28.702-11.924c-1.657-1.663-4.347-1.668-6.011-0.012
		c-1.663,1.656-1.668,4.347-0.012,6.01c9.266,9.303,21.598,14.426,34.725,14.426c27.027,0,49.016-21.988,49.016-49.017
		c0-6.26-1.177-12.377-3.497-18.182c-0.872-2.18-3.345-3.242-5.524-2.368c-2.18,0.871-3.24,3.345-2.369,5.524
		c1.918,4.796,2.89,9.852,2.89,15.025C398.297,394.618,380.122,412.793,357.781,412.793z"/>
	<path d="M284.604,422.263c-0.542,17.614-14.772,31.411-32.398,31.411c-17.879,0-32.424-14.546-32.424-32.425
		c0-2.348-1.903-4.25-4.25-4.25c-2.347,0-4.25,1.902-4.25,4.25c0,22.566,18.358,40.925,40.924,40.925
		c22.248,0,40.21-17.416,40.894-39.649c0.072-2.347-1.771-4.307-4.117-4.379C286.612,418.08,284.676,419.917,284.604,422.263z"/>
	<path d="M139.226,316.381c0-2.348-1.903-4.25-4.25-4.25c-2.347,0-4.25,1.902-4.25,4.25c0,31.05,25.261,56.311,56.311,56.311
		c2.347,0,4.25-1.902,4.25-4.25c0-2.348-1.903-4.25-4.25-4.25C160.674,364.192,139.226,342.745,139.226,316.381z"/>
	<path d="M265.94,261.394c-5.457,5.653-5.298,14.692,0.355,20.149l37.412,36.115c2.67,2.578,6.185,3.998,9.896,3.998
		c3.902,0,7.544-1.547,10.253-4.353l4.862-5.035c2.644-2.739,4.063-6.343,3.996-10.148c-0.067-3.806-1.612-7.357-4.351-10.001
		l-37.412-36.116c-2.671-2.578-6.185-3.998-9.896-3.998c-3.902,0-7.544,1.547-10.253,4.353L265.94,261.394z M276.917,262.261
		c1.093-1.133,2.563-1.757,4.138-1.757c1.497,0,2.915,0.573,3.993,1.613l37.412,36.116c1.105,1.066,1.729,2.5,1.755,4.035
		c0.027,1.536-0.545,2.99-1.612,4.095l-4.863,5.036c-1.093,1.133-2.563,1.757-4.138,1.757c-1.497,0-2.915-0.573-3.993-1.613
		l-37.412-36.115c-2.281-2.202-2.345-5.85-0.143-8.13L276.917,262.261z"/>
	<path d="M247.681,338.431c-1.556-1.757-4.243-1.918-6-0.363c-1.757,1.557-1.92,4.242-0.364,6
		c20.75,23.427,42.747,27.802,56.288,27.802c7.614,0,12.556-1.385,13.093-1.543c2.252-0.662,3.54-3.024,2.878-5.276
		c-0.662-2.252-3.024-3.543-5.276-2.878C307.988,362.265,276.557,371.035,247.681,338.431z"/>
	<path d="M277.799,211.001c-2.252,0.662-3.54,3.024-2.878,5.276c0.662,2.252,3.022,3.542,5.276,2.878
		c0.314-0.091,31.744-8.861,60.619,23.741c0.84,0.948,2.009,1.432,3.183,1.432c1.002,0,2.008-0.353,2.816-1.068
		c1.757-1.557,1.92-4.242,0.364-6C314.762,200.66,279.292,210.56,277.799,211.001z"/>
</g>
<g>
</g>
<g>
</g>
<g>
</g>
<g>
</g>
<g>
</g>
<g>
</g>
<g>
</g>
<g>
</g>
<g>
</g>
<g>
</g>
<g>
</g>
<g>
</g>
<g>
</g>
<g>
</g>
<g>
</g>
</svg>
