<?xml version="1.0" encoding="iso-8859-1"?>
<!-- Generator: Adobe Illustrator 18.0.0, SVG Export Plug-In . SVG Version: 6.00 Build 0)  -->
<!DOCTYPE svg PUBLIC "-//W3C//DTD SVG 1.1//EN" "http://www.w3.org/Graphics/SVG/1.1/DTD/svg11.dtd">
<svg version="1.1" id="Capa_1" xmlns="http://www.w3.org/2000/svg" xmlns:xlink="http://www.w3.org/1999/xlink" x="0px" y="0px" fill="#8c8c8c"
	 viewBox="0 0 488.953 488.953" style="enable-background:new 0 0 488.953 488.953;" xml:space="preserve">
<g>
	<path d="M47.602,194.322c-13.036,0-23.247,15.532-23.247,35.36s10.211,35.36,23.247,35.36c13.036,0,23.247-15.532,23.247-35.36
		S60.638,194.322,47.602,194.322z M47.602,256.542c-7.994,0-14.747-12.3-14.747-26.86c0-14.56,6.753-26.86,14.747-26.86
		c7.994,0,14.747,12.3,14.747,26.86C62.349,244.242,55.596,256.542,47.602,256.542z"/>
	<path d="M224.114,81.215c-2.347,0-4.25,1.903-4.25,4.25c0,2.347,1.903,4.25,4.25,4.25c77.178,0,139.967,62.789,139.967,139.967
		c0,2.347,1.903,4.25,4.25,4.25c2.347,0,4.25-1.903,4.25-4.25C372.581,147.817,305.978,81.215,224.114,81.215z"/>
	<path d="M486.912,391.196c-35.176-21.411-56.414-48.874-68.644-70.096c12.296-27.633,19.878-61.021,19.878-91.418
		c0-57.375-22.343-111.317-62.914-151.888C334.662,37.223,280.72,14.88,223.344,14.88c-39.249,0-75.574,10.173-107.963,30.235
		c-30.502,18.892-58.517,50.453-77,83.567c-0.133,0.238-0.207,0.425-0.24,0.578c-4.634,5.259-8.812,10.671-12.421,16.184
		C8.248,172.136-0.633,202.828,0.035,234.202c0.8,37.595,15.006,72.464,39.542,100.499c19.568,29.729,49.749,62.04,78.84,79.711
		c32.387,19.673,68.67,30.072,104.927,30.072c0.003,0,0,0,0.002,0c45.159,0,88.371-13.856,124.959-40.068
		c20.865,12.723,52.046,34.979,80.614,68.102c0.865,1.003,2.059,1.554,3.288,1.554c0.948,0,1.903-0.316,2.693-0.964
		c1.814-1.489,2.079-4.167,0.59-5.981c-40.15-48.934-86.898-73.801-102.701-81.279c11.458-7.998,22-17.22,31.432-27.48
		l99.455,100.938c0.832,0.844,1.929,1.267,3.027,1.267c1.077,0,2.155-0.407,2.983-1.223c1.672-1.647,1.692-4.338,0.044-6.01
		l-99.885-101.375c5.435-6.466,10.45-13.294,14.999-20.448l27.867,35.298c0.839,1.063,2.082,1.617,3.339,1.617
		c0.922,0,1.851-0.299,2.63-0.914c1.842-1.455,2.157-4.127,0.703-5.969l-29.849-37.809c3.77-6.604,7.156-13.453,10.127-20.519
		c7.175,18.867,28.654,62.259,82.83,95.236c0.69,0.42,1.453,0.62,2.206,0.62c1.434,0,2.834-0.726,3.634-2.04
		C489.553,395.031,488.917,392.417,486.912,391.196z M85.018,99.721c-16.607,17.738-29.667,38.515-38.515,61.45
		c-8.376,2.986-15.988,9.677-22.045,19.596c-8.019,13.132-12.435,30.503-12.435,48.915s4.416,35.784,12.435,48.916
		c6.057,9.918,13.669,16.61,22.045,19.596c9.777,25.343,24.7,48.048,43.865,66.934C40.396,336.508,9.687,288.223,8.533,234.021
		C7.368,179.308,35.501,130.725,85.018,99.721z M81.491,185.196c7.216,11.817,11.19,27.615,11.19,44.486s-3.974,32.669-11.19,44.486
		c-6.815,11.162-15.654,17.309-24.889,17.309c-9.235,0-18.074-6.147-24.89-17.309c-7.215-11.816-11.189-27.615-11.189-44.486
		s3.974-32.669,11.189-44.486c6.815-11.162,15.655-17.309,24.89-17.309C65.837,167.887,74.676,174.034,81.491,185.196z
		 M114.634,385.389c32.154,22.653,70.004,34.628,109.479,34.628c36.773,0,71.137-10.494,100.274-28.628
		c1.325,0.6,7.127,3.306,15.878,8.287c-34.47,23.767-74.811,36.31-116.922,36.309c-57.184,0-113.617-27.718-153.59-73.995
		C82.549,371.162,99.005,379.225,114.634,385.389z M224.114,411.516c-73.104,0-139.612-44.536-167.74-111.549
		c0.077,0.001,0.152,0.009,0.229,0.009c8.959,0,17.439-4.04,24.639-11.544h81.806c2.347,0,4.25-1.903,4.25-4.25
		c0-2.347-1.903-4.25-4.25-4.25H87.889c0.286-0.444,0.578-0.877,0.857-1.335c7.398-12.116,11.721-27.844,12.347-44.666h97.124
		c2.347,0,4.25-1.903,4.25-4.25c0-2.347-1.903-4.25-4.25-4.25h-97.124c-0.614-16.519-4.802-31.975-11.96-44h24.915
		c2.347,0,4.25-1.903,4.25-4.25c0-2.347-1.903-4.25-4.25-4.25H83.059c-7.571-8.788-16.731-13.544-26.457-13.544
		c-0.077,0-0.152,0.008-0.229,0.009C84.501,92.384,151.01,47.847,224.114,47.847c100.264,0,181.834,81.571,181.834,181.835
		S324.377,411.516,224.114,411.516z M414.448,229.682c0-104.951-85.384-190.335-190.334-190.335
		c-39.566,0-77.5,12.027-109.702,34.781c-1.03,0.728-2.05,1.465-3.063,2.211c-17.361,7.867-34.407,18.306-49.396,30.353
		c38.294-53.259,95.86-83.313,161.391-83.313c113.755,0,206.302,92.547,206.302,206.302c0,28.33-5.634,55.715-16.723,81.465
		c-4.655-9.335-7.297-16.633-8.522-20.399C410.914,271.571,414.448,251.032,414.448,229.682z"/>
	<path d="M271.713,225.432h-44.998c-2.347,0-4.25,1.903-4.25,4.25c0,2.347,1.903,4.25,4.25,4.25h44.998
		c2.347,0,4.25-1.903,4.25-4.25C275.963,227.335,274.06,225.432,271.713,225.432z"/>
</g>
<g>
</g>
<g>
</g>
<g>
</g>
<g>
</g>
<g>
</g>
<g>
</g>
<g>
</g>
<g>
</g>
<g>
</g>
<g>
</g>
<g>
</g>
<g>
</g>
<g>
</g>
<g>
</g>
<g>
</g>
</svg>
