<?xml version="1.0" encoding="iso-8859-1"?>
<!-- Generator: Adobe Illustrator 18.0.0, SVG Export Plug-In . SVG Version: 6.00 Build 0)  -->
<!DOCTYPE svg PUBLIC "-//W3C//DTD SVG 1.1//EN" "http://www.w3.org/Graphics/SVG/1.1/DTD/svg11.dtd">
<svg version="1.1" id="Capa_1" xmlns="http://www.w3.org/2000/svg" xmlns:xlink="http://www.w3.org/1999/xlink" x="0px" y="0px" fill="#8c8c8c"
	 viewBox="0 0 478.588 478.588" style="enable-background:new 0 0 478.588 478.588;" xml:space="preserve">
<g>
	<path d="M382.067,108.468c-15.649-28.271-23.768-61.677-24.132-99.29c-0.023-2.347-1.966-4.21-4.291-4.209
		c-2.348,0.023-4.232,1.944-4.209,4.291c0.378,39.041,8.854,73.804,25.195,103.325c4.572,8.259,8.842,16.281,12.783,24.24h-55.415
		c-2.347,0-4.25,1.903-4.25,4.25c0,2.347,1.903,4.25,4.25,4.25h59.505c3.552,7.617,6.789,15.232,9.686,22.999h-54.191
		c-2.347,0-4.25,1.903-4.25,4.25c0,2.347,1.903,4.25,4.25,4.25h29.186c0.021,0.371,0.07,0.744,0.193,1.114
		c8.002,24.117,12.17,48.707,13.118,77.386c0.076,2.298,1.963,4.109,4.245,4.109c0.048,0,0.096-0.001,0.144-0.002
		c2.346-0.078,4.185-2.042,4.106-4.388c-0.955-28.901-5.112-53.806-13.044-78.219h19.25
		c20.692,61.764,19.915,136.199-15.132,296.606c-0.502,2.293,0.951,4.558,3.244,5.059c0.306,0.067,0.611,0.099,0.911,0.099
		c1.955,0,3.714-1.356,4.148-3.344C445.471,255.085,429.645,194.416,382.067,108.468z"/>
	<path d="M393.492,288.628c-2.341-0.117-4.345,1.676-4.469,4.02c-2.437,46.116-11.431,103.561-28.303,180.783
		c-0.502,2.293,0.951,4.558,3.244,5.059c0.306,0.067,0.611,0.099,0.911,0.099c1.955,0,3.714-1.356,4.148-3.344
		c16.974-77.683,26.025-135.562,28.487-182.149C397.636,290.752,395.836,288.751,393.492,288.628z"/>
	<path d="M136.311,106.808c-2.054-1.138-4.641-0.394-5.776,1.66c-30.336,54.8-45.536,95.58-44.425,166.386
		c0.036,2.324,1.932,4.183,4.248,4.183c0.023,0,0.045,0,0.068-0.001c2.347-0.037,4.219-1.969,4.183-4.316
		c-1.081-68.89,13.755-108.65,43.362-162.136C139.108,110.531,138.365,107.945,136.311,106.808z"/>
	<path d="M280.049,277.221c-0.156,0.186-15.94,18.575-38.563,19.274c-14.72,0.455-29.227-6.68-43.119-21.205
		c-1.622-1.696-4.313-1.756-6.009-0.134c-1.696,1.622-1.757,4.313-0.134,6.009c10.339,10.81,21.128,17.97,32.235,21.429
		c-0.604,9.64-5.742,88.316-17.251,168.875c-0.331,2.324,1.283,4.477,3.607,4.809c0.204,0.029,0.406,0.043,0.606,0.043
		c2.081,0,3.899-1.53,4.202-3.649c11.119-77.832,16.316-153.937,17.233-168.191c2.415,0.343,4.841,0.536,7.281,0.536
		c0.535,0,1.074-0.008,1.61-0.025c1.358-0.042,2.688-0.148,4-0.29c0.953,14.778,6.154,90.514,17.219,167.97
		c0.304,2.12,2.121,3.649,4.202,3.649c0.2,0,0.403-0.014,0.606-0.043c2.324-0.332,3.939-2.485,3.607-4.809
		c-11.322-79.258-16.48-156.721-17.218-168.359c19.37-5.26,31.762-19.674,32.379-20.404c1.515-1.794,1.289-4.475-0.505-5.989
		C284.246,275.201,281.564,275.427,280.049,277.221z"/>
	<path d="M238.113,210.841c2.347,0,4.25-1.903,4.25-4.25v-14.456c0-2.347-1.903-4.25-4.25-4.25c-2.348,0-4.25,1.903-4.25,4.25
		v14.456C233.863,208.938,235.765,210.841,238.113,210.841z"/>
	<path d="M174.507,89.926H114.54c3.783-9.715,6.829-19.891,9.147-30.498h49.319c2.348,0,4.25-1.903,4.25-4.25
		c0-2.347-1.902-4.25-4.25-4.25h-47.635c2.634-14.8,3.916-30.382,3.785-46.712C129.138,1.88,127.239,0,124.908,0
		c-0.012,0-0.023,0-0.035,0c-2.347,0.019-4.234,1.937-4.216,4.284c0.318,39.625-7.802,74.677-24.136,104.184
		c-47.578,85.948-63.404,146.616-15.302,366.777c0.435,1.987,2.193,3.344,4.148,3.344c0.3,0,0.605-0.032,0.911-0.099
		c2.293-0.501,3.745-2.766,3.244-5.059c-47.482-217.328-32.065-276.846,14.435-360.845c2.541-4.59,4.867-9.321,7.026-14.159h63.522
		c2.348,0,4.25-1.903,4.25-4.25C178.757,91.829,176.854,89.926,174.507,89.926z"/>
</g>
<g>
</g>
<g>
</g>
<g>
</g>
<g>
</g>
<g>
</g>
<g>
</g>
<g>
</g>
<g>
</g>
<g>
</g>
<g>
</g>
<g>
</g>
<g>
</g>
<g>
</g>
<g>
</g>
<g>
</g>
</svg>
