<?xml version="1.0" encoding="iso-8859-1"?>
<!-- Generator: Adobe Illustrator 18.0.0, SVG Export Plug-In . SVG Version: 6.00 Build 0)  -->
<!DOCTYPE svg PUBLIC "-//W3C//DTD SVG 1.1//EN" "http://www.w3.org/Graphics/SVG/1.1/DTD/svg11.dtd">
<svg version="1.1" id="Capa_1" xmlns="http://www.w3.org/2000/svg" xmlns:xlink="http://www.w3.org/1999/xlink" x="0px" y="0px" fill="#8c8c8c"
	 viewBox="0 0 485.009 485.009" style="enable-background:new 0 0 485.009 485.009;" xml:space="preserve">
<g>
	<path d="M418.874,41.136c-2.042-1.156-4.636-0.439-5.793,1.603c-1.157,2.042-0.439,4.636,1.603,5.793
		c19.905,11.28,22.08,42.558,22,56.659c-22.401-13.486-59.206-32.679-60.913-33.567c-0.207-0.107-0.422-0.198-0.644-0.271
		c-36.845-12.031-75.252-1.835-111.07,29.488c-3.612,3.158-7.114,6.316-10.502,9.37c-24.376,21.978-47.399,42.737-121.177,75.896
		C50.652,222.838,0,259.062,0,326.061c0,32.473,11.644,62.492,32.789,84.529c20.934,21.819,49.122,33.835,79.369,33.835
		c49.265,0,97.399-35.217,111.982-81.978c0.255-0.864,26.011-86.972,65.095-134.431c23.379-28.389,30.925-49.492,32.413-64.727
		c2.309-23.632,11.4-44.117,21.254-50.822c4.025-2.74,8.175-3.522,12.686-2.396c16.323,4.08,65.643,35.437,76.039,42.119v284.163
		c0,2.347,1.903,4.25,4.25,4.25c2.347,0,4.25-1.903,4.25-4.25V149.876c0-1.438-0.727-2.777-1.932-3.562
		c-2.481-1.615-60.982-39.599-80.546-44.488c-6.804-1.702-13.557-0.451-19.53,3.614c-9.07,6.173-16.367,18.938-20.921,36.139
		c-2.575-4.71-5.808-8.055-8.49-10.264c-1.812-1.493-4.491-1.233-5.983,0.579c-1.492,1.811-1.233,4.49,0.579,5.982
		c12.676,10.439,13.219,28.101,2.261,50.471c-0.003,0-0.005-0.001-0.007-0.001h-44c-2.347,0-4.25,1.902-4.25,4.25
		c0,2.347,1.903,4.25,4.25,4.25h39.417c-4.756,8.102-10.853,16.72-18.303,25.767c-34.314,41.667-57.861,109.713-64.668,130.936
		h-48.467c-2.347,0-4.25,1.902-4.25,4.25c0,2.347,1.903,4.25,4.25,4.25h45.771c-3.164,9.374-7.784,18.221-13.557,26.318h-80.24
		c-2.347,0-4.25,1.902-4.25,4.25c0,2.347,1.903,4.25,4.25,4.25h73.548c-20.645,23.662-51.524,39.057-82.902,39.057
		c-27.91,0-53.919-11.087-73.235-31.22C19.304,384.259,8.5,356.33,8.5,326.061c0-10.272,1.247-19.836,3.793-28.845l104.417-0.001
		c2.347,0,4.25-1.902,4.25-4.25c0-2.347-1.903-4.25-4.25-4.25l-101.563,0.001c4.169-10.66,10.348-20.55,18.647-29.947
		c0.09,0.006,0.175,0.026,0.266,0.026h130.676c2.347,0,4.25-1.902,4.25-4.25c0-2.347-1.903-4.25-4.25-4.25H41.981
		c19.654-18.672,48.76-36.155,93.881-56.436c74.995-33.705,99.595-55.886,123.385-77.335c3.364-3.033,6.842-6.169,10.406-9.285
		c33.805-29.563,68.291-38.954,102.504-27.914c4.075,2.129,46.505,24.353,66.214,36.895c1.25,0.795,2.823,0.883,4.153,0.23
		c1.33-0.651,2.224-1.949,2.361-3.424C445.089,110.81,449.559,58.525,418.874,41.136z"/>
	<path d="M57.362,384.988c-14.692-15.313-22.784-36.239-22.784-58.927c0-2.347-1.903-4.25-4.25-4.25s-4.25,1.903-4.25,4.25
		c0,24.892,8.932,47.908,25.15,64.811c16.071,16.75,37.709,25.974,60.928,25.974c2.347,0,4.25-1.902,4.25-4.25
		c0-2.347-1.903-4.25-4.25-4.25C91.275,408.346,71.815,400.051,57.362,384.988z"/>
	<path d="M480.759,43.45c-2.347,0-4.25,1.902-4.25,4.25v392.475c0,2.348,1.903,4.25,4.25,4.25c2.347,0,4.25-1.902,4.25-4.25V47.7
		C485.009,45.352,483.106,43.45,480.759,43.45z"/>
	<path d="M461.292,271.907c-2.347,0-4.25,1.902-4.25,4.25v145.277c0,2.347,1.903,4.25,4.25,4.25c2.347,0,4.25-1.903,4.25-4.25
		V276.157C465.542,273.809,463.639,271.907,461.292,271.907z"/>
</g>
<g>
</g>
<g>
</g>
<g>
</g>
<g>
</g>
<g>
</g>
<g>
</g>
<g>
</g>
<g>
</g>
<g>
</g>
<g>
</g>
<g>
</g>
<g>
</g>
<g>
</g>
<g>
</g>
<g>
</g>
</svg>
