<?xml version="1.0" encoding="iso-8859-1"?>
<!-- Generator: Adobe Illustrator 18.0.0, SVG Export Plug-In . SVG Version: 6.00 Build 0)  -->
<!DOCTYPE svg PUBLIC "-//W3C//DTD SVG 1.1//EN" "http://www.w3.org/Graphics/SVG/1.1/DTD/svg11.dtd">
<svg version="1.1" id="Capa_1" xmlns="http://www.w3.org/2000/svg" xmlns:xlink="http://www.w3.org/1999/xlink" x="0px" y="0px" fill="#8c8c8c"
	 viewBox="0 0 498.059 498.059" style="enable-background:new 0 0 498.059 498.059;" xml:space="preserve">
<g>
	<path d="M359.762,347.816c-24.747,4.813-46.411,0.112-64.384-13.97c-7.369-5.774-12.597-12.038-15.844-16.571
		c18.87-0.213,36.314-7.382,64.458-34.489c21.355-20.569,23.402-43.834,18.197-58.748c-4.101-11.749-12.883-19.642-22.918-20.599
		c-14.476-1.376-17.227,10.664-19.885,22.312c-2.344,10.27-5.261,23.052-15.784,33.137c-5.394,5.168-11.19,7.593-17.699,7.423
		c-10.63-0.282-20.326-7.577-24.791-11.5c16.312-8.259,31.784-22.619,36.609-38.645c7.251-24.078-16.87-48.077-24.565-54.973
		c1.564-5.341,4.349-17.557,2.696-32.676c-2.019-18.463-11.307-44.88-44.085-65.885C199.258,41.8,152.874,40.329,113.6,58.887
		c-36.825,17.399-60.53,49.167-65.039,87.157c-6.41,53.998,30.323,78.231,59.838,97.704c18.359,12.112,34.214,22.572,34.864,36.898
		c1.612,35.545,14.286,71.99,35.687,102.62c23.421,33.522,55.903,58.542,93.936,72.355c10.969,3.984,21.159,5.752,30.668,5.752
		c44.05,0,73.484-37.956,97.991-69.557c10.09-13.011,19.619-25.3,29.07-33.677c25.082-22.235,31.257-52.164,28.672-72.758
		c-1.904-15.167-8.459-27.012-17.536-31.686c-18.585-9.572-34.669,8.016-40.576,18.655c-0.546,0.984-0.678,2.148-0.371,3.23
		c0.081,0.285,7.939,28.684-5.116,49.938C388.604,337.056,376.516,344.558,359.762,347.816z M409.453,275.092
		c3.152-4.921,14.735-20.881,28.408-13.84c6.483,3.339,11.462,12.99,12.993,25.188c2.315,18.445-3.267,45.295-25.878,65.339
		c-10.042,8.902-19.808,21.496-30.148,34.829c-29.569,38.129-63.08,81.349-119.041,61.024
		c-81.784-29.703-121.225-105.464-124.033-167.371c-0.845-18.651-18.375-30.217-38.674-43.608
		c-20.234-13.349-42.335-27.954-51.891-52.127h80.763c2.347,0,4.25-1.903,4.25-4.25c0-2.347-1.903-4.25-4.25-4.25H58.465
		c-1.861-7.499-2.576-15.847-1.823-25.23h28.654c2.347,0,4.25-1.903,4.25-4.25c0-2.347-1.903-4.25-4.25-4.25H57.693
		c5.505-32.914,26.973-60.337,59.537-75.723c17.226-8.139,35.871-12.177,53.927-12.177c20.404,0,40.055,5.161,56.024,15.395
		c23.917,15.327,37.435,35.273,40.18,59.285c2.064,18.058-3.04,31.847-3.089,31.977c-0.655,1.716-0.134,3.659,1.292,4.816
		c0.309,0.251,30.801,25.328,24.02,47.848c-7.202,23.915-42.33,42.467-58.639,39.67c-2.316-0.394-4.51,1.158-4.907,3.471
		c-0.396,2.314,1.158,4.51,3.471,4.907c6.601,1.131,14.756-0.151,23.137-3.246c2.352,2.409,16.18,15.817,32.982,16.289
		c8.797,0.227,16.824-3.044,23.855-9.782c12.363-11.848,15.73-26.606,18.189-37.382c2.987-13.091,4.432-16.348,10.79-15.741
		c6.691,0.638,12.707,6.362,15.7,14.939c4.337,12.427,2.393,32.041-16.068,49.824c-32.896,31.686-48.772,33.179-66.111,31.84
		c-1.526-0.125-3.001,0.596-3.855,1.868c-0.854,1.272-0.958,2.906-0.27,4.275c0.281,0.56,7.058,13.856,21.972,25.65
		c3.367,2.662,7.323,5.364,11.871,7.834h-43.23c-2.347,0-4.25,1.903-4.25,4.25s1.903,4.25,4.25,4.25h67.226
		c10.27,1.92,22.146,2.161,35.686-0.472c19.212-3.736,33.202-12.566,41.582-26.246C416.06,308.537,411.157,282.279,409.453,275.092z
		"/>
	<path d="M213.091,81.378c-16.235-10.405-37.832-13.889-59.249-9.557c-21.578,4.362-40.666,16.262-52.371,32.649
		c-1.364,1.91-0.922,4.564,0.988,5.929c0.749,0.535,1.612,0.792,2.467,0.792c1.326,0,2.632-0.619,3.462-1.78
		c21.807-30.529,69.527-40.479,100.117-20.876c1.975,1.266,4.604,0.691,5.871-1.285C215.642,85.273,215.067,82.644,213.091,81.378z"
		/>
	<path d="M405.892,156.126c43.186-35.677,69.712-85.675,78.88-148.709c0.339-2.323-1.27-4.479-3.593-4.817
		c-2.32-0.338-4.48,1.271-4.817,3.594c-9.142,62.848-36.051,112.197-79.979,146.678c-1.04,0.817-1.642,2.072-1.626,3.394
		c0.015,1.323,0.647,2.563,1.707,3.355c12.446,9.295,23.542,19.446,33.234,30.302h-54.708c-2.347,0-4.25,1.903-4.25,4.25
		c0,2.347,1.903,4.25,4.25,4.25h61.892c25.536,31.947,39.44,69.368,39.934,109.041c0.683,54.918-25.268,108.431-69.42,143.147
		c-92.664,72.863-230.251,41.701-320.04-72.486c-7.405-9.417-14.215-19.1-20.434-28.975H91.71c2.347,0,4.25-1.903,4.25-4.25
		c0-2.347-1.903-4.25-4.25-4.25H61.744c-7.416-12.604-13.858-25.492-19.293-38.535h48.19c2.347,0,4.25-1.903,4.25-4.25
		c0-2.347-1.903-4.25-4.25-4.25H39.069c-15.255-40.033-21.011-81.249-16.067-119.975c6.551-51.31,30.531-94.043,69.347-123.579
		c44.578-33.921,83.568-43.664,122.704-30.659c35.996,11.961,68.696,41.121,106.559,74.884c2.962,2.641,5.95,5.305,8.962,7.98
		H292.68c-2.347,0-4.25,1.903-4.25,4.25c0,2.347,1.903,4.25,4.25,4.25h47.515c6.945,6.097,14.044,12.227,21.348,18.313
		c1.456,1.213,3.54,1.316,5.107,0.251c39.648-26.904,66.234-68.665,79.02-124.125c0.527-2.287-0.899-4.569-3.187-5.096
		c-2.284-0.524-4.568,0.9-5.096,3.187c-12.001,52.056-36.516,91.463-72.881,117.18c-12.929-10.859-25.274-21.867-37.237-32.534
		c-38.567-34.391-71.874-64.091-109.536-76.606C175.696-2.633,134.216,7.52,87.201,43.295
		c-20.364,15.496-36.98,34.695-49.387,57.064c-12.089,21.797-19.91,46.089-23.244,72.204c-4.335,33.953-1.01,69.297,9.882,105.05
		c11.307,37.115,30.223,72.7,56.223,105.764c45.244,57.538,104.247,96.498,166.139,109.701c15.627,3.334,31.107,4.981,46.273,4.98
		c44.062-0.001,85.411-13.912,119.564-40.768c22.88-17.991,41.606-41.241,54.15-67.235c12.464-25.829,18.867-54.426,18.516-82.699
		C484.593,249.13,456.436,195.618,405.892,156.126z"/>
	<path d="M387.151,437.009c-77.403,60.862-192.371,34.779-267.428-60.673c-1.45-1.845-4.122-2.164-5.968-0.714
		c-1.845,1.451-2.164,4.123-0.714,5.968c38.042,48.378,87.663,81.138,139.724,92.244c13.154,2.806,26.185,4.192,38.95,4.192
		c37.104,0,71.925-11.717,100.69-34.335c1.845-1.451,2.165-4.123,0.714-5.968C391.669,435.879,388.996,435.559,387.151,437.009z"/>
</g>
<g>
</g>
<g>
</g>
<g>
</g>
<g>
</g>
<g>
</g>
<g>
</g>
<g>
</g>
<g>
</g>
<g>
</g>
<g>
</g>
<g>
</g>
<g>
</g>
<g>
</g>
<g>
</g>
<g>
</g>
</svg>
