<?xml version="1.0" encoding="iso-8859-1"?>
<!-- Generator: Adobe Illustrator 18.0.0, SVG Export Plug-In . SVG Version: 6.00 Build 0)  -->
<!DOCTYPE svg PUBLIC "-//W3C//DTD SVG 1.1//EN" "http://www.w3.org/Graphics/SVG/1.1/DTD/svg11.dtd">
<svg version="1.1" id="Capa_1" xmlns="http://www.w3.org/2000/svg" xmlns:xlink="http://www.w3.org/1999/xlink" x="0px" y="0px" fill="#8c8c8c"
	 viewBox="0 0 487.142 487.142" style="enable-background:new 0 0 487.142 487.142;" xml:space="preserve">
<g>
	<path d="M486.3,86.234c-0.733-0.984-1.855-1.604-3.079-1.699c-0.261-0.02-26.478-2.025-63.863-2.025
		c-34.312,0-85.334,1.735-134.064,9.968c-9.35-2.454-88.151-22.568-156.677-22.568c-44.511,0-76.026,8.399-93.672,24.964
		c-13.944,13.09-23.875,31.286-29.518,54.084c-4.988,20.15-6.548,43.411-4.638,69.136c3.389,45.626,17.935,96.018,37.963,131.51
		c25.678,45.506,47.242,67.627,65.925,67.628l0,0c5.448,0,10.578-1.876,15.246-5.577c14.87-11.788,23.384-25.542,32.397-40.104
		c16.967-27.414,37.627-60.775,112.448-96.414c4.471,5.855,22.657,30.774,26.133,52.87c0.327,2.081,2.122,3.59,4.194,3.59
		c0.118,0,0.237-0.005,0.356-0.015l24.936-2.08c2.227-0.186,3.929-2.063,3.896-4.296c-0.021-1.466-0.631-35.921-10.661-67.725
		c15.752-4.275,39.852-12.374,65.511-26.747c25.535-14.303,47.225-31.87,64.467-52.212c21.598-25.48,36.215-55.375,43.446-88.853
		C487.305,88.471,487.033,87.218,486.3,86.234z M296.592,233.846c-1.236-9.916-3.152-22.426-6.101-36.455
		c-6.104-29.05-17.907-69.777-39.931-104.27c15.6,3.279,26.948,6.122,31.376,7.266C286.386,111.967,308.429,173.838,296.592,233.846
		z M145.092,367.077c-8.984,14.516-16.744,27.053-30.449,37.916c-3.173,2.516-6.433,3.739-9.965,3.739h-0.001
		c-10.401,0-28.998-10.983-58.522-63.304c-3.929-6.963-7.636-14.528-11.086-22.521h85.788c2.348,0,4.25-1.903,4.25-4.25
		s-1.902-4.25-4.25-4.25H31.562c-11.75-29.823-19.893-64.59-22.296-96.942c-3.887-52.34,7.299-93.676,31.497-116.393
		C56.781,86.035,86.339,78.41,128.618,78.41c38.156,0,79.624,6.355,110.117,12.313c42.255,60.236,50.178,146.953,51.349,163.966
		C189.052,296.075,164.691,335.412,145.092,367.077z M315.643,321.369l-17.081,1.424c-4.726-21.536-20.059-43.517-25.904-51.329
		c7.369-3.599,13.23-6.822,23.119-9.474c2.155-0.578,4.552-1.233,9.596-2.417C313.218,284.198,315.174,311.377,315.643,321.369z
		 M469.746,118.193H365.187c-2.347,0-4.25,1.903-4.25,4.25s1.903,4.25,4.25,4.25H466.24c-3.027,6.892-6.436,13.558-10.228,19.993
		c-0.035-0.001-0.067-0.01-0.103-0.01h-47.472c-2.347,0-4.25,1.903-4.25,4.25c0,2.347,1.903,4.25,4.25,4.25h42.266
		c-18.007,27.143-43.225,49.894-75.479,68.005c-31.534,17.708-61.288,25.74-74.387,28.681c11.388-37.344,8.141-76.486,3.166-103.441
		c-4.173-22.607-10.045-40.112-13.055-48.258c46.856-7.536,95.417-9.153,128.408-9.153c27.629,0,49.07,1.102,58.284,1.67
		C475.529,101.486,472.894,109.991,469.746,118.193z"/>
	<path d="M163.806,106.679c-46.37-1.947-78.631,5.279-95.886,21.478C40.145,154.231,36.187,197.48,37.757,229.17
		c0.112,2.272,1.99,4.039,4.241,4.039c0.071,0,0.143-0.002,0.214-0.005c2.345-0.116,4.15-2.111,4.034-4.455
		c-1.481-29.898,2.085-70.545,27.491-94.396c15.527-14.576,45.711-21.028,89.712-19.182c2.343,0.091,4.326-1.723,4.424-4.068
		C167.972,108.758,166.151,106.777,163.806,106.679z"/>
	<path d="M256.004,181.488h-50.637c-2.347,0-4.25,1.903-4.25,4.25c0,2.347,1.903,4.25,4.25,4.25h50.637
		c2.347,0,4.25-1.903,4.25-4.25C260.254,183.391,258.351,181.488,256.004,181.488z"/>
</g>
<g>
</g>
<g>
</g>
<g>
</g>
<g>
</g>
<g>
</g>
<g>
</g>
<g>
</g>
<g>
</g>
<g>
</g>
<g>
</g>
<g>
</g>
<g>
</g>
<g>
</g>
<g>
</g>
<g>
</g>
</svg>
