<?xml version="1.0" encoding="iso-8859-1"?>
<!-- Generator: Adobe Illustrator 18.0.0, SVG Export Plug-In . SVG Version: 6.00 Build 0)  -->
<!DOCTYPE svg PUBLIC "-//W3C//DTD SVG 1.1//EN" "http://www.w3.org/Graphics/SVG/1.1/DTD/svg11.dtd">
<svg version="1.1" id="Capa_1" xmlns="http://www.w3.org/2000/svg" xmlns:xlink="http://www.w3.org/1999/xlink" x="0px" y="0px" fill="#8c8c8c"
	 viewBox="0 0 493.19 493.19" style="enable-background:new 0 0 493.19 493.19;" xml:space="preserve">
<g>
	<path d="M451.664,481.143c-3.703-41.782-24.35-85.126-61.368-128.829c-29.525-34.856-61.656-60.514-75.377-71.47
		c-2.774-2.215-4.965-3.964-6.036-4.916c-10.278-9.135-11.677-29.225-11.764-30.67V48.898c0-11.124-9.05-20.174-20.174-20.174
		h-4.777c-11.124,0-20.175,9.05-20.175,20.174v196.333c-0.009,0.127-0.029,0.372-0.06,0.7c-9.09-9.597-10.378-28.004-10.462-29.394
		V20.175C241.472,9.051,232.421,0,221.296,0h-4.777c-11.123,0-20.172,9.051-20.172,20.175v196.333
		c-0.122,1.655-1.799,21.596-12.04,30.698c-1.07,0.951-3.26,2.7-6.034,4.915c-13.72,10.956-45.85,36.612-75.376,71.469
		c-37.019,43.703-57.667,87.048-61.37,128.831c-0.075,0.847,0.105,1.696,0.519,2.439c2.201,3.961,8.118,9.6,17.378,9.599
		c3.221,0,6.847-0.683,10.86-2.354c1.552-0.647,2.577-2.158,2.615-3.838c0.004-0.191,0.616-19.482,16.188-49.27
		c14.421-27.587,44.968-70.045,108.536-115.615c0.087-0.06,8.814-5.98,21.149-5.98c2.161,0,4.294,0.173,6.394,0.498
		c-16.102,13.14-42.242,35.636-66.618,64.413c-37.02,43.703-57.668,87.048-61.37,128.831c-0.075,0.847,0.105,1.696,0.519,2.439
		c0.218,0.392,5.475,9.607,17.375,9.607c3.445,0,7.1-0.795,10.863-2.363c1.551-0.646,2.576-2.158,2.614-3.838
		c0.004-0.191,0.617-19.482,16.188-49.27c14.421-27.586,44.968-70.045,108.536-115.615c0.073-0.05,6.227-4.206,15.474-5.554
		c46.901,40.513,70.473,76.786,81.993,100.172c12.579,25.534,13.901,41.605,13.913,41.753c0.112,1.605,1.12,3.009,2.605,3.628
		c4.015,1.672,7.64,2.354,10.861,2.354c9.259,0,15.178-5.638,17.378-9.599c0.413-0.743,0.593-1.592,0.518-2.439
		c-1.145-12.927-3.6-25.073-7.728-37.524c5.923,8.566,10.625,16.375,14.341,23.251c16.079,29.749,17.661,48.871,17.675,49.05
		c0.111,1.605,1.12,3.01,2.605,3.629c3.763,1.568,7.418,2.363,10.863,2.363c11.902,0,17.159-9.216,17.376-9.608
		C451.559,482.839,451.74,481.99,451.664,481.143z M260.494,48.898c0-6.438,5.237-11.674,11.675-11.674h4.777
		c6.437,0,11.674,5.237,11.674,11.674v1.935c0,6.438-5.238,11.675-11.675,11.675h-4.777c-6.437,0-11.674-5.237-11.674-11.675V48.898
		z M204.846,20.175c0-6.438,5.236-11.675,11.672-11.675h4.777c6.438,0,11.676,5.237,11.676,11.675v2.657
		c0,6.437-5.235,11.674-11.669,11.674h-4.778c-6.439,0-11.678-5.237-11.678-11.674V20.175z M233.558,281.136
		c-4.756-1.48-9.718-2.235-14.788-2.235c-14.952,0-25.532,7.177-26.038,7.527C127.366,333.287,96.001,377.172,81.2,405.736
		c-12.862,24.822-15.879,42.618-16.586,49.388c-8.453,2.564-12.886-1.46-14.481-3.454c3.117-31.609,16.25-63.917,39.226-96.686
		h20.002c2.347,0,4.25-1.903,4.25-4.25c0-2.347-1.903-4.25-4.25-4.25h-13.83c8.528-11.353,18.231-22.757,29.103-34.206h18.332
		c2.347,0,4.25-1.903,4.25-4.25c0-2.347-1.903-4.25-4.25-4.25h-10.055c9.723-9.741,20.284-19.512,31.686-29.306h14.074
		c2.347,0,4.25-1.903,4.25-4.25c0-2.347-1.903-4.25-4.25-4.25H174.7c1.939-1.6,3.899-3.201,5.883-4.802h43.595
		c2.347,0,4.25-1.903,4.25-4.25s-1.903-4.25-4.25-4.25h-33.28c12.406-12.069,13.884-34.782,13.941-35.767
		c0.005-0.083,0.008-0.166,0.008-0.249V39.254c1.998,1.425,4.264,2.485,6.709,3.108v47.695c0,2.347,1.903,4.25,4.25,4.25
		c2.347,0,4.25-1.903,4.25-4.25v-47.05h1.248c4.35,0,8.372-1.398,11.669-3.75v177.396c0,0.066,0.002,0.132,0.004,0.198
		c0.047,1.01,1.308,24.883,14.609,36.707c0.637,0.567,1.515,1.296,2.687,2.245c-1.609,6.739-4.65,15.09-10.315,20.126
		C238.888,276.881,236.331,278.922,233.558,281.136z M387.406,451.665c-1.628,2.031-6.1,6.054-14.611,3.419
		c-0.88-5.883-3.939-20.656-14.138-41.521c-11.206-22.924-33.499-57.747-76.753-96.747c8.389,1.545,13.494,5.165,13.533,5.193
		c32.177,24.073,55.901,47.154,73.36,67.641C379.149,410.653,385.41,431.504,387.406,451.665z M433.77,484.69
		c-1.661,0-3.444-0.295-5.323-0.88c-0.979-6.57-4.669-24.22-18-49.068c-15.251-28.427-46.701-72.242-109.935-119.551
		c-0.417-0.309-10.395-7.567-26.091-7.567c-14.953,0-25.532,7.178-26.038,7.528c-65.366,46.857-96.731,90.743-111.532,119.308
		c-12.864,24.825-15.88,42.622-16.586,49.39c-1.832,0.559-3.571,0.841-5.194,0.841c-5.071,0-8.054-2.817-9.285-4.32
		c6.142-62.19,51.028-127.078,133.442-192.884c2.983-2.382,5.139-4.104,6.377-5.204c13.279-11.805,14.823-35.647,14.882-36.656
		c0.005-0.083,0.007-0.166,0.007-0.249V67.257c3.299,2.352,7.322,3.751,11.674,3.751h4.777c4.352,0,8.375-1.399,11.675-3.752v178.12
		c0,0.066,0.002,0.132,0.004,0.198c0.047,1.011,1.309,24.883,14.612,36.707c1.238,1.101,3.395,2.823,6.378,5.206
		c82.413,65.807,127.299,130.689,133.44,192.878C441.82,481.866,438.824,484.69,433.77,484.69z"/>
	<path d="M215.805,107.707c-2.347,0-4.25,1.903-4.25,4.25v31.547c0,2.347,1.903,4.25,4.25,4.25c2.347,0,4.25-1.903,4.25-4.25
		v-31.547C220.055,109.61,218.152,107.707,215.805,107.707z"/>
	<path d="M215.805,191.02c-2.347,0-4.25,1.903-4.25,4.25v31.546c0,2.347,1.903,4.25,4.25,4.25c2.347,0,4.25-1.903,4.25-4.25V195.27
		C220.055,192.922,218.152,191.02,215.805,191.02z"/>
</g>
<g>
</g>
<g>
</g>
<g>
</g>
<g>
</g>
<g>
</g>
<g>
</g>
<g>
</g>
<g>
</g>
<g>
</g>
<g>
</g>
<g>
</g>
<g>
</g>
<g>
</g>
<g>
</g>
<g>
</g>
</svg>
