<?xml version="1.0" encoding="iso-8859-1"?>
<!-- Generator: Adobe Illustrator 18.0.0, SVG Export Plug-In . SVG Version: 6.00 Build 0)  -->
<!DOCTYPE svg PUBLIC "-//W3C//DTD SVG 1.1//EN" "http://www.w3.org/Graphics/SVG/1.1/DTD/svg11.dtd">
<svg version="1.1" id="Capa_1" xmlns="http://www.w3.org/2000/svg" xmlns:xlink="http://www.w3.org/1999/xlink" x="0px" y="0px" fill="#8c8c8c"
	 viewBox="0 0 460.501 460.501" style="enable-background:new 0 0 460.501 460.501;" xml:space="preserve">
<g>
	<path d="M379.933,323.125V149.25C379.933,66.954,312.98,0,230.683,0S81.433,66.954,81.433,149.25c0,2.347,1.903,4.25,4.25,4.25
		c2.347,0,4.25-1.903,4.25-4.25c0-77.61,63.14-140.75,140.75-140.75c77.61,0,140.75,63.14,140.75,140.75v174
		c0,0.087,0.003,0.176,0.008,0.263c0.017,0.274,1.577,27.778-7.761,57.321c-12.317,38.966-36.861,62.946-72.953,71.275
		c-2.287,0.528-3.713,2.81-3.185,5.097c0.454,1.965,2.203,3.296,4.137,3.296c0.316,0,0.638-0.036,0.959-0.11
		c38.758-8.944,66.153-35.654,79.224-77.242C381.367,352.909,380.072,325.569,379.933,323.125z"/>
	<path d="M230.683,19.87c-13.535,0-26.883,2.039-39.676,6.06c-2.239,0.704-3.484,3.09-2.78,5.329
		c0.704,2.239,3.088,3.484,5.329,2.78c11.967-3.761,24.459-5.669,37.128-5.669c68.2,0,123.685,55.485,123.685,123.686
		c0,2.347,1.903,4.25,4.25,4.25c2.347,0,4.25-1.903,4.25-4.25C362.868,79.168,303.57,19.87,230.683,19.87z"/>
	<path d="M123.157,82.577c-2.011-1.21-4.623-0.56-5.832,1.452c-12.316,20.48-18.826,44.003-18.826,68.027
		c0,2.347,1.903,4.25,4.25,4.25c2.347,0,4.25-1.903,4.25-4.25c0-22.48,6.089-44.489,17.61-63.647
		C125.818,86.398,125.168,83.786,123.157,82.577z"/>
	<path d="M309.465,303.5c2.347,0,4.25-1.903,4.25-4.25V169.295c0-45.723-37.199-82.922-82.922-82.923
		c-45.724,0-82.923,37.199-82.923,82.923c0,2.347,1.903,4.25,4.25,4.25c2.347,0,4.25-1.903,4.25-4.25
		c0-41.037,33.386-74.423,74.423-74.423c41.037,0,74.422,33.386,74.422,74.423V299.25C305.215,301.597,307.118,303.5,309.465,303.5z
		"/>
	<path d="M230.793,123.287c-30.021,0-54.446,24.424-54.446,54.446v95.518c0,0.082,0.003,0.17,0.007,0.252
		c0.014,0.242,1.266,24.385-11.305,37.709c-5.502,5.832-13.027,8.789-22.366,8.789c-2.347,0-4.25,1.903-4.25,4.25
		c0,2.347,1.903,4.25,4.25,4.25c11.788,0,21.403-3.865,28.578-11.487c14.698-15.614,13.71-41.505,13.586-43.881v-95.399
		c0-25.335,20.611-45.946,45.946-45.946c25.334,0,45.945,20.611,45.945,45.946c0,2.347,1.903,4.25,4.25,4.25
		c2.347,0,4.25-1.903,4.25-4.25C285.238,147.711,260.814,123.287,230.793,123.287z"/>
	<path d="M248.276,176.705c2.347,0,4.25-1.903,4.25-4.25c0-12.365-10.06-22.425-22.425-22.425c-12.365,0-22.425,10.06-22.425,22.425
		V297.25c0,2.347,1.903,4.25,4.25,4.25c2.347,0,4.25-1.903,4.25-4.25V172.455c0-7.679,6.247-13.925,13.925-13.925
		c7.678,0,13.925,6.247,13.925,13.925C244.026,174.802,245.929,176.705,248.276,176.705z"/>
	<path d="M287.56,416.835c0.483,1.931,2.215,3.22,4.12,3.22c0.341,0,0.688-0.041,1.034-0.128
		c25.006-6.251,42.183-22.867,49.676-48.049c5.561-18.693,3.815-35.354,3.738-36.053c-0.257-2.333-2.349-4.018-4.69-3.759
		c-2.333,0.256-4.016,2.357-3.759,4.689c0.017,0.155,1.641,15.635-3.436,32.7c-6.682,22.459-21.348,36.666-43.59,42.227
		C288.375,412.25,286.991,414.558,287.56,416.835z"/>
	<path d="M324.444,152.206c2.347,0,4.25-1.903,4.25-4.25c0-14.063-4.146-27.633-11.99-39.243c-1.314-1.944-3.955-2.457-5.901-1.143
		c-1.945,1.314-2.456,3.956-1.142,5.901c6.891,10.2,10.533,22.124,10.533,34.485C320.194,150.303,322.097,152.206,324.444,152.206z"
		/>
	<path d="M114.633,155.326v91.6c0,2.347,1.903,4.25,4.25,4.25c2.347,0,4.25-1.903,4.25-4.25v-91.6
		c0-59.303,48.247-107.55,107.55-107.55c15.846,0,31.105,3.365,45.353,10.001c2.129,0.992,4.656,0.069,5.647-2.058
		c0.991-2.127,0.07-4.656-2.058-5.646c-15.38-7.165-31.847-10.797-48.942-10.797C166.693,39.276,114.633,91.336,114.633,155.326z"/>
	<path d="M226.848,74.491c12.829,0,25.182,2.724,36.716,8.096c2.128,0.992,4.656,0.07,5.647-2.058
		c0.991-2.128,0.07-4.656-2.058-5.647c-12.667-5.899-26.227-8.891-40.305-8.891c-52.698,0-95.571,42.873-95.571,95.571
		c0,2.347,1.903,4.25,4.25,4.25s4.25-1.903,4.25-4.25C139.777,113.55,178.837,74.491,226.848,74.491z"/>
	<path d="M84.683,163c-2.347,0-4.25,1.903-4.25,4.25v109c0,2.347,1.903,4.25,4.25,4.25c2.347,0,4.25-1.903,4.25-4.25v-109
		C88.933,164.903,87.03,163,84.683,163z"/>
	<path d="M346.933,175.25c0-2.347-1.903-4.25-4.25-4.25c-2.347,0-4.25,1.903-4.25,4.25v137c0,2.347,1.903,4.25,4.25,4.25
		c2.347,0,4.25-1.903,4.25-4.25V175.25z"/>
	<path d="M180.352,369c-2.347,0-4.25,1.903-4.25,4.25c0,2.347,1.903,4.25,4.25,4.25c20.363,0,36.172-6.107,46.989-18.151
		c17.694-19.702,15.559-48.165,15.261-51.31V188.25c0-2.347-1.903-4.25-4.25-4.25c-2.347,0-4.25,1.903-4.25,4.25v120
		c0,0.152,0.008,0.304,0.024,0.455c0.029,0.271,2.737,27.319-13.11,44.964C211.881,363.842,198.199,369,180.352,369z"/>
	<path d="M280.683,199c-2.347,0-4.25,1.903-4.25,4.25v112c0,2.347,1.903,4.25,4.25,4.25c2.347,0,4.25-1.903,4.25-4.25v-112
		C284.933,200.903,283.03,199,280.683,199z"/>
	<path d="M151.683,284.5c2.347,0,4.25-1.903,4.25-4.25v-54c0-2.347-1.903-4.25-4.25-4.25c-2.347,0-4.25,1.903-4.25,4.25v54
		C147.433,282.597,149.336,284.5,151.683,284.5z"/>
	<path d="M357.683,267c-2.347,0-4.25,1.903-4.25,4.25v79c0,2.347,1.903,4.25,4.25,4.25c2.347,0,4.25-1.903,4.25-4.25v-79
		C361.933,268.903,360.03,267,357.683,267z"/>
	<path d="M182.653,352.554c0-2.347-1.903-4.25-4.25-4.25H94.407c-2.347,0-4.25,1.903-4.25,4.25s1.903,4.25,4.25,4.25h83.996
		C180.75,356.804,182.653,354.901,182.653,352.554z"/>
	<path d="M235.4,396.301h-89.973c-2.347,0-4.25,1.903-4.25,4.25c0,2.347,1.903,4.25,4.25,4.25H235.4
		c9.63,0,17.091,2.978,22.175,8.851c11.445,13.221,8.152,37.044,8.117,37.283c-0.338,2.32,1.267,4.477,3.587,4.818
		c0.209,0.031,0.417,0.046,0.624,0.046c2.073,0,3.889-1.52,4.199-3.632c0.167-1.13,3.909-27.858-10.076-44.049
		C257.255,400.277,247.623,396.301,235.4,396.301z"/>
	<path d="M296.897,394.302c2.347,0,4.25-1.903,4.25-4.25c0-35.339-29.452-35.749-29.749-35.749H242.9c-2.347,0-4.25,1.903-4.25,4.25
		s1.903,4.25,4.25,4.25h28.475c2.178,0.025,21.273,1.001,21.273,27.249C292.647,392.399,294.55,394.302,296.897,394.302z"/>
	<path d="M155.654,373.553c0-2.348-1.903-4.25-4.25-4.25h-46.498c-2.347,0-4.25,1.902-4.25,4.25c0,2.347,1.903,4.25,4.25,4.25
		h46.498C153.751,377.803,155.654,375.899,155.654,373.553z"/>
	<path d="M238.4,430.799h-53.997c-2.347,0-4.25,1.903-4.25,4.25c0,2.347,1.903,4.25,4.25,4.25H238.4c2.347,0,4.25-1.903,4.25-4.25
		C242.65,432.702,240.747,430.799,238.4,430.799z"/>
</g>
<g>
</g>
<g>
</g>
<g>
</g>
<g>
</g>
<g>
</g>
<g>
</g>
<g>
</g>
<g>
</g>
<g>
</g>
<g>
</g>
<g>
</g>
<g>
</g>
<g>
</g>
<g>
</g>
<g>
</g>
</svg>
