<?xml version="1.0" encoding="iso-8859-1"?>
<!-- Generator: Adobe Illustrator 18.0.0, SVG Export Plug-In . SVG Version: 6.00 Build 0)  -->
<!DOCTYPE svg PUBLIC "-//W3C//DTD SVG 1.1//EN" "http://www.w3.org/Graphics/SVG/1.1/DTD/svg11.dtd">
<svg version="1.1" id="Capa_1" xmlns="http://www.w3.org/2000/svg" xmlns:xlink="http://www.w3.org/1999/xlink" x="0px" y="0px" fill="#8c8c8c"
	 viewBox="0 0 496.168 496.168" style="enable-background:new 0 0 496.168 496.168;" xml:space="preserve">
<g>
	<path d="M94.786,248.322c0.792,0,1.594-0.221,2.308-0.685c5.038-3.266,10.107-6.499,15.009-9.625
		c19.963-12.731,38.818-24.757,58.345-40.487c1.828-1.472,2.116-4.148,0.644-5.976c-1.472-1.828-4.148-2.116-5.976-0.644
		c-19.161,15.435-37.825,27.338-57.583,39.939c-4.915,3.135-9.998,6.376-15.063,9.66c-1.97,1.277-2.531,3.909-1.254,5.878
		C92.03,247.639,93.394,248.322,94.786,248.322z"/>
	<path d="M465.07,237.027c-18.389-1.78-30.477-8.16-44.145-15.482c-1.356-0.727-2.721-1.457-4.103-2.19
		c-23.768-13.989-44.251-29.632-65.934-46.191c-5.833-4.455-11.866-9.062-18.007-13.667c-11.843-8.882-24.752-16.405-38.898-11.417
		c-11.207,3.39-20.357,10.601-29.206,17.574c-5.481,4.319-11.13,8.772-17.183,12.218c-7.872-3.985-14.614-9.321-21.719-14.944
		c-3.691-2.921-7.508-5.942-11.538-8.819c-14.416-10.812-33.26-9.757-49.221,2.784c-29.016,23.373-58.161,43.694-97.455,67.947
		c-11.384,7.025-24.845,9.773-36.721,12.198c-0.11,0.022-0.209,0.067-0.315,0.098c-15.19-5.129-24.312-9.72-24.446-9.788
		c-2.09-1.064-4.649-0.232-5.715,1.859c-1.064,2.091-0.234,4.648,1.856,5.714c0.229,0.117,1.874,0.946,4.751,2.231
		c1.171,1.827,18.604,28.445,56.051,55.617c34.948,25.359,94.626,55.813,180.466,56.886c1.478,0.018,2.941,0.028,4.404,0.028
		c77.524,0,135.288-25.709,172.259-49.637c0.605-0.224,1.146-0.573,1.585-1.028c2.315-1.52,4.553-3.031,6.699-4.525
		c40.145-27.958,59.706-55.833,60.519-57.005c0.081-0.116,0.133-0.242,0.201-0.363c2.848-1.289,4.436-2.12,4.649-2.233
		c2.075-1.098,2.867-3.669,1.769-5.744c-1.098-2.075-3.67-2.868-5.744-1.769C489.681,227.509,480.539,232.034,465.07,237.027z
		 M72.125,232.073c33.873-20.908,60.283-38.932,85.524-58.457l19.127,19.128c0.83,0.83,1.917,1.245,3.005,1.245
		c1.087,0,2.175-0.415,3.005-1.245c1.66-1.66,1.66-4.351,0-6.011l-18.392-18.392c2.007-1.587,4.01-3.184,6.012-4.797
		c4.852-3.812,21.989-15.268,38.909-2.577c3.938,2.813,7.672,5.768,11.282,8.626c8.075,6.392,15.703,12.428,25.313,16.913
		c1.204,0.562,2.6,0.528,3.777-0.09c7.452-3.922,14.008-9.088,20.348-14.085c8.632-6.802,16.785-13.227,26.491-16.139
		c0.07-0.021,0.139-0.044,0.208-0.068c9.827-3.509,19.518,1.53,31.045,10.174c2.572,1.929,5.122,3.858,7.653,5.779l-13.99,13.99
		c-1.66,1.66-1.66,4.351,0,6.011c0.83,0.83,1.917,1.245,3.005,1.245c1.088,0,2.175-0.415,3.005-1.245l14.805-14.805
		c1.162,0.886,2.322,1.772,3.469,2.648c21.918,16.738,42.619,32.548,66.865,46.81c0.055,0.032,0.11,0.063,0.166,0.093
		c1.398,0.741,2.78,1.481,4.151,2.215c9.534,5.107,18.705,10.021,30.029,13.225c-30.105,7.275-73.879,12.264-124.38,0.819
		c-10.887-2.467-25.217-1.722-41.81-0.859c-9.755,0.507-20.813,1.082-32.589,1.082c-11.684,0-22.707-0.702-32.432-1.32
		c-16.793-1.07-31.296-1.992-42.202,1.16c-44.82,12.951-87.869,7.995-116.09,1.556c-3.58-0.817-7.012-1.678-10.294-2.562
		C55.553,239.968,64.152,236.993,72.125,232.073z M447.355,269.13c-0.487-0.194-1.016-0.309-1.573-0.309h-35
		c-2.347,0-4.25,1.903-4.25,4.25c0,2.347,1.903,4.25,4.25,4.25h26.647c-4.366,3.44-9.048,6.929-14.057,10.408
		c-1.947,1.352-3.979,2.719-6.069,4.092H312.782c-2.347,0-4.25,1.903-4.25,4.25c0,2.347,1.903,4.25,4.25,4.25h90.753
		c-36.693,21.275-90.231,41.677-159.84,40.834c-83.411-1.043-141.341-30.499-175.251-55.027
		c-22.508-16.281-37.705-32.597-46.161-42.882c7.047,2.55,15.763,5.358,25.828,7.937c0.181,0.314,0.389,0.616,0.656,0.885
		c10.298,10.357,32.864,30.154,68.288,46.371c36.338,16.636,76.602,25.344,119.673,25.882c0.018,0,0.036,0,0.054,0
		c2.322,0,4.22-1.868,4.249-4.197c0.029-2.347-1.849-4.273-4.196-4.303c-90.896-1.137-148.143-39.913-172.608-61.005
		c14.307,2.781,31.408,4.929,50.128,4.929c19.235,0,40.175-2.266,61.529-8.436c9.485-2.741,23.303-1.861,39.303-0.843
		c9.851,0.627,21.017,1.338,32.972,1.338c11.998,0,23.172-0.581,33.031-1.094c15.964-0.83,29.75-1.546,39.49,0.661
		c51.366,11.641,95.645,6.577,123.745,0.28c11.488-2.575,21.227-5.527,28.948-8.23C467.593,250.039,458.922,259.145,447.355,269.13z
		"/>
</g>
<g>
</g>
<g>
</g>
<g>
</g>
<g>
</g>
<g>
</g>
<g>
</g>
<g>
</g>
<g>
</g>
<g>
</g>
<g>
</g>
<g>
</g>
<g>
</g>
<g>
</g>
<g>
</g>
<g>
</g>
</svg>
