<?xml version="1.0" encoding="iso-8859-1"?>
<!-- Generator: Adobe Illustrator 18.0.0, SVG Export Plug-In . SVG Version: 6.00 Build 0)  -->
<!DOCTYPE svg PUBLIC "-//W3C//DTD SVG 1.1//EN" "http://www.w3.org/Graphics/SVG/1.1/DTD/svg11.dtd">
<svg version="1.1" id="Capa_1" xmlns="http://www.w3.org/2000/svg" xmlns:xlink="http://www.w3.org/1999/xlink" x="0px" y="0px" fill="#8c8c8c"
	 viewBox="0 0 490.893 490.893" style="enable-background:new 0 0 490.893 490.893;" xml:space="preserve">
<g>
	<path d="M195.796,401.906l154.888-282.317c0.119-0.249,3.099-6.235,13.508-6.235c5.479,0,12.034,1.591,19.482,4.728
		c3.71,1.563,7.359,2.355,10.843,2.355c14.673,0,21.442-13.47,22.332-15.393c6.263-11.499,7.695-24.748,4.031-37.326
		c-3.679-12.63-12.056-23.072-23.588-29.401c-3.533-1.939-7.569-2.881-12.341-2.881c-3.133,0-6.214,0.386-9.193,0.76
		c-2.77,0.347-5.387,0.675-7.847,0.675c-2.97,0-5.254-0.494-7.186-1.554c-4.098-2.249-6.283-6.864-8.813-12.207
		c-2.908-6.142-6.205-13.104-13.355-17.028C331.308,2.102,323.133,0,314.915,0c-17.935,0-34.439,9.731-43.12,25.407
		c-4.816,7.296-9.462,23.763,6.832,35.021c23.82,16.46,16.705,28.145,16.44,28.559L140.179,371.305
		c-0.119,0.248-3.098,6.234-13.505,6.234c-0.001,0-0.002,0-0.002,0c-5.481,0-12.037-1.591-19.484-4.728
		c-3.71-1.563-7.358-2.355-10.843-2.355c-14.673,0-21.441,13.47-22.332,15.393c-12.953,23.783-4.202,53.687,19.557,66.727
		c3.533,1.939,7.569,2.881,12.34,2.881c3.133,0,6.213-0.386,9.192-0.76c2.771-0.347,5.388-0.675,7.848-0.675
		c2.971,0,5.254,0.494,7.186,1.554c4.098,2.249,6.283,6.864,8.813,12.207c2.909,6.142,6.205,13.103,13.356,17.028
		c7.249,3.978,15.424,6.081,23.642,6.081c17.935-0.001,34.439-9.732,43.12-25.407c4.816-7.296,9.462-23.763-6.831-35.021
		C188.416,414.005,195.532,402.32,195.796,401.906z M394.517,111.937c-2.345,0-4.884-0.568-7.544-1.689
		c-8.498-3.579-16.163-5.394-22.781-5.394c-14.993,0-20.218,9.129-21.085,10.887l-7.554,13.769l-22.767-11.384
		c-2.101-1.05-4.653-0.198-5.702,1.9c-1.05,2.1-0.199,4.652,1.9,5.702l22.478,11.239l-11.993,21.86l-12.955-6.346
		c-2.107-1.032-4.653-0.162-5.686,1.947c-1.033,2.108-0.161,4.654,1.947,5.686l12.601,6.173l-126.83,231.187
		c-0.781,1.228-3.463,6.104-2.156,13.407c1.633,9.127,8.703,18.068,21.015,26.576c13.335,9.214,5.436,22.031,4.502,23.446
		c-0.072,0.106-0.139,0.216-0.2,0.329c-7.163,13.051-20.865,21.159-35.759,21.16c-6.792,0-13.553-1.74-19.552-5.032
		c-4.737-2.6-7.179-7.756-9.763-13.214c-2.898-6.119-5.894-12.447-12.406-16.021c-3.191-1.751-6.879-2.603-11.276-2.603
		c-2.99,0-5.996,0.377-8.904,0.741c-2.846,0.356-5.533,0.693-8.136,0.694c-3.351,0-5.972-0.582-8.25-1.832
		c-11.346-6.227-18.544-17.104-20.552-28.971l10.87,5.797c0.637,0.34,1.321,0.501,1.996,0.501c1.52,0,2.989-0.817,3.754-2.251
		c1.104-2.071,0.321-4.646-1.75-5.75l-15-8c-0.107-0.057-0.221-0.088-0.331-0.136c0.25-3.354,0.92-6.706,2.032-9.982l43.265,23.599
		c0.646,0.353,1.344,0.52,2.031,0.52c1.505,0,2.963-0.802,3.735-2.216c1.124-2.06,0.365-4.642-1.696-5.766l-43.848-23.917
		c1.391-2.563,5.956-9.597,14.18-9.597c2.345,0,4.884,0.568,7.544,1.689c8.497,3.578,16.161,5.393,22.781,5.393
		c0.002,0,0.001,0,0.003,0c14.986,0,20.213-9.126,21.08-10.886l7.555-13.77l22.768,11.384c0.61,0.305,1.259,0.45,1.898,0.45
		c1.559,0,3.06-0.861,3.805-2.35c1.05-2.1,0.199-4.652-1.9-5.702l-22.478-11.239l9.254-16.869l10.089,5.044
		c0.61,0.305,1.259,0.45,1.897,0.45c1.559,0,3.06-0.861,3.805-2.35c1.05-2.1,0.199-4.652-1.9-5.702l-9.799-4.899l129.57-236.18
		c0.781-1.228,3.463-6.104,2.156-13.407c-1.633-9.127-8.703-18.068-21.015-26.576c-13.336-9.214-5.437-22.031-4.503-23.446
		c0.072-0.106,0.139-0.216,0.2-0.329c7.163-13.052,20.865-21.16,35.759-21.16c6.793,0,13.554,1.74,19.552,5.032
		c4.736,2.6,7.178,7.756,9.763,13.214c2.898,6.12,5.894,12.447,12.405,16.021c3.192,1.751,6.88,2.603,11.276,2.603
		c2.99,0,5.997-0.376,8.904-0.741c2.846-0.357,5.534-0.694,8.136-0.694c3.352,0,5.973,0.583,8.25,1.833
		c9.543,5.237,16.475,13.877,19.519,24.328c0.449,1.542,0.794,3.097,1.059,4.657l-10.894-5.811c-2.071-1.104-4.646-0.321-5.75,1.75
		c-1.104,2.071-0.321,4.646,1.75,5.75l15,8c0.116,0.062,0.234,0.111,0.353,0.161c-0.257,3.381-0.943,6.722-2.047,9.961
		L368.92,70.961c-2.061-1.124-4.643-0.364-5.766,1.696c-1.124,2.061-0.365,4.642,1.695,5.766l43.848,23.917
		C407.306,104.903,402.741,111.937,394.517,111.937z"/>
	<path d="M284.122,153.746c-2.057-1.129-4.642-0.376-5.77,1.682l-83.72,152.605c-1.129,2.058-0.376,4.641,1.682,5.77
		c0.648,0.356,1.349,0.525,2.04,0.525c1.501,0,2.957-0.797,3.73-2.207l83.72-152.605
		C286.933,157.458,286.18,154.875,284.122,153.746z"/>
</g>
<g>
</g>
<g>
</g>
<g>
</g>
<g>
</g>
<g>
</g>
<g>
</g>
<g>
</g>
<g>
</g>
<g>
</g>
<g>
</g>
<g>
</g>
<g>
</g>
<g>
</g>
<g>
</g>
<g>
</g>
</svg>
