<?xml version="1.0" encoding="iso-8859-1"?>
<!-- Generator: Adobe Illustrator 18.0.0, SVG Export Plug-In . SVG Version: 6.00 Build 0)  -->
<!DOCTYPE svg PUBLIC "-//W3C//DTD SVG 1.1//EN" "http://www.w3.org/Graphics/SVG/1.1/DTD/svg11.dtd">
<svg version="1.1" id="Capa_1" xmlns="http://www.w3.org/2000/svg" xmlns:xlink="http://www.w3.org/1999/xlink" x="0px" y="0px" fill="#8c8c8c"
	 viewBox="0 0 494.331 494.331" style="enable-background:new 0 0 494.331 494.331;" xml:space="preserve">
<g>
	<path d="M452.499,245.93l37.492-37.492c2.795-2.794,4.333-6.51,4.333-10.462c0-3.952-1.538-7.668-4.333-10.462
		c-2.794-2.795-6.51-4.333-10.462-4.333c-3.951,0-7.667,1.539-10.461,4.333l-38.799,38.799c-3.764-36.454-17.89-70.43-41.197-98.943
		l22.683-22.683h61.689c8.157,0,14.795-6.637,14.795-14.795s-6.638-14.795-14.795-14.795h-53.022l0.001-53.023
		c-0.001-8.157-6.638-14.794-14.795-14.794c-8.158,0-14.795,6.637-14.795,14.794v61.689l-22.225,22.224
		c-28.233-25.196-63.704-41.348-101.085-46.124l34.607-34.607c2.795-2.794,4.333-6.509,4.333-10.461
		c0-3.952-1.539-7.667-4.333-10.462C299.335,1.539,295.62,0,291.668,0c-3.951,0-7.667,1.539-10.462,4.333l-37.492,37.493
		L206.223,4.333C203.428,1.539,199.713,0,195.761,0c-3.952,0-7.667,1.539-10.461,4.333c-2.794,2.794-4.333,6.51-4.333,10.462
		c0,3.952,1.539,7.667,4.333,10.461l34.6,34.601c-35.251,4.445-68.068,18.641-95.597,41.409l-17.502-17.501v-61.69
		c0-8.158-6.637-14.795-14.795-14.795c-8.157,0-14.794,6.638-14.795,14.795l0,53.021H24.189c-8.157,0-14.794,6.637-14.795,14.795
		c0,8.158,6.637,14.795,14.795,14.795l61.689,0.001l17.166,17.165c-24.655,27.898-40.134,61.655-45.137,98.313l-32.65-32.649
		c-2.795-2.795-6.509-4.333-10.461-4.333c-3.952,0-7.667,1.539-10.462,4.333c-5.768,5.769-5.768,15.154,0,20.923l37.493,37.492
		L4.333,283.423c-5.768,5.768-5.768,15.154,0,20.923c2.794,2.794,6.51,4.333,10.462,4.333c3.952,0,7.667-1.539,10.461-4.333
		l32.652-32.652c4.666,34.064,18.49,65.864,40.331,92.647L77.861,384.72H16.172c-8.158,0-14.794,6.637-14.794,14.795
		c0,8.157,6.637,14.794,14.794,14.794h53.022v53.022c0,8.158,6.637,14.795,14.795,14.795c3.952,0,7.667-1.539,10.461-4.333
		c2.794-2.794,4.334-6.51,4.333-10.461l0.001-61.689l19.895-19.895c28.84,25.794,65.142,42.081,103.439,46.508L185.3,469.074
		c-2.795,2.795-4.333,6.51-4.333,10.462c0,3.952,1.539,7.667,4.333,10.462c2.794,2.794,6.509,4.333,10.461,4.333
		c3.952,0,7.666-1.539,10.461-4.333l37.492-37.493l37.492,37.492c2.794,2.794,6.51,4.333,10.462,4.333
		c3.952,0,7.667-1.539,10.461-4.333c2.794-2.794,4.333-6.51,4.333-10.461c0-3.952-1.539-7.667-4.333-10.462l-36.817-36.817
		c38.848-4.486,75.559-21.136,104.595-47.539l20.924,20.924l0.001,61.689c-0.001,3.952,1.538,7.667,4.332,10.462
		c2.795,2.794,6.51,4.333,10.462,4.333c8.158,0,14.795-6.637,14.795-14.795v-53.022l53.022,0c8.158,0,14.796-6.637,14.796-14.795
		c0-3.952-1.539-7.667-4.334-10.461c-2.795-2.794-6.51-4.333-10.461-4.333l-61.689,0l-21.584-21.583
		c22.647-28.237,36.394-61.745,40.098-97.59l38.8,38.799c2.794,2.794,6.51,4.333,10.461,4.333c3.952,0,7.668-1.538,10.462-4.333
		c2.795-2.794,4.333-6.51,4.333-10.462c0-3.952-1.538-7.668-4.333-10.462L452.499,245.93z M398.087,88.53
		c0.797-0.797,1.245-1.878,1.245-3.005v-63.45c0-3.471,2.823-6.294,6.295-6.294c3.471,0,6.294,2.824,6.295,6.294l-0.001,57.272
		c0,1.127,0.448,2.208,1.245,3.005c0.797,0.797,1.878,1.245,3.005,1.245h57.272c3.471,0,6.295,2.824,6.295,6.295
		s-2.824,6.295-6.295,6.295h-63.449c-1.127,0-2.208,0.448-3.006,1.245l-37.536,37.537c-1.189,1.189-2.77,1.844-4.451,1.844
		c-1.682,0-3.263-0.655-4.451-1.844c-2.454-2.454-2.454-6.447,0-8.902L398.087,88.53z M189.467,14.795
		c0-1.682,0.655-3.262,1.844-4.451c1.188-1.189,2.769-1.844,4.451-1.844c1.682,0,3.263,0.655,4.451,1.844l40.497,40.498
		c0.797,0.797,1.878,1.245,3.005,1.245c1.127,0,2.208-0.448,3.005-1.245l40.497-40.498c1.189-1.189,2.77-1.844,4.451-1.844
		c1.682,0,3.263,0.655,4.451,1.844c1.189,1.189,1.844,2.77,1.844,4.451c0,1.681-0.654,3.262-1.844,4.451l-44.865,44.866
		c-0.797,0.797-1.245,1.879-1.245,3.005v53.085c0,3.471-2.824,6.295-6.295,6.295c-3.471,0-6.294-2.824-6.294-6.295V67.117
		c0-1.127-0.448-2.208-1.245-3.005L191.31,19.246C190.121,18.057,189.467,16.476,189.467,14.795z M87.638,96.188l-63.449-0.001
		c-3.471,0-6.295-2.824-6.295-6.294c0-3.471,2.824-6.295,6.295-6.295h57.272c1.127,0,2.208-0.448,3.005-1.245
		c0.797-0.797,1.245-1.878,1.245-3.005l0-57.271c0-3.471,2.825-6.295,6.295-6.296c3.471,0,6.295,2.824,6.295,6.295v63.45
		c0,1.127,0.448,2.208,1.245,3.005l29.52,29.52c2.454,2.454,2.454,6.447,0,8.902c-1.189,1.189-2.77,1.844-4.451,1.844
		c-1.682,0-3.262-0.655-4.451-1.843l-29.519-29.52C89.846,96.635,88.766,96.188,87.638,96.188z M19.246,298.336
		c-1.189,1.189-2.77,1.843-4.451,1.843c-1.682,0-3.262-0.655-4.451-1.843c-2.454-2.455-2.454-6.449,0-8.903l40.497-40.497
		c0.797-0.797,1.245-1.878,1.245-3.005c0-1.127-0.448-2.208-1.245-3.005l-40.497-40.497c-2.454-2.455-2.454-6.449,0-8.903
		c1.189-1.189,2.769-1.844,4.451-1.844c1.681,0,3.262,0.654,4.451,1.844l44.866,44.865c0.797,0.797,1.879,1.245,3.005,1.245h41.747
		c3.471,0,6.294,2.824,6.294,6.295c0,3.471-2.824,6.295-6.294,6.295H67.117c-1.127,0-2.208,0.448-3.005,1.245L19.246,298.336z
		 M91.529,400.877c-0.797,0.797-1.245,1.878-1.245,3.005l-0.001,63.45c0,1.681-0.654,3.262-1.843,4.45
		c-1.189,1.189-2.77,1.844-4.451,1.844c-3.471,0-6.295-2.824-6.295-6.295V410.06c0-2.347-1.903-4.25-4.25-4.25H16.172
		c-3.471,0-6.294-2.824-6.295-6.295c0-3.471,2.824-6.295,6.294-6.295h63.45c1.127,0,2.208-0.448,3.005-1.245l31.867-31.868
		c1.189-1.189,2.77-1.844,4.452-1.844c1.681,0,3.262,0.655,4.451,1.843c2.454,2.455,2.454,6.448,0,8.902L91.529,400.877z
		 M297.963,479.536c0,1.681-0.655,3.262-1.844,4.451c-1.189,1.189-2.77,1.844-4.451,1.844c-1.682,0-3.262-0.655-4.451-1.844
		l-40.497-40.497c-1.66-1.659-4.351-1.659-6.011,0l-40.497,40.497c-1.189,1.189-2.77,1.844-4.451,1.844
		c-1.682,0-3.263-0.655-4.451-1.844c-1.189-1.189-1.844-2.77-1.844-4.451c0-1.681,0.654-3.262,1.844-4.451l44.865-44.866
		c0.797-0.797,1.245-1.878,1.245-3.005v-53.085c0-3.471,2.824-6.295,6.295-6.295c3.471,0,6.294,2.824,6.294,6.295v53.085
		c0,1.127,0.448,2.208,1.245,3.005l44.866,44.866C297.309,476.274,297.963,477.854,297.963,479.536z M409.994,393.219l63.45,0
		c1.682,0,3.262,0.655,4.451,1.843c1.189,1.189,1.844,2.77,1.844,4.451c0,3.471-2.824,6.295-6.296,6.295l-57.272,0
		c-1.127,0-2.208,0.448-3.005,1.245c-0.797,0.797-1.245,1.878-1.245,3.005v57.272c0,3.471-2.824,6.295-6.295,6.295
		c-1.682,0-3.263-0.655-4.451-1.844c-1.189-1.189-1.844-2.77-1.843-4.451l-0.001-63.45c0-1.127-0.448-2.208-1.245-3.005
		l-35.188-35.189c-1.189-1.189-1.844-2.77-1.844-4.451c0-1.681,0.655-3.262,1.844-4.451c1.189-1.189,2.771-1.844,4.452-1.844
		c1.681,0,3.262,0.655,4.45,1.844l35.189,35.189C407.786,392.772,408.867,393.219,409.994,393.219z M377.811,350.776
		c-2.794-2.794-6.51-4.333-10.461-4.333c-3.952,0-7.667,1.539-10.462,4.333c-2.795,2.795-4.334,6.51-4.334,10.462
		c0,3.952,1.539,7.667,4.333,10.461l7,7c-29.124,26.363-66.28,42.481-105.377,45.691v-50.26c0-8.158-6.637-14.795-14.794-14.795
		c-8.158,0-14.795,6.637-14.795,14.795v50.26c-38.536-3.165-75.279-18.92-104.218-44.664l4.705-4.705
		c5.768-5.768,5.768-15.154,0.001-20.923c-2.794-2.794-6.51-4.333-10.461-4.333c-3.952,0-7.667,1.539-10.462,4.333l-4.198,4.199
		c-21.905-27.126-35.248-59.577-38.727-94.251l3.318-3.318h13.536c0.002,0.038-0.005,0.075-0.001,0.113
		c2.393,26.777,12.883,51.782,30.336,72.313c0.841,0.989,2.037,1.497,3.24,1.497c0.973,0,1.951-0.332,2.751-1.012
		c1.788-1.521,2.005-4.203,0.485-5.991c-16.168-19.018-25.931-42.146-28.277-66.92h17.917c8.158,0,14.794-6.637,14.794-14.795
		c0-8.158-6.637-14.795-14.794-14.795H68.877l-3.317-3.317c3.739-37.319,18.732-71.743,43.508-99.941l5.085,5.085
		c2.794,2.793,6.509,4.332,10.46,4.332h0.001c3.952,0,7.667-1.539,10.462-4.333c5.769-5.769,5.769-15.154,0.001-20.923l-4.731-4.731
		c27.879-22.851,61.376-36.541,97.273-39.733l1.302,1.302v18.399c-0.01,0-0.02-0.002-0.031-0.001
		c-31.08,2.431-60.015,14.499-83.678,34.902c-1.777,1.533-1.976,4.216-0.443,5.994c0.841,0.975,2.027,1.475,3.221,1.475
		c0.983,0,1.971-0.339,2.773-1.031c22.121-19.073,49.136-30.401,78.158-32.803v24.39c0,8.158,6.637,14.795,14.794,14.795
		c8.158,0,14.795-6.637,14.795-14.795V68.877l1.3-1.3c37.949,3.391,74.208,19.081,102.774,44.435l-8.045,8.045
		c-5.769,5.769-5.768,15.155,0,20.923c2.795,2.794,6.51,4.333,10.462,4.333c3.952,0,7.667-1.539,10.462-4.333l7.562-7.562
		c22.759,28.108,36.225,61.714,39.154,97.718H385.46c-8.157,0-14.794,6.637-14.794,14.795s6.637,14.795,14.794,14.795h8.435
		c-2.295,28.398-13.122,54.918-31.475,76.879c-1.505,1.801-1.265,4.482,0.536,5.987c0.795,0.665,1.762,0.989,2.723,0.989
		c1.216,0,2.423-0.519,3.264-1.524c19.64-23.5,31.19-51.911,33.505-82.331h19.733c-2.882,35.387-15.972,68.522-38.063,96.358
		L377.811,350.776z M483.98,298.335c-1.188,1.189-2.77,1.844-4.451,1.844c-1.681,0-3.262-0.654-4.45-1.844l-44.866-44.865
		c-0.797-0.797-1.878-1.245-3.005-1.245H385.46c-3.471,0-6.294-2.824-6.294-6.295c0-3.471,2.823-6.295,6.294-6.295h41.747
		c1.127,0,2.208-0.448,3.005-1.245l44.866-44.866c1.189-1.189,2.77-1.843,4.45-1.843c1.682,0,3.263,0.655,4.451,1.844
		c1.19,1.189,1.844,2.77,1.844,4.451c0,1.682-0.654,3.262-1.844,4.451l-40.497,40.497c-1.659,1.66-1.659,4.351,0,6.011
		l40.497,40.497c1.19,1.189,1.844,2.77,1.844,4.451C485.824,295.565,485.169,297.146,483.98,298.335z"/>
	<path d="M308.53,335.999c-1.66-1.659-4.351-1.66-6.011,0c-1.66,1.66-1.66,4.351,0,6.011l39.495,39.496
		c0.83,0.83,1.918,1.245,3.006,1.245c1.087,0,2.175-0.415,3.005-1.245c1.66-1.66,1.66-4.351,0-6.011L308.53,335.999z"/>
	<path d="M123.53,143.999c-1.66-1.659-4.351-1.66-6.011,0c-1.66,1.66-1.66,4.351,0,6.011l39.496,39.496
		c0.83,0.83,1.917,1.245,3.005,1.245c1.087,0,2.175-0.415,3.005-1.245c1.66-1.66,1.66-4.351,0-6.011L123.53,143.999z"/>
</g>
<g>
</g>
<g>
</g>
<g>
</g>
<g>
</g>
<g>
</g>
<g>
</g>
<g>
</g>
<g>
</g>
<g>
</g>
<g>
</g>
<g>
</g>
<g>
</g>
<g>
</g>
<g>
</g>
<g>
</g>
</svg>
