<?xml version="1.0" encoding="iso-8859-1"?>
<!-- Generator: Adobe Illustrator 18.0.0, SVG Export Plug-In . SVG Version: 6.00 Build 0)  -->
<!DOCTYPE svg PUBLIC "-//W3C//DTD SVG 1.1//EN" "http://www.w3.org/Graphics/SVG/1.1/DTD/svg11.dtd">
<svg version="1.1" id="Capa_1" xmlns="http://www.w3.org/2000/svg" xmlns:xlink="http://www.w3.org/1999/xlink" x="0px" y="0px" fill="#8c8c8c"
	 viewBox="0 0 481.216 481.216" style="enable-background:new 0 0 481.216 481.216;" xml:space="preserve">
<g>
	<path d="M481.216,75.007c0-26.155-21.279-47.434-47.435-47.434c-11.63,0-22.612,4.153-31.266,11.761
		c-6.663-3.413-14.071-5.205-21.613-5.205c-13.9,0-26.763,5.899-35.784,16.296c-5.446-2.113-11.182-3.182-17.095-3.182
		c-13.9,0-26.763,5.899-35.784,16.297c-5.447-2.113-11.183-3.182-17.096-3.182c-9.537,0-18.613,2.776-26.439,8.058
		c-7.827-5.282-16.903-8.058-26.439-8.058c-5.914,0-11.649,1.068-17.096,3.182c-9.021-10.398-21.883-16.297-35.784-16.297
		c-5.913,0-11.649,1.069-17.095,3.182c-9.02-10.398-21.882-16.296-35.783-16.296c-7.543,0-14.951,1.791-21.614,5.205
		c-8.654-7.608-19.636-11.762-31.266-11.762c-26.155,0-47.435,21.279-47.435,47.434c0,9.896,3.117,19.562,8.835,27.569
		c-5.719,8.007-8.835,17.672-8.835,27.568c0,7.955,1.987,15.729,5.771,22.669c-7.223,9.259-11.168,20.672-11.168,32.469
		c0,8.951,2.262,17.709,6.564,25.501c-5.691,8.853-8.685,19.04-8.685,29.637c0,10.514,2.935,20.6,8.521,29.389
		C6.08,281.636,0,296.942,0,313.293c0,35.085,28.543,63.629,63.628,63.629c35.084,0,63.628-28.544,63.628-63.629
		c0-16.351-6.08-31.656-17.196-43.484c5.586-8.79,8.521-18.876,8.521-29.389c0-10.596-2.994-20.784-8.684-29.636
		c4.302-7.791,6.564-16.55,6.564-25.501c0-11.797-3.946-23.212-11.169-32.47c3.784-6.94,5.771-14.714,5.771-22.668
		c0-0.487-0.007-0.975-0.022-1.462c1.817,0.211,3.644,0.318,5.467,0.318c5.914,0,11.649-1.068,17.095-3.181
		c9.021,10.397,21.883,16.295,35.784,16.295c5.915,0,11.65-1.068,17.095-3.18c9.021,10.397,21.884,16.295,35.784,16.295
		c9.537,0,18.613-2.775,26.439-8.056c7.826,5.281,16.901,8.056,26.439,8.056c13.901,0,26.764-5.898,35.784-16.295
		c5.445,2.112,11.181,3.181,17.095,3.181c9.643,0,18.809-2.842,26.585-8.138c0.456,6.187,2.121,12.226,4.897,17.761
		c-7.993,8.748-12.357,19.961-12.357,31.919c0,9.536,2.776,18.612,8.058,26.44c-5.282,7.826-8.058,16.902-8.058,26.439
		c0,0.591,0.012,1.189,0.037,1.794c-9.319,1.5-17.931,5.731-24.835,12.215c-7.555-4.116-16.018-6.277-24.679-6.277
		c-28.494,0-51.675,23.181-51.675,51.675c0,9.188,2.429,18.142,7.044,26.035c-5.118,13.904-7.816,29.913-7.816,46.454
		c0,34.159,11.027,45.744,29.304,59.454v9.943c0,8.722,7.096,15.817,15.817,15.817h13.109c8.722,0,15.817-7.095,15.817-15.817
		v-8.752c18.164-12.393,30.847-24.763,30.847-60.645c0-12.761-1.629-25.323-4.745-36.792c3.087,0.625,6.234,0.94,9.418,0.94
		c8.211,0,16.199-2.104,23.292-6.113c8.391,6.717,18.788,10.383,29.614,10.383c26.155,0,47.434-21.279,47.434-47.434
		c0-13.9-5.898-26.763-16.295-35.784c2.112-5.445,3.18-11.18,3.18-17.096c0-9.537-2.775-18.613-8.057-26.439
		c5.281-7.828,8.057-16.904,8.057-26.44c0-7.397-1.73-14.679-5.026-21.25c7.993-8.749,12.358-19.961,12.358-31.918
		c0-3.475-0.379-6.923-1.129-10.297C467.581,113.986,481.216,95.65,481.216,75.007z M442.101,113.042
		c-1.172,0.255-2.182,0.994-2.78,2.035c-0.598,1.04-0.729,2.285-0.359,3.426c1.253,3.874,1.889,7.907,1.889,11.985
		c0,10.158-3.847,19.66-10.857,26.946h-45.872c-2.347,0-4.25,1.903-4.25,4.25c0,2.347,1.903,4.25,4.25,4.25h45.122
		c2.799,5.465,4.275,11.542,4.275,17.722c0,8.71-2.822,16.953-8.16,23.835c-1.189,1.533-1.189,3.677,0,5.209
		c5.338,6.881,8.159,15.123,8.159,23.834c0,4.892-0.9,9.63-2.657,14.126h-22.74c-2.347,0-4.25,1.903-4.25,4.25
		c0,2.347,1.903,4.25,4.25,4.25h24.058c9.196,7.437,14.454,18.379,14.454,30.253c0,21.468-17.466,38.934-38.934,38.934
		c-9.773,0-19.12-3.64-26.319-10.248c-1.434-1.318-3.583-1.491-5.211-0.419c-6.356,4.186-13.748,6.397-21.375,6.397
		c-4.899,0-9.694-0.909-14.25-2.703c-1.545-0.608-3.302-0.261-4.499,0.889c-1.198,1.149-1.616,2.891-1.072,4.459
		c4.35,12.538,6.649,26.96,6.649,41.707c0,33.057-10.942,42.777-28.963,54.857c-1.177,0.789-1.884,2.113-1.884,3.53v11.009
		c0,4.035-3.283,7.317-7.317,7.317h-13.109c-4.035,0-7.317-3.282-7.317-7.317V425.75c0-1.347-0.638-2.614-1.721-3.415
		c-16.014-11.858-27.584-20.426-27.584-53.904c0-6.189,0.401-12.29,1.183-18.212h29.546c2.347,0,4.25-1.903,4.25-4.25
		s-1.903-4.25-4.25-4.25h-28.138c0.937-4.667,2.122-9.184,3.549-13.5h11.256c2.347,0,4.25-1.903,4.25-4.25s-1.903-4.25-4.25-4.25
		h-9.526c-0.078-0.164-0.164-0.326-0.264-0.481c-4.47-6.957-6.832-15.013-6.832-23.295c0-23.807,19.368-43.175,43.175-43.175
		c8.198,0,16.184,2.317,23.093,6.702c1.734,1.101,4.009,0.803,5.402-0.707c6.765-7.336,15.96-11.757,25.893-12.446
		c1.167-0.081,2.249-0.64,2.992-1.545c0.742-0.905,1.078-2.075,0.929-3.236c-0.22-1.714-0.331-3.397-0.331-5
		c0-8.711,2.822-16.953,8.16-23.833c1.19-1.533,1.19-3.677,0.001-5.21c-5.339-6.883-8.161-15.125-8.161-23.835
		c0-10.715,4.272-20.704,12.029-28.126c1.428-1.366,1.725-3.536,0.718-5.237c-3.543-5.982-5.417-12.831-5.417-19.805
		c0-1.719,0.124-3.504,0.37-5.308c0.248-1.823-0.705-3.598-2.36-4.399c-1.656-0.801-3.639-0.446-4.914,0.879
		c-7.415,7.709-17.377,11.954-28.053,11.954c-5.784,0-11.357-1.244-16.565-3.696c-1.822-0.857-3.994-0.32-5.205,1.287
		c-7.437,9.866-18.776,15.524-31.11,15.524c-8.711,0-16.953-2.821-23.834-8.159c-1.533-1.189-3.677-1.189-5.21,0
		c-6.881,5.338-15.123,8.159-23.834,8.159c-12.333,0-23.672-5.658-31.11-15.524c-1.211-1.607-3.384-2.144-5.204-1.287
		c-5.208,2.453-10.781,3.696-16.565,3.696c-12.333,0-23.672-5.658-31.11-15.524c-1.211-1.607-3.383-2.143-5.205-1.286
		c-5.207,2.453-10.781,3.696-16.564,3.696c-3.082,0-6.176-0.371-9.198-1.104c-1.376-0.334-2.831,0.04-3.876,0.999
		c-1.044,0.959-1.541,2.375-1.327,3.776c0.302,1.969,0.455,3.979,0.455,5.974c0,7.386-2.086,14.581-6.034,20.808
		c-1.01,1.594-0.848,3.665,0.398,5.081c7.115,8.093,11.034,18.48,11.034,29.249c0,8.297-2.314,16.394-6.694,23.417
		c-0.91,1.459-0.851,3.324,0.151,4.723c5.667,7.917,8.663,17.253,8.663,26.998c0,9.476-2.827,18.537-8.176,26.299H74.089
		c-2.347,0-4.25,1.903-4.25,4.25s1.903,4.25,4.25,4.25h29.378c9.876,10.304,15.289,23.723,15.289,38.075
		c0,30.398-24.73,55.129-55.128,55.129c-24.124,0-44.663-15.582-52.121-37.204h70.613c2.347,0,4.25-1.903,4.25-4.25
		s-1.903-4.25-4.25-4.25H9.323c-0.531-3.065-0.823-6.211-0.823-9.425c0-15.215,6.078-29.386,17.115-39.903
		c1.545-1.473,1.759-3.863,0.499-5.586c-5.848-7.995-8.938-17.465-8.938-27.385c0-9.026,2.575-17.7,7.458-25.223h23.487
		c2.347,0,4.25-1.903,4.25-4.25c0-2.347-1.903-4.25-4.25-4.25H24.837c-3.62-6.543-5.541-13.893-5.541-21.415
		c0-10.767,3.918-21.155,11.033-29.249c1.246-1.417,1.408-3.487,0.398-5.081c-3.947-6.227-6.034-13.422-6.034-20.808
		c0-8.411,2.747-16.615,7.763-23.318h22.665c2.347,0,4.25-1.903,4.25-4.25c0-2.347-1.903-4.25-4.25-4.25H32.457
		c-5.016-6.703-7.763-14.908-7.763-23.319c0-21.468,17.466-38.934,38.935-38.934c10.438,0,20.241,4.077,27.604,11.481
		c1.38,1.388,3.53,1.653,5.208,0.643c6.041-3.642,12.98-5.567,20.067-5.567c12.333,0,23.672,5.659,31.109,15.525
		c1.212,1.607,3.383,2.144,5.205,1.287c5.209-2.454,10.782-3.698,16.564-3.698c12.333,0,23.672,5.659,31.109,15.526
		c1.211,1.607,3.385,2.144,5.204,1.286c5.21-2.453,10.783-3.697,16.566-3.697c8.711,0,16.953,2.822,23.834,8.161
		c1.533,1.189,3.677,1.189,5.21-0.001c6.881-5.338,15.123-8.16,23.834-8.16c5.782,0,11.356,1.244,16.566,3.697
		c1.821,0.858,3.993,0.32,5.205-1.286c7.437-9.867,18.776-15.526,31.109-15.526c5.782,0,11.355,1.244,16.564,3.698
		c1.822,0.857,3.994,0.32,5.205-1.287c7.438-9.867,18.777-15.526,31.11-15.526c7.086,0,14.025,1.925,20.066,5.567
		c1.676,1.01,3.827,0.745,5.208-0.643c7.363-7.404,17.167-11.48,27.604-11.48c18.624,0,34.228,13.147,38.038,30.645h-43.398
		c-2.347,0-4.25,1.903-4.25,4.25c0,2.347,1.903,4.25,4.25,4.25h44.29C472.611,93.307,459.771,109.195,442.101,113.042z"/>
	<path d="M169.386,75.589c-5.913,0-11.649,1.069-17.095,3.182c-9.02-10.398-21.882-16.296-35.783-16.296
		c-7.543,0-14.951,1.791-21.614,5.205c-8.654-7.608-19.636-11.762-31.266-11.762c-2.347,0-4.25,1.903-4.25,4.25
		c0,2.347,1.903,4.25,4.25,4.25c10.438,0,20.241,4.077,27.604,11.481c1.38,1.388,3.531,1.653,5.208,0.643
		c6.04-3.642,12.98-5.566,20.067-5.566c12.334,0,23.672,5.659,31.109,15.525c0.825,1.094,2.095,1.692,3.396,1.692
		c0.61,0,1.228-0.132,1.809-0.406c5.209-2.453,10.782-3.697,16.564-3.697c2.347,0,4.25-1.903,4.25-4.25
		S171.733,75.589,169.386,75.589z"/>
	<path d="M318.124,341.718h-15.333c-2.347,0-4.25,1.903-4.25,4.25s1.903,4.25,4.25,4.25h15.333c2.347,0,4.25-1.903,4.25-4.25
		S320.471,341.718,318.124,341.718z"/>
</g>
<g>
</g>
<g>
</g>
<g>
</g>
<g>
</g>
<g>
</g>
<g>
</g>
<g>
</g>
<g>
</g>
<g>
</g>
<g>
</g>
<g>
</g>
<g>
</g>
<g>
</g>
<g>
</g>
<g>
</g>
</svg>
