<?xml version="1.0" encoding="iso-8859-1"?>
<!-- Generator: Adobe Illustrator 18.0.0, SVG Export Plug-In . SVG Version: 6.00 Build 0)  -->
<!DOCTYPE svg PUBLIC "-//W3C//DTD SVG 1.1//EN" "http://www.w3.org/Graphics/SVG/1.1/DTD/svg11.dtd">
<svg version="1.1" id="Capa_1" xmlns="http://www.w3.org/2000/svg" xmlns:xlink="http://www.w3.org/1999/xlink" x="0px" y="0px" fill="#8c8c8c"
	 viewBox="0 0 490.658 490.658" style="enable-background:new 0 0 490.658 490.658;" xml:space="preserve">
<g>
	<path d="M490.252,180.938c-0.983-4.31-3.654-7.839-7.939-10.49c-0.652-0.403-1.411-0.623-2.179-0.636l-0.177-0.001
		c-2.698,0-23.1,0.422-58.409,11.86c-6.031-27.646-19.567-51.105-40.302-69.776c-19.385-17.455-44.05-29.892-73.368-37.022
		c8.99-17.471,20.415-36.381,33.383-50.451c0.934-1.013,1.319-2.416,1.032-3.765c-1.337-6.283-7.342-18.166-20.503-18.166
		c-1.77,0-3.63,0.219-5.526,0.649c-0.751,0.171-1.442,0.542-1.999,1.075c-0.989,0.946-20.23,19.696-43.563,64.808
		c-6.951-0.549-14.019-0.844-21.069-0.844h-39.277c-27.129,0-52.368,3.898-75.094,11.573c-8.347-14.174-17.152-31.634-21.159-47.724
		c-0.333-1.337-1.294-2.43-2.577-2.932c-0.355-0.139-3.587-1.354-7.691-1.354c-7.55,0-13.21,4.005-15.938,11.278
		c-0.271,0.721-0.34,1.502-0.201,2.26c0.182,0.988,3.723,19.308,20.293,50.219c-22.677,12.16-40.436,28.484-52.882,48.604
		c-12.885-6.432-26.516-14.459-36.868-23.594c-1.034-0.912-2.446-1.268-3.786-0.95c-0.836,0.197-8.281,2.109-12.194,8.53
		c-2.3,3.774-2.847,8.167-1.624,13.055c0.187,0.747,0.573,1.43,1.118,1.974c0.676,0.677,12.776,12.557,40.849,27.534
		c-5.126,15.098-7.728,31.592-7.728,49.093v17.12c0,34.723,11.852,66.424,34.274,91.677c19.86,22.368,47.296,39.172,79.456,48.755
		c1.306,11.895,5.492,60.826-9.08,96.91c-0.439,1.088-0.409,2.309,0.083,3.373c0.275,0.596,6.957,14.588,26.261,14.588
		c6.64,0,14.021-1.706,21.939-5.071c1.455-0.618,2.447-1.995,2.574-3.571c0.063-0.791,6.816-78.838,47.658-98.693
		c32.119-0.121,65.103-5.97,92.995-16.518c29.643-11.212,52.928-27.325,67.626-46.71c15.412,6.074,24.195,7.623,24.871,7.736
		c0.232,0.038,0.466,0.058,0.7,0.058c0.531,0,1.059-0.1,1.558-0.296c4.688-1.847,7.945-4.845,9.68-8.91
		c2.951-6.916,0.18-14.086-0.146-14.881c-0.523-1.275-1.63-2.218-2.973-2.529c-6.239-1.446-12.694-3.607-19.093-6.18
		c7.867-17.908,11.858-37.979,11.858-59.736v-17.12c0-1.212-0.017-2.458-0.05-3.779c16.704-6.34,39.453-13.496,59.021-14.453
		c1.376-0.067,2.634-0.798,3.375-1.959C487.922,194.829,491.925,188.268,490.252,180.938z M319.312,11.202
		c0.86-0.14,1.689-0.211,2.477-0.211c7.163,0,10.386,6.198,11.589,9.474c-28.309,31.819-48.525,83.207-53.403,96.318
		c-10.603-1.199-15.714-7.299-17.551-10.145C288.784,44.867,314.425,16.314,319.312,11.202z M103.833,36.243
		c0.984,0,1.901,0.118,2.653,0.262c8.508,31.096,32.036,64.909,39.045,74.539c-4.428,4.979-9.33,5.998-12.276,6.088
		c-27.84-42.12-35.535-70.266-36.941-76.213C97.835,37.735,100.25,36.243,103.833,36.243z M9.495,128.548
		c1.243-2.067,3.433-3.34,5.014-4.033c24.655,20.768,63.218,35.246,74.458,39.195c-0.857,6.834-4.558,10.456-6.637,11.985
		c-46.842-18.871-69.156-37.674-73.688-41.77C8.306,131.825,8.588,130.057,9.495,128.548z M182.158,476.214
		c-5.957,2.293-11.427,3.453-16.292,3.453c-10.61,0-15.802-5.568-17.686-8.251c13.829-36.161,10.666-81.885,9.108-96.972
		c15.73-0.64,31.264-11.674,38.06-17.161c8.896,10.418,22.383,16.924,31.354,20.365
		C191.925,401.839,183.609,462.582,182.158,476.214z M427.632,312.894c-0.701,1.616-1.977,2.874-3.885,3.823
		c-5.96-1.293-34.085-8.448-76.825-35.714c0.028-2.554,0.81-7.669,5.908-12.362c9.746,6.854,43.941,29.827,75.169,37.827
		C428.355,308.164,428.592,310.682,427.632,312.894z M416.613,215.745v17.12c0,20.601-3.759,39.546-11.17,56.39
		c-26.454-12.005-49.935-29.142-50.248-29.372c-1.48-1.088-3.493-1.102-4.987-0.034c-14.073,10.051-11.647,23.803-11.536,24.384
		c0.217,1.144,0.894,2.147,1.872,2.778c19.901,12.835,36.762,21.454,49.998,27.22c-7.703,9.683-17.473,18.078-28.63,25.242H248.491
		c-2.347,0-4.25,1.902-4.25,4.25c0,2.348,1.903,4.25,4.25,4.25h98.435c-32.982,16.539-73.923,24.287-109.337,24.367
		c-3.702-1.041-27.641-8.267-38.085-23.586c-0.697-1.021-1.806-1.689-3.035-1.827c-1.231-0.146-2.459,0.265-3.367,1.105
		c-0.194,0.18-19.583,17.942-37.234,17.942c-0.876,0-1.739-0.053-2.577-0.143c-53.208-15.166-109.918-58.015-109.918-132.967v-12.87
		h104.624c2.347,0,4.25-1.902,4.25-4.25s-1.903-4.25-4.25-4.25H43.434c0.372-14.52,2.658-28.235,6.813-40.894
		c8.909,4.46,19.165,9.116,30.913,13.781c0.504,0.2,1.037,0.3,1.568,0.3c0.609,0,1.217-0.131,1.781-0.391
		c0.537-0.248,13.139-6.263,13.139-23.557c0-1.837-1.18-3.466-2.925-4.038c-0.265-0.087-14.571-4.833-31.924-12.891
		c11.644-18.51,28.204-33.569,49.298-44.865c4.316,7.598,9.355,15.836,15.269,24.686c0.647,0.968,1.663,1.628,2.81,1.826
		c0.179,0.031,1.145,0.186,2.63,0.186c0,0,0,0,0,0c3.969,0,14.014-1.182,21.558-12.118c1.043-1.512,0.996-3.523-0.115-4.985
		c-0.142-0.188-6.62-8.765-14.469-21.331c21.381-6.981,45.091-10.524,70.574-10.524h39.277c5.653,0,11.322,0.189,16.924,0.555
		c-4.181,8.485-8.462,17.8-12.768,27.995c-0.453,1.072-0.446,2.283,0.019,3.351c0.292,0.671,7.403,16.432,28.979,16.9
		c0.031,0.001,0.062,0.001,0.093,0.001c1.799,0,3.408-1.136,4.008-2.839c0.118-0.336,6.455-18.152,17.076-39.949
		c32.273,7.525,58.398,21.437,77.331,40.79h-38.307c-2.347,0-4.25,1.902-4.25,4.25c0,2.348,1.903,4.25,4.25,4.25h45.86
		c4.848,5.989,9.097,12.409,12.712,19.248h-99.07c-2.347,0-4.25,1.902-4.25,4.25c0,2.348,1.903,4.25,4.25,4.25H405.64
		c3.358,7.761,5.961,15.999,7.793,24.677c-6.789,2.378-14.043,5.129-21.78,8.344c-1.075,0.447-1.92,1.316-2.337,2.401
		c-0.212,0.552-5.046,13.651,7.013,26.046c0.819,0.842,1.925,1.286,3.047,1.286c0.633,0,1.271-0.142,1.865-0.432
		c0.165-0.081,6.136-2.976,15.369-6.755C416.611,215.447,416.613,215.598,416.613,215.745z M481.174,189.173
		c-32.151,2.311-69.885,18.828-80.699,23.839c-4.16-5.508-4.026-10.692-3.606-13.218c46.776-19.164,75.757-21.234,81.947-21.456
		c1.706,1.271,2.736,2.735,3.139,4.449C482.506,185.135,481.824,187.574,481.174,189.173z"/>
	<path d="M153.649,343.439c-37.585-10.629-77.348-37.87-88.569-83.963h36.419c2.347,0,4.25-1.902,4.25-4.25
		c0-2.348-1.903-4.25-4.25-4.25H63.377c-0.917-5.768-1.409-11.8-1.409-18.111c0-2.348-1.903-4.25-4.25-4.25
		c-2.347,0-4.25,1.902-4.25,4.25c0,29.2,9.968,55.862,28.828,77.103c17.162,19.329,41.035,33.731,69.039,41.651
		c0.387,0.109,0.776,0.161,1.159,0.161c1.854,0,3.558-1.223,4.087-3.095C157.22,346.426,155.907,344.078,153.649,343.439z"/>
	<path d="M273.99,151.231h-29.999c-2.347,0-4.25,1.902-4.25,4.25c0,2.348,1.903,4.25,4.25,4.25h29.999c2.347,0,4.25-1.902,4.25-4.25
		C278.24,153.133,276.337,151.231,273.99,151.231z"/>
</g>
<g>
</g>
<g>
</g>
<g>
</g>
<g>
</g>
<g>
</g>
<g>
</g>
<g>
</g>
<g>
</g>
<g>
</g>
<g>
</g>
<g>
</g>
<g>
</g>
<g>
</g>
<g>
</g>
<g>
</g>
</svg>
