<?xml version="1.0" encoding="iso-8859-1"?>
<!-- Generator: Adobe Illustrator 18.0.0, SVG Export Plug-In . SVG Version: 6.00 Build 0)  -->
<!DOCTYPE svg PUBLIC "-//W3C//DTD SVG 1.1//EN" "http://www.w3.org/Graphics/SVG/1.1/DTD/svg11.dtd">
<svg version="1.1" id="Capa_1" xmlns="http://www.w3.org/2000/svg" xmlns:xlink="http://www.w3.org/1999/xlink" x="0px" y="0px" fill="#8c8c8c"
	 viewBox="0 0 485.259 485.259" style="enable-background:new 0 0 485.259 485.259;" xml:space="preserve">
<g>
	<path d="M200.521,149.009c16.705-33.029,24.825-68.496,24.825-108.429c0-22.376-18.204-40.58-40.579-40.58
		s-40.579,18.204-40.579,40.58c0,67.748-8.489,113.153-29.093,154C94.49,153.733,86,108.328,86,40.58C86,18.204,67.796,0,45.42,0
		C23.045,0,4.842,18.204,4.842,40.58c0,39.933,8.12,75.399,24.825,108.429c14.555,28.778,33.797,52.059,50.773,72.6
		c3.558,4.305,6.951,8.41,10.26,12.505c-4.216,5.865-8.604,11.722-13.214,17.876C43.436,297.442,4.842,348.96,4.842,444.68
		c0,22.375,18.204,40.579,40.579,40.579S86,467.055,86,444.68c0-83.863,4.462-132.913,29.094-176.06
		c24.631,43.147,29.093,92.196,29.093,176.06c0,22.375,18.204,40.579,40.579,40.579c0.001,0,0.001,0,0.002,0
		c10.839,0,21.029-4.221,28.693-11.885c7.664-7.664,11.885-17.855,11.885-28.694c0-95.72-38.594-147.238-72.645-192.691
		c-4.61-6.154-8.997-12.01-13.213-17.875c3.309-4.094,6.703-8.2,10.26-12.505C166.724,201.068,185.965,177.787,200.521,149.009z
		 M130.837,231.308c-1.184,1.48-1.245,3.566-0.147,5.113c4.848,6.834,9.88,13.552,15.208,20.663
		c22.902,30.572,47.908,63.955,61.259,112.117h-44.312c-2.347,0-4.25,1.902-4.25,4.25c0,2.348,1.903,4.25,4.25,4.25h46.502
		c1.498,6.25,2.802,12.741,3.882,19.5h-14.384c-2.347,0-4.25,1.902-4.25,4.25c0,2.348,1.903,4.25,4.25,4.25h15.601
		c1.549,12.123,2.399,25.07,2.399,38.979c0,8.569-3.337,16.625-9.396,22.684c-6.059,6.059-14.114,9.395-22.682,9.395
		c0,0-0.002,0-0.002,0c-17.688,0-32.079-14.391-32.079-32.079c0-89.449-5.085-140.187-33.985-186.6
		c-0.776-1.246-2.14-2.004-3.608-2.004c-1.468,0-2.832,0.758-3.608,2.004c-28.9,46.413-33.986,97.151-33.986,186.6
		c0,17.688-14.391,32.079-32.079,32.079s-32.079-14.391-32.079-32.079c0-92.89,37.692-143.203,70.947-187.595
		c5.328-7.112,10.36-13.829,15.209-20.664c1.097-1.547,1.037-3.633-0.147-5.113c-3.987-4.986-8.054-9.906-12.358-15.114
		c-18.906-22.875-39.194-47.423-53.679-79.158h17.533c2.347,0,4.25-1.902,4.25-4.25c0-2.348-1.903-4.25-4.25-4.25H29.649
		c-6.69-16.475-11.776-34.86-14.376-55.834h30.572c2.347,0,4.25-1.902,4.25-4.25c0-2.348-1.903-4.25-4.25-4.25H14.366
		c-0.669-7.54-1.024-15.402-1.024-23.621c0-17.69,14.391-32.08,32.079-32.08c17.688,0,32.08,14.391,32.08,32.08
		c0,73.24,9.811,121.096,33.863,165.178c0.745,1.365,2.176,2.215,3.731,2.215c1.555,0,2.986-0.85,3.731-2.215
		c14.14-25.915,23.353-53.143,28.548-86.057h15.472c2.347,0,4.25-1.902,4.25-4.25c0-2.348-1.903-4.25-4.25-4.25h-14.239
		c1.286-9.643,2.254-19.775,2.922-30.5h19.317c2.347,0,4.25-1.902,4.25-4.25c0-2.348-1.903-4.25-4.25-4.25h-18.853
		c0.466-10.01,0.695-20.52,0.695-31.621c0-17.69,14.391-32.08,32.079-32.08c17.689,0,32.079,14.391,32.079,32.08
		c0,86.503-39.128,133.845-73.65,175.613C138.891,221.401,134.824,226.321,130.837,231.308z"/>
	<path d="M73.727,296.756c-2.001-1.228-4.618-0.598-5.844,1.404c-17.328,28.287-40.365,74.252-40.365,146.52
		c0,2.348,1.903,4.25,4.25,4.25c2.347,0,4.25-1.902,4.25-4.25c0-70.119,22.322-114.67,39.113-142.08
		C76.356,300.599,75.728,297.981,73.727,296.756z"/>
	<path d="M204.088,36.33c-2.347,0-4.25,1.902-4.25,4.25c0,31.376-5.086,59.508-15.548,86.003c-0.862,2.183,0.209,4.651,2.392,5.514
		c0.513,0.202,1.041,0.298,1.56,0.298c1.693,0,3.294-1.02,3.954-2.69c10.862-27.507,16.142-56.659,16.142-89.124
		C208.338,38.232,206.436,36.33,204.088,36.33z"/>
	<path d="M182.906,140.633c-2.108-1.032-4.654-0.161-5.687,1.946c-3.844,7.845-8.136,15.489-13.122,23.369
		c-1.255,1.983-0.665,4.608,1.319,5.864c0.705,0.446,1.491,0.659,2.269,0.659c1.408,0,2.787-0.7,3.595-1.979
		c5.153-8.143,9.592-16.05,13.572-24.174C185.885,144.211,185.013,141.665,182.906,140.633z"/>
	<path d="M449.107,9.059c-17.264,0-31.309,15.345-31.309,34.207c0,22.605-13.188,56.603-35.257,74.366
		c-5.757,4.633-11.683,9.402-17.504,14.605c-5.823-5.205-11.748-9.974-17.504-14.605c-22.069-17.765-35.257-51.761-35.257-74.366
		c0-18.862-14.045-34.207-31.309-34.207s-31.309,15.345-31.309,34.207c0,24.778,7.617,48.11,22.027,67.475
		c16.528,22.212,39.561,42.618,55.972,55.825c2.442,1.966,5.267,4.249,7.966,6.486c12.721,25.993,5.327,103.544-0.624,165.975
		c-5.256,55.14-8.226,89.568-3.268,102.043c7.396,18.606,20.807,29.715,35.875,29.715c15.316,0,29.027-11.091,36.675-29.667
		c18.058-43.86-5.636-243.766-8.719-268.982c2.354-1.938,4.748-3.872,6.856-5.569c13.924-11.206,36.907-32.51,55.852-55.671
		c14.489-17.713,22.148-41.098,22.148-67.629C480.417,24.404,466.372,9.059,449.107,9.059z M451.69,105.514
		c-18.532,22.655-40.996,43.481-54.602,54.432c-2.672,2.15-5.801,4.68-8.751,7.136c-1.112,0.927-1.676,2.355-1.497,3.792
		c0.212,1.7,16.178,130.803,15.717,211.328h-22.713c-2.347,0-4.25,1.902-4.25,4.25c0,2.348,1.903,4.25,4.25,4.25h22.598
		c-0.462,21.071-2.248,38.012-6.022,47.181c-6.292,15.28-17.063,24.403-28.815,24.403c-11.456,0-21.914-9.104-27.975-24.354
		c-4.453-11.203-0.429-53.41,3.831-98.097c4.986-52.309,10.485-110.02,6-146.133h22.051c2.347,0,4.25-1.902,4.25-4.25
		c0-2.348-1.903-4.25-4.25-4.25h-23.333c-0.014,0-0.026,0.004-0.04,0.004c-1.288-6.716-3.042-12.411-5.359-16.832
		c-0.26-0.495-0.614-0.934-1.044-1.292c-2.946-2.454-6.076-4.984-8.75-7.136c-11.155-8.978-30.55-25.569-46.458-44.244h26.984
		c2.347,0,4.25-1.902,4.25-4.25c0-2.348-1.903-4.25-4.25-4.25h-33.847c-0.389-0.511-0.779-1.021-1.16-1.534
		c-0.318-0.428-0.615-0.867-0.926-1.299h7.267c2.347,0,4.25-1.902,4.25-4.25c0-2.348-1.903-4.25-4.25-4.25h-11.334
		c-0.461,0-0.896,0.092-1.312,0.228c-4.112-7.055-7.345-14.559-9.668-22.395h18.313c2.347,0,4.25-1.902,4.25-4.25
		c0-2.348-1.903-4.25-4.25-4.25h-20c-0.151,0-0.295,0.029-0.442,0.045c-1.478-7.129-2.245-14.479-2.245-21.979
		c0-14.175,10.232-25.707,22.809-25.707c12.577,0,22.809,11.532,22.809,25.707c0,24.267,13.468,60.897,38.428,80.987
		c6.598,5.311,13.421,10.801,19.944,16.848c1.63,1.51,4.148,1.51,5.778,0c6.52-6.044,13.344-11.536,19.944-16.848
		c24.96-20.09,38.428-56.721,38.428-80.987c0-14.175,10.232-25.707,22.809-25.707c12.577,0,22.81,11.532,22.81,25.707
		C471.917,67.813,464.922,89.337,451.69,105.514z"/>
	<path d="M452.924,39.017c-2.347,0-4.25,1.902-4.25,4.25c0,24.546-6.995,46.07-20.227,62.246c-1.486,1.817-1.218,4.495,0.599,5.98
		c0.79,0.646,1.742,0.961,2.689,0.961c1.231,0,2.452-0.532,3.292-1.559c14.489-17.713,22.148-41.098,22.148-67.629
		C457.174,40.919,455.271,39.017,452.924,39.017z"/>
	<path d="M369.485,217.2c-2.347,0.024-4.23,1.946-4.207,4.293c0.172,16.877-0.711,37.092-2.778,63.617
		c-0.182,2.34,1.567,4.385,3.907,4.567c0.112,0.009,0.224,0.013,0.334,0.013c2.197,0,4.059-1.692,4.233-3.92
		c2.087-26.78,2.978-47.232,2.804-64.363C373.755,219.059,371.839,217.17,369.485,217.2z"/>
	<path d="M364.305,313.923c-2.336-0.225-4.407,1.502-4.624,3.84c-0.664,7.167-1.341,14.277-2.007,21.257
		c-5.256,55.144-8.227,89.575-3.269,102.05c0.663,1.667,2.261,2.682,3.951,2.682c0.522,0,1.053-0.097,1.568-0.302
		c2.181-0.866,3.247-3.338,2.38-5.519c-4.453-11.204-0.429-53.415,3.831-98.104c0.666-6.987,1.345-14.105,2.009-21.28
		C368.362,316.209,366.643,314.139,364.305,313.923z"/>
</g>
<g>
</g>
<g>
</g>
<g>
</g>
<g>
</g>
<g>
</g>
<g>
</g>
<g>
</g>
<g>
</g>
<g>
</g>
<g>
</g>
<g>
</g>
<g>
</g>
<g>
</g>
<g>
</g>
<g>
</g>
</svg>
