<?xml version="1.0" encoding="iso-8859-1"?>
<!-- Generator: Adobe Illustrator 18.0.0, SVG Export Plug-In . SVG Version: 6.00 Build 0)  -->
<!DOCTYPE svg PUBLIC "-//W3C//DTD SVG 1.1//EN" "http://www.w3.org/Graphics/SVG/1.1/DTD/svg11.dtd">
<svg version="1.1" id="Capa_1" xmlns="http://www.w3.org/2000/svg" xmlns:xlink="http://www.w3.org/1999/xlink" x="0px" y="0px" fill="#8c8c8c"
	 viewBox="0 0 369.697 369.697" style="enable-background:new 0 0 369.697 369.697;" xml:space="preserve">
<g>
	<path d="M42.654,65.262c0.14,0.026,14.107,2.908,18.264,12.229c2.491,5.586,1.109,12.783-4.109,21.392
		c-1.147,1.892-0.648,4.347,1.145,5.644c0.75,0.543,1.622,0.807,2.488,0.807c1.204,0,2.396-0.51,3.233-1.487
		c0.171-0.199,17.271-19.922,36.131-19.922c3.249,0,6.416,0.599,9.41,1.781c0.5,0.197,1.019,0.294,1.534,0.297
		c2.366,0.045,4.297-1.887,4.297-4.25c0-0.947-0.31-1.822-0.833-2.528c-1.542-2.581-13.321-23.165-2.617-32.062
		c2.849-1.307,4.495-2.743,4.683-2.912c1.563-1.4,1.87-3.732,0.722-5.489c-1.148-1.758-3.405-2.414-5.317-1.545
		c-1.612,0.733-3.099,1.593-4.427,2.56c-1.944,0.766-4.031,1.153-6.212,1.153c-6.694,0-17.481-3.767-30.862-21.717
		c-1.268-1.701-3.587-2.184-5.446-1.163c-1.859,1.022-2.671,3.28-1.915,5.263c0.282,0.739,6.591,18.288-21.463,34.069
		c-1.557,0.875-2.399,2.631-2.11,4.393C39.539,63.536,40.9,64.93,42.654,65.262z M71.633,34.132
		c9.4,9.786,18.893,14.912,28.329,15.277c-3.101,8.743-0.129,19.06,2.892,26.149c-1.008-0.09-2.024-0.134-3.046-0.134
		c-11.304,0-21.668,5.393-29.347,10.95c0.506-4.426-0.086-8.55-1.779-12.346c-3.245-7.277-9.884-11.643-15.429-14.144
		C65.696,50.923,70.268,41.534,71.633,34.132z"/>
	<path d="M356.931,136.496c2.849-1.307,4.494-2.743,4.683-2.912c1.563-1.4,1.87-3.732,0.722-5.489
		c-1.147-1.758-3.406-2.413-5.316-1.545c-1.612,0.733-3.099,1.593-4.427,2.559c-1.944,0.766-4.031,1.153-6.212,1.153
		c-6.694,0-17.482-3.768-30.862-21.717c-1.267-1.701-3.587-2.183-5.446-1.163c-1.858,1.022-2.671,3.28-1.914,5.263
		c0.282,0.739,6.591,18.288-21.464,34.069c-1.557,0.875-2.399,2.631-2.11,4.393c0.289,1.762,1.649,3.155,3.404,3.487
		c0.14,0.026,14.107,2.908,18.264,12.23c2.491,5.586,1.109,12.783-4.108,21.392c-1.147,1.893-0.648,4.347,1.145,5.645
		c0.75,0.543,1.622,0.807,2.488,0.807c1.204,0,2.397-0.51,3.233-1.487c0.171-0.199,17.272-19.922,36.131-19.922
		c3.25,0,6.416,0.599,9.41,1.781c0.5,0.197,1.02,0.294,1.534,0.297c2.393,0.055,4.297-1.887,4.297-4.25
		c0-0.947-0.311-1.822-0.834-2.528C358.005,165.977,346.227,145.393,356.931,136.496z M345.14,164.758
		c-11.304,0-21.668,5.394-29.347,10.95c0.506-4.426-0.086-8.55-1.778-12.346c-3.245-7.277-9.884-11.643-15.43-14.144
		c12.443-8.963,17.016-18.352,18.381-25.754c9.4,9.786,18.893,14.912,28.329,15.277c-0.321,0.904-0.561,1.828-0.76,2.761h-20.425
		c-2.347,0-4.25,1.902-4.25,4.25c0,2.348,1.903,4.25,4.25,4.25h20.032c0.517,5.428,2.267,10.718,4.044,14.889
		C347.178,164.802,346.162,164.758,345.14,164.758z"/>
	<path d="M273.128,314.068c-0.023,0.011-2.423,1.036-6.179,1.036c-7.197,0-18.044-3.628-28.839-20.913
		c-0.945-1.515-2.734-2.273-4.484-1.907c-1.747,0.37-3.076,1.792-3.328,3.56c-0.029,0.203-3.059,20.295-17.992,20.298
		c-0.001,0-0.002,0-0.003,0c-4.294,0-9.322-1.553-14.942-4.615c-1.944-1.062-4.377-0.45-5.59,1.404
		c-1.213,1.854-0.799,4.327,0.951,5.685c0.28,0.218,27.959,22.028,20.206,44.656c-0.596,1.739-0.006,3.664,1.461,4.771
		c1.468,1.109,3.481,1.145,4.988,0.095c3.28-2.284,13.7-8.214,22.406-8.214c4.14,0,7.336,1.296,9.755,3.957
		c1.436,2.789,2.949,4.367,3.126,4.548c0.825,0.84,1.925,1.27,3.032,1.27c0.008,0,0.015,0,0.023,0
		c2.346-0.002,4.246-1.904,4.246-4.25c0-0.85-0.249-1.641-0.678-2.305c-0.761-1.434-1.621-2.753-2.567-3.935
		c-2.851-6.358-3.825-19.403,18.842-37.976c1.641-1.344,2.018-3.684,0.912-5.494C277.366,313.929,275.076,313.221,273.128,314.068z
		 M248.719,352.41c-2.154-0.654-4.476-0.988-6.937-0.988c-6.847,0-13.812,2.541-18.99,5.028c0.16-3.602-0.271-7.097-1.099-10.447
		h9.085c2.347,0,4.25-1.902,4.25-4.25c0-2.348-1.903-4.25-4.25-4.25h-12.125c-2.268-4.85-5.201-9.224-8.152-12.923
		c0.608,0.04,1.209,0.061,1.802,0.061c0.001,0,0.003,0,0.004,0c12.928-0.002,20.297-9.545,23.879-18.422
		c9.431,11.864,18.987,16.053,26.589,17.098C251.755,334.912,248.637,344.822,248.719,352.41z"/>
	<path d="M197.271,216.503c2.369,4.497,1.204,10.682-3.462,18.38c-1.091,1.8-0.697,4.125,0.922,5.47
		c0.788,0.654,1.751,0.979,2.714,0.979c1.016,0,2.031-0.362,2.836-1.082c0.152-0.136,15.461-13.613,34.977-13.613
		c5.891,0,11.652,1.233,17.127,3.666c0.563,0.251,1.164,0.404,1.755,0.366c2.343-0.005,4.241-1.905,4.241-4.25
		c0-0.646-0.145-1.26-0.403-1.809c-1.164-3.343-10.352-31.384,4.604-42.066c1.724-1.23,2.277-3.543,1.299-5.422
		c-0.979-1.88-3.193-2.752-5.188-2.042c-0.039,0.014-4.16,1.41-10.548,1.41c-11.458,0-28.385-4.386-43.959-25.277
		c-1.297-1.739-3.696-2.222-5.566-1.121c-1.87,1.104-2.608,3.438-1.712,5.414c0.057,0.125,5.601,12.642,0.23,24.399
		c-3.71,8.121-11.863,14.101-24.235,17.773c-1.98,0.588-3.249,2.515-3.009,4.566c0.239,2.052,1.922,3.635,3.985,3.751
		C178.997,206.285,193.18,208.737,197.271,216.503z M198.014,193.259c0.248,0.046,0.502,0.077,0.764,0.077h26.667
		c2.347,0,4.25-1.902,4.25-4.25c0-2.348-1.903-4.25-4.25-4.25h-21.29c0.24-0.465,0.495-0.921,0.713-1.398
		c2.395-5.245,3.151-10.526,3.1-15.225c14.582,13.564,29.408,16.777,40.177,16.777c0.476,0,0.942-0.007,1.398-0.019
		c-5.847,11.216-3.928,25.77-1.811,34.737c-4.072-1.046-8.244-1.572-12.473-1.572c-11.451,0-21.455,3.804-28.678,7.68
		c0.637-3.51,0.496-6.782-0.396-9.814h4.594c2.347,0,4.25-1.902,4.25-4.25c0-2.348-1.903-4.25-4.25-4.25h-9.807
		c-3.497-3.394-8.057-5.649-12.418-7.138C192.218,198.307,195.365,195.93,198.014,193.259z"/>
	<path d="M122.62,297.106c-0.037,0.014-3.745,1.358-9.119,1.358c-11.05,0-26.399-5.484-36.774-31.613
		c-0.784-1.974-2.903-3.063-4.966-2.559c-2.062,0.508-3.433,2.46-3.21,4.572c0.009,0.084,0.846,8.586-3.065,18.591
		c-5.249,13.424-16.212,22.695-32.585,27.557c-2.017,0.599-3.292,2.582-2.999,4.666c0.292,2.083,2.065,3.639,4.168,3.658
		c0.123,0.001,12.417,0.303,16.14,6.986c3.031,5.44-0.72,13.821-4.401,19.894c-1.053,1.738-0.728,3.978,0.776,5.346
		c0.807,0.733,1.832,1.105,2.861,1.105c0.888,0,1.78-0.277,2.536-0.839c0.226-0.168,22.911-16.824,46.04-16.824
		c5.932,0,11.438,1.109,16.363,3.299c0.565,0.251,1.144,0.35,1.759,0.366c2.341-0.007,4.237-1.907,4.237-4.25
		c0-0.727-0.183-1.411-0.504-2.009c-1.021-2.534-7.96-21.392,6.704-31.866c1.732-1.237,2.272-3.561,1.276-5.442
		C126.861,297.22,124.617,296.371,122.62,297.106z M98.022,330.504c-15.035,0-29.443,5.941-39.114,11.096
		c1.557-5.935,1.136-11.091-1.272-15.414c-2.2-3.949-5.733-6.524-9.399-8.203c14.666-7.68,21.748-18.69,25.166-27.433
		c0.945-2.416,1.656-4.765,2.19-6.975c12.264,19.681,27.989,23.272,37.434,23.386c-1.845,3.168-2.979,6.523-3.598,9.875H88.778
		c-2.347,0-4.25,1.902-4.25,4.25c0,2.348,1.903,4.25,4.25,4.25h20.097c0.101,2.258,0.377,4.437,0.778,6.465
		C105.946,330.939,102.058,330.504,98.022,330.504z"/>
	<path d="M56.075,227.428c0.49,1.891,2.195,3.185,4.111,3.185c0.148,0,0.296-0.008,0.446-0.023c2.092-0.219,3.709-1.936,3.803-4.037
		c0.008-0.168,0.88-16.841,11.824-16.841c4.122,0,9.321,2.037,15.453,6.055c0.721,0.474,1.553,0.672,2.355,0.695
		c2.345-0.003,4.244-1.904,4.244-4.25c0-1.016-0.356-1.947-0.95-2.678c-2.183-3.287-23.691-36.831-11.145-62.579
		c0.768-1.577,0.483-3.462-0.709-4.749c-1.192-1.286-3.059-1.706-4.689-1.059c-0.056,0.022-5.659,2.215-12.488,2.215
		c-8.524,0-15.058-3.339-19.42-9.924c-1.176-1.773-3.479-2.396-5.395-1.466c-1.915,0.929-2.844,3.142-2.178,5.163
		c0.402,1.222,9.378,30.086-31.851,44.799c-1.996,0.712-3.155,2.784-2.727,4.859c0.427,2.074,2.319,3.523,4.438,3.384
		c0.064-0.004,0.419-0.022,1.013-0.022C20.235,190.154,47.118,192.842,56.075,227.428z M50.751,147.045
		c4.957,3.177,10.883,4.816,17.578,4.816c2.619,0,5.076-0.255,7.233-0.611c-2.214,8.105-2.161,16.421-0.899,24.253H63.444
		c-2.347,0-4.25,1.902-4.25,4.25c0,2.348,1.903,4.25,4.25,4.25h13.07c1.905,6.973,4.541,13.282,7.017,18.341
		c-2.546-0.758-4.962-1.133-7.272-1.133c-8.424,0-13.634,5.022-16.67,10.971c-8.642-18.088-22.681-25.494-33.445-28.502
		C45.601,172.528,50.246,157.549,50.751,147.045z"/>
	<path d="M72.778,60.669h14.667c2.347,0,4.25-1.902,4.25-4.25c0-2.348-1.903-4.25-4.25-4.25H72.778c-2.347,0-4.25,1.902-4.25,4.25
		C68.528,58.767,70.43,60.669,72.778,60.669z"/>
	<path d="M184.787,36.422c1.294,0.581,31.58,14.675,22.321,53.885c-0.483,2.047,0.604,4.14,2.556,4.922
		c1.953,0.785,4.184,0.019,5.247-1.797c0.062-0.105,6.381-10.529,13.987-10.529c6.268,0,11.711,7.457,15.172,13.712
		c0.732,1.322,2.083,2.121,3.524,2.188c0.071,0.003,0.143,0.005,0.215,0.005c2.347,0,4.251-1.902,4.251-4.25
		c0-0.295-0.03-0.584-0.088-0.862c-0.412-4.18-3.628-43.693,19.336-60.51c1.418-1.039,2.051-2.845,1.59-4.541
		c-0.46-1.697-1.918-2.935-3.667-3.115c-0.228-0.024-22.7-2.55-24.617-21.701c-0.213-2.126-1.971-3.764-4.107-3.825
		c-2.164-0.068-3.985,1.472-4.32,3.581c-0.01,0.063-1.123,6.366-6.103,12.614c-6.873,8.622-17.504,12.994-31.599,12.994
		c-3.567,0-7.391-0.289-11.367-0.859c-2.092-0.299-4.089,0.991-4.679,3.026C181.849,33.393,182.854,35.555,184.787,36.422z
		 M239.916,16.696c1.839,3.218,4.206,5.899,6.832,8.125l-10.27,17.916c-1.167,2.036-0.463,4.633,1.574,5.801
		c0.666,0.382,1.393,0.563,2.109,0.563c1.473,0,2.906-0.768,3.691-2.138l9.994-17.435c2.006,1.032,4.029,1.876,5.986,2.536
		c-13.269,14.227-16.326,35.104-16.738,48.886c-4.431-4.353-9.179-6.548-14.196-6.548c-4.436,0-8.356,1.767-11.587,4.077
		c0.63-16.543-5.4-28.163-11.285-35.476c-1.623-2.017-3.301-3.797-4.949-5.357C223.496,36.85,234.582,25.751,239.916,16.696z"/>
</g>
<g>
</g>
<g>
</g>
<g>
</g>
<g>
</g>
<g>
</g>
<g>
</g>
<g>
</g>
<g>
</g>
<g>
</g>
<g>
</g>
<g>
</g>
<g>
</g>
<g>
</g>
<g>
</g>
<g>
</g>
</svg>
