<?xml version="1.0" encoding="iso-8859-1"?>
<!-- Generator: Adobe Illustrator 18.0.0, SVG Export Plug-In . SVG Version: 6.00 Build 0)  -->
<!DOCTYPE svg PUBLIC "-//W3C//DTD SVG 1.1//EN" "http://www.w3.org/Graphics/SVG/1.1/DTD/svg11.dtd">
<svg version="1.1" id="Capa_1" xmlns="http://www.w3.org/2000/svg" xmlns:xlink="http://www.w3.org/1999/xlink" x="0px" y="0px" fill="#8c8c8c"
	 viewBox="0 0 482.855 482.855" style="enable-background:new 0 0 482.855 482.855;" xml:space="preserve">
<g>
	<path d="M227.944,87.505h34c2.347,0,4.25-1.903,4.25-4.25c0-2.347-1.903-4.25-4.25-4.25h-34c-2.347,0-4.25,1.903-4.25,4.25
		C223.694,85.602,225.597,87.505,227.944,87.505z"/>
	<path d="M373.444,104.005h43c2.347,0,4.25-1.903,4.25-4.25c0-2.347-1.903-4.25-4.25-4.25h-43c-2.347,0-4.25,1.903-4.25,4.25
		C369.194,102.102,371.097,104.005,373.444,104.005z"/>
	<path d="M87.444,363.005h-40c-2.347,0-4.25,1.903-4.25,4.25s1.903,4.25,4.25,4.25h40c2.347,0,4.25-1.903,4.25-4.25
		S89.791,363.005,87.444,363.005z"/>
	<path d="M409.444,385.005h-28.5c-2.347,0-4.25,1.903-4.25,4.25s1.903,4.25,4.25,4.25h28.5c2.347,0,4.25-1.903,4.25-4.25
		S411.791,385.005,409.444,385.005z"/>
	<path d="M264.194,109.255c0,2.347,1.903,4.25,4.25,4.25h31c2.347,0,4.25-1.903,4.25-4.25c0-2.347-1.903-4.25-4.25-4.25h-31
		C266.097,105.005,264.194,106.907,264.194,109.255z"/>
	<path d="M115.243,195.07l0.504,0.004c7.987,0,14.943-3.059,20.673-9.091c21.196-22.315,18.511-79.479,18.386-81.901
		c-0.062-1.213-0.641-2.342-1.589-3.101c-0.836-0.669-20.763-16.376-46.182-16.376c-6.203,0-12.271,0.955-18.037,2.837
		c-33.169,10.83-47.67,60.372-48.271,62.476c-0.375,1.311-0.097,2.724,0.747,3.796C42.78,155.375,73.961,194.404,115.243,195.07z
		 M91.636,95.522c4.912-1.604,10.093-2.418,15.398-2.418c18.661,0,34.507,10.002,39.352,13.4c0.035,1.292,0.069,3.174,0.068,5.5
		h-24.01c-2.347,0-4.25,1.903-4.25,4.25c0,2.347,1.903,4.25,4.25,4.25h23.854c-0.644,18.064-3.698,46.634-16.046,59.628
		c-4.119,4.335-8.864,6.441-14.506,6.441l-0.367-0.003c-32.607-0.526-59.48-29.131-65.814-36.434
		C52.624,140.846,66.265,103.806,91.636,95.522z"/>
	<path d="M229.259,227.122c23.196,5.546,47.181,11.281,55.332,17.14c0.736,0.529,1.606,0.799,2.481,0.799
		c0.656,0,1.315-0.152,1.921-0.46c1.416-0.718,2.313-2.165,2.328-3.752c0.009-1.038,0.128-25.748-8.675-53.589
		c-11.822-37.391-34.235-62.163-64.815-71.638c-10.915-3.382-43.323-9.474-44.697-9.731c-2.203-0.41-4.348,0.956-4.902,3.129
		c-1.801,7.072-17.428,69.651-11.477,88.83C160.489,209.875,186.638,216.931,229.259,227.122z M170.078,139.505h22.366
		c2.347,0,4.25-1.903,4.25-4.25s-1.903-4.25-4.25-4.25h-20.599c1.306-6.078,2.583-11.597,3.66-16.009
		c9.118,1.757,31.531,6.179,39.812,8.745c28.139,8.719,48.043,30.881,59.16,65.872c2.493,7.847,4.241,15.498,5.467,22.392h-22.499
		c-2.347,0-4.25,1.903-4.25,4.25s1.903,4.25,4.25,4.25h23c0.277,0,0.546-0.031,0.808-0.081c0.692,5.193,1.081,9.675,1.297,13.098
		c-11.712-5.197-31.06-9.823-51.314-14.665c-15.984-3.822-32.512-7.774-45.244-12.026c-17.67-5.902-20.655-10.009-21.118-11.5
		C161.982,186.009,165.776,160.964,170.078,139.505z"/>
	<path d="M247.457,238.721c-41.091-14.366-99.863-33.548-132.226-32.923c-2.038,0.038-3.762,1.518-4.108,3.527
		c-0.412,2.387-9.623,58.769,30.003,85.634c12.261,8.313,27.203,12.185,47.024,12.185c11.353,0,23.361-1.241,34.975-2.441
		c11.845-1.224,24.093-2.489,35.887-2.489c9.228,0,17.274,0.77,24.598,2.353c1.234,0.267,2.521-0.028,3.516-0.806
		c0.994-0.777,1.591-1.956,1.63-3.217c0.015-0.48,0.306-11.914-4.558-25.213C277.678,257.504,264.973,244.844,247.457,238.721z
		 M259.013,293.715c-12.232,0-24.702,1.288-36.761,2.534c-11.924,1.232-23.186,2.396-34.101,2.396
		c-18.041,0-31.467-3.406-42.255-10.72c-18.666-12.655-24.961-33.559-26.755-50.419h25.303c2.347,0,4.25-1.903,4.25-4.25
		s-1.903-4.25-4.25-4.25H118.57c-0.186-6.271,0.163-11.472,0.487-14.689c35.597,0.966,100.74,23.741,125.595,32.429
		c11.633,4.067,19.465,10.857,24.745,18.26h-29.954c-2.347,0-4.25,1.903-4.25,4.25s1.903,4.25,4.25,4.25h34
		c0.291,0,0.575-0.03,0.849-0.086c3.974,8.482,5.321,16.75,5.763,21.836C273.618,294.22,266.681,293.715,259.013,293.715z"/>
	<path d="M281.648,132.189c-0.413,1.799,0.383,3.659,1.969,4.602c20.251,12.054,21.102,77.611,19.721,101.854
		c-0.126,2.21,1.465,4.146,3.657,4.452c0.829,0.115,20.588,2.826,46.116,2.826c18.24,0,34.676-1.395,48.851-4.145
		c44.127-8.561,65.25-38.296,66.128-39.558c0.853-1.225,1-2.808,0.388-4.169c-26.653-59.304-101.615-65.864-146.426-69.786
		c-3.312-0.289-7.287-0.437-11.814-0.437c-12.156,0-24.3,1.033-24.811,1.077C283.587,129.064,282.061,130.39,281.648,132.189z
		 M310.237,136.329c4.281,0,8.006,0.136,11.096,0.406c40.875,3.577,107.964,9.452,135.535,57.27h-58.094
		c-2.347,0-4.25,1.903-4.25,4.25s1.903,4.25,4.25,4.25h58.036c-7.841,8.496-26.477,25.11-56.469,30.929
		c-13.643,2.647-29.534,3.99-47.232,3.99c-18.472,0-34.159-1.495-41.111-2.279c0.272-7.561,0.605-24.833-0.985-43.483
		c-1.229-14.418-3.344-26.477-6.321-36.157h22.751c2.347,0,4.25-1.903,4.25-4.25s-1.903-4.25-4.25-4.25h-25.856
		c-1.727-3.994-3.653-7.431-5.792-10.265C300.019,136.52,305.163,136.329,310.237,136.329z"/>
	<path d="M467.688,275.609c-6.795-12.015-19.014-30.071-24.903-32.594c-1.095-0.47-2.335-0.458-3.421,0.032
		c-0.478,0.216-48.535,21.586-105.917,21.588c-11.088,0-21.946-0.803-32.271-2.388c-1.332-0.206-2.683,0.235-3.64,1.185
		c-0.957,0.95-1.405,2.298-1.21,3.632c0.12,0.817,3.08,20.241,16.009,41.207c11.994,19.449,35.149,43.833,77.351,49.549
		c0.189,0.026,0.378,0.038,0.566,0.038c0.896,0,1.778-0.285,2.51-0.816c0.26-0.188,26.822-19.128,68.954-18.538l0.561,0.004
		c0.001,0,0.001,0,0.002,0c14.893,0,18.96-8.971,20.058-14.318C485.159,310.436,475.929,290.179,467.688,275.609z M473.851,323.162
		c-0.832,3.187-2.899,6.845-11.572,6.845h-0.001l-0.439-0.003c-39.865-0.572-66.226,14.956-72.62,19.164
		c-7.871-1.172-15.267-3.066-22.188-5.664h4.414c2.347,0,4.25-1.903,4.25-4.25s-1.903-4.25-4.25-4.25h-14
		c-1.636,0-3.039,0.935-3.749,2.289c-8.682-4.917-16.426-11.189-23.21-18.789h19.959c2.347,0,4.25-1.903,4.25-4.25
		s-1.903-4.25-4.25-4.25h-26.748c-1.367-1.911-2.69-3.882-3.959-5.926c-8.072-13.005-12.038-25.596-13.792-32.594
		c8.904,1.096,18.127,1.65,27.501,1.649c52.716-0.002,96.708-16.994,107.134-21.357c3.517,3.329,11.727,13.865,19.822,28.228
		h-27.958c-2.347,0-4.25,1.903-4.25,4.25s1.903,4.25,4.25,4.25h32.472C472.457,303.683,475.7,316.083,473.851,323.162z"/>
	<path d="M316.812,330.73c-17.471-11.758-37.536-22.64-65.815-22.64c-14.982,0-31.159,3.193-48.082,9.49
		c-54.759,20.375-88.641,38.514-88.977,38.695c-1.393,0.751-2.254,2.212-2.234,3.795c0.02,1.583,0.917,3.023,2.328,3.738
		c0.79,0.4,79.936,40.042,160.467,40.043c0.001,0,0.002,0,0.003,0c7.955,0,15.78-0.387,23.257-1.151
		c31.297-3.198,48.132-11.232,51.469-24.562C354.556,356.85,320.691,333.341,316.812,330.73z M296.894,394.243
		c-7.192,0.735-14.725,1.107-22.393,1.107h-0.002c-46.605-0.001-92.83-13.667-122.848-24.846h38.793c2.347,0,4.25-1.903,4.25-4.25
		s-1.903-4.25-4.25-4.25h-53c-1.327,0-2.497,0.621-3.277,1.574c-3.318-1.397-6.188-2.657-8.554-3.722
		c12.814-6.367,41.123-19.745,80.266-34.31c15.972-5.943,31.152-8.957,45.118-8.957c26,0,44.716,10.185,61.069,21.191
		c9.822,6.61,22.597,17.97,27.342,28.223h-21.964c-2.347,0-4.25,1.903-4.25,4.25s1.903,4.25,4.25,4.25h23.789
		c-0.049,0.532-0.123,1.058-0.251,1.569C339.381,382.471,330.432,390.816,296.894,394.243z"/>
	<path d="M51.435,335.587c9.589,6.346,22.41,9.702,37.075,9.702c0.003,0,0.003,0,0.005,0c13.799,0,28.626-3.023,40.676-8.295
		c12.941-5.662,19.318-11.747,19.494-18.602c0.204-7.951-8.095-12.333-9.042-12.806c-0.045-0.023-0.09-0.044-0.135-0.065
		c-0.497-0.227-49.791-23.344-55.863-77.997c-0.156-1.401-0.996-2.633-2.242-3.29c-1.247-0.656-2.738-0.653-3.982,0.01
		c-0.516,0.275-12.775,6.886-24.578,19.514C36.998,260.71,29.656,280.442,31.61,300.82C33.08,316.156,39.751,327.854,51.435,335.587
		z M76.141,235.05c4.851,27.526,19.774,46.774,31.911,58.346c13.703,13.065,26.56,19.222,27.838,19.817
		c1.217,0.626,4.352,2.871,4.298,4.961c-0.059,2.313-3.874,6.426-14.404,11.033c-11.015,4.819-24.599,7.582-37.269,7.582
		c-0.001,0-0.004,0-0.005,0c-16.774-0.001-45.372-4.781-48.44-36.781C36.784,265.729,64.274,243.126,76.141,235.05z"/>
	<path d="M73.975,203.331c0.998-5.411-0.632-9.998-4.753-13.293c-1.236-0.968-30.979-23.997-53.379-23.333
		c-10.38,0.314-16.15,12.617-15.831,33.753c0.25,16.511,5.528,50.605,20.253,50.607c0.929,0,1.861-0.148,2.77-0.438
		C35.681,246.58,70.592,221.665,73.975,203.331z M20.446,242.531c-0.071,0.023-0.13,0.034-0.179,0.034
		c-0.675,0-3.863-2.081-7.125-12.261c-2.745-8.569-4.476-19.774-4.63-29.974c-0.221-14.653,2.899-24.987,7.59-25.129
		c0.248-0.007,0.494-0.011,0.745-0.011c19.352,0,46.863,21.327,47.103,21.514c1.123,0.898,2.2,2.205,1.668,5.085
		C63.102,215.409,32.695,238.612,20.446,242.531z"/>
	<path d="M215.777,199.171c13.739,0,24.917-11.177,24.917-24.917c0-13.739-11.177-24.917-24.917-24.917
		c-13.739,0-24.917,11.177-24.917,24.917C190.861,187.993,202.038,199.171,215.777,199.171z M215.777,157.838
		c9.052,0,16.417,7.364,16.417,16.417c0,9.052-7.364,16.417-16.417,16.417c-9.052,0-16.417-7.364-16.417-16.417
		C199.361,165.202,206.725,157.838,215.777,157.838z"/>
	<path d="M177.111,234.671c-12.636,0-22.917,10.281-22.917,22.917s10.281,22.917,22.917,22.917s22.917-10.281,22.917-22.917
		S189.747,234.671,177.111,234.671z M177.111,272.005c-7.95,0-14.417-6.467-14.417-14.417c0-7.95,6.467-14.417,14.417-14.417
		c7.95,0,14.417,6.467,14.417,14.417C191.528,265.537,185.06,272.005,177.111,272.005z"/>
	<path d="M103.777,159.171c11.166,0,20.25-9.084,20.25-20.25s-9.084-20.25-20.25-20.25s-20.25,9.084-20.25,20.25
		S92.611,159.171,103.777,159.171z M103.777,127.171c6.479,0,11.75,5.271,11.75,11.75s-5.271,11.75-11.75,11.75
		c-6.479,0-11.75-5.271-11.75-11.75S97.298,127.171,103.777,127.171z"/>
	<path d="M72.444,312.504c7.857,0,14.25-6.393,14.25-14.25s-6.393-14.25-14.25-14.25s-14.25,6.393-14.25,14.25
		S64.586,312.504,72.444,312.504z M72.444,292.504c3.17,0,5.75,2.58,5.75,5.75s-2.58,5.75-5.75,5.75c-3.17,0-5.75-2.58-5.75-5.75
		S69.273,292.504,72.444,292.504z"/>
	<path d="M31.111,192.004c-7.857,0-14.25,6.393-14.25,14.25s6.393,14.25,14.25,14.25s14.25-6.393,14.25-14.25
		S38.968,192.004,31.111,192.004z M31.111,212.004c-3.17,0-5.75-2.58-5.75-5.75s2.58-5.75,5.75-5.75s5.75,2.58,5.75,5.75
		S34.281,212.004,31.111,212.004z"/>
	<path d="M261.777,336.004c-11.533,0-20.917,9.383-20.917,20.917s9.383,20.917,20.917,20.917s20.917-9.383,20.917-20.917
		S273.31,336.004,261.777,336.004z M261.777,369.337c-6.847,0-12.417-5.57-12.417-12.417s5.57-12.417,12.417-12.417
		c6.847,0,12.417,5.57,12.417,12.417S268.624,369.337,261.777,369.337z"/>
	<path d="M383.777,279.338c-10.431,0-18.917,8.486-18.917,18.917s8.486,18.917,18.917,18.917c10.431,0,18.917-8.486,18.917-18.917
		S394.208,279.338,383.777,279.338z M383.777,308.671c-5.744,0-10.417-4.673-10.417-10.417c0-5.744,4.673-10.417,10.417-10.417
		c5.744,0,10.417,4.673,10.417,10.417C394.194,303.998,389.521,308.671,383.777,308.671z"/>
	<path d="M355.777,201.837c10.431,0,18.916-8.486,18.916-18.917c0-10.431-8.486-18.917-18.916-18.917s-18.917,8.486-18.917,18.917
		C336.861,193.351,345.347,201.837,355.777,201.837z M355.777,172.504c5.744,0,10.416,4.673,10.416,10.417
		c0,5.744-4.673,10.417-10.416,10.417c-5.744,0-10.417-4.673-10.417-10.417C345.361,177.177,350.034,172.504,355.777,172.504z"/>
	<path d="M16.444,115.505h19c2.347,0,4.25-1.903,4.25-4.25c0-2.347-1.903-4.25-4.25-4.25h-19c-2.347,0-4.25,1.903-4.25,4.25
		C12.194,113.602,14.097,115.505,16.444,115.505z"/>
</g>
<g>
</g>
<g>
</g>
<g>
</g>
<g>
</g>
<g>
</g>
<g>
</g>
<g>
</g>
<g>
</g>
<g>
</g>
<g>
</g>
<g>
</g>
<g>
</g>
<g>
</g>
<g>
</g>
<g>
</g>
</svg>
