<?xml version="1.0" encoding="iso-8859-1"?>
<!-- Generator: Adobe Illustrator 18.0.0, SVG Export Plug-In . SVG Version: 6.00 Build 0)  -->
<!DOCTYPE svg PUBLIC "-//W3C//DTD SVG 1.1//EN" "http://www.w3.org/Graphics/SVG/1.1/DTD/svg11.dtd">
<svg version="1.1" id="Capa_1" xmlns="http://www.w3.org/2000/svg" xmlns:xlink="http://www.w3.org/1999/xlink" x="0px" y="0px" fill="#8c8c8c"
	 viewBox="0 0 485.852 485.852" style="enable-background:new 0 0 485.852 485.852;" xml:space="preserve">
<g>
	<path d="M192.367,168.262c20.898-21.955,45.879-58.724,46.207-109.218c0.015-2.347-1.875-4.263-4.222-4.278
		c-0.01,0-0.019,0-0.028,0c-2.335,0-4.234,1.885-4.25,4.222c-0.248,38.213-14.94,72.937-43.668,103.207
		c-16.045,16.907-32.227,27.612-39.571,32.044c-2.646-10.54-1.179-19.461,1.665-26.477c3.293-1.302,17.849-7.588,32.873-22.348
		c15.367-15.098,34.122-42.308,36.202-86.197c0.111-2.345-1.699-4.335-4.044-4.446c-2.346-0.125-4.335,1.7-4.446,4.044
		c-1.558,32.868-12.79,59.869-33.383,80.254c-6.304,6.24-12.569,10.869-17.787,14.168c1.887-1.99,3.297-3.12,3.551-3.318
		c0.067-0.052,0.134-0.106,0.198-0.163c14.191-12.412,22.839-29.599,24.351-48.394c3.182-39.554-26.409-74.322-65.962-77.503
		c-1.808-0.145-3.647-0.219-5.467-0.219c-16.311,0-32.748,5.871-46.285,16.531C28.846,71.245,4.804,117.124,0.601,169.358
		c-4.826,59.996,19.817,123.034,58.597,149.889c6.353,4.399,22.861,11.353,36.091,12.418c1.941,0.156,3.907,0.235,5.845,0.235
		c18.027,0,35.294-6.74,48.618-18.978c4.773-4.384,8.87-9.343,12.251-14.72c6.268,0.776,25.48,4.863,25.48,25.82v133.941
		c0,2.347,1.903,4.25,4.25,4.25c2.347,0,4.25-1.903,4.25-4.25V324.021c0-22.404-17.031-31.363-29.654-33.785
		c3.552-7.653,5.771-15.936,6.463-24.535c0.512-6.359-0.044-12.373-1.344-18.112c12.097,8.765,32.507,27.95,33.32,58.029
		c1.218,45.071,0.011,151.227-0.001,152.294c-0.027,2.347,1.854,4.272,4.2,4.299c0.017,0,0.034,0,0.05,0
		c2.324,0,4.222-1.871,4.249-4.201c0.013-1.069,1.221-107.388-0.001-152.622c-1.21-44.739-39.715-67.186-45.988-70.548
		c-3.372-7.979-7.865-15.456-12.44-22.646c-2.136-3.357-3.841-6.6-5.189-9.727C156.541,198.463,174.335,187.204,192.367,168.262z
		 M164.32,265.02c-2.633,32.736-30.387,58.379-63.185,58.379c-1.711,0-3.449-0.07-5.163-0.208
		c-11.152-0.897-26.362-7.074-31.934-10.933C27.591,287.019,4.476,227.207,9.074,170.039c0.194-2.412,0.446-4.806,0.728-7.189
		h27.622c2.347,0,4.25-1.903,4.25-4.25c0-2.347-1.903-4.25-4.25-4.25H11.003c0.811-4.922,1.811-9.773,2.998-14.543h13.547
		c2.347,0,4.25-1.903,4.25-4.25c0-2.347-1.903-4.25-4.25-4.25H16.339c4.671-15.491,11.355-30.041,19.896-43.348h73.613
		c2.347,0,4.25-1.903,4.25-4.25c0-2.347-1.903-4.25-4.25-4.25H42.063c8.897-12.148,19.436-23.112,31.496-32.61
		c12.044-9.485,26.614-14.709,41.026-14.709c1.593,0,3.204,0.064,4.785,0.192c34.881,2.806,60.977,33.467,58.171,68.349
		c-1.332,16.554-8.939,31.692-21.425,42.634c-0.414,0.339-1.645,1.383-3.292,3.072c-3.904-15.588-16.432-21.523-23.496-22.451
		c-2.327-0.3-4.461,1.333-4.767,3.661c-0.306,2.327,1.333,4.461,3.661,4.767c0.684,0.09,16.743,2.438,17.289,23.207
		c-6.304,9.749-11.97,24.857-6.051,43.886c-14.622,13.251-27.426,4.021-28.009,3.586c-1.86-1.413-4.516-1.059-5.94,0.797
		c-1.43,1.862-1.08,4.53,0.782,5.959c3.377,2.593,9.396,5.305,16.637,5.305c6.028,0,12.904-1.889,19.801-7.285
		c1.363,2.905,2.99,5.884,4.935,8.94C156.891,231.256,165.775,246.925,164.32,265.02z"/>
	<path d="M485.25,169.358c-4.202-52.233-28.244-98.113-67.698-129.186c-13.536-10.661-29.974-16.532-46.285-16.532
		c-1.82,0-3.659,0.074-5.466,0.219c-39.553,3.182-69.144,37.95-65.961,77.504c1.511,18.795,10.159,35.982,24.351,48.393
		c0.065,0.056,0.13,0.11,0.198,0.163c0.039,0.031,2.103,1.656,4.734,4.68c-17.132-10.214-48.73-36.878-52.357-95.843
		c-0.144-2.342-2.142-4.121-4.503-3.981c-2.343,0.144-4.125,2.16-3.981,4.503c2.776,45.133,21.278,72.254,36.312,87.059
		c16.413,16.163,32.124,21.5,32.785,21.72c0.007,0.002,0.015,0.003,0.021,0.005c3.347,8.325,3.916,17.004,1.697,25.958
		c-7.257-4.342-23.549-15.023-39.697-31.995c-28.696-30.16-43.373-64.826-43.621-103.037c-0.015-2.337-1.915-4.222-4.249-4.222
		c-0.009,0-0.019,0-0.028,0c-2.347,0.015-4.237,1.931-4.222,4.278c0.328,50.496,25.287,87.176,46.168,109.055
		c18.163,19.031,36.089,30.256,42.853,34.15c-1.408,3.285-3.154,6.6-5.283,9.946c-4.575,7.19-9.067,14.667-12.44,22.645
		c-6.272,3.362-44.78,25.809-45.99,70.549c-1.222,45.234-0.014,151.553-0.001,152.622c0.027,2.33,1.924,4.201,4.249,4.201
		c0.017,0,0.034,0,0.05,0c2.347-0.027,4.228-1.952,4.2-4.299c-0.012-1.067-1.219-107.223-0.001-152.294
		c0.81-29.976,21.213-49.199,33.314-57.998c-1.295,5.729-1.849,11.734-1.338,18.081c0.692,8.599,2.911,16.881,6.462,24.535
		c-12.622,2.422-29.654,11.381-29.654,33.785v133.941c0,2.347,1.903,4.25,4.25,4.25c2.347,0,4.25-1.903,4.25-4.25V324.021
		c0-20.958,19.213-25.044,25.48-25.82c3.381,5.378,7.478,10.336,12.251,14.72c13.324,12.238,30.59,18.978,48.617,18.978
		c0,0,0.001,0,0.002,0c1.937,0,3.903-0.079,5.843-0.235c13.229-1.064,29.737-8.018,36.091-12.418
		C465.434,292.39,490.077,229.353,485.25,169.358z M464.361,253.932h-91.159c-2.347,0-4.25,1.903-4.25,4.25
		c0,2.347,1.903,4.25,4.25,4.25h87.572c-4.787,10.502-10.501,20.14-16.991,28.535h-29.431c-2.347,0-4.25,1.903-4.25,4.25
		c0,2.347,1.903,4.25,4.25,4.25h22.161c-4.606,4.885-9.512,9.199-14.699,12.791c-5.572,3.859-20.782,10.036-31.934,10.933
		c-1.715,0.138-3.451,0.208-5.162,0.208c0,0-0.001,0-0.001,0c-32.798,0-60.552-25.644-63.185-58.379
		c-1.455-18.095,7.43-33.763,16.655-48.261c2.015-3.166,3.691-6.251,5.083-9.256c7.033,5.642,14.058,7.601,20.204,7.601
		c7.239,0,13.26-2.712,16.637-5.305c1.862-1.43,2.212-4.098,0.782-5.959c-1.43-1.862-4.098-2.212-5.959-0.782
		c-0.545,0.417-13.443,10.017-28.426-3.995c5.559-18.32,0.396-32.977-5.648-42.674c0.718-20.197,16.615-23.92,17.345-24.027
		c2.315-0.316,3.942-2.444,3.637-4.764c-0.305-2.327-2.438-3.965-4.767-3.661c-7.133,0.937-19.833,6.981-23.604,22.91
		c-1.871-1.963-3.287-3.165-3.736-3.533c-12.485-10.942-20.093-26.08-21.424-42.633c-2.806-34.882,23.289-65.544,58.17-68.35
		c15.888-1.28,32.435,3.983,45.811,14.518c37.573,29.592,60.474,73.342,64.484,123.19
		C479.102,198.932,474.339,228.493,464.361,253.932z"/>
</g>
<g>
</g>
<g>
</g>
<g>
</g>
<g>
</g>
<g>
</g>
<g>
</g>
<g>
</g>
<g>
</g>
<g>
</g>
<g>
</g>
<g>
</g>
<g>
</g>
<g>
</g>
<g>
</g>
<g>
</g>
</svg>
