<svg width="910" height="749" viewBox="0 0 910 749" fill="none" xmlns="http://www.w3.org/2000/svg">
<g clip-path="url(#clip0)">
<g opacity="0.7">
<path opacity="0.7" d="M839.83 284.81V273.91H785.36V324.3C785.36 327.117 786.479 329.818 788.471 331.809C790.462 333.801 793.163 334.92 795.98 334.92H829.21C832.027 334.92 834.728 333.801 836.719 331.809C838.711 329.818 839.83 327.117 839.83 324.3V313.11C843.587 313.11 847.19 311.618 849.846 308.961C852.503 306.305 853.995 302.702 853.995 298.945C853.995 295.188 852.503 291.585 849.846 288.929C847.19 286.272 843.587 284.78 839.83 284.78V284.81ZM839.83 307.69V290.25C840.999 290.21 842.165 290.406 843.257 290.827C844.349 291.247 845.345 291.882 846.186 292.695C847.027 293.509 847.696 294.483 848.153 295.56C848.61 296.637 848.845 297.795 848.845 298.965C848.845 300.135 848.61 301.293 848.153 302.37C847.696 303.447 847.027 304.421 846.186 305.234C845.345 306.048 844.349 306.683 843.257 307.103C842.165 307.523 840.999 307.72 839.83 307.68V307.69Z" fill="url(#paint0_linear)"/>
</g>
<path d="M838.12 286.51C835.563 286.51 833.063 287.268 830.936 288.689C828.81 290.11 827.153 292.129 826.174 294.492C825.196 296.855 824.94 299.454 825.438 301.962C825.937 304.471 827.169 306.775 828.977 308.583C830.785 310.391 833.089 311.623 835.597 312.122C838.106 312.62 840.705 312.364 843.068 311.386C845.431 310.407 847.45 308.75 848.871 306.624C850.292 304.497 851.05 301.997 851.05 299.44C851.05 296.011 849.688 292.722 847.263 290.297C844.838 287.872 841.549 286.51 838.12 286.51ZM838.12 307.4C836.538 307.4 834.991 306.931 833.675 306.052C832.36 305.173 831.334 303.923 830.729 302.461C830.123 301 829.965 299.391 830.274 297.839C830.582 296.287 831.344 294.862 832.463 293.743C833.582 292.624 835.007 291.862 836.559 291.554C838.111 291.245 839.72 291.403 841.181 292.009C842.643 292.614 843.893 293.64 844.772 294.955C845.651 296.271 846.12 297.818 846.12 299.4C846.12 301.522 845.277 303.557 843.777 305.057C842.277 306.557 840.242 307.4 838.12 307.4Z" fill="#F6B586"/>
<path opacity="0.1" d="M838.12 286.51C835.563 286.51 833.063 287.268 830.936 288.689C828.81 290.11 827.153 292.129 826.174 294.492C825.196 296.855 824.94 299.454 825.438 301.962C825.937 304.471 827.169 306.775 828.977 308.583C830.785 310.391 833.089 311.623 835.597 312.122C838.106 312.62 840.705 312.364 843.068 311.386C845.431 310.407 847.45 308.75 848.871 306.624C850.292 304.497 851.05 301.997 851.05 299.44C851.05 296.011 849.688 292.722 847.263 290.297C844.838 287.872 841.549 286.51 838.12 286.51ZM838.12 307.4C836.538 307.4 834.991 306.931 833.675 306.052C832.36 305.173 831.334 303.923 830.729 302.461C830.123 301 829.965 299.391 830.274 297.839C830.582 296.287 831.344 294.862 832.463 293.743C833.582 292.624 835.007 291.862 836.559 291.554C838.111 291.245 839.72 291.403 841.181 292.009C842.643 292.614 843.893 293.64 844.772 294.955C845.651 296.271 846.12 297.818 846.12 299.4C846.12 301.522 845.277 303.557 843.777 305.057C842.277 306.557 840.242 307.4 838.12 307.4Z" fill="black"/>
<path d="M788.34 276.56H838.08V322.56C838.08 325.146 837.053 327.626 835.224 329.454C833.396 331.283 830.916 332.31 828.33 332.31H798.09C795.504 332.31 793.024 331.283 791.196 329.454C789.367 327.626 788.34 325.146 788.34 322.56V276.56Z" fill="#F6B586"/>
<path opacity="0.1" d="M829.12 276.56V322.56C829.12 323.834 828.869 325.095 828.382 326.272C827.894 327.449 827.18 328.518 826.279 329.419C825.378 330.32 824.309 331.034 823.132 331.522C821.955 332.009 820.694 332.26 819.42 332.26H824.42C826.993 332.26 829.46 331.238 831.279 329.419C833.098 327.6 834.12 325.133 834.12 322.56V276.56H829.12Z" fill="black"/>
<path d="M798.12 239.48C797.693 239.493 797.275 239.601 796.895 239.794C796.515 239.988 796.182 240.263 795.92 240.6C795.27 241.78 796.45 243.12 797.53 243.93C799.53 245.43 801.62 246.93 802.98 249C804.34 251.07 804.76 254 803.28 256C801.35 258.62 796.73 259.19 796.28 262.41C795.99 264.48 797.78 266.25 799.6 267.29C804.08 269.86 809.86 270.54 813.1 274.56C814.44 271.8 817.45 270.2 820.44 269.56C823.43 268.92 826.54 268.93 829.58 268.47C830.081 268.461 830.572 268.333 831.014 268.096C831.456 267.86 831.835 267.522 832.12 267.11C832.97 265.39 830.55 263.32 831.39 261.6C832.03 260.28 833.89 260.39 835.25 259.86C837.47 259 838.38 256.15 837.75 253.86C837.12 251.57 835.34 249.77 833.47 248.3C828.47 244.3 822.37 242.01 816.24 240.3C813.39 239.52 810.04 238.3 807.08 238.18C804.12 238.06 800.98 239 798.12 239.48Z" fill="#EEEEEE"/>
<path d="M449.06 344.02L345.06 668.02" stroke="#E0E0E0" stroke-width="8" stroke-miterlimit="10"/>
<g opacity="0.7">
<path opacity="0.7" d="M529.64 704.51C516.85 705.25 505.45 715.97 505.45 715.97L499.94 702.3L499.49 702.45C502.18 690.67 556.96 447.73 502.12 426.79C459.99 410.7 415.3 390.79 380.28 391.53V334.11H429.37V332.11H468.23C475.68 326.79 464.85 323.11 452.76 320.84C453.254 320.276 453.69 319.662 454.06 319.01L516.3 207.34C516.3 207.34 530.62 183.82 521.41 172.57C512.2 161.32 498.91 201.21 498.91 201.21L447.78 274.84C447.78 274.84 396.12 221.03 363.34 194.28C359.697 190.668 355.587 187.561 351.12 185.04C345.12 180.99 340.59 178.88 338.35 179.71H338.29C333.314 178.331 328.174 177.632 323.01 177.63H318.92V169.24C328.084 166.214 336.468 161.204 343.473 154.566C350.479 147.929 355.934 139.828 359.45 130.84C365.219 121.284 368.743 110.543 369.754 99.427C370.766 88.3108 369.239 77.11 365.29 66.67C365.9 66.5963 366.487 66.3917 367.01 66.07C368.86 64.88 369.01 62.27 368.87 60.07C368.198 52.7017 365.742 45.6078 361.714 39.4016C357.686 33.1954 352.206 28.0637 345.75 24.45C340.57 21.62 334.63 19.66 330.81 15.16C327.53 11.29 326.15 5.87999 322.17 2.71999C317.45 -1.03001 310.63 -0.390014 304.84 1.28999C298.394 3.15598 292.287 6.03891 286.75 9.82999C280.49 14.12 274.83 19.63 267.62 22.01C262.5 23.7 256.94 23.66 251.78 25.25C247.822 26.5029 244.212 28.6649 241.239 31.5631C238.266 34.4612 236.013 38.015 234.66 41.94C233.355 46.1418 232.859 50.5533 233.2 54.94C230.063 60.1816 227.593 65.7952 225.85 71.65L224.69 72.28L225.81 71.78C221.898 84.9834 221.768 99.0193 225.434 112.293C229.1 125.567 236.416 137.546 246.55 146.87C254.558 157.295 265.516 165.072 278 169.19V179.34C269.093 181.261 260.596 184.741 252.9 189.62V189.62C252.9 189.62 252.25 190.02 251.13 190.78L250.79 191.01C243.22 196.15 217.86 214.91 218.72 235.19C218.72 235.97 218.72 236.753 218.72 237.54C217.336 243.399 216.634 249.399 216.63 255.42V402.65C216.604 418.91 222.061 434.704 232.12 447.48C210.78 452.26 197.18 459.48 197.18 467.59C197.282 468.253 197.282 468.927 197.18 469.59C197.18 483.99 240.18 495.67 293.31 495.67C299.73 495.67 306 495.5 312.07 495.17L372.07 543.73L275.97 698.21C275.97 698.21 244.27 722.75 268.81 730.94C293.35 739.13 343.47 745.26 343.47 745.26C343.47 745.26 351.65 730.94 340.4 724.81C329.15 718.68 313.81 721.74 313.81 721.74L315.81 709.47C315.81 709.47 482.51 566.29 447.74 517.21C441.09 507.82 434.44 498.13 427.74 488.59L453.98 490.98L459.98 715.74L460.73 715.5C459.23 719.92 448.63 753.24 472.13 747.6C497.29 741.6 543.06 720.27 543.06 720.27C543.06 720.27 542.43 703.77 529.64 704.51ZM429.37 317.77L380.28 303.52V261.52L433.63 318.11C431.01 317.9 429.37 317.77 429.37 317.77Z" fill="url(#paint1_linear)"/>
</g>
<path d="M298.06 171.02C337.825 171.02 370.06 138.784 370.06 99.02C370.06 59.2555 337.825 27.02 298.06 27.02C258.295 27.02 226.06 59.2555 226.06 99.02C226.06 138.784 258.295 171.02 298.06 171.02Z" fill="black"/>
<path d="M380.06 264.02L435.01 322.35C436.166 323.579 437.596 324.519 439.183 325.091C440.771 325.664 442.471 325.855 444.146 325.647C445.82 325.44 447.422 324.84 448.822 323.897C450.221 322.954 451.379 321.694 452.2 320.22L513.06 211.03L496.06 205.03L446.06 277.03C446.06 277.03 352.19 179.19 339.06 184.03C325.93 188.87 380.06 264.02 380.06 264.02Z" fill="#F6B586"/>
<path d="M275.06 466.02L194.06 676.02" stroke="#BDBDBD" stroke-width="5" stroke-miterlimit="10"/>
<path d="M315.06 466.02L396.06 676.02" stroke="#BDBDBD" stroke-width="5" stroke-miterlimit="10"/>
<path d="M295.06 493.02C346.975 493.02 389.06 481.603 389.06 467.52C389.06 453.437 346.975 442.02 295.06 442.02C243.145 442.02 201.06 453.437 201.06 467.52C201.06 481.603 243.145 493.02 295.06 493.02Z" fill="#B84733"/>
<path d="M295.06 491.02C346.975 491.02 389.06 479.603 389.06 465.52C389.06 451.437 346.975 440.02 295.06 440.02C243.145 440.02 201.06 451.437 201.06 465.52C201.06 479.603 243.145 491.02 295.06 491.02Z" fill="#EA9059"/>
<path d="M255.5 512.15L344.19 539.48" stroke="#BDBDBD" stroke-width="5" stroke-miterlimit="10"/>
<path d="M334.61 512.15L245.92 539.48" stroke="#BDBDBD" stroke-width="5" stroke-miterlimit="10"/>
<path d="M296.15 182H324.06C338.912 182 353.156 187.9 363.658 198.402C374.16 208.904 380.06 223.148 380.06 238V386H220.06V258.11C220.057 248.116 222.024 238.219 225.846 228.985C229.669 219.752 235.273 211.361 242.339 204.293C249.405 197.226 257.794 191.619 267.027 187.794C276.26 183.969 286.156 182 296.15 182V182Z" fill="#F6B586"/>
<path d="M220.06 386H380.06V473H291.06C272.23 473 254.171 465.52 240.855 452.205C227.54 438.89 220.06 420.83 220.06 402V386Z" fill="#8BC7E9"/>
<path opacity="0.05" d="M222.22 242.06L320.06 335.06H428.06V321.06L335.06 294.06L255.51 195.82C255.51 195.82 219.38 218.11 222.22 242.06Z" fill="black"/>
<path d="M222.22 240.06L320.06 333.06H428.06V319.06L335.06 292.06L255.51 193.82C255.51 193.82 219.38 216.11 222.22 240.06Z" fill="#F6B586"/>
<path d="M428.06 319.02C428.06 319.02 480.06 323.02 466.06 333.02H428.06V319.02Z" fill="#FDA57D"/>
<path d="M496.06 205.02C496.06 205.02 509.06 166.02 518.06 177.02C527.06 188.02 513.06 211.02 513.06 211.02L496.06 205.02Z" fill="#FDA57D"/>
<path opacity="0.05" d="M220.06 386.02V390.68L380.06 391.02V386.02H220.06Z" fill="black"/>
<path d="M344.52 478.56L452.12 488.37L457.98 708.11L496.51 695.57C496.51 695.57 554.14 446.57 499.19 425.57C444.24 404.57 384.84 376.94 349.38 399.47C313.92 422 344.52 478.56 344.52 478.56Z" fill="#8BC7E9"/>
<path opacity="0.1" d="M351.06 411.02C351.06 411.02 410.06 441.02 418.06 475.02Z" fill="black"/>
<path d="M288.06 472.02L372.06 540.02L278.06 691.02L317.06 702.02C317.06 702.02 480.06 562.02 446.06 514.02C412.06 466.02 378.06 410.02 336.06 409.02C294.06 408.02 288.06 472.02 288.06 472.02Z" fill="#8BC7E9"/>
<path opacity="0.05" d="M420.06 251.02L441.06 287.02L446.06 277.02L420.06 251.02Z" fill="black"/>
<path d="M278.06 691.02C278.06 691.02 247.06 715.02 271.06 723.02C295.06 731.02 344.06 737.02 344.06 737.02C344.06 737.02 352.06 723.02 341.06 717.02C330.06 711.02 315.06 714.02 315.06 714.02L317.06 702.02L278.06 691.02Z" fill="#333333"/>
<path d="M458.88 707.43C458.88 707.43 445.26 745.19 469.88 739.29C494.5 733.39 539.24 712.56 539.24 712.56C539.24 712.56 538.63 696.45 526.12 697.17C513.61 697.89 502.47 708.37 502.47 708.37L497.08 695L458.88 707.43Z" fill="#333333"/>
<path d="M320.06 167.02C320.06 155.974 311.106 147.02 300.06 147.02C289.014 147.02 280.06 155.974 280.06 167.02V187.02C280.06 198.066 289.014 207.02 300.06 207.02C311.106 207.02 320.06 198.066 320.06 187.02V167.02Z" fill="#FDA57D"/>
<path opacity="0.05" d="M300.06 149.02C294.756 149.02 289.669 151.127 285.918 154.878C282.167 158.629 280.06 163.716 280.06 169.02V175.82C293.051 180.094 307.069 180.094 320.06 175.82V169.02C320.06 163.716 317.953 158.629 314.202 154.878C310.451 151.127 305.364 149.02 300.06 149.02V149.02Z" fill="black"/>
<path d="M300.06 177.02C335.406 177.02 364.06 148.366 364.06 113.02C364.06 77.6738 335.406 49.02 300.06 49.02C264.714 49.02 236.06 77.6738 236.06 113.02C236.06 148.366 264.714 177.02 300.06 177.02Z" fill="#FDA57D"/>
<path opacity="0.05" d="M236.06 110.11C236.06 110.11 252.06 114.23 261.06 96.05C270.06 77.87 277.06 67.95 314.06 78.69C351.06 89.43 358.5 90.75 360.28 80.59C361.5 73.65 348.34 56.78 339.88 46.8C335.76 41.93 329.03 39.02 321.88 39.02H280.06L255.06 50.59L236.06 67.12L232.06 89.44L236.06 110.11Z" fill="black"/>
<path d="M236.06 108.11C236.06 108.11 252.06 112.23 261.06 94.05C270.06 75.87 277.06 65.95 314.06 76.69C351.06 87.43 358.5 88.75 360.28 78.59C361.5 71.65 348.34 54.78 339.88 44.8C335.76 39.93 329.03 37.02 321.88 37.02H280.06L255.06 48.59L236.06 65.12L232.06 87.44L236.06 108.11Z" fill="black"/>
<path d="M242.56 121.02C246.15 121.02 249.06 115.2 249.06 108.02C249.06 100.84 246.15 95.02 242.56 95.02C238.97 95.02 236.06 100.84 236.06 108.02C236.06 115.2 238.97 121.02 242.56 121.02Z" fill="#FDA57D"/>
<path d="M237.91 74.57C236.43 66.2 234.97 57.41 237.67 49.35C238.992 45.5117 241.195 42.0363 244.102 39.2024C247.009 36.3684 250.539 34.2545 254.41 33.03C259.41 31.48 264.89 31.51 269.9 29.86C276.95 27.54 282.48 22.15 288.61 17.95C294.025 14.2431 299.997 11.4243 306.3 9.60001C311.96 7.96001 318.63 7.33001 323.25 11C327.13 14.09 328.48 19.38 331.69 23.16C335.43 27.56 341.23 29.47 346.3 32.24C352.616 35.7787 357.974 40.8036 361.91 46.8796C365.846 52.9556 368.242 59.8995 368.89 67.11C369.06 69.26 368.89 71.81 367.07 72.97C365.945 73.5444 364.676 73.7773 363.42 73.64C337.84 73.27 312.23 72.91 286.76 70.56C278.84 69.83 270.91 68.91 262.96 69.21C250.676 69.697 238.682 73.0861 227.96 79.1" fill="black"/>
<g opacity="0.7">
<path opacity="0.7" d="M174 518.26C175.649 511.601 175.244 504.599 172.84 498.174C170.436 491.749 166.145 486.201 160.53 482.26C157.53 480.26 154.25 478.73 151.53 476.42C146.97 472.58 144.36 466.91 142.48 461.24C137.96 447.66 136.53 432.43 128.6 420.16C121.38 408.99 107.33 405.72 94.86 404.61C90.32 404.2 85.55 403.99 81.4 405.87C74.45 409.01 71.14 417.22 70.83 424.87C70.52 432.52 72.5 440.01 73 447.61C73.5 455.21 72.14 463.61 66.52 468.75C60.9 473.89 52.87 474.52 45.42 475.55C35.6664 476.903 26.0832 479.282 16.83 482.65C9.06 485.48 0.40999 490.58 0.0399904 498.84C-0.26001 505.59 5.19 510.98 9.28 516.35C16.93 526.35 20.75 539.64 18.16 551.99C15.52 564.56 6.69 575.35 5.08 588.1C4.67 591.34 4.79 594.78 6.36 597.64C7.60659 599.653 9.24995 601.392 11.19 602.75C15.99 606.46 21.35 609.44 25.89 613.46C35.36 621.85 40.49 634.02 44.44 646.04C44.82 647.2 45.16 648.37 45.52 649.53H36.21C27.0867 649.556 18.3446 653.192 11.8934 659.643C5.44228 666.095 1.80638 674.837 1.78 683.96V683.96C1.80638 693.083 5.44228 701.825 11.8934 708.277C18.3446 714.728 27.0867 718.364 36.21 718.39H129.21C138.333 718.364 147.075 714.728 153.527 708.277C159.978 701.825 163.614 693.083 163.64 683.96V683.96C163.629 674.811 159.988 666.04 153.516 659.573C147.043 653.106 138.269 649.473 129.12 649.47H103.66C109.66 641.4 115.98 633.82 125.28 630.71C134.58 627.6 145.83 629.43 153.13 622.94C156.69 619.78 158.58 615.1 159.45 610.42C160.991 601.943 159.55 593.194 155.37 585.66C152.44 580.43 148.16 575.66 147.23 569.76C146.44 564.7 148.23 559.57 150.74 555.08C157.77 542.29 170.21 532.36 174 518.26Z" fill="url(#paint2_linear)"/>
</g>
<path d="M94.49 412.06C90.17 411.67 85.63 411.47 81.67 413.26C75.06 416.26 71.9 424.07 71.6 431.32C71.3 438.57 73.19 445.73 73.66 452.98C74.13 460.23 72.84 468.2 67.49 473.11C62.14 478.02 54.49 478.6 47.4 479.58C38.1104 480.867 28.9829 483.133 20.17 486.34C12.77 489.03 4.53 493.9 4.17 501.76C3.89 508.19 9.07001 513.32 12.97 518.43C20.26 528 23.89 540.61 21.42 552.37C18.9 564.37 10.49 574.62 8.97001 586.76C8.58001 589.84 8.69001 593.12 10.19 595.84C11.3767 597.759 12.9418 599.416 14.79 600.71C19.36 604.24 24.46 607.08 28.79 610.91C37.79 618.91 42.69 630.49 46.45 641.91C50.1487 653.171 53.0459 664.68 55.12 676.35C62.89 671.35 72.93 671.43 81.22 667.35C98.87 658.7 104.81 633.62 123.45 627.35C132.27 624.4 143.02 626.13 149.97 619.95C153.36 616.95 155.16 612.49 155.97 608.03C157.437 599.977 156.077 591.665 152.12 584.5C149.33 579.5 145.25 575 144.36 569.36C143.6 564.54 145.36 559.66 147.7 555.36C154.4 543.18 166.25 533.73 169.86 520.3C171.439 513.953 171.058 507.276 168.768 501.15C166.478 495.024 162.385 489.735 157.03 485.98C154.2 484.07 151.03 482.62 148.43 480.42C144.08 476.76 141.61 471.36 139.81 465.97C135.5 453.04 134.14 438.53 126.59 426.85C119.74 416.23 106.36 413.11 94.49 412.06Z" fill="#8BC7E9"/>
<path opacity="0.6" d="M94.36 412.5C94.36 412.5 110.76 632.11 68.12 669.86" stroke="#535461" stroke-miterlimit="10"/>
<path d="M127.16 645.27H38.63C20.5261 645.27 5.85001 659.946 5.85001 678.05V678.06C5.85001 696.164 20.5261 710.84 38.63 710.84H127.16C145.264 710.84 159.94 696.164 159.94 678.06V678.05C159.94 659.946 145.264 645.27 127.16 645.27Z" fill="#F6B586"/>
<path opacity="0.6" d="M4.20999 497.74C4.20999 497.74 46.12 492.85 97.29 523.98" stroke="#535461" stroke-miterlimit="10"/>
<path opacity="0.6" d="M96.47 550.19C96.47 550.19 119.76 511.67 169.76 504.3" stroke="#535461" stroke-miterlimit="10"/>
<path opacity="0.6" d="M8.31 587.11C8.31 587.11 66.4 577.26 93.09 593.66" stroke="#535461" stroke-miterlimit="10"/>
<path opacity="0.6" d="M89.78 616.16C89.78 616.16 120.19 602.36 154.4 613.57" stroke="#535461" stroke-miterlimit="10"/>
<path d="M581.72 411.19C582.118 411.19 582.499 411.032 582.781 410.751C583.062 410.469 583.22 410.088 583.22 409.69C583.22 409.292 583.062 408.911 582.781 408.629C582.499 408.348 582.118 408.19 581.72 408.19C581.322 408.19 580.941 408.348 580.659 408.629C580.378 408.911 580.22 409.292 580.22 409.69C580.22 410.088 580.378 410.469 580.659 410.751C580.941 411.032 581.322 411.19 581.72 411.19V411.19Z" fill="url(#paint3_linear)"/>
<path d="M801.82 344.02L905.82 714.11" stroke="#E0E0E0" stroke-width="8" stroke-miterlimit="10"/>
<path d="M906.24 333.18H344.63V355.06H906.24V333.18Z" fill="#E0E0E0"/>
<path d="M568.56 328.02H489.56C485.97 328.02 483.06 330.93 483.06 334.52C483.06 338.11 485.97 341.02 489.56 341.02H568.56C572.15 341.02 575.06 338.11 575.06 334.52C575.06 330.93 572.15 328.02 568.56 328.02Z" fill="#535461"/>
<g opacity="0.7">
<path opacity="0.7" d="M739.5 183.08H567.28C551.695 183.08 539.06 195.715 539.06 211.3V312.96C539.06 328.545 551.695 341.18 567.28 341.18H739.5C755.085 341.18 767.72 328.545 767.72 312.96V211.3C767.72 195.715 755.085 183.08 739.5 183.08Z" fill="url(#paint4_linear)"/>
</g>
<path d="M732.9 185.99H569.97C555.147 185.99 543.13 198.007 543.13 212.83V314.33C543.13 329.153 555.147 341.17 569.97 341.17H732.9C747.723 341.17 759.74 329.153 759.74 314.33V212.83C759.74 198.007 747.723 185.99 732.9 185.99Z" fill="#3E3F49"/>
<path d="M735.9 185.99H572.97C558.147 185.99 546.13 198.007 546.13 212.83V314.33C546.13 329.153 558.147 341.17 572.97 341.17H735.9C750.723 341.17 762.74 329.153 762.74 314.33V212.83C762.74 198.007 750.723 185.99 735.9 185.99Z" fill="#535461"/>
<path d="M664.56 269.52C668.426 269.52 671.56 266.386 671.56 262.52C671.56 258.654 668.426 255.52 664.56 255.52C660.694 255.52 657.56 258.654 657.56 262.52C657.56 266.386 660.694 269.52 664.56 269.52Z" fill="#E0E0E0"/>
</g>
<defs>
<linearGradient id="paint0_linear" x1="819.68" y1="334.92" x2="819.68" y2="273.91" gradientUnits="userSpaceOnUse">
<stop stop-color="#808080" stop-opacity="0.25"/>
<stop offset="0.54" stop-color="#808080" stop-opacity="0.12"/>
<stop offset="1" stop-color="#808080" stop-opacity="0.1"/>
</linearGradient>
<linearGradient id="paint1_linear" x1="179024" y1="616668" x2="179024" y2="56787.2" gradientUnits="userSpaceOnUse">
<stop stop-color="#808080" stop-opacity="0.25"/>
<stop offset="0.54" stop-color="#808080" stop-opacity="0.12"/>
<stop offset="1" stop-color="#808080" stop-opacity="0.1"/>
</linearGradient>
<linearGradient id="paint2_linear" x1="25699.4" y1="200525" x2="56329.3" y2="200525" gradientUnits="userSpaceOnUse">
<stop stop-color="#808080" stop-opacity="0.25"/>
<stop offset="0.54" stop-color="#808080" stop-opacity="0.12"/>
<stop offset="1" stop-color="#808080" stop-opacity="0.1"/>
</linearGradient>
<linearGradient id="paint3_linear" x1="2766.02" y1="1869.43" x2="2766.02" y2="1860.43" gradientUnits="userSpaceOnUse">
<stop stop-color="#808080" stop-opacity="0.25"/>
<stop offset="0.54" stop-color="#808080" stop-opacity="0.12"/>
<stop offset="1" stop-color="#808080" stop-opacity="0.1"/>
</linearGradient>
<linearGradient id="paint4_linear" x1="149943" y1="54123.6" x2="149943" y2="29128" gradientUnits="userSpaceOnUse">
<stop stop-color="#808080" stop-opacity="0.25"/>
<stop offset="0.54" stop-color="#808080" stop-opacity="0.12"/>
<stop offset="1" stop-color="#808080" stop-opacity="0.1"/>
</linearGradient>
<clipPath id="clip0">
<rect width="909.67" height="748.22" fill="white"/>
</clipPath>
</defs>
</svg>
