<svg width="907" height="750" viewBox="0 0 907 750" fill="none" xmlns="http://www.w3.org/2000/svg">
<g clip-path="url(#clip0)">
<path opacity="0.1" d="M631.06 105.03C561.43 102.61 495.06 80.13 431.78 55.54C368.5 30.95 305.78 3.69998 237.78 -9.33002C194.06 -17.72 144.06 -18.9 108.84 4.53997C74.94 27.09 63.99 66.02 58.1 102.14C53.67 129.32 51.1 157.92 63.21 183.37C71.64 201.03 86.6 215.88 96.95 232.8C132.95 291.67 107.5 364.27 68.48 421.8C50.18 448.8 28.95 474.49 14.83 503.2C0.709998 531.91 -5.83 564.8 6.53 594.08C18.78 623.08 47.96 644.9 79.58 660.23C143.8 691.34 219.47 700.24 293.26 705.34C456.6 716.51 620.82 711.67 784.59 706.83C845.2 705.03 906.08 703.22 965.7 693.83C998.81 688.62 1033 680.36 1057.04 660.42C1087.55 635.1 1095.12 592.24 1074.67 560.49C1040.37 507.25 945.54 494.02 921.56 436.88C908.37 405.43 921.92 370.39 941.1 341.22C982.23 278.65 1051.19 223.75 1054.82 152.22C1057.32 103.09 1024.17 53.9 972.91 30.65C919.19 6.25998 844.69 9.33998 805.06 49.65C764.25 91.18 692.53 107.16 631.06 105.03Z" fill="#F6B586"/>
<path d="M242.25 692.04C242.25 692.04 187.25 650.46 176.86 597.57C172.647 575.356 161.345 555.107 144.65 539.86C136.663 532.688 128.038 526.261 118.88 520.66" stroke="#535461" stroke-width="2" stroke-miterlimit="10"/>
<path d="M112.15 487.34C116.97 493.86 119.15 521.49 119.15 521.49C119.15 521.49 93.38 511.34 88.55 504.83C86.2307 501.7 85.2496 497.778 85.8225 493.925C86.3954 490.072 88.4754 486.604 91.605 484.285C94.7346 481.966 98.6573 480.985 102.51 481.557C106.363 482.13 109.831 484.21 112.15 487.34V487.34Z" fill="#F6B586"/>
<path d="M158.37 509.02C158.87 517.11 145.7 541.49 145.7 541.49C145.7 541.49 129.57 518.95 129.06 510.86C128.866 507.003 130.2 503.225 132.772 500.345C135.344 497.465 138.947 495.714 142.801 495.472C146.655 495.23 150.45 496.516 153.362 499.052C156.274 501.588 158.07 505.169 158.36 509.02H158.37Z" fill="#F6B586"/>
<path d="M203.17 571.34C199.53 578.58 175.84 592.98 175.84 592.98C175.84 592.98 173.31 565.38 176.95 558.14C178.742 554.735 181.799 552.17 185.463 550.997C189.127 549.823 193.105 550.135 196.542 551.865C199.978 553.595 202.598 556.605 203.838 560.247C205.078 563.889 204.838 567.873 203.17 571.34V571.34Z" fill="#F6B586"/>
<path d="M226.46 626.1C224.09 633.85 203.18 652.04 203.18 652.04C203.18 652.04 196.01 625.27 198.38 617.51C199.519 613.786 202.091 610.668 205.529 608.84C208.968 607.013 212.991 606.626 216.715 607.765C220.439 608.904 223.557 611.476 225.385 614.914C227.212 618.353 227.599 622.376 226.46 626.1V626.1Z" fill="#F6B586"/>
<path d="M121.86 561.09C129.86 562.17 155.15 550.75 155.15 550.75C155.15 550.75 133.81 533.07 125.77 531.99C121.911 531.472 118.004 532.507 114.909 534.869C111.814 537.231 109.783 540.726 109.265 544.585C108.746 548.444 109.782 552.351 112.144 555.446C114.506 558.541 118.001 560.572 121.86 561.09V561.09Z" fill="#F6B586"/>
<path d="M149.91 624.8C157.91 623.43 178.58 604.98 178.58 604.98C178.58 604.98 152.92 594.5 144.93 595.87C143.017 596.184 141.185 596.873 139.54 597.898C137.895 598.924 136.469 600.265 135.345 601.844C134.221 603.423 133.421 605.21 132.991 607.1C132.56 608.99 132.509 610.947 132.839 612.857C133.169 614.767 133.874 616.593 134.914 618.229C135.954 619.865 137.307 621.279 138.896 622.39C140.485 623.5 142.278 624.285 144.172 624.699C146.066 625.112 148.023 625.147 149.93 624.8H149.91Z" fill="#F6B586"/>
<path d="M185.66 682.99C193.77 682.99 217.27 668.3 217.27 668.3C217.27 668.3 193.76 653.63 185.65 653.63C181.757 653.63 178.023 655.177 175.27 657.93C172.517 660.683 170.97 664.417 170.97 668.31C170.97 672.203 172.517 675.937 175.27 678.69C178.023 681.443 181.757 682.99 185.65 682.99H185.66Z" fill="#F6B586"/>
<path d="M776.55 332.41C776.55 332.41 810.45 272.36 861.55 255.06C883.007 247.934 901.576 234.043 914.47 215.47C920.517 206.591 925.736 197.174 930.06 187.34" stroke="#535461" stroke-width="2" stroke-miterlimit="10"/>
<path d="M891.06 277.65C883.4 275 865.99 253.44 865.99 253.44C865.99 253.44 892.99 247.26 900.67 249.91C902.515 250.522 904.22 251.495 905.687 252.771C907.153 254.048 908.351 255.603 909.212 257.346C910.072 259.089 910.578 260.986 910.699 262.926C910.821 264.867 910.556 266.812 909.919 268.649C909.283 270.486 908.288 272.178 906.992 273.627C905.696 275.077 904.126 276.254 902.371 277.092C900.617 277.929 898.713 278.41 896.772 278.506C894.83 278.601 892.888 278.311 891.06 277.65V277.65Z" fill="#F6B586"/>
<path d="M839.82 308.01C831.82 306.69 811.06 288.34 811.06 288.34C811.06 288.34 836.65 277.68 844.64 279C848.486 279.633 851.923 281.767 854.195 284.933C856.467 288.1 857.388 292.039 856.755 295.885C856.122 299.731 853.988 303.167 850.822 305.439C847.655 307.711 843.716 308.633 839.87 308L839.82 308.01Z" fill="#F6B586"/>
<path d="M890.36 195.7C890.35 203.81 905.06 227.34 905.06 227.34C905.06 227.34 919.75 203.84 919.75 195.74C919.801 193.781 919.459 191.831 918.745 190.006C918.03 188.18 916.958 186.517 915.59 185.113C914.222 183.709 912.587 182.593 910.781 181.831C908.975 181.069 907.035 180.677 905.075 180.677C903.115 180.677 901.175 181.069 899.369 181.831C897.563 182.593 895.928 183.709 894.56 185.113C893.192 186.517 892.12 188.18 891.405 190.006C890.691 191.831 890.349 193.781 890.4 195.74L890.36 195.7Z" fill="#F6B586"/>
<path d="M830.93 231.96C833.35 239.7 854.39 257.75 854.39 257.75C854.39 257.75 861.39 230.93 858.95 223.19C857.685 219.604 855.077 216.649 851.677 214.947C848.276 213.245 844.348 212.929 840.719 214.066C837.09 215.202 834.044 217.703 832.222 221.041C830.399 224.378 829.944 228.293 830.95 231.96H830.93Z" fill="#F6B586"/>
<path d="M778.06 275.13C779.14 283.13 796.82 304.5 796.82 304.5C796.82 304.5 808.23 279.25 807.15 271.22C806.936 269.274 806.335 267.391 805.382 265.681C804.429 263.972 803.144 262.47 801.602 261.264C800.06 260.058 798.293 259.172 796.404 258.66C794.515 258.147 792.543 258.017 790.603 258.278C788.663 258.538 786.795 259.185 785.108 260.178C783.421 261.171 781.951 262.492 780.782 264.062C779.613 265.632 778.77 267.42 778.303 269.321C777.836 271.222 777.753 273.197 778.06 275.13V275.13Z" fill="#F6B586"/>
<path opacity="0.25" d="M891.06 277.65C883.4 275 865.99 253.44 865.99 253.44C865.99 253.44 892.99 247.26 900.67 249.91C902.515 250.522 904.22 251.495 905.687 252.771C907.153 254.048 908.351 255.603 909.212 257.346C910.072 259.089 910.578 260.986 910.699 262.926C910.821 264.867 910.556 266.812 909.919 268.649C909.283 270.486 908.288 272.178 906.992 273.627C905.696 275.077 904.126 276.254 902.371 277.092C900.617 277.929 898.713 278.41 896.772 278.506C894.83 278.601 892.888 278.311 891.06 277.65V277.65Z" fill="black"/>
<path opacity="0.25" d="M839.82 308.01C831.82 306.69 811.06 288.34 811.06 288.34C811.06 288.34 836.65 277.68 844.64 279C848.486 279.633 851.923 281.767 854.195 284.933C856.467 288.1 857.388 292.039 856.755 295.885C856.122 299.731 853.988 303.167 850.822 305.439C847.655 307.711 843.716 308.633 839.87 308L839.82 308.01Z" fill="black"/>
<path opacity="0.25" d="M890.36 195.7C890.35 203.81 905.06 227.34 905.06 227.34C905.06 227.34 919.75 203.84 919.75 195.74C919.801 193.781 919.459 191.831 918.745 190.006C918.03 188.18 916.958 186.517 915.59 185.113C914.222 183.709 912.587 182.593 910.781 181.831C908.975 181.069 907.035 180.677 905.075 180.677C903.115 180.677 901.175 181.069 899.369 181.831C897.563 182.593 895.928 183.709 894.56 185.113C893.192 186.517 892.12 188.18 891.405 190.006C890.691 191.831 890.349 193.781 890.4 195.74L890.36 195.7Z" fill="black"/>
<path opacity="0.25" d="M830.93 231.96C833.35 239.7 854.39 257.75 854.39 257.75C854.39 257.75 861.39 230.93 858.95 223.19C857.685 219.604 855.077 216.649 851.677 214.947C848.276 213.245 844.348 212.929 840.719 214.066C837.09 215.202 834.044 217.703 832.222 221.041C830.399 224.378 829.944 228.293 830.95 231.96H830.93Z" fill="black"/>
<path opacity="0.25" d="M778.06 275.13C779.14 283.13 796.82 304.5 796.82 304.5C796.82 304.5 808.23 279.25 807.15 271.22C806.936 269.274 806.335 267.391 805.382 265.681C804.429 263.972 803.144 262.47 801.602 261.264C800.06 260.058 798.293 259.172 796.404 258.66C794.515 258.147 792.543 258.017 790.603 258.278C788.663 258.538 786.795 259.185 785.108 260.178C783.421 261.171 781.951 262.492 780.782 264.062C779.613 265.632 778.77 267.42 778.303 269.321C777.836 271.222 777.753 273.197 778.06 275.13V275.13Z" fill="black"/>
<path d="M778.5 331.22C778.5 331.22 785.16 262.58 824.82 226.08C841.548 210.868 852.895 190.644 857.16 168.44C859.101 157.884 860.068 147.173 860.05 136.44" stroke="#535461" stroke-width="2" stroke-miterlimit="10"/>
<path d="M884.91 113.28C881.91 120.8 859.47 137.12 859.47 137.12C859.47 137.12 854.65 109.83 857.68 102.31C859.139 98.6991 861.972 95.8155 865.557 94.2936C869.142 92.7718 873.184 92.7363 876.795 94.195C880.406 95.6537 883.289 98.4871 884.811 102.072C886.333 105.657 886.369 109.699 884.91 113.31V113.28Z" fill="#F6B586"/>
<path d="M890.62 164C883.99 168.66 856.32 170.19 856.32 170.19C856.32 170.19 867.1 144.65 873.73 139.99C875.302 138.813 877.095 137.964 879.001 137.492C880.908 137.021 882.89 136.937 884.829 137.245C886.769 137.553 888.627 138.247 890.293 139.286C891.96 140.325 893.401 141.688 894.531 143.294C895.662 144.9 896.458 146.717 896.874 148.636C897.289 150.556 897.316 152.539 896.951 154.469C896.586 156.399 895.838 158.236 894.75 159.871C893.663 161.507 892.258 162.907 890.62 163.99V164Z" fill="#F6B586"/>
<path d="M860.96 234.78C852.88 235.46 828.22 222.78 828.22 222.78C828.22 222.78 850.42 206.18 858.5 205.5C862.38 205.174 866.231 206.402 869.205 208.915C872.18 211.428 874.034 215.02 874.36 218.9C874.686 222.78 873.458 226.631 870.945 229.605C868.432 232.58 864.84 234.434 860.96 234.76V234.78Z" fill="#F6B586"/>
<path d="M826.45 283.27C818.6 285.27 792.16 277 792.16 277C792.16 277 811.23 256.89 819.08 254.85C822.849 253.873 826.851 254.433 830.207 256.406C833.563 258.38 835.998 261.606 836.975 265.375C837.952 269.144 837.393 273.146 835.419 276.502C833.445 279.858 830.219 282.293 826.45 283.27V283.27Z" fill="#F6B586"/>
<path d="M827.15 160.12C830.43 167.53 853.37 183.12 853.37 183.12C853.37 183.12 857.27 155.68 853.99 148.27C852.356 144.803 849.43 142.113 845.839 140.774C842.247 139.436 838.275 139.555 834.77 141.106C831.265 142.657 828.506 145.518 827.082 149.076C825.658 152.635 825.683 156.609 827.15 160.15V160.12Z" fill="#F6B586"/>
<path d="M787.51 217.34C792.86 223.43 819.4 231.41 819.4 231.41C819.4 231.41 814.92 204.06 809.57 197.97C808.307 196.491 806.763 195.277 805.027 194.399C803.291 193.522 801.398 192.998 799.458 192.858C797.518 192.719 795.569 192.966 793.726 193.586C791.882 194.206 790.18 195.186 788.718 196.469C787.257 197.753 786.065 199.314 785.212 201.062C784.359 202.81 783.861 204.71 783.749 206.652C783.636 208.594 783.911 210.539 784.557 212.373C785.202 214.208 786.206 215.896 787.51 217.34V217.34Z" fill="#F6B586"/>
<path d="M756.62 278.26C760.86 285.16 785.67 297.51 785.67 297.51C785.67 297.51 785.88 269.8 781.67 262.89C779.574 259.699 776.318 257.451 772.592 256.621C768.866 255.791 764.964 256.445 761.712 258.444C758.46 260.443 756.115 263.63 755.173 267.33C754.232 271.029 754.769 274.95 756.67 278.26H756.62Z" fill="#F6B586"/>
<path d="M727.5 62.41C729.16 56.32 731.16 50.2 732.56 44.03C730.88 50.2 728.87 56.34 727.5 62.41Z" fill="url(#paint0_linear)"/>
<path d="M720.06 121.07C719.92 120.83 719.82 120.59 719.71 120.37C719.71 120.27 719.61 120.19 719.57 120.09C719.352 120.193 719.128 120.283 718.9 120.36C718.46 120.53 718.01 120.69 717.55 120.82C717.09 120.95 716.9 121.02 716.55 121.1C716.26 121.2 715.962 121.277 715.66 121.33L715.74 121.51C716.11 121.43 716.47 121.36 716.84 121.26L716.94 122.5C717.36 122.5 717.75 122.44 718.13 122.44C718.31 122.43 718.49 122.43 718.67 122.44C719.45 122.44 720.13 122.44 720.67 122.44C720.46 121.99 720.24 121.52 720.06 121.07ZM923.06 444.2C918.36 437.87 908.98 369.93 908.98 369.93C908.98 369.93 890.53 321.62 895.56 302.34C900.59 283.06 881.82 233.73 881.82 233.73C881.82 233.73 869.42 228.34 868.75 220.34C868.75 220.34 818.12 204.34 815.75 192.34C813.83 182.5 782.43 175.44 771.15 173.21C767.71 159.33 764.25 146.38 761.7 139.31C761.01 137.11 760.36 135.21 759.76 133.71C755.45 122.71 742.13 121.71 732.47 122.59C732.051 120.715 731.274 118.939 730.18 117.36C730.02 116.817 729.704 116.334 729.27 115.97C729.063 115.793 728.842 115.633 728.61 115.49C728.435 115.166 728.205 114.875 727.93 114.63C727.656 114.383 727.354 114.168 727.03 113.99C726.798 113.864 726.557 113.754 726.31 113.66C725.731 113.439 725.131 113.275 724.52 113.17C723.808 113.024 723.086 112.93 722.36 112.89C724.125 112.118 725.699 110.967 726.97 109.52C727.835 108.504 728.478 107.319 728.86 106.04C729.177 104.977 729.319 103.869 729.28 102.76C729.021 103.217 728.719 103.649 728.38 104.05C728.8 99.62 726.46 95.12 725.12 90.71C723.496 84.9688 723.196 78.9342 724.24 73.06C725.58 64.2 728.9 55.24 731.15 46.22C731.156 46.1702 731.156 46.1199 731.15 46.07C732.33 41.5905 733.06 37.0045 733.33 32.38C733.72 23.05 731.33 13.74 727.49 5.24002C724.08 -2.28998 719.05 -9.69998 711.35 -12.76C705.63 -15.07 699.22 -14.7 693.06 -15.08C679.24 -15.94 666.06 -20.8 652.92 -25.22C639.78 -29.64 626.26 -33.66 612.43 -32.89C598.6 -32.12 584.37 -25.45 578.06 -13.21C576.06 -9.38998 574.91 -5.13998 572.52 -1.54998C568.04 5.22002 560.02 8.61002 553.33 13.28C546.64 17.95 540.75 24.58 538.33 32.49C537.008 36.7516 536.822 41.2844 537.79 45.64V45.64C538.008 46.6237 538.288 47.5923 538.63 48.54C539.579 51.1823 541.06 53.602 542.98 55.65C544.428 57.1637 546.093 58.4543 547.92 59.48V59.48C550.214 60.7517 552.67 61.707 555.22 62.32C555.13 62.62 555.04 62.94 554.94 63.25C554.78 63.76 554.64 64.25 554.49 64.8C554.16 66.03 553.85 67.28 553.59 68.54C553.58 68.6297 553.58 68.7203 553.59 68.81C552.362 74.498 551.745 80.3009 551.75 86.12C551.748 88.8721 551.888 91.6224 552.17 94.36V94.36C556.17 134.94 589.67 166.95 631.06 169.03C632.48 169.1 633.91 169.14 635.36 169.14C636.02 169.14 636.67 169.14 637.36 169.14C638.01 170 638.65 170.88 639.26 171.74C639.87 172.6 640.43 173.48 640.96 174.34L639.51 172.84L638.06 171.51C637.667 172.05 637.229 172.555 636.75 173.02C635.804 172.687 634.839 172.414 633.86 172.2V172.2C629.71 171.28 623.39 170.94 615.07 173.45C607.42 175.74 598.07 180.45 587.13 189.4L533.82 221.4L504.98 238.94L494.59 264.34C494.59 264.34 486.78 294.52 478.09 329.1C477.75 329.2 477.42 329.3 477.09 329.42C476.386 329.34 475.678 329.3 474.97 329.3C469.928 329.288 465.078 331.231 461.438 334.72C457.798 338.208 455.652 342.972 455.45 348.01C438.17 369.01 437.19 390.01 441.25 399.65C441.618 400.553 442.08 401.415 442.63 402.22C445.29 406.06 450.26 415.96 455.3 426.51C455.17 427.38 455.09 428.11 455.05 428.66C455.041 428.84 455.041 429.02 455.05 429.2C455.05 429.2 458.05 474.51 448.05 487.5C445.86 490.33 446.19 494.05 448.05 498.17C454.75 512.99 481.24 532.78 481.24 532.78C481.24 532.78 513.01 532.61 530.71 530.68C530.66 532.46 530.62 534.23 530.58 535.96C530.18 553.44 530.18 568.09 530.18 568.09L529.52 586.42C529.52 586.42 523.52 625.05 520.52 635.7C518.63 642.38 520.81 704.23 522.71 749.7H835.73C839.41 722.8 834.22 641.07 834.22 641.07C834.22 641.07 829.29 619.94 829.11 601.52C829.1 601.5 829.095 601.478 829.095 601.455C829.095 601.433 829.1 601.41 829.11 601.39C829.11 599.78 829.11 598.21 829.17 596.67L831.44 596.59L835.52 596.45H835.89C835.89 596.45 835.99 596.07 836.22 595.45C836.76 593.906 837.496 592.437 838.41 591.08C840.15 588.51 842.87 585.99 846.96 585.82C849.22 585.73 852.72 583.9 856.67 581.2C856.696 581.206 856.724 581.206 856.75 581.2C867.38 574.01 881.43 560.74 884.84 558.56C889.53 555.56 911.99 535.56 911.99 535.56C911.99 535.56 915.34 531.32 918.91 526.21L919.04 526.03C923.48 519.63 928.2 511.98 927.04 509.57C925.04 505.25 928.38 494.92 928.38 494.92C938.81 475.83 927.76 450.53 923.06 444.2ZM729.69 136.62C729.786 136.919 729.846 137.227 729.87 137.54C729.62 137.21 729.37 136.86 729.12 136.54L728.88 136.22L728.71 135.98L729.09 135.46C729.09 135.46 729.09 135.46 729.09 135.53C729.354 135.854 729.557 136.224 729.69 136.62V136.62ZM726.33 127.76C725.24 127.98 724.38 128.18 723.82 128.33C723.11 127.07 722.43 125.81 721.82 124.53C723.423 125.46 724.933 126.542 726.33 127.76V127.76ZM724.45 129.34C724.447 129.32 724.447 129.3 724.45 129.28L724.53 129.34C724.94 129.61 725.34 129.87 725.71 130.14C726.04 130.38 726.34 130.61 726.64 130.85C726.44 131.2 726.22 131.56 726 131.85C725.65 131.3 725.32 130.77 725 130.22C724.8 130 724.62 129.7 724.45 129.34ZM718.45 117C720.382 116.809 722.328 116.809 724.26 117V117C724.53 117 724.77 117.05 725.01 117.09C725.552 117.174 726.085 117.311 726.6 117.5C727.782 119.153 728.509 121.088 728.71 123.11L728.17 123.19L727.64 123.29C726.64 123.46 725.64 123.63 724.86 123.79L723.86 124C722.53 124.29 721.76 124.51 721.73 124.52C721.6 124.25 721.47 124 721.33 123.74C721.11 123.31 720.88 122.87 720.68 122.44C720.48 122.01 720.22 121.52 720.01 121.07C719.87 120.83 719.77 120.59 719.66 120.37C719.66 120.27 719.56 120.19 719.52 120.09C719.462 119.984 719.412 119.874 719.37 119.76C718.76 118.52 718.2 117.28 717.66 116.06C717.6 115.94 717.55 115.81 717.5 115.69L718.26 115.64V115.9L718.45 117ZM479.86 737.34C479.78 722.45 478.7 706.34 475.7 691.22C474.42 684.79 473.1 678.36 471.76 672.04C471.42 670.46 471.09 668.9 470.76 667.34L467.68 667.75H467.4C459 628.14 450.22 593.24 450.22 593.24C450.22 593.24 432.78 526.65 434.8 521.34C435.06 520.65 434.73 518.79 433.99 516.06C429.77 500.92 412.15 459.2 405.99 444.94C405.99 444.88 405.94 444.81 405.92 444.76C404.92 442.37 404.2 440.76 403.98 440.29L405.43 419.01L405.51 417.73L405.7 415.01L405.62 414.94L405.7 413.68C405.7 413.68 390.48 401.2 364.7 392.19C363.7 391.83 362.64 391.48 361.59 391.14C362.88 382.53 364.59 372.81 366.82 363.34C367.03 362.39 367.26 361.47 367.5 360.54C367.71 359.61 367.95 358.71 368.19 357.8C368.57 356.32 368.98 354.86 369.4 353.42C370.79 352.98 372.16 352.49 373.51 351.97L374.03 351.77C390.661 345.299 404.384 333.02 412.657 317.209C420.931 301.397 423.195 283.123 419.03 265.77V265.77C416.655 255.929 412.27 246.685 406.15 238.62C405.69 238 405.2 237.38 404.71 236.77C404.22 236.16 403.63 235.48 403.08 234.86C405.97 228.29 409.38 222.04 409.66 215.65C409.71 214.841 409.71 214.029 409.66 213.22V213.12C409.29 209.01 407.47 204.85 403.23 200.48C397.04 194.07 388.23 190.82 379.42 189.26C370.61 187.7 361.63 187.66 352.77 186.61C338.08 184.85 323.77 180.32 309.08 178.93C290.986 177.254 272.769 180.358 256.25 187.93C245.32 192.93 234.25 201.67 233.59 213.66C233.05 223.57 239.95 233.07 238.21 242.86C236.48 252.48 226.68 260.05 227.54 269.78C227.87 273.58 229.82 276.98 232.26 280.01C233.1 281.01 233.99 282.01 234.91 283.01C238.47 286.78 242.39 290.4 244.38 295.15C244.46 295.35 244.54 295.55 244.61 295.75C246.3 300.44 245.54 306.37 241.36 309.06C241.383 309.078 241.401 309.102 241.41 309.13V309.13C241.47 309.21 241.53 309.27 241.58 309.35C241.586 309.334 241.586 309.316 241.58 309.3C243.062 311.057 245.06 312.303 247.29 312.86L248.14 313.12C247.45 313.87 246.8 314.65 246.14 315.47L245.71 316.04C244.608 317.522 243.606 319.075 242.71 320.69C242.2 321.59 241.71 322.49 241.3 323.39C239.929 326.133 238.937 329.05 238.35 332.06C237.28 338.68 238.79 345.58 237.17 352.06C235.17 360.06 228.84 366.2 225.27 373.63C218.51 387.63 222.34 404.06 223.7 419.52C225.55 440.52 222.55 461.61 219.56 482.47C217.973 493.563 216.387 504.667 214.8 515.78C210.8 543.673 206.8 571.567 202.8 599.46C201.34 609.68 199.61 620.46 192.8 628.35H192.87C192.87 628.35 192.87 628.41 192.8 628.43C194.844 629.324 197.018 629.884 199.24 630.09V630.09C208.13 630.98 217.55 626.68 225.55 621.98C231.885 618.319 237.885 614.106 243.48 609.39C242.66 612.39 241.78 615.66 240.84 619.18C240.843 619.213 240.843 619.247 240.84 619.28V619.28C229.55 662.28 211.39 741.11 211.39 741.11C211.39 741.11 209.74 744.54 207.6 749.65H489.6C486.3 745.65 483.23 741.82 480.83 738.73L479.86 737.34ZM271.06 339.74C271.13 339.62 271.18 339.51 271.25 339.4C271.25 339.72 271.25 340.03 271.25 340.33C271.25 340.63 271.25 340.9 271.25 341.18C271.25 341.46 271.25 341.43 271.25 341.57C271.25 341.71 271.25 341.57 271.25 341.57C271.25 341.98 271.16 342.39 271.09 342.8C271.09 342.8 271.09 342.85 271.09 342.89L272.09 343.26L273.25 343.74C280.103 346.447 287.043 348.897 294.07 351.09C294.79 351.32 295.52 351.54 296.25 351.75L296.4 352.99C296.58 354.26 296.75 355.55 296.91 356.84C296.91 356.84 296.91 356.9 296.91 356.94C297.36 360.51 297.8 364.07 298.19 367.55C298.19 367.55 279.83 360.55 280.06 371.18C280.05 371.37 280.05 371.56 280.06 371.75C280.04 372.003 280.04 372.257 280.06 372.51C280.23 380.79 282.82 385.7 283.34 388.22C283.309 388.324 283.254 388.42 283.18 388.5C282.736 389.465 282.583 390.539 282.74 391.59C282.723 393.379 282.863 395.166 283.16 396.93C282.62 397.26 282.09 397.59 281.56 397.93C281.16 398.18 280.78 398.46 280.39 398.74C277.937 390.231 274.727 381.958 270.8 374.02C268.05 368.36 264.96 362.46 264.99 356.25C264.99 355.85 264.99 355.44 265.04 355.03C265.151 353.23 265.494 351.452 266.06 349.74C266.29 349.09 266.54 348.45 266.82 347.82C267.474 346.323 268.205 344.861 269.01 343.44C269.53 342.5 270.08 341.57 270.61 340.63C270.78 340.35 270.94 340.06 271.1 339.78L271.06 339.74ZM720.06 121.07C719.92 120.83 719.82 120.59 719.71 120.37C719.71 120.27 719.61 120.19 719.57 120.09C719.352 120.193 719.128 120.283 718.9 120.36C718.46 120.53 718.01 120.69 717.55 120.82C717.09 120.95 716.9 121.02 716.55 121.1L715.66 121.33L715.74 121.51C716.11 121.43 716.47 121.36 716.84 121.26L716.94 122.5C717.36 122.5 717.75 122.44 718.13 122.44H718.67C719.45 122.44 720.13 122.44 720.67 122.44C720.46 121.99 720.24 121.52 720.06 121.07Z" fill="url(#paint1_linear)"/>
<path d="M501.56 267.95L495.56 270.6C495.56 270.6 456.45 422.54 456.45 434.82C456.45 447.1 539.38 515.43 539.38 515.43L552.32 428.09C552.32 428.09 533.74 227.8 501.56 267.95Z" fill="#E8F5FF"/>
<path d="M683.47 219.62L648.82 201.54C646.879 193.266 643.435 185.42 638.66 178.39C633.59 171.07 626.85 163.88 618.45 160.13C597.22 150.61 708.25 100.64 708.25 100.64C709.999 106.643 712.058 112.551 714.42 118.34C720.14 132.46 729.63 150.72 741.86 155.92C762.65 164.77 683.47 219.62 683.47 219.62Z" fill="#FFC1C7"/>
<path opacity="0.1" d="M714.42 118.34C709.676 135.025 699.81 149.798 686.216 160.573C672.623 171.348 655.987 177.58 638.66 178.39C633.59 171.07 626.85 163.88 618.45 160.13C597.22 150.61 708.25 100.64 708.25 100.64C709.999 106.643 712.058 112.551 714.42 118.34V118.34Z" fill="black"/>
<path d="M717.54 93.11C717.544 109.474 712.695 125.471 703.607 139.079C694.518 152.687 681.598 163.293 666.481 169.558C651.364 175.822 634.728 177.463 618.679 174.272C602.629 171.081 587.886 163.203 576.315 151.632C564.743 140.062 556.863 125.32 553.67 109.271C550.477 93.2218 552.116 76.5862 558.378 61.4683C564.641 46.3504 575.246 33.4292 588.853 24.339C602.459 15.2489 618.456 10.398 634.82 10.4C645.696 10.3497 656.475 12.4546 666.533 16.5933C676.591 20.7319 685.729 26.8222 693.42 34.5124C701.112 42.2027 707.203 51.3405 711.343 61.3981C715.483 71.4557 717.589 82.2338 717.54 93.11V93.11Z" fill="#FFC1C7"/>
<path d="M729.48 209L706.92 261.64L687.02 296.58H623.32L604.74 248.81L612.27 199.27H660.92L692.33 197.5L702.94 193.96L709.78 197.84L729.48 209Z" fill="#575A89"/>
<path opacity="0.1" d="M721.71 138.83C721.71 138.83 735.78 141.83 723.18 152.16C710.58 162.49 667.11 195.34 667.11 195.34C667.11 195.34 682.38 208.94 679.22 224.87L729.81 196.67L738.81 151.55C738.81 151.55 739.82 137.99 721.71 138.83Z" fill="black"/>
<path opacity="0.1" d="M677.06 195.34L644.88 200.65C644.88 200.65 651.52 225.2 648.2 232.17C648.1 232.387 648.016 232.611 647.95 232.84L634.82 268.33L644.66 296.2L678.72 249.75L667.11 232.17C667.11 232.17 679.38 215.91 686.68 210.27C693.98 204.63 677.06 195.34 677.06 195.34Z" fill="black"/>
<path d="M677.06 193.97L644.88 199.27C644.88 199.27 651.52 223.82 648.2 230.79C648.1 231.007 648.016 231.231 647.95 231.46L634.82 266.95L644.66 294.82L678.72 248.34L667.11 230.76C667.11 230.76 679.38 214.5 686.68 208.86C693.98 203.22 677.06 193.97 677.06 193.97Z" fill="#DCE6F2"/>
<path d="M723.06 136.18C723.06 136.18 737.13 139.18 724.52 149.51C711.91 159.84 667.11 195.34 667.11 195.34C667.11 195.34 683.7 206.29 680.55 222.21L731.14 194.02L740.14 148.9C740.14 148.9 741.14 135.34 723.06 136.18Z" fill="#575A89"/>
<path opacity="0.1" d="M640.87 181.52C640.87 181.52 643.94 187.26 657.49 197.61C657.49 197.61 634.93 209.61 643.56 226.48L609.05 217.48L603.74 200.89L640.87 181.52Z" fill="black"/>
<path d="M639.54 180.2C639.54 180.2 642.61 185.94 656.16 196.29C656.16 196.29 633.6 208.23 642.23 225.15L607.73 216.15L602.42 199.57L639.54 180.2Z" fill="#575A89"/>
<path opacity="0.1" d="M729.48 209L706.92 261.64L687.06 296.58H623.32L604.74 248.81L612.26 199.27H625.79C625.57 210.83 629.79 224.41 629.52 229.46C629.06 237.76 641.9 282.54 641.9 282.54C641.9 282.54 668.77 239.08 679.38 235.21C686.05 232.78 700.18 212.56 709.77 197.84L729.48 209Z" fill="black"/>
<path d="M818.35 486.01L816.06 488.89C816.06 488.89 832.65 572.16 828.06 591.07C827.28 594.478 826.834 597.955 826.73 601.45V601.6C825.92 620.84 831.73 645.81 831.73 645.81C831.73 645.81 836.37 719.41 833.73 749.68H523.11C521.29 704.92 519.33 646.93 521.11 640.5C524.11 629.89 530.11 591.4 530.11 591.4L530.77 573.16C530.77 573.16 530.77 555.53 531.31 535.89C531.54 527.06 531.88 517.79 532.37 509.57C533 499.23 533.88 490.52 535.09 486.24C535.835 482.996 536.264 479.687 536.37 476.36C536.37 476.05 536.37 475.73 536.43 475.41C536.43 474.41 536.53 473.33 536.57 472.22C536.57 471.91 536.57 471.6 536.57 471.22C536.76 464.78 536.69 457.14 536.48 449.22C536.48 448.79 536.48 448.35 536.48 447.91C536.31 441.97 536.06 435.91 535.78 430.15C534.91 412.15 533.78 396.93 533.78 396.93L495.63 270.53L505.91 245.21L534.44 227.73L587.19 195.88C612.92 174.73 629.86 177.27 636.32 179.59C636.947 179.804 637.562 180.054 638.16 180.34C638.36 180.44 638.52 180.52 638.67 180.61C638.875 180.707 639.073 180.821 639.26 180.95V180.95C637.491 181.801 635.954 183.067 634.78 184.64C633.457 186.43 632.515 188.472 632.01 190.64C631.672 191.984 631.435 193.351 631.3 194.73C631.17 196.18 631.12 197.68 631.12 199.19C631.191 202.501 631.475 205.805 631.97 209.08C631.97 209.14 631.97 209.22 631.97 209.3C632.3 211.64 632.71 213.93 633.11 216.08C633.105 216.117 633.105 216.153 633.11 216.19C633.57 218.7 634.03 221.02 634.34 223.02C634.4 223.38 634.45 223.71 634.5 224.02C634.72 225.342 634.824 226.68 634.81 228.02C634.923 231.255 635.358 234.471 636.11 237.62C636.37 238.94 636.67 240.35 637 241.82C637.45 243.82 637.94 246 638.47 248.22C638.76 249.44 639.07 250.7 639.39 251.95C639.51 252.45 639.64 252.95 639.76 253.46L639.96 254.25C642.09 262.72 644.4 271.15 645.82 276.25C646.66 279.25 647.19 281.1 647.19 281.1C647.19 281.1 662.25 256.75 674.27 242.89C674.45 242.69 674.61 242.5 674.78 242.32C675.97 240.95 677.14 239.7 678.26 238.6C680.71 236.16 682.91 234.42 684.68 233.78C685.057 233.642 685.422 233.471 685.77 233.27C690.69 230.48 698.63 220.35 706.06 209.74C706.79 208.74 707.5 207.65 708.22 206.62C709.87 204.24 711.47 201.85 712.98 199.56C714.14 197.81 715.25 196.11 716.3 194.49C721.3 186.71 724.82 180.91 724.82 180.91L731.76 180.6L732.97 180.54H733.78L765.29 179.08C765.29 179.08 766.65 179.31 768.89 179.76C769.01 179.76 769.13 179.76 769.26 179.84C780.44 182.06 811.5 189.09 813.4 198.84C815.72 210.78 865.82 226.71 865.82 226.71C866.48 234.71 878.75 239.98 878.75 239.98C878.75 239.98 897.33 289.08 892.36 308.32C887.45 327.32 905.14 374.32 905.61 375.64L902.22 379.92L818.35 486.01Z" fill="#E8F5FF"/>
<path opacity="0.1" d="M721.7 135.34C721.7 135.34 752.37 126.64 759.34 144.55C766.31 162.46 781.9 234.79 781.9 234.79C781.9 234.79 741.42 242.42 730.81 234.79C724.586 230.262 716.884 228.248 709.24 229.15L686.35 244.74L679.59 242.74C679.59 242.74 716.21 188.3 724.17 169.8C732.13 151.3 734.82 143.03 721.7 135.34Z" fill="black"/>
<path d="M720.37 131.34C720.37 131.34 751.06 122.64 758.06 140.55C765.06 158.46 780.62 230.79 780.62 230.79C780.62 230.79 740.15 238.42 729.53 230.79C723.31 226.261 715.611 224.247 707.97 225.15L685.06 240.74L678.3 238.74C678.3 238.74 714.92 184.3 722.88 165.8C730.84 147.3 733.49 139.05 720.37 131.34Z" fill="#E8F5FF"/>
<path opacity="0.1" d="M514.5 419.89C514.5 419.89 537.39 425.53 541.71 438.47C546.03 451.41 524.79 451.74 524.79 451.74C524.79 451.74 511.85 428.85 514.5 419.89Z" fill="black"/>
<path opacity="0.1" d="M599.76 515.43C599.76 515.43 543.7 630.22 556.64 641.17C569.58 652.12 599.76 515.43 599.76 515.43Z" fill="black"/>
<path opacity="0.1" d="M677.06 430.84C677.06 430.84 721.85 542.34 712.89 559.56C703.93 576.78 732.13 559.56 732.13 559.56L677.06 430.84Z" fill="black"/>
<path d="M739.43 540.98C739.43 540.98 588.15 548.28 632.28 595.39C676.41 642.5 766.97 597.39 766.97 597.39L739.43 540.98Z" fill="#FFC1C7"/>
<path opacity="0.1" d="M717.54 93.11C717.554 103.96 715.423 114.706 711.27 124.73C709.88 124.89 708.49 124.99 707.15 125.05C705.15 120.66 706.22 115.59 706.26 110.76C706.3 105.93 704.52 100.25 699.87 98.95C690.6 96.34 684.2 113.67 675.06 110.54C668.06 108.16 669.89 97.54 665.86 91.41C662.67 86.56 656.28 85.19 651.31 82.15C640.74 75.66 641.06 65.28 636.15 55.46C631.01 45.17 620.15 48.21 610.72 54.28C603.56 58.9 597.38 65.09 589.72 68.77C583.09 71.97 575.64 73.13 568.29 73.3C563.765 73.4754 559.238 72.9971 554.85 71.88C560.012 52.4739 572.056 35.6077 588.736 24.4267C605.416 13.2457 625.594 8.5132 645.506 11.1118C665.418 13.7103 683.705 23.4625 696.957 38.5497C710.209 53.6369 717.521 73.0291 717.53 93.11H717.54Z" fill="black"/>
<path d="M610.75 51.63C603.58 56.25 597.41 62.43 589.75 66.13C583.12 69.32 575.67 70.48 568.32 70.65C559.32 70.85 549.63 69.27 543.48 62.77C537.83 56.77 536.48 47.54 538.87 39.67C541.26 31.8 546.99 25.27 553.72 20.54C560.45 15.81 568.26 12.54 572.72 5.76999C575.08 2.18999 576.22 -2.03001 578.18 -5.84001C584.45 -18.03 598.55 -24.63 612.18 -25.45C625.81 -26.27 639.32 -22.21 652.3 -17.81C665.28 -13.41 678.36 -8.57001 692.06 -7.66001C698.16 -7.28001 704.5 -7.66001 710.16 -5.35001C717.77 -2.26001 722.76 5.12999 726.16 12.65C729.97 21.13 732.34 30.39 731.94 39.65C731.1 59.42 718.04 78.82 723.78 97.76C725.3 102.81 728.15 107.99 726.63 113.04C724.41 120.41 714.9 122.09 707.21 122.44C705.21 118.05 706.28 112.97 706.32 108.15C706.36 103.33 704.58 97.64 699.94 96.34C690.66 93.75 684.26 111.05 675.14 107.93C668.19 105.54 669.99 94.93 665.95 88.8C662.76 83.94 656.36 82.58 651.4 79.54C640.83 73.05 641.15 62.67 636.24 52.85C631.06 42.51 620.19 45.55 610.75 51.63Z" fill="#99607E"/>
<path d="M464.06 432.16L456.43 434.82C456.43 434.82 459.43 479.94 449.43 492.88C439.43 505.82 482.27 537.99 482.27 537.99C482.27 537.99 540.99 537.66 542.65 532.99C544.31 528.32 539.65 449.39 539.65 449.39C539.65 449.39 508.13 437.11 510.78 417.54C510.78 417.54 501.16 463.65 486.9 461.66C472.64 459.67 456.45 447.76 464.06 432.16Z" fill="#E8F5FF"/>
<path opacity="0.1" d="M489.51 475.62C500.628 475.62 509.64 467.378 509.64 457.21C509.64 447.042 500.628 438.8 489.51 438.8C478.393 438.8 469.38 447.042 469.38 457.21C469.38 467.378 478.393 475.62 489.51 475.62Z" fill="black"/>
<path d="M511.52 433.49C511.52 433.49 507.52 311.41 472.7 338.61C437.88 365.81 437.54 398.34 444.17 407.95C450.8 417.56 472.06 465.67 472.06 465.67C475.385 467.597 479.12 468.709 482.958 468.915C486.797 469.121 490.629 468.414 494.141 466.853C497.654 465.292 500.746 462.921 503.166 459.934C505.585 456.947 507.262 453.43 508.06 449.67L511.52 433.49Z" fill="#FFC1C7"/>
<path opacity="0.1" d="M728.73 124.26C728.568 123.724 728.255 123.245 727.83 122.88C726.11 121.31 722.41 120.76 716.83 121.24L717.06 123.88C724.5 123.24 725.97 124.72 726.16 124.97V125.22L726.39 125.55C727.318 126.797 727.975 128.223 728.319 129.739C728.664 131.254 728.688 132.825 728.39 134.35C726.76 142.5 716.75 148.99 716.65 149.06L716.41 149.2L716.26 149.43C711.94 155.84 687.51 173.93 681.12 178.61L680.56 177.97C677.7 180.45 652.56 202.46 651.2 210.89C650.32 216.18 644.36 218.23 642.2 218.8C639.92 217.07 632.52 211.18 628.67 204.58C625.06 198.37 639.59 186.25 640.87 181.52L638.87 179.47C638.66 180.23 620 197.67 625.19 206.58C629.35 213.73 636.95 219.85 639.61 221.87C638.76 229.59 633.47 274.92 625.34 285.66C615.24 299.01 606.75 366.29 607.69 389.78C608.52 410.65 603.07 450.07 584.87 467C581.719 470.059 577.918 472.368 573.75 473.753C569.582 475.138 565.155 475.565 560.8 475H560.58H560.36C560.1 475 533.7 477.7 511.52 459C493.37 443.73 483.09 418.81 480.95 384.91H480.51L480.33 375.04C485.251 374.272 489.683 371.626 492.694 367.659C495.706 363.692 497.062 358.712 496.479 353.766C495.896 348.819 493.418 344.291 489.566 341.134C485.714 337.976 480.789 336.434 475.824 336.832C470.859 337.23 466.242 339.536 462.942 343.267C459.642 346.998 457.917 351.863 458.129 356.839C458.341 361.815 460.473 366.515 464.078 369.952C467.683 373.389 472.479 375.295 477.46 375.27H477.68L477.86 385.08L476.98 385.14C479.18 420.14 489.98 446.03 508.98 462.02C523.421 473.987 541.868 480.024 560.59 478.91C561.918 479.055 563.254 479.129 564.59 479.13C573.172 479.174 581.429 475.853 587.59 469.88C606.76 452.03 612.59 411.16 611.68 389.58C610.68 364.69 619.59 299.83 628.53 288.02C637.29 276.43 642.6 231.27 643.53 222.52C646.7 221.63 653.87 218.82 655.09 211.52C655.97 206.24 672.76 189.97 683.09 180.96L682.78 180.6C688.34 176.54 705.63 163.74 714.2 155.52C716.86 152.97 719.5 150.42 722.26 147.99C725.58 145.05 729.8 140.38 730.91 134.86C731.288 133.038 731.29 131.158 730.915 129.335C730.54 127.512 729.797 125.785 728.73 124.26V124.26Z" fill="black"/>
<path d="M639.27 221.24C638.85 220.95 628.89 213.82 623.9 205.24C618.72 196.33 637.38 178.9 637.58 178.14L639.58 180.19C638.31 184.91 623.78 197.04 627.39 203.24C631.94 211.07 641.52 217.92 641.62 217.99L639.27 221.24Z" fill="#353146"/>
<path d="M679.82 180.55L678.26 178.4C678.58 178.17 709.99 155.45 714.94 148.1L715.1 147.88L715.33 147.73C715.43 147.66 725.44 141.18 727.07 133.02C727.371 131.496 727.348 129.927 727.003 128.413C726.659 126.898 726 125.473 725.07 124.23L724.84 123.89V123.65C724.64 123.39 723.17 121.92 715.73 122.56L715.5 119.91C721.09 119.43 724.78 119.98 726.5 121.55C726.928 121.918 727.244 122.4 727.41 122.94C728.491 124.46 729.25 126.186 729.638 128.011C730.027 129.836 730.038 131.721 729.67 133.55C728.56 139.08 724.35 143.75 721.02 146.68C718.27 149.11 715.62 151.68 712.97 154.21C702.92 163.84 680.92 179.76 679.82 180.55Z" fill="#E8F5FF"/>
<path d="M479.04 371.558L476.39 371.607L476.685 387.714L479.335 387.666L479.04 371.558Z" fill="#E8F5FF"/>
<path d="M476.17 374C486.857 374 495.52 365.337 495.52 354.65C495.52 343.963 486.857 335.3 476.17 335.3C465.483 335.3 456.82 343.963 456.82 354.65C456.82 365.337 465.483 374 476.17 374Z" fill="#F6B586"/>
<path d="M476.17 370.72C485.045 370.72 492.24 363.525 492.24 354.65C492.24 345.775 485.045 338.58 476.17 338.58C467.295 338.58 460.1 345.775 460.1 354.65C460.1 363.525 467.295 370.72 476.17 370.72Z" fill="#E8F5FF"/>
<path d="M563.33 477.84C561.994 477.842 560.659 477.772 559.33 477.63C540.609 478.733 522.167 472.697 507.72 460.74C488.72 444.74 477.94 418.88 475.72 383.85L479.72 383.6C481.86 417.5 492.14 442.43 510.3 457.69C532.48 476.34 558.87 473.69 559.13 473.69H559.35H559.57C563.927 474.252 568.354 473.824 572.523 472.439C576.692 471.054 580.495 468.747 583.65 465.69C601.84 448.76 607.29 409.34 606.46 388.47C605.46 364.96 613.95 297.68 624.06 284.34C632.91 272.65 638.4 219.96 638.46 219.43L638.61 217.93L640.09 217.67C640.18 217.67 648.82 216.03 649.9 209.57C651.3 201.15 676.4 179.14 679.25 176.65L681.86 179.65C671.49 188.65 654.7 204.93 653.86 210.22C652.64 217.54 645.47 220.34 642.31 221.22C641.31 229.98 636.04 275.13 627.31 286.72C618.37 298.53 609.46 363.39 610.46 388.28C611.32 409.86 605.55 450.74 586.38 468.58C580.207 474.568 571.93 477.894 563.33 477.84Z" fill="#353146"/>
<g opacity="0.1">
<path opacity="0.1" d="M726.06 69.47C727.7 63.41 729.68 57.31 731.06 51.17C729.41 57.34 727.42 63.41 726.06 69.47Z" fill="black"/>
<path opacity="0.1" d="M709.33 117.09C707.33 112.7 708.4 107.62 708.44 102.8C708.48 97.98 706.7 92.34 702.06 90.99C692.78 88.4 686.38 105.71 677.26 102.58C670.26 100.19 672.11 89.58 668.07 83.45C664.88 78.59 658.49 77.23 653.53 74.19C642.95 67.7 643.27 57.32 638.37 47.5C633.22 37.2 622.37 40.24 612.93 46.32C605.76 50.94 599.59 57.13 591.93 60.82C585.3 64.01 577.85 65.17 570.5 65.34C561.55 65.55 551.81 63.96 545.66 57.46C540.92 52.46 539.21 45.13 540.19 38.26C540.02 38.73 539.87 39.2 539.72 39.67C537.32 47.54 538.72 56.79 544.33 62.77C550.48 69.27 560.22 70.85 569.17 70.65C576.53 70.48 583.97 69.32 590.61 66.13C598.29 62.43 604.46 56.25 611.61 51.63C621.05 45.55 631.91 42.51 637.05 52.81C641.95 62.63 641.64 73.01 652.21 79.5C657.21 82.5 663.56 83.9 666.76 88.76C670.76 94.91 668.99 105.5 675.95 107.89C685.06 111.01 691.46 93.71 700.74 96.3C705.38 97.6 707.17 103.3 707.12 108.11C707.07 112.92 706.03 118.01 708.01 122.4C715.7 122.05 725.21 120.4 727.44 113C727.747 111.938 727.889 110.835 727.86 109.73C724.61 115.34 716.25 116.78 709.33 117.09Z" fill="black"/>
</g>
<path opacity="0.1" d="M890.06 363.49L901.67 375.77C901.67 375.77 910.96 443.44 915.6 449.77C920.24 456.1 931.2 481.28 920.91 500.19C920.91 500.19 917.59 510.48 919.58 514.79C921.57 519.1 904.66 540.67 904.66 540.67C904.66 540.67 882.43 560.57 877.78 563.56C873.13 566.55 848.59 590.43 840.3 590.76C832.01 591.09 829.3 601.38 829.3 601.38L782.52 603.04C782.52 603.04 756.68 601.69 751.06 605.34C751.06 605.34 754.06 565.86 725.19 539.98L762.01 526.71C762.01 526.71 775.95 520.71 780.26 514.44C782.971 510.596 786.818 507.697 791.26 506.15C791.26 506.15 801.54 498.85 801.87 494.87C802.2 490.89 814.44 486.01 814.44 486.01L807.51 426.86L811.16 328.66C811.16 328.66 822.77 246.38 847.32 251.03C871.87 255.68 890.06 363.49 890.06 363.49Z" fill="black"/>
<path d="M894.06 363.49L905.67 375.77C905.67 375.77 914.96 443.44 919.6 449.77C924.24 456.1 935.2 481.28 924.91 500.19C924.91 500.19 921.6 510.48 923.59 514.79C925.58 519.1 908.66 540.67 908.66 540.67C908.66 540.67 886.43 560.57 881.78 563.56C877.13 566.55 852.59 590.43 844.3 590.76C836.01 591.09 833.3 601.38 833.3 601.38L786.52 603.04C786.52 603.04 760.66 601.69 755.06 605.34C755.06 605.34 758.06 565.86 729.19 539.98L766.01 526.71C766.01 526.71 779.95 520.71 784.26 514.44C786.971 510.596 790.818 507.697 795.26 506.15C795.26 506.15 805.54 498.85 805.87 494.87C806.2 490.89 818.44 486.01 818.44 486.01L811.51 426.86L815.16 328.66C815.16 328.66 826.77 246.38 851.32 251.03C875.87 255.68 894.06 363.49 894.06 363.49Z" fill="#E8F5FF"/>
<path opacity="0.1" d="M850.9 462.69C850.9 462.69 885.07 453.69 894.03 464.69C902.99 475.69 850.9 462.69 850.9 462.69Z" fill="black"/>
<path opacity="0.1" d="M842.94 477.78C854.55 485.91 890.38 486.24 890.38 486.24L842.94 477.78Z" fill="black"/>
<path opacity="0.1" d="M860.52 518.42C861.52 518.75 885.15 543.97 895.07 536.34C904.99 528.71 860.52 518.42 860.52 518.42Z" fill="black"/>
<path opacity="0.1" d="M542.28 306.76C542.28 306.76 549.22 354.54 545.8 374C542.38 393.46 554.86 417.57 554.86 417.57L542.28 306.76Z" fill="black"/>
<path d="M388.64 326.19C380.64 332.46 374.8 347.3 370.57 363.61C363.19 392.06 360.78 425.05 360.78 425.05C360.78 425.05 297.08 410.45 301.72 403.82C304.64 399.65 300.72 368.23 297.45 345.45C295.5 331.99 293.76 321.54 293.76 321.54C293.76 321.54 410.54 308.93 388.64 326.19Z" fill="#FFCCD0"/>
<path opacity="0.1" d="M388.64 324.86C380.64 331.14 374.8 345.97 370.57 362.28C357.879 366.134 344.381 366.481 331.508 363.286C318.635 360.091 306.866 353.471 297.45 344.13C295.5 330.66 293.76 320.21 293.76 320.21C293.76 320.21 410.54 307.61 388.64 324.86Z" fill="black"/>
<path d="M422.88 289.12C422.887 306.513 416.74 323.348 405.527 336.645C394.315 349.942 378.76 358.843 361.616 361.774C344.471 364.705 326.843 361.477 311.85 352.66C296.857 343.843 285.467 330.006 279.695 313.598C273.923 297.191 274.142 279.27 280.313 263.008C286.483 246.747 298.208 233.192 313.411 224.744C328.615 216.295 346.317 213.498 363.385 216.846C380.453 220.195 395.786 229.473 406.67 243.04C417.159 256.108 422.877 272.363 422.88 289.12V289.12Z" fill="#FFCCD0"/>
<path opacity="0.1" d="M480.96 749.68H459.96L458.19 712.59L456.34 674.2C456.34 674.2 461.11 673.49 468.71 672.43L471.78 672.02H472.03C473.69 679.81 475.33 687.81 476.91 695.8C479.54 709.985 480.909 724.374 481 738.8C481 739.8 481 740.8 481 741.74C481.06 744.41 481 747.08 480.96 749.68Z" fill="black"/>
<path d="M476.93 749.68H213.57C214.71 747.09 215.47 745.52 215.47 745.52C215.47 745.52 236.54 653.34 247.25 614.34C247.253 614.307 247.253 614.273 247.25 614.24C248.588 608.942 250.204 603.718 252.09 598.59V598.59C252.212 598.241 252.369 597.906 252.56 597.59C257.86 588.97 264.5 579.68 255.21 566.41C245.92 553.14 249.21 494.75 249.21 494.75C249.21 494.75 260.49 444.98 272.43 418.44C274.242 414.329 276.814 410.597 280.01 407.44C281.049 406.423 282.159 405.481 283.33 404.62V404.62C284.221 403.951 285.149 403.333 286.11 402.77L286.3 402.65C291.316 399.806 296.886 398.077 302.63 397.58C306.71 397.153 310.829 397.268 314.88 397.92C334.24 400.76 349.74 405.51 362.06 410.92C395.45 425.59 405.56 445.25 405.76 445.66L405.84 445.83C407.18 448.96 426.78 494.72 433.84 516.07C435.67 521.63 436.67 525.54 436.27 526.61C434.27 531.91 451.53 598.26 451.53 598.26C451.53 598.26 459.53 630.26 467.53 667.77C467.88 669.33 468.21 670.89 468.53 672.47C469.96 679.28 471.38 686.22 472.75 693.15C475.404 707.432 476.773 721.923 476.84 736.45C476.987 740.977 477.017 745.387 476.93 749.68Z" fill="#F6B586"/>
<path opacity="0.1" d="M301.06 374.76C301.06 374.76 282.89 367.76 283.11 378.38C283.33 389 287.54 394.08 286.21 395.63C284.88 397.18 286.87 406.47 286.87 406.47C286.87 406.47 311.42 406.47 322.7 411.55C333.98 416.63 375.56 426.81 380.87 429.91C386.18 433.01 405.87 446.91 405.87 446.91L407.64 420.59C407.64 420.59 387.29 403.78 353.9 395.16C320.51 386.54 301.06 374.76 301.06 374.76Z" fill="black"/>
<path d="M301.06 373.43C301.06 373.43 282.89 366.43 283.11 377.05C283.33 387.67 287.54 392.75 286.21 394.3C284.88 395.85 286.87 405.14 286.87 405.14C286.87 405.14 311.42 405.14 322.7 410.23C333.98 415.32 375.56 425.49 380.87 428.58C386.18 431.67 405.87 445.58 405.87 445.58L407.66 419.34C407.66 419.34 387.31 402.53 353.92 393.91C320.53 385.29 301.06 373.43 301.06 373.43Z" fill="#F6B586"/>
<path opacity="0.1" d="M355.91 436.77C355.91 436.77 390.63 474.36 388.86 484.77C387.09 495.18 355.91 436.77 355.91 436.77Z" fill="black"/>
<path opacity="0.1" d="M299.51 572.56C299.51 572.56 274.06 596.01 266.56 597.34C259.06 598.67 272.31 603.09 280.93 599.56C289.55 596.03 307.93 586.74 307.93 586.74L299.51 572.56Z" fill="black"/>
<path d="M487.27 749.68H427.92C419.62 742.48 411.77 735.81 406.77 731.8C398.77 725.38 393 715.93 389.32 708.33C388.49 706.6 387.77 704.98 387.16 703.51C386.068 700.978 385.106 698.391 384.28 695.76L428.23 669.66C430.659 671.726 432.941 673.958 435.06 676.34L435.59 676.95C438.03 679.83 440.18 683.1 440.37 685.78C440.59 688.9 449.27 700.97 458.14 712.56C467.14 724.35 476.36 735.62 476.97 736.38C476.97 736.38 478.49 738.45 480.97 741.63C482.72 743.93 484.88 746.69 487.27 749.68Z" fill="#FFCCD0"/>
<path opacity="0.1" d="M406.67 243.04C404.56 247.8 402.67 252.74 402.39 258.04C401.6 273.34 402.88 307.55 385.94 315.23C377.55 319.01 368.57 310.71 359.37 310.51C352.75 310.37 346.68 314.57 342.64 319.82C338.6 325.07 336.09 331.3 333.16 337.24C330.493 342.631 327.421 347.813 323.97 352.74C322.939 354.248 321.802 355.681 320.57 357.03C310.241 352.671 301.042 346.012 293.676 337.56C286.31 329.109 280.971 319.087 278.065 308.259C275.158 297.43 274.762 286.082 276.906 275.077C279.05 264.073 283.678 253.703 290.437 244.758C297.196 235.813 305.907 228.529 315.908 223.461C325.908 218.393 336.933 215.674 348.143 215.512C359.353 215.35 370.453 217.749 380.595 222.527C390.738 227.304 399.656 234.334 406.67 243.08V243.04Z" fill="black"/>
<path d="M401.06 255.34C400.26 270.64 401.55 304.85 384.6 312.52C376.21 316.3 367.23 308.01 358.03 307.81C351.41 307.66 345.35 311.87 341.3 317.11C337.25 322.35 334.76 328.59 331.82 334.54C329.152 339.931 326.08 345.113 322.63 350.04C320.57 352.96 318.29 355.89 315.12 357.53C309.6 360.41 302.91 358.79 296.99 356.94C289.31 354.52 281.743 351.793 274.29 348.76C274.461 347.635 274.548 346.498 274.55 345.36C274.33 345.78 274.09 346.17 273.85 346.59L273.38 347.41C272.53 348.91 271.7 350.41 270.94 351.95C270.65 352.54 270.37 353.15 270.12 353.76C269.114 356.03 268.483 358.448 268.25 360.92C267.74 367.59 271.03 373.92 273.95 379.92C285.18 403.13 292.12 430.27 283.67 454.62C280.01 465.21 273.67 474.62 269.04 484.85C260.946 502.969 258.564 523.123 262.21 542.63C264.52 554.75 269.15 566.75 268.01 579.04C266.01 600.19 247.77 615.93 229.5 626.75C219.63 632.57 207.55 637.75 197.07 633.15C203.75 625.35 205.47 614.56 206.91 604.38C210.85 576.613 214.8 548.833 218.76 521.04C220.34 509.98 221.917 498.92 223.49 487.86C226.43 467.08 229.41 446.07 227.57 425.16C226.23 409.75 222.45 393.39 229.13 379.44C232.66 372.05 238.95 365.93 240.91 357.97C242.52 351.5 241.02 344.62 242.08 338.03C242.66 335.032 243.642 332.126 245 329.39C246.729 325.678 248.985 322.236 251.7 319.17C249.02 318.39 246.52 317.32 245 315.08C249.3 312.28 249.95 305.97 248 301.23C246.05 296.49 242.15 292.88 238.64 289.14C235.13 285.4 231.75 281.04 231.31 275.94C230.46 266.23 240.16 258.71 241.87 249.13C243.6 239.38 236.76 229.9 237.31 220.03C237.95 208.1 248.91 199.43 259.73 194.4C276.058 186.841 294.095 183.736 312.01 185.4C326.59 186.78 340.7 191.29 355.24 193.04C364.01 194.04 372.9 194.14 381.61 195.68C390.32 197.22 399.05 200.47 405.18 206.86C421.34 223.71 401.98 237.58 401.06 255.34Z" fill="#FFE0D0"/>
<path opacity="0.1" d="M387.54 708.34C382.44 706.13 373.16 707.45 357.23 702.6C341.3 697.75 338.23 675.83 338.23 675.83V675.76C338.04 675.26 336.56 672 326.54 660.58C315.47 647.97 291.54 584.28 291.54 584.28C291.54 584.28 270.32 561.49 270.99 553.09C271.66 544.69 267.22 522.34 267.66 497.34C268.1 472.34 315.43 455.76 315.43 455.76C406.56 439.61 385.1 544.67 382.67 552.63C380.24 560.59 392.85 582.09 392.85 582.09C391.07 591.45 400.15 605.94 400.15 605.94C400.15 605.94 402.35 618.76 402.8 623.63C402.825 623.855 402.875 624.076 402.95 624.29C404.41 628.88 416.31 633.04 421.15 635.57C426.24 638.23 442.61 661.45 442.61 661.45C446.14 678.5 392.62 710.58 387.54 708.34Z" fill="black"/>
<path d="M390.19 704.34C385.1 702.12 375.81 703.45 359.89 698.59C343.97 693.73 340.89 671.83 340.89 671.83V671.76C340.71 671.25 339.22 668 329.2 656.58C318.13 643.97 294.2 580.27 294.2 580.27C294.2 580.27 272.98 557.49 273.64 549.09C274.3 540.69 269.88 518.34 270.32 493.36C270.76 468.38 318.06 451.81 318.06 451.81C409.19 435.66 387.73 540.72 385.3 548.68C382.87 556.64 395.48 578.14 395.48 578.14C393.7 587.5 402.78 601.99 402.78 601.99C402.78 601.99 404.98 614.81 405.44 619.68C405.457 619.905 405.504 620.127 405.58 620.34C407.04 624.93 418.94 629.09 423.79 631.62C428.87 634.27 445.25 657.5 445.25 657.5C448.8 674.52 395.28 706.6 390.19 704.34Z" fill="#F6B586"/>
<path opacity="0.1" d="M319.86 506.66C319.86 506.66 359.67 548.66 370.06 548.66C380.45 548.66 319.86 506.66 319.86 506.66Z" fill="black"/>
<path d="M390.19 704.34C385.1 702.12 375.81 703.45 359.89 698.59C343.97 693.73 340.89 671.83 340.89 671.83V671.76C351.44 664.76 378.16 644.99 388.69 637.76C396.1 632.69 402.15 625.24 405.69 620.3C407.15 624.89 419.05 629.05 423.9 631.58C428.98 634.23 445.36 657.46 445.36 657.46C448.8 674.52 395.28 706.6 390.19 704.34Z" fill="#F6B586"/>
<g opacity="0.1">
<path opacity="0.1" d="M245.06 315.19C245.11 315.27 245.18 315.34 245.24 315.42C245.54 315.04 245.85 314.66 246.17 314.3C245.829 314.631 245.458 314.929 245.06 315.19V315.19Z" fill="black"/>
<path opacity="0.1" d="M268.26 361.03C268.68 355.48 271.65 350.59 274.43 345.71C272.61 345.01 270.79 344.3 268.99 343.56C269.161 342.438 269.248 341.305 269.25 340.17C266.44 345.17 263.38 350.09 262.95 355.72C262.44 362.4 265.73 368.72 268.65 374.72C279.89 397.92 286.82 425.06 278.37 449.42C274.7 460 268.37 469.42 263.74 479.65C255.649 497.766 253.27 517.918 256.92 537.42C259.21 549.55 263.85 561.54 262.71 573.83C260.71 594.98 242.48 610.72 224.2 621.53C216.73 625.95 208 630 199.65 629.71C198.877 630.954 198.015 632.141 197.07 633.26C207.56 637.89 219.63 632.68 229.5 626.84C247.79 616.04 266.06 600.34 268.06 579.15C269.2 566.86 264.56 554.87 262.26 542.74C258.609 523.24 260.981 503.09 269.06 484.97C273.66 474.75 280.06 465.32 283.69 454.74C292.14 430.38 285.2 403.24 273.97 380.04C271.06 374 267.75 367.71 268.26 361.03Z" fill="black"/>
<path opacity="0.1" d="M405.16 206.98C404.176 205.971 403.12 205.035 402 204.18C414.12 219.9 396.62 233.26 395.75 250.18C394.97 265.48 396.25 299.7 379.3 307.36C370.92 311.15 361.93 302.85 352.74 302.65C346.11 302.51 340.05 306.72 336 311.96C331.95 317.2 329.46 323.44 326.53 329.38C323.857 334.77 320.782 339.952 317.33 344.88C315.33 347.81 312.99 350.73 309.81 352.38C304.31 355.25 297.62 353.64 291.69 351.78C285.923 349.967 280.21 347.967 274.55 345.78C274.538 346.822 274.451 347.861 274.29 348.89C281.75 351.93 289.32 354.657 297 357.07C302.92 358.93 309.61 360.54 315.12 357.67C318.29 356.02 320.59 353.09 322.64 350.16C326.094 345.239 329.166 340.06 331.83 334.67C334.77 328.73 337.25 322.48 341.31 317.24C345.37 312 351.42 307.8 358.04 307.94C367.24 308.14 376.23 316.44 384.61 312.65C401.56 304.99 400.27 270.77 401.06 255.47C401.98 237.68 421.34 223.82 405.16 206.98Z" fill="black"/>
</g>
<path opacity="0.1" d="M273.39 347.42C272.54 348.92 271.71 350.42 270.95 351.96C270.66 352.55 270.38 353.16 270.13 353.77C264.89 348.49 252.13 335.94 245.01 332.05C246.741 328.339 248.998 324.897 251.71 321.83C251.71 321.83 268.68 330.8 273.39 347.42Z" fill="black"/>
<path d="M273.86 346.6C269.93 328.81 251.71 319.18 251.71 319.18C248.995 322.246 246.739 325.688 245.01 329.4C252.52 333.51 266.36 347.29 270.95 351.96L273.86 346.6Z" fill="#F6B586"/>
</g>
<defs>
<linearGradient id="paint0_linear" x1="730.03" y1="62.41" x2="730.03" y2="44.03" gradientUnits="userSpaceOnUse">
<stop stop-color="#808080" stop-opacity="0.25"/>
<stop offset="0.54" stop-color="#808080" stop-opacity="0.12"/>
<stop offset="1" stop-color="#808080" stop-opacity="0.1"/>
</linearGradient>
<linearGradient id="paint1_linear" x1="458772" y1="658471" x2="458772" y2="45879.3" gradientUnits="userSpaceOnUse">
<stop stop-color="#808080" stop-opacity="0.25"/>
<stop offset="0.54" stop-color="#808080" stop-opacity="0.12"/>
<stop offset="1" stop-color="#808080" stop-opacity="0.1"/>
</linearGradient>
<clipPath id="clip0">
<rect width="1086.13" height="782.67" fill="white" transform="translate(0 -33)"/>
</clipPath>
</defs>
</svg>
