<?xml version="1.0" encoding="iso-8859-1"?>
<!-- Generator: Adobe Illustrator 18.0.0, SVG Export Plug-In . SVG Version: 6.00 Build 0)  -->
<!DOCTYPE svg PUBLIC "-//W3C//DTD SVG 1.1//EN" "http://www.w3.org/Graphics/SVG/1.1/DTD/svg11.dtd">
<svg version="1.1" id="Capa_1" xmlns="http://www.w3.org/2000/svg" xmlns:xlink="http://www.w3.org/1999/xlink" x="0px" y="0px" fill="#5894B5"
	 viewBox="0 0 482.896 482.896" style="enable-background:new 0 0 482.896 482.896;" xml:space="preserve">
<g>
	<path d="M446.012,166.189c-1.985-0.581-4.101,0.353-5.01,2.212c-0.909,1.858-0.348,4.101,1.33,5.313
		c9.381,6.775,13.758,15.662,12.325,25.024c-1.624,10.614-10.455,20.066-22.497,24.08c-2.514,0.838-5.364,1.263-8.472,1.263
		c-17.628,0-42.226-13.092-70.707-28.252c-11.237-5.981-22.857-12.166-35.026-18.077c-8.561-4.158-17.04-6.267-25.202-6.267
		c-27.216,0-44.163,22.677-51.305,34.864c-7.141-12.187-24.087-34.864-51.306-34.864c-8.162,0-16.641,2.109-25.202,6.267
		c-12.17,5.911-23.79,12.096-35.027,18.077c-28.48,15.16-53.077,28.252-70.705,28.252c-3.108,0-5.958-0.425-8.472-1.263
		c-12.042-4.014-20.872-13.466-22.496-24.08c-1.433-9.362,2.944-18.249,12.325-25.024c1.677-1.211,2.238-3.454,1.33-5.313
		c-0.91-1.859-3.027-2.793-5.01-2.212c-0.472,0.138-47.079,14.33-34.835,60.246c9.325,34.969,53.736,90.441,133.217,90.441
		c0.005,0,0.011,0,0.016,0c32.629-0.003,68.337-9.22,106.165-27.402c37.834,18.184,73.542,27.401,106.166,27.401
		c79.491,0,123.908-55.474,133.233-90.441C493.091,180.519,446.484,166.328,446.012,166.189z M472.634,224.246
		c-3.837,14.387-14.123,32.505-30.864,48.241H328.958c-2.347,0-4.25,1.903-4.25,4.25c0,2.348,1.903,4.25,4.25,4.25h102.789
		c-20.576,15.728-48.61,27.391-84.133,27.391c-31.857,0-66.95-9.233-104.304-27.443c-1.176-0.573-2.549-0.573-3.725,0
		c-37.349,18.207-72.441,27.441-104.304,27.444c-0.009,0-0.005,0-0.015,0c-74.715-0.006-116.331-51.604-125.004-84.131
		c-0.111-0.416-0.208-0.823-0.307-1.233c8.018,14.903,21.332,31.847,40.608,45.439c17.883,12.609,45.865,25.729,84.884,25.729
		c10.917,0,22.706-1.028,35.371-3.383c2.308-0.429,3.831-2.648,3.401-4.955c-0.429-2.308-2.647-3.833-4.955-3.401
		c-55.014,10.224-92.252-5.742-113.802-20.937c-26.265-18.52-40.916-44.32-45.349-60.31c2.263-7.326,6.693-12.865,11.436-16.95
		c-1.93,5.018-2.541,10.362-1.712,15.779c2.102,13.733,13.175,25.846,28.211,30.857c3.382,1.128,7.137,1.699,11.16,1.699
		c15.53,0,34.594-8.382,56.367-19.594h66.717c2.347,0,4.25-1.902,4.25-4.25c0-2.347-1.903-4.25-4.25-4.25h-50.554
		c0.721-0.384,1.443-0.768,2.169-1.154c11.169-5.945,22.718-12.092,34.747-17.935c7.394-3.591,14.624-5.412,21.488-5.412
		c30.816,0,47.246,36.86,47.406,37.228c0.673,1.552,2.204,2.556,3.896,2.558c0.001,0,0.003,0,0.005,0
		c1.69,0,3.221-1.004,3.896-2.553c0.162-0.372,16.596-37.232,47.408-37.232c6.865,0,14.094,1.821,21.488,5.412
		c12.029,5.842,23.578,11.99,34.747,17.935c29.486,15.695,54.951,29.249,74.7,29.249c4.023,0,7.778-0.572,11.16-1.699
		c15.035-5.012,26.108-17.124,28.21-30.858c0.823-5.378,0.227-10.685-1.67-15.671c0.264,0.227,0.528,0.46,0.79,0.696
		C473.365,195.126,476.882,208.313,472.634,224.246z"/>
	<path d="M352.097,216.577c-4.446-2.276-9.024-4.712-13.87-7.291c-7.916-4.213-16.101-8.57-24.685-12.739
		c-10.532-5.115-20.718-5.915-30.273-2.375c-18.471,6.843-27.608,27.509-27.988,28.385c-0.933,2.151,0.055,4.648,2.204,5.584
		c0.552,0.24,1.126,0.354,1.692,0.354c1.639,0,3.202-0.954,3.899-2.551c0.08-0.182,8.133-18.266,23.185-23.816
		c7.287-2.686,15.215-1.992,23.566,2.064c8.442,4.101,16.557,8.42,24.404,12.597c4.878,2.596,9.484,5.048,13.992,7.355
		c2.088,1.07,4.65,0.243,5.719-1.847C355.013,220.206,354.187,217.646,352.097,216.577z"/>
</g>
<g>
</g>
<g>
</g>
<g>
</g>
<g>
</g>
<g>
</g>
<g>
</g>
<g>
</g>
<g>
</g>
<g>
</g>
<g>
</g>
<g>
</g>
<g>
</g>
<g>
</g>
<g>
</g>
<g>
</g>
</svg>
