<?xml version="1.0" encoding="iso-8859-1"?>
<!-- Generator: Adobe Illustrator 18.0.0, SVG Export Plug-In . SVG Version: 6.00 Build 0)  -->
<!DOCTYPE svg PUBLIC "-//W3C//DTD SVG 1.1//EN" "http://www.w3.org/Graphics/SVG/1.1/DTD/svg11.dtd">
<svg version="1.1" id="Capa_1" xmlns="http://www.w3.org/2000/svg" xmlns:xlink="http://www.w3.org/1999/xlink" x="0px" y="0px"
	 viewBox="0 0 493.834 493.834" style="enable-background:new 0 0 493.834 493.834;" xml:space="preserve">
<g>
	<path d="M246.917,63.668c-101.045,0-183.25,82.205-183.25,183.248c0,101.045,82.205,183.25,183.25,183.25
		c101.044,0,183.249-82.205,183.249-183.25C430.166,145.873,347.961,63.668,246.917,63.668z M246.917,421.666
		c-76.475,0-141.626-49.383-165.26-117.932h28.957c2.347,0,4.25-1.902,4.25-4.25c0-2.348-1.903-4.25-4.25-4.25H78.966
		c-2.835-9.84-4.832-20.033-5.897-30.498h54.045c2.347,0,4.25-1.902,4.25-4.25c0-2.348-1.903-4.25-4.25-4.25H72.416
		c-0.163-3.086-0.249-6.193-0.249-9.32c0-47.258,18.864-90.186,49.448-121.672h92.493c2.348,0,4.25-1.902,4.25-4.25
		c0-2.348-1.902-4.25-4.25-4.25h-83.644c30.935-27.703,71.757-44.576,116.452-44.576c95.963,0,174.097,77.754,174.734,173.57H398.6
		c-2.348,0-4.25,1.902-4.25,4.25c0,2.348,1.902,4.25,4.25,4.25h22.902C417.649,347.211,340.82,421.666,246.917,421.666z"/>
	<path d="M394.069,285.383c-2.256-0.658-4.613,0.639-5.269,2.895c-0.534,1.836-1.106,3.654-1.709,5.459h-42.989
		c-2.348,0-4.25,1.902-4.25,4.25c0,2.348,1.902,4.25,4.25,4.25h39.852c-22.305,55.084-76.696,92.43-137.037,92.43
		c-2.348,0-4.25,1.902-4.25,4.25c0,2.348,1.902,4.25,4.25,4.25c34.507,0,67.219-11.023,94.599-31.881
		c26.498-20.185,46.189-48.82,55.446-80.633C397.618,288.398,396.323,286.039,394.069,285.383z"/>
	<path d="M302.345,200.969c13.037,11.064,28.31,17.41,41.898,17.41c9.759,0,17.697-3.277,22.958-9.477
		c6.452-7.602,7.895-18.484,4.061-30.639c-3.616-11.467-11.585-22.854-22.439-32.063c-13.038-11.064-28.31-17.41-41.899-17.41
		c-9.759,0-17.697,3.275-22.958,9.475c-6.453,7.604-7.895,18.484-4.061,30.641C283.521,180.371,291.491,191.758,302.345,200.969z
		 M290.446,143.766c4.542-5.352,11.468-6.475,16.478-6.475c11.435,0,25.043,5.754,36.399,15.391
		c9.648,8.188,16.691,18.18,19.832,28.139c2.924,9.268,2.059,17.287-2.434,22.582c-4.542,5.354-11.468,6.477-16.478,6.477
		c-11.436,0-25.043-5.754-36.398-15.391c-9.648-8.189-16.692-18.182-19.833-28.141C285.088,157.08,285.953,149.061,290.446,143.766z
		"/>
	<path d="M121.917,179.334c-6.938,0-12.584,5.645-12.584,12.582c0,6.939,5.645,12.584,12.584,12.584
		c6.938,0,12.583-5.645,12.583-12.584C134.5,184.979,128.855,179.334,121.917,179.334z M121.917,196
		c-2.252,0-4.084-1.832-4.084-4.084c0-2.25,1.832-4.082,4.084-4.082c2.251,0,4.083,1.832,4.083,4.082
		C126,194.168,124.168,196,121.917,196z"/>
	<path d="M194.917,331.334c-9.328,0-16.917,7.588-16.917,16.916s7.589,16.918,16.917,16.918c9.328,0,16.917-7.59,16.917-16.918
		S204.245,331.334,194.917,331.334z M194.917,356.668c-4.642,0-8.417-3.775-8.417-8.418c0-4.641,3.775-8.416,8.417-8.416
		c4.641,0,8.417,3.775,8.417,8.416C203.334,352.893,199.558,356.668,194.917,356.668z"/>
	<path d="M302,326.25c0,6.756,5.495,12.25,12.25,12.25c6.755,0,12.25-5.494,12.25-12.25c0-6.754-5.495-12.25-12.25-12.25
		C307.495,314,302,319.496,302,326.25z M318,326.25c0,2.068-1.682,3.75-3.75,3.75c-2.067,0-3.75-1.682-3.75-3.75
		c0-2.066,1.683-3.75,3.75-3.75C316.318,322.5,318,324.184,318,326.25z"/>
	<path d="M489.584,242.668h-34.471c-0.507-25.172-5.497-49.262-14.211-71.502l31.835-13.188c2.169-0.898,3.198-3.385,2.3-5.553
		c-0.897-2.17-3.385-3.195-5.553-2.301l-31.853,13.195c-9.922-22.547-23.72-43.016-40.559-60.549l24.441-24.441
		c1.659-1.658,1.659-4.35,0-6.01c-1.66-1.66-4.351-1.66-6.011,0l-24.44,24.441c-17.534-16.84-38.003-30.637-60.549-40.559
		l13.194-31.855c0.897-2.168-0.132-4.654-2.301-5.553c-2.168-0.895-4.654,0.131-5.553,2.301l-13.187,31.836
		c-22.239-8.715-46.329-13.705-71.501-14.211V4.25c0-2.348-1.903-4.25-4.25-4.25c-2.348,0-4.25,1.902-4.25,4.25v34.471
		c-25.172,0.506-49.263,5.496-71.502,14.211l-13.187-31.836c-0.898-2.168-3.385-3.195-5.553-2.301
		c-2.168,0.898-3.198,3.385-2.3,5.553l13.194,31.855c-22.546,9.922-43.015,23.719-60.549,40.559L78.331,72.32
		c-1.66-1.66-4.351-1.66-6.011,0c-1.659,1.66-1.659,4.352,0,6.01l24.441,24.441c-16.839,17.533-30.637,38.002-40.559,60.549
		l-31.854-13.195c-2.167-0.895-4.654,0.131-5.553,2.301c-0.898,2.168,0.132,4.654,2.3,5.553l31.836,13.188
		c-8.715,22.238-13.704,46.328-14.211,71.5H4.25c-2.347,0-4.25,1.902-4.25,4.25c0,2.348,1.903,4.25,4.25,4.25h34.471
		c0.507,25.172,5.497,49.262,14.211,71.502l-31.836,13.188c-2.168,0.898-3.198,3.385-2.3,5.553c0.678,1.637,2.261,2.625,3.928,2.625
		c0.542,0,1.094-0.105,1.625-0.324l31.854-13.195c9.922,22.547,23.721,43.016,40.559,60.549L72.32,415.504
		c-1.659,1.658-1.659,4.35,0,6.01c0.83,0.83,1.918,1.244,3.006,1.244c1.088,0,2.175-0.414,3.005-1.244l24.441-24.441
		c17.533,16.838,38.002,30.637,60.549,40.559l-13.195,31.855c-0.898,2.168,0.132,4.654,2.3,5.553
		c0.532,0.219,1.083,0.324,1.625,0.324c1.668,0,3.25-0.988,3.928-2.625l13.188-31.836c22.239,8.713,46.329,13.703,71.501,14.211
		v34.471c0,2.348,1.902,4.25,4.25,4.25c2.347,0,4.25-1.902,4.25-4.25v-34.471c25.172-0.508,49.262-5.498,71.501-14.213
		l13.187,31.836c0.678,1.637,2.261,2.625,3.928,2.625c0.542,0,1.094-0.103,1.625-0.324c2.169-0.898,3.198-3.385,2.3-5.553
		l-13.194-31.854c22.547-9.922,43.015-23.721,60.549-40.559l24.44,24.441c0.83,0.83,1.918,1.244,3.006,1.244
		c1.088,0,2.175-0.414,3.005-1.244c1.66-1.66,1.66-4.352,0-6.01l-24.441-24.441c16.839-17.533,30.638-38.002,40.559-60.549
		l31.854,13.195c0.532,0.219,1.083,0.324,1.625,0.324c1.668,0,3.25-0.988,3.928-2.625c0.898-2.168-0.131-4.654-2.3-5.553
		l-31.836-13.188c8.715-22.238,13.704-46.328,14.212-71.5h34.471c2.347,0,4.25-1.902,4.25-4.25
		C493.834,244.57,491.931,242.668,489.584,242.668z M246.917,446.666c-110.143,0-199.75-89.607-199.75-199.75
		s89.607-199.75,199.75-199.75s199.75,89.607,199.75,199.75S357.06,446.666,246.917,446.666z"/>
	<path d="M327.545,177.123c0.83,0.83,1.918,1.246,3.006,1.246s2.175-0.416,3.005-1.246c1.66-1.658,1.66-4.35,0-6.01l-7.5-7.5
		c-1.66-1.66-4.351-1.66-6.011,0c-1.659,1.66-1.659,4.352,0,6.01L327.545,177.123z"/>
</g>
<g>
</g>
<g>
</g>
<g>
</g>
<g>
</g>
<g>
</g>
<g>
</g>
<g>
</g>
<g>
</g>
<g>
</g>
<g>
</g>
<g>
</g>
<g>
</g>
<g>
</g>
<g>
</g>
<g>
</g>
</svg>
