<?xml version="1.0" encoding="iso-8859-1"?>
<!-- Generator: Adobe Illustrator 18.0.0, SVG Export Plug-In . SVG Version: 6.00 Build 0)  -->
<!DOCTYPE svg PUBLIC "-//W3C//DTD SVG 1.1//EN" "http://www.w3.org/Graphics/SVG/1.1/DTD/svg11.dtd">
<svg version="1.1" id="Capa_1" xmlns="http://www.w3.org/2000/svg" xmlns:xlink="http://www.w3.org/1999/xlink" x="0px" y="0px"
	 viewBox="0 0 475.182 475.182" style="enable-background:new 0 0 475.182 475.182;" xml:space="preserve">
<g>
	<path d="M407.995,47.32V22.195c0-5.115-4.162-9.277-9.278-9.277h-17.764c-5.116,0-9.277,4.162-9.277,9.277V46.1h-5.119V14.25
		c0-7.858-6.393-14.25-14.25-14.25h-66.996c-7.857,0-14.25,6.392-14.25,14.25V46.1h-5.066V33.533c0-5.115-4.162-9.277-9.278-9.277
		h-17.764c-5.116,0-9.277,4.162-9.277,9.277v13.773c-12.354,3.627-21.404,15.059-21.404,28.57V307.17
		c0,16.418,13.358,29.777,29.778,29.777h48.843v26.094c0,7.857,6.393,14.25,14.25,14.25h12.025v59.979
		c0,0.127,0.008,0.275,0.019,0.402c0.01,0.105,0.86,10.553-6.496,18.602c-6.11,6.688-16.184,10.078-29.94,10.078H149.418
		c-0.212,0-0.424,0.016-0.633,0.049c-0.18,0.025-18.162,2.586-30.89-8.367c-8.555-7.363-12.893-19.283-12.893-35.432V201.41
		c0.153-2.459,1.207-26.443-14.294-43.131c-9.556-10.285-23.223-15.502-40.623-15.502c-2.347,0-4.25,1.902-4.25,4.25
		c0,2.348,1.903,4.25,4.25,4.25c14.914,0,26.472,4.287,34.353,12.742c13.488,14.471,12.091,36.721,12.076,36.938
		c-0.008,0.104-0.012,0.207-0.012,0.313v221.332c0,18.736,5.332,32.824,15.848,41.875c10.663,9.176,23.883,10.705,31.508,10.705
		c2.928,0,5.031-0.225,5.848-0.33h127.046c16.317,0,28.537-4.359,36.319-12.959c9.257-10.228,8.744-22.81,8.598-24.797v-59.805
		h14.808c7.858,0,14.25-6.393,14.25-14.25v-26.094h48.843c16.42,0,29.778-13.359,29.778-29.779V75.875
		C429.347,62.383,420.323,50.965,407.995,47.32z M380.176,22.195c0-0.43,0.349-0.777,0.777-0.777h17.764
		c0.429,0,0.778,0.348,0.778,0.777V46.1h-19.319V22.195z M279.561,14.25c0-3.172,2.58-5.75,5.75-5.75h66.996
		c3.17,0,5.75,2.578,5.75,5.75V46.1h-78.496V14.25z M238.953,32.756h17.764c0.429,0,0.778,0.348,0.778,0.777V46.1h-19.319V33.533
		C238.176,33.104,238.525,32.756,238.953,32.756z M238.05,54.6h161.519c11.733,0,21.278,9.545,21.278,21.275v70.15
		c-5.746-0.965-16.633-1.983-35.455-1.197v-30.639c0-2.348-1.903-4.25-4.25-4.25H256.476c-2.347,0-4.25,1.902-4.25,4.25v34.506
		c-19.148-2.975-31.003-7.586-35.455-9.557V87.098h81.308c2.347,0,4.25-1.902,4.25-4.25c0-2.348-1.903-4.25-4.25-4.25h-81.308
		v-2.721C216.772,64.145,226.317,54.6,238.05,54.6z M376.893,118.439v146.168H260.726V118.439H376.893z M342.226,353.084h-17.147
		c-2.347,0-4.25,1.902-4.25,4.25c0,2.348,1.903,4.25,4.25,4.25h17.147v1.457c0,3.172-2.579,5.75-5.75,5.75h-35.333
		c-3.17,0-5.75-2.578-5.75-5.75v-26.094h46.833V353.084z M399.569,328.447H238.05c-11.733,0-21.278-9.545-21.278-21.277V148.355
		c6.506,2.555,18.288,6.377,35.455,8.934v111.568c0,2.348,1.903,4.25,4.25,4.25h124.667c2.347,0,4.25-1.902,4.25-4.25V153.336
		c20.521-0.869,31.109,0.5,35.455,1.346v117.406h-17.773c-2.347,0-4.25,1.902-4.25,4.25c0,2.348,1.903,4.25,4.25,4.25h17.773v18.498
		h-82.27c-2.347,0-4.25,1.902-4.25,4.25c0,2.348,1.903,4.25,4.25,4.25h82.249C420.6,319.125,411.161,328.447,399.569,328.447z"/>
	<path d="M318.809,13.019c-7.154,0-12.974,5.82-12.974,12.975s5.82,12.975,12.974,12.975s12.974-5.82,12.974-12.975
		S325.963,13.019,318.809,13.019z M318.809,30.469c-2.467,0-4.474-2.006-4.474-4.475c0-2.467,2.007-4.475,4.474-4.475
		s4.474,2.008,4.474,4.475C323.284,28.463,321.276,30.469,318.809,30.469z"/>
	<path d="M318.81,239.945c18.886,0,34.25-15.365,34.25-34.25c0-17.434-27.646-56.434-30.798-60.824
		c-0.798-1.111-2.083-1.77-3.452-1.77c-1.369,0-2.654,0.658-3.452,1.77c-3.152,4.391-30.798,43.391-30.798,60.824
		C284.56,224.58,299.924,239.945,318.81,239.945z M293.064,205.592h23.015c2.347,0,4.25-1.902,4.25-4.25
		c0-2.348-1.903-4.25-4.25-4.25h-21.091c4.585-12.732,16.34-31.369,23.822-42.322c9.457,13.844,25.75,39.971,25.75,50.926
		c0,14.197-11.551,25.75-25.75,25.75c-14.199,0-25.75-11.553-25.75-25.75C293.06,205.662,293.064,205.625,293.064,205.592z"/>
	<path d="M119.257,400.912c2.347,0,4.25-1.902,4.25-4.25V231.67c0-2.348-1.903-4.25-4.25-4.25s-4.25,1.902-4.25,4.25v164.992
		C115.007,399.01,116.909,400.912,119.257,400.912z"/>
</g>
<g>
</g>
<g>
</g>
<g>
</g>
<g>
</g>
<g>
</g>
<g>
</g>
<g>
</g>
<g>
</g>
<g>
</g>
<g>
</g>
<g>
</g>
<g>
</g>
<g>
</g>
<g>
</g>
<g>
</g>
</svg>
