<?xml version="1.0" encoding="iso-8859-1"?>
<!-- Generator: Adobe Illustrator 18.0.0, SVG Export Plug-In . SVG Version: 6.00 Build 0)  -->
<!DOCTYPE svg PUBLIC "-//W3C//DTD SVG 1.1//EN" "http://www.w3.org/Graphics/SVG/1.1/DTD/svg11.dtd">
<svg version="1.1" id="Capa_1" xmlns="http://www.w3.org/2000/svg" xmlns:xlink="http://www.w3.org/1999/xlink" x="0px" y="0px" fill="#5894B5"
	 viewBox="0 0 495.28 495.28" style="enable-background:new 0 0 495.28 495.28;" xml:space="preserve">
<g>
	<path d="M371.043,0h-17.779c-17.744,0-32.179,14.435-32.179,32.179v131.743c-6.347,7.915-27.404,32.915-39.383,41.102
		c-10.29,7.032-20.505,10.598-30.363,10.598c-6.286,0-12.581-1.456-18.71-4.327c-6.283-2.942-12.696-6.338-19.1-10.114
		c2.987-15.076,2.788-38.036-12.329-66.381c-3.005-5.634-8.842-9.134-15.232-9.134c-2.811,0-5.613,0.702-8.107,2.031
		c-8.392,4.477-11.578,14.947-7.102,23.338c4.995,9.365,8.105,18.387,9.293,26.93c-19.997-15.958-32.392-29.706-32.524-29.854
		c-3.27-3.672-7.967-5.777-12.886-5.777c-4.232,0-8.305,1.551-11.468,4.368c-3.441,3.065-5.482,7.286-5.748,11.886
		c-0.267,4.6,1.275,9.028,4.338,12.467c0.437,0.491,3.312,3.695,8.291,8.643c-4.33-0.718-8.096-1.924-10.782-3.509
		c-3.729-2.2-7.35-3.316-10.762-3.316c-5.055,0-9.55,2.43-12.997,7.026c-2.765,3.686-3.929,8.229-3.277,12.79
		c0.651,4.561,3.041,8.596,6.727,11.36c9.658,7.243,23.24,10.916,40.371,10.916c11.617,0,22.116-1.704,28.283-2.962
		c6.816,5.076,13.738,9.831,20.66,14.197c-12.772,8.055-28.38,20.268-39.845,36.943c-2.611,3.797-3.586,8.383-2.748,12.914
		c0.839,4.531,3.393,8.463,7.189,11.074c2.89,1.986,6.264,3.036,9.758,3.036c0.001,0,0.003,0,0.003,0
		c5.689,0,11.007-2.796,14.226-7.478c13.878-20.186,37.414-32.318,48.398-37.148c8.566,3.09,17.35,4.655,26.137,4.655
		c2.64,0,5.309-0.144,7.98-0.428c-0.547,15.47-5.107,40.127-25.636,60.95c-23.527-2.33-43.789-7.26-49.984-9.073
		c-4.313-1.649-7.721-2.418-10.715-2.418c-6.067,0-9.875,3.282-12.514,6.141c-3.152,3.414-4.626,7.657-4.15,11.946
		c0.444,4.007,2.485,7.792,5.902,10.946c4.825,4.454,12.477,8.249,32.778,11.96c-2.15,4.579-2.263,10.029,0.034,14.82
		c2.853,5.952,8.962,9.797,15.564,9.797c2.591,0,5.097-0.571,7.447-1.698c9.415-4.513,18.089-9.758,25.892-15.652
		c-1.081,10.137-4.21,21.043-11.932,27.688c-3.493,3.005-5.607,7.191-5.951,11.786c-0.344,4.595,1.121,9.049,4.127,12.542
		c3.28,3.811,8.048,5.998,13.08,5.998c4.123,0,8.117-1.483,11.246-4.174c30.541-26.28,24.984-73.612,21.934-89.986
		c6.055-10.258,10.587-21.394,13.48-33.126c3.924-15.914,4.224-30.125,3.635-39.978c2.826-1.615,5.605-3.371,8.29-5.235
		c8.588-5.965,14.819-11.703,19.183-16.4v246.501c0,17.744,14.435,32.179,32.179,32.179h17.779
		c17.744,0,32.179-14.435,32.179-32.179V32.179C403.222,14.435,388.787,0,371.043,0z M329.585,32.179
		c0-13.057,10.622-23.679,23.679-23.679h17.779c13.057,0,23.679,10.622,23.679,23.679v0.416c0,13.057-10.622,23.679-23.679,23.679
		h-17.779c-13.057,0-23.679-10.622-23.679-23.679V32.179z M394.722,463.102c0,13.057-10.622,23.679-23.679,23.679h-17.779
		c-13.057,0-23.679-10.622-23.679-23.679v-258.7c0-1.857-1.206-3.498-2.977-4.055c-0.42-0.132-0.849-0.196-1.273-0.196
		c-1.364,0-2.678,0.659-3.488,1.821c-0.044,0.063-0.121,0.18-0.232,0.351c-2.313,3.602-9.337,13.12-24.563,23.696
		c-3.184,2.212-6.51,4.255-9.886,6.073c-1.487,0.8-2.358,2.406-2.221,4.089c0.755,9.223,0.81,23.648-3.222,39.997
		c-2.82,11.433-7.308,22.253-13.339,32.161c-0.555,0.911-0.747,1.998-0.537,3.044c2.695,13.468,9.303,59.293-18.829,83.5
		c-1.587,1.365-3.612,2.117-5.702,2.117c-2.554,0-4.974-1.109-6.638-3.043c-1.525-1.772-2.268-4.031-2.094-6.362
		c0.175-2.331,1.247-4.454,3.019-5.978c12.631-10.869,15.335-29.629,15.379-43.453c0.005-1.671-0.969-3.19-2.49-3.882
		c-1.52-0.692-3.306-0.428-4.563,0.674c-9.034,7.924-19.633,14.827-31.505,20.517c-1.194,0.573-2.463,0.863-3.772,0.863
		c-3.351,0-6.452-1.951-7.899-4.971c-1.79-3.734-0.699-8.256,2.596-10.751c1.357-1.028,1.97-2.767,1.557-4.418
		c-0.413-1.652-1.771-2.898-3.453-3.167c-25.017-3.996-31.939-7.812-35.412-11.017c-1.864-1.72-3.007-3.722-3.219-5.636
		c-0.206-1.857,0.449-3.622,1.947-5.244c2.63-2.85,4.29-3.407,6.269-3.407c1.926,0,4.485,0.625,7.823,1.912
		c0.106,0.041,0.214,0.078,0.324,0.11c7.944,2.348,29.399,7.381,53.742,9.621c1.241,0.116,2.462-0.319,3.352-1.185
		c26.371-25.636,29.891-56.973,29.642-73.371c-0.019-1.242-0.581-2.415-1.537-3.208c-0.956-0.793-2.209-1.126-3.437-0.916
		c-12.247,2.118-24.455,0.855-36.283-3.696c-1.028-0.396-2.171-0.376-3.186,0.054c-10.848,4.602-37.79,17.792-53.625,40.825
		c-1.633,2.375-4.333,3.794-7.223,3.794c-1.768,0.001-3.478-0.532-4.945-1.541c-1.926-1.324-3.221-3.319-3.647-5.617
		c-0.425-2.298,0.069-4.625,1.393-6.55c12.453-18.112,30.331-30.682,43.136-38.038c1.308-0.751,2.12-2.14,2.133-3.648
		c0.013-1.508-0.775-2.911-2.069-3.685c-9.178-5.488-18.416-11.724-27.455-18.536c-0.99-0.747-2.258-1.022-3.469-0.757
		c-5.394,1.184-16.252,3.17-28.378,3.17c-15.25,0-27.118-3.101-35.271-9.215c-1.87-1.402-3.082-3.449-3.412-5.763
		c-0.331-2.313,0.26-4.618,1.662-6.488c1.83-2.44,3.857-3.626,6.197-3.626c1.872,0,4.039,0.719,6.442,2.137
		c6.248,3.685,16.06,5.698,26.553,5.417c1.728-0.045,3.256-1.133,3.865-2.751c0.609-1.618,0.178-3.443-1.09-4.617
		c-10.038-9.29-15.921-15.879-16.168-16.157c-1.555-1.745-2.337-3.991-2.202-6.325c0.135-2.333,1.171-4.475,2.916-6.029
		c1.605-1.429,3.67-2.216,5.815-2.216c2.497,0,4.88,1.068,6.543,2.936c0.157,0.176,16.028,17.833,41.099,36.675
		c1.273,0.957,2.975,1.122,4.407,0.427c1.433-0.695,2.357-2.132,2.395-3.725c0.294-12.593-3.348-26.089-10.827-40.112
		c-2.271-4.257-0.654-9.567,3.602-11.838c1.285-0.685,2.667-1.032,4.107-1.032c3.245,0,6.208,1.776,7.732,4.634
		c14.927,27.989,14.162,49.958,10.891,63.458c-0.437,1.8,0.344,3.676,1.928,4.636c7.524,4.56,15.096,8.63,22.505,12.1
		c7.266,3.403,14.773,5.129,22.315,5.129c11.601,0,23.43-4.064,35.159-12.08c15.544-10.623,42.105-43.896,42.312-44.19
		c0.505-0.716,0.775-1.571,0.775-2.447V54.356c5.885,6.399,14.32,10.417,23.679,10.417h17.676v250.146c0,2.347,1.903,4.25,4.25,4.25
		s4.25-1.903,4.25-4.25v-251c0-0.088-0.021-0.17-0.026-0.257c5.962-1.608,11.244-4.887,15.308-9.306V463.102z"/>
	<path d="M375.19,336.314c-2.347,0-4.25,1.903-4.25,4.25v58.35c0,2.347,1.903,4.25,4.25,4.25s4.25-1.903,4.25-4.25v-58.35
		C379.44,338.217,377.537,336.314,375.19,336.314z"/>
</g>
<g>
</g>
<g>
</g>
<g>
</g>
<g>
</g>
<g>
</g>
<g>
</g>
<g>
</g>
<g>
</g>
<g>
</g>
<g>
</g>
<g>
</g>
<g>
</g>
<g>
</g>
<g>
</g>
<g>
</g>
</svg>
