<?xml version="1.0" encoding="iso-8859-1"?>
<!-- Generator: Adobe Illustrator 18.0.0, SVG Export Plug-In . SVG Version: 6.00 Build 0)  -->
<!DOCTYPE svg PUBLIC "-//W3C//DTD SVG 1.1//EN" "http://www.w3.org/Graphics/SVG/1.1/DTD/svg11.dtd">
<svg version="1.1" id="Capa_1" xmlns="http://www.w3.org/2000/svg" xmlns:xlink="http://www.w3.org/1999/xlink" x="0px" y="0px"
	 viewBox="0 0 492.004 492.004" style="enable-background:new 0 0 492.004 492.004;" xml:space="preserve">
<g>
	<path d="M292.414,175.944L368.15,37.948c1.832-3.337,2.254-7.188,1.189-10.842c-1.064-3.655-3.488-6.676-6.825-8.507L331.833,1.76
		C329.735,0.608,327.366,0,324.985,0c-5.207,0-9.997,2.834-12.5,7.396l-75.737,137.997c-0.066,0.121-0.126,0.243-0.18,0.369
		c-0.026,0.06-2.874,6.014-13.401,6.014c-5.48,0-12.035-1.591-19.483-4.727c-3.71-1.563-7.358-2.355-10.843-2.355
		c-14.672,0-21.44,13.469-22.332,15.392c-6.263,11.499-7.695,24.748-4.032,37.326c3.679,12.63,12.057,23.072,23.589,29.401
		c3.533,1.939,7.569,2.881,12.34,2.881c3.133,0,6.213-0.386,9.192-0.76c2.771-0.347,5.388-0.675,7.848-0.675
		c2.971,0,5.254,0.494,7.186,1.555c4.098,2.249,6.283,6.863,8.813,12.207c2.909,6.142,6.205,13.103,13.356,17.028
		c7.249,3.978,15.424,6.081,23.642,6.081c17.934,0,34.439-9.731,43.119-25.407c4.816-7.296,9.462-23.762-6.831-35.021
		c-23.82-16.46-16.829-27.947-16.564-28.361C292.256,176.213,292.339,176.081,292.414,175.944z M282.884,185.119
		c1.633,9.127,8.703,18.069,21.015,26.576c13.336,9.214,5.436,22.031,4.503,23.446c-0.073,0.107-0.139,0.216-0.201,0.329
		c-7.164,13.051-20.865,21.159-35.758,21.159c-6.793,0-13.554-1.74-19.552-5.032c-4.737-2.6-7.179-7.755-9.763-13.214
		c-2.898-6.12-5.894-12.447-12.406-16.021c-3.191-1.752-6.879-2.603-11.276-2.603c-2.99,0-5.997,0.376-8.904,0.741
		c-2.846,0.357-5.533,0.694-8.136,0.694c-3.351,0-5.972-0.582-8.25-1.833c-9.542-5.237-16.474-13.877-19.518-24.327
		c-0.449-1.542-0.794-3.097-1.059-4.657l10.895,5.81c0.637,0.34,1.321,0.501,1.996,0.501c1.52,0,2.989-0.817,3.754-2.251
		c1.104-2.071,0.321-4.645-1.75-5.75l-15-8c-0.115-0.061-0.237-0.096-0.355-0.145c0.256-3.387,0.942-6.733,2.048-9.976
		l43.271,23.603c0.646,0.352,1.344,0.52,2.031,0.52c1.505,0,2.963-0.801,3.735-2.216c1.124-2.061,0.365-4.642-1.696-5.766
		l-43.847-23.916c1.379-2.53,5.965-9.598,14.179-9.598c2.345,0,4.884,0.568,7.544,1.689c8.498,3.579,16.163,5.394,22.782,5.394
		c14.993,0,20.217-9.128,21.084-10.887l7.556-13.768l22.765,11.382c0.61,0.305,1.259,0.45,1.897,0.45c1.559,0,3.06-0.861,3.804-2.35
		c1.05-2.1,0.199-4.652-1.9-5.702l-22.474-11.237l64.036-116.678c1.011-1.842,2.945-2.986,5.049-2.986
		c0.97,0,1.898,0.239,2.758,0.712l30.682,16.839c1.347,0.74,2.326,1.958,2.754,3.433c0.43,1.474,0.259,3.027-0.48,4.374
		l-3.545,6.458l-24.781-11.68c-2.1-1.05-4.652-0.199-5.702,1.901c-1.05,2.099-0.199,4.652,1.9,5.702l24.468,11.575l-67.999,123.897
		C284.261,172.938,281.577,177.814,282.884,185.119z"/>
	<path d="M256.712,272.224c-8.157,0-14.396,4.517-19.9,8.501c-4.789,3.467-8.925,6.461-13.6,6.461s-8.811-2.994-13.6-6.461
		c-5.504-3.985-11.743-8.501-19.9-8.501c-27.081,0-49.126,21.993-49.228,49.064c-0.712,8.713,3.136,25.383,22.836,27.414
		c28.803,2.969,28.199,16.403,28.167,16.893c-0.017,0.155-0.026,0.311-0.026,0.467v111.693c0,7.857,6.393,14.25,14.25,14.25h35
		c7.857,0,14.25-6.393,14.25-14.25V366.061c0-0.137-0.007-0.273-0.02-0.41c-0.014-0.138-0.54-13.969,28.208-16.95
		c19.696-2.042,23.53-18.707,22.811-27.417C305.86,294.215,283.805,272.224,256.712,272.224z M282.273,340.247
		c-35.639,3.696-35.946,23.213-35.811,25.938v111.57c0,3.171-2.58,5.75-5.75,5.75h-35c-3.17,0-5.75-2.579-5.75-5.75v-24.067h25.511
		c2.347,0,4.25-1.903,4.25-4.25s-1.903-4.25-4.25-4.25h-25.511v-14.5h8.511c2.347,0,4.25-1.903,4.25-4.25s-1.903-4.25-4.25-4.25
		h-8.511v-55.962c0.094-1.451,0.1-7.017-4.56-12.792c-5.823-7.216-16.324-11.652-31.211-13.187
		c-16.123-1.662-15.363-16.697-15.226-18.387c0.012-0.128,0.018-0.257,0.018-0.385c0-22.47,18.27-40.75,40.729-40.75
		c5.403,0,10.023,3.345,14.915,6.887c5.485,3.971,11.156,8.076,18.585,8.076s13.1-4.105,18.585-8.076
		c4.892-3.542,9.512-6.887,14.915-6.887c18.917,0,34.862,12.958,39.432,30.463h-44.671c-2.347,0-4.25,1.903-4.25,4.25
		s1.903,4.25,4.25,4.25h45.944c0.026,0.593,0.045,1.188,0.045,1.787c0,0.13,0.006,0.26,0.018,0.389
		C297.542,322.543,298.82,338.531,282.273,340.247z"/>
	<path d="M191.822,267.195c10.448,5.518,18.857,8.2,25.708,8.2h0c9.72,0,16.153-5.619,18.116-15.822
		c1.258-6.537-0.313-13.062-4.309-17.899c-3.195-3.868-9.404-8.479-20.844-8.479c-4.809,0-10.148,0.838-15.868,2.493
		c-0.105,0.03-0.209,0.065-0.311,0.103c-0.041,0.016-4.24,1.528-10.167,1.528c-10.105,0-24.113-4.386-33.462-25.284
		c-2.287-5.113-5.304-7.706-8.966-7.706c-2.273,0-9.192,0-15.282,22.931c-3.123,11.757-9.286,46.888,2.927,53.867
		c0.657,0.375,1.383,0.559,2.104,0.559c1.092,0,2.172-0.419,2.989-1.224c0.18-0.177,18.236-17.706,39.609-17.706
		C180.271,262.757,186.245,264.25,191.822,267.195z M132.064,271.238c-0.919-2.545-1.76-7.255-1.456-15.308
		c0.735-19.51,7.093-39.454,10.966-42.803c0.313,0.392,0.787,1.111,1.354,2.378c11.799,26.375,30.891,30.313,41.221,30.313
		c6.855,0,11.921-1.637,12.962-2c4.905-1.409,9.407-2.123,13.384-2.123c6.435,0,11.377,1.864,14.29,5.392
		c2.376,2.876,3.293,6.842,2.516,10.881c-1.204,6.258-4.125,8.928-9.769,8.928c-5.358-0.001-12.673-2.428-21.74-7.216
		c-6.814-3.599-14.123-5.422-21.724-5.422C155.027,254.257,138.957,265.545,132.064,271.238z"/>
	<path d="M310.652,54.278l19,9c0.588,0.278,1.207,0.41,1.816,0.41c1.592,0,3.117-0.898,3.844-2.432
		c1.005-2.122,0.1-4.655-2.021-5.66l-19-9c-2.12-1.004-4.655-0.1-5.66,2.022C307.627,50.74,308.532,53.274,310.652,54.278z"/>
</g>
<g>
</g>
<g>
</g>
<g>
</g>
<g>
</g>
<g>
</g>
<g>
</g>
<g>
</g>
<g>
</g>
<g>
</g>
<g>
</g>
<g>
</g>
<g>
</g>
<g>
</g>
<g>
</g>
<g>
</g>
</svg>
