<?xml version="1.0" encoding="iso-8859-1"?>
<!-- Generator: Adobe Illustrator 18.0.0, SVG Export Plug-In . SVG Version: 6.00 Build 0)  -->
<!DOCTYPE svg PUBLIC "-//W3C//DTD SVG 1.1//EN" "http://www.w3.org/Graphics/SVG/1.1/DTD/svg11.dtd">
<svg version="1.1" id="Capa_1" xmlns="http://www.w3.org/2000/svg" xmlns:xlink="http://www.w3.org/1999/xlink" x="0px" y="0px" fill="#5894B5"
	 viewBox="0 0 489.453 489.453" style="enable-background:new 0 0 489.453 489.453;" xml:space="preserve">
<g>
	<path d="M168.701,429.025c-23.82-16.461-16.828-27.946-16.564-28.36c0.09-0.128,0.172-0.261,0.247-0.398l85.279-155.447
		c0.615-1.121,0.693-2.459,0.211-3.644c-0.481-1.185-1.47-2.09-2.693-2.464c-1.599-0.489-3.323-0.727-5.27-0.727
		c-2.601,0-5.202,0.427-7.716,0.84c-2.344,0.385-4.558,0.748-6.587,0.748c-1.751,0-3.107-0.269-4.266-0.849
		c-0.447-0.224-0.929-0.366-1.424-0.422c1.044-3.794,2.025-8.046,2.146-12.023c0.277-9.14-4.448-11.951-7.362-12.813
		c-1.538-0.502-3.18-0.757-4.882-0.757c-4.307,0-8.42,1.583-12.398,3.114c-2.06,0.793-4.006,1.542-5.924,2.061
		c-1.115,0.302-2.06,1.045-2.615,2.058L96.718,369.716c-0.065,0.12-0.093,0.169-0.146,0.294c-0.119,0.249-3.027,6.088-13.435,6.088
		c-5.479,0-12.034-1.59-19.482-4.728c-3.71-1.563-7.359-2.355-10.843-2.355c-14.675,0-21.442,13.471-22.332,15.393
		c-12.953,23.783-4.202,53.687,19.557,66.727c3.532,1.939,7.569,2.881,12.34,2.881c3.134,0,6.214-0.386,9.194-0.76
		c2.771-0.347,5.387-0.675,7.847-0.675c2.971,0,5.254,0.494,7.186,1.554c4.098,2.249,6.283,6.864,8.813,12.207
		c2.909,6.142,6.205,13.104,13.356,17.028c7.248,3.978,15.423,6.08,23.642,6.081c0.001,0,0.001,0,0.003,0
		c17.933,0,34.437-9.731,43.118-25.407C180.348,456.75,184.994,440.283,168.701,429.025z M168.371,459.464
		c-0.072,0.106-0.139,0.216-0.2,0.329c-7.163,13.053-20.865,21.16-35.758,21.16c-6.793-0.001-13.555-1.741-19.552-5.032
		c-4.737-2.6-7.179-7.756-9.763-13.214c-2.898-6.119-5.894-12.447-12.406-16.021c-3.191-1.752-6.879-2.603-11.276-2.603
		c-2.99,0-5.996,0.377-8.903,0.741c-2.846,0.357-5.534,0.694-8.137,0.694c-3.35,0-5.972-0.582-8.25-1.832
		c-9.542-5.238-16.474-13.878-19.518-24.328c-0.449-1.542-0.795-3.097-1.059-4.657l10.895,5.811c0.637,0.34,1.321,0.501,1.996,0.501
		c1.519,0,2.989-0.817,3.754-2.251c1.104-2.071,0.321-4.646-1.75-5.75l-15-8c-0.115-0.062-0.237-0.096-0.355-0.146
		c0.256-3.386,0.943-6.733,2.049-9.976l43.271,23.603c0.646,0.353,1.344,0.52,2.031,0.52c1.505,0,2.963-0.802,3.735-2.216
		c1.124-2.061,0.365-4.642-1.696-5.766L38.63,387.113c1.39-2.563,5.955-9.597,14.18-9.597c2.345,0,4.884,0.568,7.544,1.689
		c8.498,3.579,16.163,5.393,22.782,5.393c14.993,0,20.219-9.132,21.084-10.887l7.554-13.769l22.767,11.384
		c0.61,0.305,1.259,0.45,1.898,0.45c1.559,0,3.06-0.861,3.805-2.35c1.05-2.1,0.199-4.652-1.9-5.702l-22.478-11.239l9.255-16.869
		l10.088,5.044c0.61,0.305,1.259,0.45,1.897,0.45c1.559,0,3.06-0.861,3.805-2.35c1.05-2.1,0.199-4.652-1.9-5.702l-9.799-4.899
		l56.285-102.596c1.707-0.547,3.364-1.185,4.98-1.807c3.403-1.31,6.618-2.547,9.346-2.547c0.829,0,1.574,0.114,2.277,0.348
		c0.058,0.02,0.117,0.038,0.176,0.055c0.552,0.158,3.097,1.654-0.898,15.674c-0.673,2.118-0.357,4.235,0.895,5.972
		c1.62,2.248,4.285,3.128,5.994,3.407c2.167,0.946,4.578,1.408,7.344,1.408c2.722,0,5.387-0.438,7.964-0.861
		c1.159-0.19,2.285-0.376,3.363-0.511l-81.925,149.334c-0.781,1.227-3.463,6.103-2.157,13.408
		c1.633,9.127,8.703,18.068,21.015,26.576C177.204,445.232,169.305,458.049,168.371,459.464z"/>
	<path d="M452.542,66.651c-5.414-6.099-12.933-7.767-19.566-9.237c-5.773-1.28-10.759-2.385-13.863-5.883
		c-3.103-3.495-3.609-8.576-4.196-14.459c-0.674-6.762-1.438-14.427-6.854-20.527C398.729,6.03,385.307,0,371.239,0
		c-11.991,0-23.542,4.367-32.548,12.302c-6.989,5.252-16.9,19.198-5.34,35.279c16.9,23.51,6.453,31.977,6.066,32.278
		c-0.128,0.09-0.25,0.188-0.367,0.292L226.304,180.27c-1.274,1.131-1.75,2.915-1.208,4.53c0.542,1.616,1.998,2.751,3.696,2.884
		c1.11,0.087,2.327,0.13,3.721,0.13c1.14,0,2.285-0.028,3.424-0.056c1.058-0.026,2.11-0.052,3.147-0.052
		c3.183,0,6.42,0.229,8.539,1.889c0.024,0.019,0.049,0.037,0.073,0.055c0.009,0.007,0.019,0.014,0.028,0.021
		c0.016,0.011,0.03,0.023,0.046,0.034c0.99,0.708,0.403,2.886-0.263,4.588c-1.289,3.293-3.798,6.998-5.853,9.873
		c-1.346,1.768-1.76,3.868-1.164,5.924c0.77,2.661,2.984,4.386,4.499,5.224c4.046,3.807,9.445,4.79,14.234,5.662
		c3.45,0.628,6.708,1.221,8.713,2.715c0.756,0.563,1.648,0.841,2.538,0.841c1.012,0,2.021-0.36,2.822-1.072l107.907-95.823
		c0.102-0.09,0.145-0.128,0.237-0.228c0.105-0.104,2.622-2.547,7.704-2.547c4.694,0,12.626,2.139,23.755,12.331
		c5.19,4.753,10.863,7.164,16.859,7.164c0.001,0,0.001,0,0.001,0c10.16,0,17.569-7.073,18.765-8.287
		c9.766-8.724,15.57-20.721,16.348-33.8C465.656,89.14,461.276,76.49,452.542,66.651z M447.665,124.633l-32.817-36.776
		c-1.562-1.751-4.249-1.904-6-0.341c-1.751,1.563-1.904,4.25-0.341,6.001l33.248,37.258c-1.734,1.531-6.361,5.085-11.993,5.084
		c-3.804-0.001-7.545-1.66-11.119-4.933c-10.552-9.663-20.475-14.563-29.496-14.563c-8.115,0-12.653,3.983-13.69,5.014
		l-11.716,10.404l-17.615-18.375c-1.624-1.694-4.314-1.751-6.009-0.127c-1.694,1.624-1.751,4.314-0.127,6.009l17.391,18.142
		l-18.645,16.556l-10.067-10.333c-1.638-1.681-4.329-1.717-6.01-0.078c-1.681,1.638-1.716,4.329-0.078,6.01l9.793,10.051
		l-62.433,55.442c-2.896-1.315-6.082-1.896-9.192-2.462c-4.111-0.749-7.994-1.456-10.187-3.744
		c-0.346-0.361-0.752-0.657-1.199-0.876c2.259-3.222,4.613-6.896,6.064-10.602c1.84-4.701,1.592-8.092,0.591-10.494l50.73-43.538
		c1.781-1.529,1.986-4.212,0.457-5.993c-1.529-1.781-4.212-1.985-5.993-0.457l-51.422,44.131c-3.063-1.395-6.398-1.759-9.497-1.824
		l104.282-92.604c1.148-0.894,5.313-4.584,6.538-11.902c1.531-9.145-2.122-19.942-10.857-32.094
		c-9.461-13.161,2.287-22.576,3.642-23.595c0.104-0.077,0.204-0.157,0.299-0.243C351.663,12.151,361.268,8.5,371.239,8.5
		c11.641,0,22.746,4.989,30.468,13.688c3.587,4.041,4.153,9.718,4.752,15.728c0.672,6.738,1.367,13.705,6.297,19.259
		c4.932,5.557,11.768,7.072,18.379,8.538c5.895,1.307,11.464,2.542,15.05,6.581c7.226,8.141,10.85,18.608,10.204,29.474
		c-0.095,1.603-0.293,3.184-0.568,4.742l-8.307-9.135c-1.58-1.737-4.267-1.865-6.004-0.285c-1.736,1.579-1.864,4.267-0.285,6.004
		l11.438,12.577c0.088,0.097,0.192,0.168,0.287,0.254C451.57,119.029,449.798,121.95,447.665,124.633z"/>
	<path d="M138.864,139.471l35,14c0.518,0.208,1.052,0.305,1.577,0.305c1.686,0,3.283-1.011,3.947-2.672
		c0.872-2.18-0.188-4.653-2.367-5.524l-35-14c-2.181-0.873-4.653,0.188-5.524,2.367
		C135.625,136.126,136.685,138.599,138.864,139.471z"/>
	<path d="M214.438,125.775c0.097,0,0.195-0.003,0.294-0.01c2.342-0.16,4.111-2.188,3.951-4.529l-3-44
		c-0.159-2.342-2.188-4.11-4.529-3.951c-2.342,0.16-4.111,2.188-3.951,4.529l3,44C210.355,124.058,212.223,125.775,214.438,125.775z
		"/>
	<path d="M163.829,105.762c0.804,1.299,2.195,2.014,3.618,2.014c0.764,0,1.536-0.206,2.233-0.637
		c1.996-1.236,2.612-3.855,1.377-5.851l-13-21c-1.236-1.996-3.855-2.611-5.851-1.377c-1.996,1.236-2.612,3.855-1.377,5.851
		L163.829,105.762z"/>
	<path d="M108.437,207.775c0.169,0,0.34-0.01,0.512-0.031l50-6c2.331-0.28,3.993-2.395,3.713-4.726
		c-0.28-2.33-2.395-3.994-4.726-3.713l-50,6c-2.331,0.28-3.993,2.395-3.713,4.726C104.482,206.19,106.316,207.775,108.437,207.775z"
		/>
	<path d="M265.401,260.976c-0.856-2.186-3.32-3.263-5.507-2.409c-2.186,0.855-3.264,3.321-2.409,5.507l9,23
		c0.657,1.677,2.261,2.702,3.959,2.702c0.515,0,1.039-0.094,1.548-0.293c2.186-0.855,3.264-3.321,2.409-5.507L265.401,260.976z"/>
	<path d="M339.684,238.26c-0.146-2.342-2.151-4.13-4.507-3.977l-48,3c-2.343,0.146-4.123,2.164-3.977,4.507
		c0.141,2.253,2.011,3.985,4.238,3.985c0.089,0,0.179-0.002,0.269-0.008l48-3C338.051,242.62,339.831,240.602,339.684,238.26z"/>
	<path d="M321.842,282.975c-1.408-1.877-4.072-2.259-5.95-0.85c-1.878,1.408-2.258,4.072-0.85,5.95l18,24
		c0.835,1.113,2.111,1.701,3.403,1.701c0.887,0,1.782-0.277,2.546-0.851c1.878-1.408,2.258-4.072,0.85-5.95L321.842,282.975z"/>
	<path d="M241.664,287.454c-2.247-0.673-4.618,0.602-5.292,2.85l-9,30c-0.674,2.248,0.602,4.618,2.85,5.292
		c0.407,0.122,0.818,0.18,1.223,0.18c1.828,0,3.517-1.189,4.069-3.03l9-30C245.188,290.498,243.912,288.128,241.664,287.454z"/>
</g>
<g>
</g>
<g>
</g>
<g>
</g>
<g>
</g>
<g>
</g>
<g>
</g>
<g>
</g>
<g>
</g>
<g>
</g>
<g>
</g>
<g>
</g>
<g>
</g>
<g>
</g>
<g>
</g>
<g>
</g>
</svg>
