<?xml version="1.0" encoding="iso-8859-1"?>
<!-- Generator: Adobe Illustrator 18.0.0, SVG Export Plug-In . SVG Version: 6.00 Build 0)  -->
<!DOCTYPE svg PUBLIC "-//W3C//DTD SVG 1.1//EN" "http://www.w3.org/Graphics/SVG/1.1/DTD/svg11.dtd">
<svg version="1.1" id="Capa_1" xmlns="http://www.w3.org/2000/svg" xmlns:xlink="http://www.w3.org/1999/xlink" x="0px" y="0px"
	 viewBox="0 0 504.223 504.223" style="enable-background:new 0 0 504.223 504.223;" xml:space="preserve">
<g>
	<path d="M502.217,97.65c0.117-2.344-1.689-4.339-4.034-4.455c-1.341-0.067-135.164-6.646-221.008-4.003
		c-41.028,1.263-75.166-1.879-105.284-4.651c-34.287-3.155-63.9-5.881-95.768-1.986C17.301,89.743,7.384,93.113,6.446,93.473
		c-2.19,0.843-3.32,3.315-2.477,5.506c0.65,1.692,2.244,2.737,3.945,2.737c0.501,0,1.012-0.091,1.511-0.283
		c0.393-0.136,10.268-3.419,67.729-10.442c30.963-3.785,60.156-1.098,93.958,2.013c30.362,2.794,64.773,5.961,106.325,4.683
		c85.501-2.631,218.986,3.93,220.325,3.997C500.103,101.822,502.101,99.995,502.217,97.65z"/>
	<path d="M4.97,383.294c-1.185,2.026-0.503,4.629,1.523,5.814c18.739,10.96,41.467,16.49,67.121,16.489
		c15.205,0,31.44-1.943,48.475-5.849c29.068-6.665,51.566-16.872,58.386-20.156c46.033,26.316,97.504,25.565,132.801,20.216
		c33.296-5.045,58.196-14.749,65.169-17.661c30.304,15.769,60.526,16.675,80.711,14.604c22.29-2.289,37.174-8.465,37.797-8.727
		c2.162-0.909,3.177-3.398,2.27-5.561c-0.907-2.163-3.396-3.18-5.561-2.276c-0.415,0.174-30.909,12.597-68.914,7.637
		c8.795-4.162,14.896-13.12,14.896-23.478c0-0.23-0.012-0.458-0.018-0.687c5.137,6.522,13.096,10.722,22.022,10.722
		c15.456,0,28.029-12.574,28.029-28.029c0-7.946-3.329-15.125-8.659-20.23c12.351-2.818,21.599-13.884,21.599-27.076
		c0-15.317-12.461-27.779-27.778-27.779c-15.044,0-27.326,12.024-27.759,26.966c-3.37-11.777-13.293-20.807-25.559-22.876
		c7.542-2.178,13.948-7.044,18.116-13.493c2.949,7.209,10.03,12.307,18.288,12.307c10.874,0,19.722-8.831,19.755-19.697
		c2.685,2.093,6.049,3.354,9.709,3.354c8.729,0,15.832-7.102,15.832-15.831c0-8.73-7.102-15.832-15.832-15.832
		c-3.422,0-6.584,1.102-9.176,2.955c2.29-3.225,3.651-7.155,3.651-11.403c0-10.894-8.864-19.757-19.758-19.757
		c-5.51,0-10.495,2.272-14.082,5.922c2.969-4.221,4.719-9.357,4.719-14.898c0-0.23-0.012-0.458-0.018-0.687
		c5.137,6.522,13.096,10.723,22.023,10.723c15.455,0,28.029-12.574,28.029-28.03c0-4.229-0.946-8.238-2.63-11.837
		c1.078-1.59,0.981-3.763-0.371-5.244c-1.195-1.309-29.634-32.051-61.805-32.051c-27.851,0-67.625,21.967-77.815,27.873
		c-9.553-6.47-46.58-30.004-81.372-31.204c-35.482-1.227-83.822,22.47-94.674,28.047c-10.807-6.36-60.073-34.103-98.071-34.715
		c-41.984-0.643-78.567,19.014-80.104,19.852c-2.06,1.124-2.818,3.703-1.696,5.764c1.123,2.061,3.703,2.821,5.764,1.699
		c0.251-0.136,17.95-9.64,42.18-15.091c-1.743,2.543-2.767,5.616-2.767,8.925c0,8.334,6.477,15.169,14.659,15.773
		c-3.26,2.999-5.812,6.757-7.366,10.994c-4.744-6.268-12.26-10.326-20.709-10.326c-14.315,0-25.961,11.646-25.961,25.961
		c0,9.587,5.228,17.972,12.979,22.468c-1.063-0.178-2.148-0.292-3.261-0.292C8.864,197.582,0,206.445,0,217.34
		c0,10.55,8.319,19.17,18.738,19.706c-9.268,4.578-15.66,14.126-15.66,25.144c0,15.455,12.574,28.029,28.029,28.029
		c1.261,0,2.499-0.092,3.716-0.254c-3.899,3.611-6.358,8.757-6.358,14.478c0,10.895,8.863,19.758,19.757,19.758
		c1.007,0,1.989-0.1,2.956-0.246c-2.491,2.248-4.572,4.937-6.131,7.939c-2.947-7.212-10.03-12.311-18.29-12.311
		C15.864,319.582,7,328.445,7,339.34s8.864,19.758,19.758,19.758c6.504,0,12.267-3.173,15.869-8.038
		c1.131,4.906,3.551,9.322,6.886,12.873c-7.21,2.949-12.308,10.03-12.308,18.289c0,4.22,1.342,8.126,3.604,11.34
		c-10.384-2.424-20.511-6.226-30.025-11.791C8.757,380.586,6.155,381.268,4.97,383.294z M26.758,350.598
		c-6.208,0-11.258-5.05-11.258-11.258c0-6.207,5.05-11.258,11.258-11.258c6.208,0,11.258,5.05,11.258,11.258
		C38.016,345.548,32.966,350.598,26.758,350.598z M159.817,255.052c-4.727-8.044-12.847-13.858-22.382-15.466
		c13.413-3.874,23.254-16.255,23.254-30.9c0-15.65-11.238-28.718-26.066-31.576c12.606-1.768,22.34-12.618,22.34-25.704
		c0-3.83-0.84-7.464-2.335-10.74c6.043,2.878,11.401,5.641,15.729,7.965C169.316,155.054,161.915,202.217,159.817,255.052z
		 M117.9,344.232c-9.628,0-17.46-7.833-17.46-17.461s7.832-17.461,17.46-17.461c9.628,0,17.461,7.833,17.461,17.461
		S127.529,344.232,117.9,344.232z M97.927,343.334c1.276,1.536,2.726,2.921,4.318,4.129c-1.711,0.614-3.314,1.45-4.771,2.487
		c0.316-1.682,0.489-3.413,0.489-5.186C97.963,344.285,97.951,343.808,97.927,343.334z M108.892,354.789
		c6.208,0,11.258,5.05,11.258,11.258c0,6.207-5.05,11.257-11.258,11.257s-11.258-5.05-11.258-11.257
		C97.633,359.839,102.684,354.789,108.892,354.789z M99.007,308.993c2.1-3.138,3.329-6.905,3.329-10.956
		c0-7.647-4.375-14.279-10.746-17.562c3.282-0.829,6.235-2.475,8.634-4.718c1.575,11.297,9.035,20.733,19.178,25.098
		c-0.498-0.028-0.997-0.046-1.502-0.046C110.46,300.809,103.745,303.961,99.007,308.993z M41.795,221.093
		c0-13.048,10.616-23.663,23.664-23.663c13.049,0,23.665,10.615,23.665,23.663c0,13.049-10.616,23.665-23.665,23.665
		C52.411,244.758,41.795,234.142,41.795,221.093z M148.462,151.407c0,9.628-7.833,17.461-17.461,17.461s-17.461-7.833-17.461-17.461
		c0-9.628,7.833-17.461,17.461-17.461S148.462,141.779,148.462,151.407z M105.046,253.889c-2.556-6.248-8.22-10.888-15.061-12.019
		c4.759-5.61,7.639-12.861,7.639-20.777c0-1.683-0.131-3.335-0.381-4.949c2.967,12.445,13.181,22.104,25.92,24.252
		C115.621,242.574,109.214,247.44,105.046,253.889z M128.525,232.352c-13.049,0-23.665-10.616-23.665-23.665
		c0-13.048,10.616-23.664,23.665-23.664c13.048,0,23.664,10.615,23.664,23.664C152.189,221.736,141.574,232.352,128.525,232.352z
		 M125.167,176.699c-7.938,0.828-15.023,4.557-20.182,10.102c3.801-4.784,6.079-10.829,6.079-17.399c0-0.48-0.013-0.956-0.036-1.431
		C114.602,172.273,119.538,175.4,125.167,176.699z M96.742,213.636c-1.541-6.466-5.035-12.181-9.828-16.481
		c6.479-0.901,12.254-4.024,16.532-8.574c-4.428,5.512-7.085,12.502-7.085,20.105C96.36,210.37,96.492,212.023,96.742,213.636z
		 M57.514,189.924c0.973-1.437,1.802-2.977,2.475-4.598c0.915,1.32,1.939,2.559,3.063,3.702
		C61.156,189.17,59.304,189.468,57.514,189.924z M86.758,250.082c6.207,0,11.258,5.05,11.258,11.258
		c0,6.208-5.05,11.258-11.258,11.258c-6.208,0-11.258-5.05-11.258-11.258C75.5,255.133,80.55,250.082,86.758,250.082z
		 M93.836,298.037c0,6.208-5.05,11.257-11.258,11.257c-6.208,0-11.258-5.05-11.258-11.257c0-6.208,5.05-11.258,11.258-11.258
		C88.785,286.779,93.836,291.829,93.836,298.037z M108.408,271.296c0-13.049,10.616-23.665,23.664-23.665
		c13.049,0,23.665,10.616,23.665,23.665c0,13.049-10.616,23.665-23.665,23.665C119.023,294.961,108.408,284.344,108.408,271.296z
		 M178.279,153.027c0.577,0.331,1.088,0.627,1.528,0.884c0.657,19.059,4.846,150.786-2.442,213.097
		C157.264,301.164,174.848,175.69,178.279,153.027z M314.33,183.858c2.947,7.212,10.03,12.312,18.29,12.312
		c8.357,0,15.501-5.223,18.385-12.569c-0.181,14.494-0.161,33.436,0.517,54.326c-5.04-7.47-13.581-12.393-23.251-12.393
		c-1.26,0-2.5,0.092-3.716,0.254c3.899-3.611,6.358-8.757,6.358-14.478c0-10.895-8.863-19.758-19.757-19.758
		c-1.007,0-1.989,0.1-2.956,0.246C310.689,189.549,312.77,186.861,314.33,183.858z M321.361,176.412
		c0-6.208,5.05-11.258,11.258-11.258c6.208,0,11.258,5.05,11.258,11.258c0,6.207-5.05,11.258-11.258,11.258
		C326.412,187.67,321.361,182.619,321.361,176.412z M440.047,130.421c12.228,0.597,24.048,6.329,33.456,12.569
		c-6.956,0.306-13.256,3.161-17.999,7.649c0.015-0.312,0.047-0.62,0.047-0.935C455.551,140.272,448.902,132.374,440.047,130.421z
		 M426.784,171.52c9.628,0,17.46,7.833,17.46,17.461s-7.833,17.461-17.46,17.461c-9.628,0-17.461-7.833-17.461-17.461
		S417.156,171.52,426.784,171.52z M424.535,149.705c0-6.207,5.05-11.257,11.258-11.257s11.258,5.05,11.258,11.257
		c0,6.208-5.05,11.258-11.258,11.258S424.535,155.913,424.535,149.705z M416.035,149.705c0,5.377,2.165,10.253,5.662,13.819
		c-4.004,0.799-7.676,2.524-10.789,4.939c2.097-2.686,3.359-6.053,3.359-9.716c0-8.73-7.102-15.833-15.832-15.833
		c-8.73,0-15.832,7.103-15.832,15.833c0,8.73,7.102,15.832,15.832,15.832c3.279,0,6.328-1.003,8.857-2.716
		c-4.022,4.574-6.469,10.565-6.469,17.12c0,10.342,6.08,19.288,14.852,23.459c-1.009-0.096-2.029-0.149-3.063-0.149
		c-14.041,0-26.002,9.047-30.379,21.615c-0.939-7.278-1.956-13.972-2.989-20.017c-5.15-30.118-11.404-49.71-14.052-57.239
		c9.576-5.464,40.074-22.011,64.154-25.602C421.612,133.73,416.035,141.07,416.035,149.705z M405.767,158.746
		c0,4.042-3.289,7.332-7.332,7.332c-4.043,0-7.332-3.289-7.332-7.332c0-4.043,3.289-7.333,7.332-7.333
		C402.478,151.414,405.767,154.703,405.767,158.746z M386.682,294.215c-0.256-11.835-0.843-22.932-1.652-33.233
		c4.75,7.898,12.795,13.594,22.219,15.184C398.02,278.831,390.485,285.524,386.682,294.215z M299.389,330.425
		c-0.915-1.321-1.94-2.56-3.063-3.703c1.895-0.141,3.747-0.439,5.538-0.896C300.891,327.264,300.062,328.804,299.389,330.425z
		 M294.128,390.078c-4.043,0-7.332-3.289-7.332-7.332c0-4.043,3.289-7.333,7.332-7.333c4.042,0,7.332,3.29,7.332,7.333
		C301.46,386.789,298.17,390.078,294.128,390.078z M276.342,365.88c-10.768,0-19.529-8.761-19.529-19.529
		c0-10.768,8.761-19.529,19.529-19.529c10.768,0,19.529,8.761,19.529,19.529C295.871,357.119,287.11,365.88,276.342,365.88z
		 M210.915,364.345c0-9.628,7.833-17.461,17.461-17.461c9.628,0,17.461,7.833,17.461,17.461c0,9.628-7.833,17.461-17.461,17.461
		C218.748,381.806,210.915,373.973,210.915,364.345z M241.477,171.52c9.628,0,17.46,7.833,17.46,17.461s-7.833,17.461-17.46,17.461
		c-9.628,0-17.461-7.833-17.461-17.461S231.849,171.52,241.477,171.52z M260.371,206.758c-2.1,3.138-3.329,6.905-3.329,10.956
		c0,7.647,4.375,14.279,10.746,17.562c-3.282,0.83-6.234,2.475-8.634,4.718c-1.576-11.297-9.035-20.733-19.177-25.098
		c0.497,0.029,0.997,0.047,1.501,0.047C248.918,214.943,255.633,211.791,260.371,206.758z M324.735,285.46
		c-0.449-1.502-1.006-2.957-1.66-4.359c1.685,0.317,3.419,0.49,5.195,0.49c0.363,0,0.723-0.014,1.083-0.027
		C327.62,282.623,326.063,283.936,324.735,285.46z M293.918,318.322c-13.049,0-23.665-10.615-23.665-23.664
		c0-13.049,10.616-23.665,23.665-23.665c13.048,0,23.664,10.616,23.664,23.665C317.582,307.707,306.966,318.322,293.918,318.322z
		 M254.332,261.863c2.555,6.248,8.22,10.888,15.06,12.02c-4.759,5.609-7.639,12.861-7.639,20.776c0,1.683,0.131,3.335,0.382,4.949
		c-2.967-12.445-13.181-22.104-25.92-24.252C243.756,273.177,250.164,268.312,254.332,261.863z M265.542,217.715
		c0-6.208,5.05-11.257,11.258-11.257c6.208,0,11.258,5.05,11.258,11.257c0,6.208-5.05,11.258-11.258,11.258
		C270.592,228.973,265.542,223.923,265.542,217.715z M283.878,254.412c0,6.207-5.05,11.258-11.258,11.258
		c-6.208,0-11.258-5.05-11.258-11.258c0-6.208,5.05-11.258,11.258-11.258C278.827,243.154,283.878,248.204,283.878,254.412z
		 M328.27,273.091c-10.768,0-19.528-8.761-19.528-19.529c0-10.768,8.76-19.529,19.528-19.529c10.768,0,19.529,8.761,19.529,19.529
		C347.799,264.33,339.038,273.091,328.27,273.091z M300.241,253.562c0,3.517,0.657,6.882,1.845,9.986
		c-2.61-0.686-5.347-1.054-8.168-1.054c-1.139,0-2.265,0.061-3.374,0.178c1.165-2.517,1.833-5.309,1.833-8.26
		c0-7.647-4.375-14.278-10.746-17.562c6.677-1.688,12.019-6.761,14.045-13.298c3.622,4.569,9.208,7.514,15.478,7.514
		c0.151,0,0.296-0.019,0.447-0.023C304.714,236.155,300.241,244.345,300.241,253.562z M311.154,222.567
		c-6.208,0-11.258-5.05-11.258-11.258c0-6.208,5.05-11.258,11.258-11.258c6.207,0,11.257,5.05,11.257,11.258
		C322.412,217.516,317.362,222.567,311.154,222.567z M292.278,205.471c-3.622-4.569-9.208-7.514-15.478-7.514
		c-5.51,0-10.495,2.272-14.082,5.922c2.969-4.221,4.719-9.357,4.719-14.898c0-0.23-0.011-0.458-0.018-0.687
		c5.137,6.522,13.096,10.723,22.023,10.723c2.431,0,4.79-0.312,7.041-0.896C294.595,200.219,293.133,202.71,292.278,205.471z
		 M250.97,244.456c0,13.049-10.616,23.665-23.664,23.665c-13.049,0-23.665-10.616-23.665-23.665
		c0-13.049,10.616-23.665,23.665-23.665C240.354,220.791,250.97,231.407,250.97,244.456z M230.852,283.4
		c13.049,0,23.665,10.616,23.665,23.665c0,13.048-10.616,23.664-23.665,23.664c-13.048,0-23.664-10.615-23.664-23.664
		C207.189,294.016,217.804,283.4,230.852,283.4z M234.21,339.053c7.938-0.828,15.022-4.557,20.182-10.102
		c-3.8,4.784-6.079,10.829-6.079,17.399c0,0.479,0.012,0.957,0.037,1.43C244.776,343.479,239.839,340.351,234.21,339.053z
		 M262.635,302.115c1.541,6.466,5.035,12.181,9.829,16.481c-6.479,0.901-12.254,4.024-16.532,8.574
		c4.428-5.512,7.085-12.503,7.085-20.105C263.017,305.382,262.886,303.729,262.635,302.115z M323.376,322.884
		c9.628,0,17.461,7.833,17.461,17.461c0,9.628-7.833,17.461-17.461,17.461s-17.461-7.833-17.461-17.461
		C305.915,330.716,313.748,322.884,323.376,322.884z M323.376,314.384c-1.492,0-2.952,0.133-4.376,0.376
		c1.482-1.846,2.768-3.855,3.819-6.001c1.542,2.495,3.613,4.623,6.069,6.22C327.111,314.592,325.268,314.384,323.376,314.384z
		 M328.361,298.412c0-6.207,5.05-11.258,11.258-11.258c6.208,0,11.258,5.05,11.258,11.258s-5.05,11.258-11.258,11.258
		C333.412,309.67,328.361,304.619,328.361,298.412z M340.639,278.706c5.184-2.56,9.467-6.673,12.236-11.732
		c0.369,6.003,0.802,12.063,1.308,18.132C350.783,281.389,345.995,278.981,340.639,278.706z M359.838,167.763
		c8.009,26.408,25.09,97.202,15.796,197.257C358.267,303.411,358.997,202.438,359.838,167.763z M289.443,190.517
		c-10.768,0-19.529-8.761-19.529-19.53c0-10.768,8.761-19.529,19.529-19.529s19.529,8.761,19.529,19.529
		C308.972,181.756,300.211,190.517,289.443,190.517z M261.451,172.418c-1.276-1.536-2.727-2.921-4.319-4.129
		c1.712-0.614,3.314-1.45,4.771-2.487c-0.316,1.682-0.489,3.414-0.489,5.186C261.414,171.467,261.426,171.944,261.451,172.418z
		 M250.486,160.963c-6.208,0-11.258-5.05-11.258-11.258c0-6.207,5.05-11.257,11.258-11.257s11.258,5.05,11.258,11.257
		C261.744,155.913,256.694,160.963,250.486,160.963z M230.728,149.705c0,5.377,2.165,10.253,5.662,13.819
		c-4.004,0.799-7.676,2.524-10.789,4.939c2.097-2.686,3.359-6.053,3.359-9.716c0-8.73-7.102-15.833-15.831-15.833
		c-0.225,0-0.443,0.024-0.666,0.034c8.102-3.336,17.43-6.812,27.061-9.667C234.225,136.828,230.728,142.864,230.728,149.705z
		 M213.128,151.414c4.042,0,7.331,3.29,7.331,7.333c0,4.042-3.289,7.332-7.331,7.332c-4.043,0-7.332-3.289-7.332-7.332
		C205.796,154.703,209.085,151.414,213.128,151.414z M213.128,174.578c3.279,0,6.328-1.003,8.857-2.716
		c-4.022,4.574-6.469,10.565-6.469,17.12c0,10.342,6.081,19.288,14.852,23.459c-1.008-0.096-2.029-0.149-3.062-0.149
		c-17.736,0-32.165,14.429-32.165,32.165c0,15.908,11.611,29.147,26.802,31.709c-13.413,3.874-23.254,16.255-23.254,30.9
		c0,15.65,11.238,28.718,26.066,31.576c-12.606,1.768-22.339,12.618-22.339,25.704c0,8.136,3.765,15.406,9.64,20.169
		c-9.043-3.085-18.033-7.039-26.811-12.008c8.188-61.341,3.83-197.019,3.072-218.528c2.678-1.359,7.515-3.749,13.78-6.565
		c-2.956,2.878-4.801,6.892-4.801,11.334C197.296,167.476,204.398,174.578,213.128,174.578z M232.177,390.025
		c12.519-1.846,22.16-12.657,22.16-25.68c0-0.23-0.011-0.458-0.018-0.687c5.137,6.522,13.096,10.722,22.023,10.722
		c1.568,0,3.105-0.136,4.604-0.384c-1.671,2.509-2.65,5.517-2.65,8.75c0,4.471,1.871,8.506,4.861,11.388
		C267.29,394.715,249.878,393.768,232.177,390.025z M312.002,391.404c-1.676,0.254-3.401,0.493-5.151,0.723
		c1.944-2.629,3.108-5.868,3.108-9.381c0-8.334-6.477-15.169-14.659-15.773c3.26-2.999,5.812-6.757,7.366-10.994
		c4.744,6.268,12.26,10.326,20.709,10.326c14.315,0,25.961-11.646,25.961-25.961c0-9.587-5.228-17.972-12.979-22.468
		c1.063,0.178,2.148,0.292,3.261,0.292c7.172,0,13.446-3.854,16.908-9.588c2.913,24.698,7.252,48.431,13.656,67.686
		C359.879,380.178,338.543,387.383,312.002,391.404z M383.17,375.019c2.088-19.489,3.177-37.901,3.525-55.075
		c4.188,9.543,12.875,16.675,23.366,18.697c-12.606,1.768-22.34,12.618-22.34,25.704c0,5.565,1.767,10.723,4.76,14.955
		C389.382,378.024,386.275,376.607,383.17,375.019z M413.683,381.806c-9.628,0-17.461-7.833-17.461-17.461
		c0-9.628,7.833-17.461,17.461-17.461c9.628,0,17.461,7.833,17.461,17.461C431.144,373.973,423.311,381.806,413.683,381.806z
		 M419.518,339.053c7.938-0.828,15.023-4.557,20.182-10.102c-3.801,4.784-6.079,10.829-6.079,17.399c0,0.479,0.013,0.957,0.036,1.43
		C430.083,343.479,425.147,340.351,419.518,339.053z M461.649,365.88c-10.768,0-19.528-8.761-19.528-19.529
		c0-10.768,8.761-19.529,19.528-19.529c10.769,0,19.529,8.761,19.529,19.529C481.178,357.119,472.418,365.88,461.649,365.88z
		 M474.839,279.765c10.63,0,19.278,8.648,19.278,19.279c0,10.63-8.648,19.278-19.278,19.278c-10.631,0-19.279-8.648-19.279-19.278
		C455.56,288.414,464.208,279.765,474.839,279.765z M455.544,319c-5.573,1.244-10.524,4.149-14.305,8.171
		c4.379-5.451,7.022-12.349,7.079-19.855C449.721,311.806,452.241,315.805,455.544,319z M439.824,307.065
		c0,13.048-10.616,23.664-23.665,23.664c-13.048,0-23.664-10.615-23.664-23.664c0-13.049,10.615-23.665,23.664-23.665
		C429.208,283.4,439.824,294.016,439.824,307.065z M412.613,268.121c-13.049,0-23.665-10.616-23.665-23.665
		c0-13.049,10.616-23.665,23.665-23.665c13.048,0,23.664,10.616,23.664,23.665C436.277,257.505,425.661,268.121,412.613,268.121z
		 M457.926,265.67c-6.207,0-11.258-5.05-11.258-11.258c0-6.208,5.05-11.258,11.258-11.258c6.208,0,11.258,5.05,11.258,11.258
		C469.185,260.619,464.134,265.67,457.926,265.67z M471.662,240.239c-1.392-1.35-2.983-2.492-4.723-3.389
		c2.658-0.672,5.099-1.877,7.208-3.505C472.819,235.371,471.942,237.715,471.662,240.239z M487.391,234.662
		c4.042,0,7.332,3.289,7.332,7.332c0,4.043-3.289,7.331-7.332,7.331c-4.043,0-7.332-3.289-7.332-7.331
		C480.059,237.952,483.348,234.662,487.391,234.662z M462.107,206.457c6.208,0,11.258,5.05,11.258,11.257
		c0,6.208-5.05,11.258-11.258,11.258s-11.258-5.05-11.258-11.258C450.849,211.507,455.899,206.457,462.107,206.457z
		 M453.095,235.277c-3.282,0.83-6.235,2.475-8.634,4.718c-1.575-11.297-9.035-20.733-19.178-25.098
		c0.498,0.029,0.997,0.047,1.501,0.047c7.441,0,14.156-3.152,18.894-8.184c-2.1,3.138-3.329,6.905-3.329,10.956
		C442.349,225.361,446.724,231.993,453.095,235.277z M442.439,168.288c1.711-0.614,3.314-1.45,4.771-2.487
		c-0.316,1.682-0.489,3.414-0.489,5.186c0,0.479,0.013,0.956,0.036,1.43C445.482,170.882,444.031,169.496,442.439,168.288z
		 M474.75,190.517c-10.768,0-19.529-8.761-19.529-19.53c0-10.768,8.761-19.529,19.529-19.529c10.768,0,19.529,8.761,19.529,19.529
		C494.279,181.756,485.518,190.517,474.75,190.517z M278.492,127.02c28.878,0.996,60.686,19.361,73.35,27.442
		c-0.06,0.255-0.103,0.517-0.116,0.788c-0.047,1.065-0.272,6.321-0.474,14.653c-2.699-7.702-10.022-13.249-18.634-13.249
		c-6.504,0-12.267,3.173-15.869,8.038c-2.866-12.432-14.017-21.733-27.307-21.733c-7.448,0-14.221,2.926-19.246,7.681
		c0.015-0.312,0.047-0.62,0.047-0.935c0-10.398-8.081-18.927-18.291-19.683C261.151,127.955,270.261,126.737,278.492,127.02z
		 M57.918,133.005c0-4.042,3.289-7.331,7.331-7.331c4.043,0,7.332,3.289,7.332,7.331c0,4.043-3.289,7.333-7.332,7.333
		C61.207,140.338,57.918,137.049,57.918,133.005z M75.124,120.651c3.545-0.245,7.146-0.355,10.779-0.296
		c11.14,0.18,23.535,2.967,35.615,6.892c-9.637,3.796-16.478,13.191-16.478,24.16c0,0.23,0.012,0.458,0.017,0.687
		c-5.137-6.522-13.096-10.722-22.023-10.722c-1.568,0-3.104,0.136-4.603,0.385c1.671-2.509,2.649-5.517,2.649-8.751
		C81.082,128.01,78.75,123.555,75.124,120.651z M83.035,149.872c10.768,0,19.529,8.761,19.529,19.529
		c0,10.768-8.761,19.529-19.529,19.529s-19.529-8.761-19.529-19.529C63.506,158.633,72.267,149.872,83.035,149.872z M36.001,157.946
		c9.628,0,17.461,7.833,17.461,17.461c0,9.628-7.833,17.461-17.461,17.461s-17.461-7.833-17.461-17.461
		C18.541,165.779,26.374,157.946,36.001,157.946z M36.001,201.368c1.492,0,2.952-0.133,4.375-0.376
		c-1.482,1.846-2.768,3.855-3.819,6.001c-1.542-2.494-3.612-4.622-6.069-6.219C32.267,201.16,34.11,201.368,36.001,201.368z
		 M8.5,217.34c0-6.207,5.05-11.258,11.258-11.258c6.207,0,11.258,5.05,11.258,11.258c0,6.208-5.05,11.258-11.258,11.258
		C13.55,228.598,8.5,223.548,8.5,217.34z M34.643,230.292c0.449,1.502,1.005,2.958,1.659,4.359c-1.685-0.317-3.419-0.49-5.194-0.49
		c-0.363,0-0.723,0.014-1.082,0.027C31.758,233.129,33.315,231.816,34.643,230.292z M11.579,262.19
		c0-10.769,8.761-19.529,19.529-19.529c10.768,0,19.528,8.761,19.528,19.529c0,10.768-8.76,19.529-19.528,19.529
		C20.339,281.719,11.579,272.958,11.579,262.19z M59.136,262.19c0-3.517-0.657-6.882-1.845-9.986
		c2.61,0.686,5.347,1.054,8.169,1.054c1.14,0,2.265-0.062,3.374-0.178c-1.165,2.517-1.834,5.309-1.834,8.26
		c0,7.647,4.375,14.279,10.746,17.561c-6.677,1.688-12.019,6.761-14.044,13.298c-3.623-4.569-9.208-7.514-15.478-7.514
		c-0.151,0-0.297,0.02-0.447,0.022C54.664,279.596,59.136,271.406,59.136,262.19z M36.966,304.443
		c0-6.207,5.05-11.258,11.257-11.258c6.208,0,11.258,5.05,11.258,11.258c0,6.208-5.05,11.258-11.258,11.258
		C42.016,315.701,36.966,310.651,36.966,304.443z M67.1,310.28c3.623,4.569,9.208,7.514,15.478,7.514
		c5.51,0,10.495-2.272,14.082-5.922c-2.969,4.221-4.719,9.357-4.719,14.898c0,0.23,0.012,0.458,0.017,0.686
		c-5.137-6.522-13.096-10.722-22.023-10.722c-2.431,0-4.791,0.312-7.042,0.897C64.782,315.532,66.244,313.042,67.1,310.28z
		 M69.935,325.234c10.768,0,19.529,8.761,19.529,19.53c0,10.768-8.761,19.529-19.529,19.529s-19.529-8.761-19.529-19.529
		C50.406,333.996,59.167,325.234,69.935,325.234z M56.964,370.964c6.208,0,11.258,5.05,11.258,11.258
		c0,6.208-5.05,11.257-11.258,11.257s-11.258-5.05-11.258-11.257C45.706,376.014,50.756,370.964,56.964,370.964z M76.722,382.222
		c0-3.544-0.95-6.865-2.591-9.744c5.783-0.872,10.987-3.521,15.05-7.366c-0.015,0.312-0.047,0.62-0.047,0.935
		c0,10.894,8.864,19.757,19.758,19.757c10.895,0,19.758-8.863,19.758-19.757c0-5.376-2.165-10.253-5.662-13.819
		c4.004-0.799,7.676-2.524,10.789-4.938c-2.097,2.686-3.359,6.053-3.359,9.716c0,8.73,7.102,15.833,15.831,15.833
		c8.73,0,15.832-7.103,15.832-15.833c0-8.729-7.102-15.831-15.832-15.831c-3.279,0-6.328,1.002-8.857,2.716
		c4.022-4.574,6.469-10.565,6.469-17.12c0-10.342-6.08-19.288-14.853-23.459c1.009,0.096,2.029,0.149,3.063,0.149
		c11.459,0,21.531-6.028,27.23-15.075c0.361,31.728,3.425,62.879,11.602,86.216c-16.773,7.346-58.249,23.263-100.922,22.444
		C74.104,393.423,76.722,388.128,76.722,382.222z M138.918,357.005c0-4.042,3.289-7.331,7.331-7.331
		c4.043,0,7.332,3.289,7.332,7.331c0,4.043-3.289,7.333-7.332,7.333C142.207,364.338,138.918,361.048,138.918,357.005z"/>
	<path d="M504.091,421.062c-0.577-2.275-2.888-3.652-5.164-3.076c-0.941,0.239-95.61,23.817-219.51,20.538
		c-115.008-3.043-244.395-2.759-269.166-2.671l-0.946,0.003c-2.347,0-4.25,1.903-4.25,4.25s1.903,4.25,4.25,4.25l0.977-0.003
		c24.747-0.091,154.023-0.372,268.911,2.668c8.119,0.215,16.102,0.315,23.955,0.315c113.195,0,196.977-20.884,197.868-21.11
		C503.291,425.649,504.668,423.338,504.091,421.062z"/>
	<path d="M6.228,73.015c1.316-0.08,132.04-7.897,174.431-1.375c29.083,4.474,55.53,1.644,86.153-1.633
		c15.705-1.681,31.945-3.419,50.039-4.323c52.357-2.619,179.317,13.146,180.593,13.306c0.179,0.022,0.357,0.033,0.533,0.033
		c2.112,0,3.943-1.573,4.212-3.723c0.291-2.329-1.361-4.453-3.69-4.745c-5.242-0.655-128.978-16.018-182.073-13.361
		c-18.333,0.917-34.695,2.667-50.518,4.361c-30.033,3.213-55.971,5.988-83.957,1.683c-43.285-6.658-170.828,0.964-176.236,1.292
		c-2.343,0.142-4.128,2.156-3.985,4.499C1.872,71.374,3.888,73.161,6.228,73.015z"/>
	<path d="M8.499,421.546c0.855,0.03,85.863,3.002,111.143,3.002c2.347,0,4.25-1.903,4.25-4.25c0-2.347-1.903-4.25-4.25-4.25
		c-25.133,0-109.991-2.967-110.846-2.997c-2.352-0.076-4.314,1.753-4.397,4.099C4.318,419.495,6.153,421.463,8.499,421.546z"/>
	<path d="M494.623,105.563c-0.226,0-22.917,0.017-48.247,1.507c-2.343,0.138-4.131,2.149-3.993,4.492c0.133,2.258,2.006,4,4.239,4
		c0.084,0,0.168-0.002,0.253-0.007c25.071-1.475,47.524-1.493,47.748-1.493c2.347,0,4.25-1.903,4.25-4.25
		C498.873,107.466,496.97,105.563,494.623,105.563z"/>
	<path d="M173.639,104.063c-2.347,0-4.25,1.903-4.25,4.25c0,2.347,1.903,4.25,4.25,4.25h73.496c2.347,0,4.25-1.903,4.25-4.25
		c0-2.347-1.903-4.25-4.25-4.25H173.639z"/>
	<path d="M341.631,413.048c-2.347,0-4.25,1.903-4.25,4.25s1.903,4.25,4.25,4.25h80.996c2.347,0,4.25-1.903,4.25-4.25
		s-1.903-4.25-4.25-4.25H341.631z"/>
</g>
<g>
</g>
<g>
</g>
<g>
</g>
<g>
</g>
<g>
</g>
<g>
</g>
<g>
</g>
<g>
</g>
<g>
</g>
<g>
</g>
<g>
</g>
<g>
</g>
<g>
</g>
<g>
</g>
<g>
</g>
</svg>
