<?xml version="1.0" encoding="iso-8859-1"?>
<!-- Generator: Adobe Illustrator 18.0.0, SVG Export Plug-In . SVG Version: 6.00 Build 0)  -->
<!DOCTYPE svg PUBLIC "-//W3C//DTD SVG 1.1//EN" "http://www.w3.org/Graphics/SVG/1.1/DTD/svg11.dtd">
<svg version="1.1" id="Capa_1" xmlns="http://www.w3.org/2000/svg" xmlns:xlink="http://www.w3.org/1999/xlink" x="0px" y="0px" fill="#5894B5"
	 viewBox="0 0 497.525 497.525" style="enable-background:new 0 0 497.525 497.525;" xml:space="preserve">
<g>
	<path d="M272.269,208.528c18.593,0,33.72-15.126,33.72-33.72c0-18.593-15.127-33.72-33.72-33.72
		c-18.593,0-33.72,15.127-33.72,33.72C238.549,193.402,253.676,208.528,272.269,208.528z M272.269,149.589
		c13.906,0,25.22,11.314,25.22,25.22c0,13.906-11.314,25.22-25.22,25.22c-13.906,0-25.22-11.314-25.22-25.22
		C247.049,160.902,258.363,149.589,272.269,149.589z"/>
	<path d="M272.269,190.109c8.437,0,15.301-6.863,15.301-15.301s-6.864-15.302-15.301-15.302c-8.437,0-15.301,6.864-15.301,15.302
		S263.832,190.109,272.269,190.109z M272.269,168.007c3.75,0,6.801,3.052,6.801,6.802s-3.051,6.801-6.801,6.801
		s-6.801-3.051-6.801-6.801S268.519,168.007,272.269,168.007z"/>
	<path d="M210.934,131.51c-6.317,0-21.011,0.863-21.011,8.855c0,7.992,14.694,8.854,21.011,8.854s21.011-0.862,21.011-8.854
		C231.946,132.374,217.252,131.51,210.934,131.51z M210.934,140.719c-2.332,0-4.409-0.14-6.189-0.354
		c1.78-0.215,3.857-0.355,6.189-0.355c2.333,0,4.41,0.14,6.189,0.355C215.344,140.58,213.267,140.719,210.934,140.719z"/>
	<path d="M213.513,166.137c-6.298,0-10.696,7.883-10.696,19.17c0,11.286,4.398,19.169,10.696,19.169
		c6.298,0,10.697-7.883,10.697-19.169C224.21,174.02,219.811,166.137,213.513,166.137z M213.513,195.438
		c-0.889-1.382-2.196-4.746-2.196-10.131c0-5.386,1.307-8.749,2.196-10.131c0.89,1.382,2.197,4.745,2.197,10.131
		C215.71,190.692,214.403,194.056,213.513,195.438z"/>
	<path d="M258.607,238.926c5.622,0,7.637-2.72,8.339-4.342c2.579-5.965-4.509-12.199-12.677-15.731
		c-4.182-1.809-8.375-2.806-11.806-2.806c-5.623,0-7.638,2.721-8.339,4.342c-0.752,1.738-1.342,5.307,3.159,9.67
		c2.336,2.265,5.716,4.418,9.518,6.063C250.983,237.929,255.176,238.926,258.607,238.926z M250.895,226.654
		c2.86,1.236,4.885,2.575,6.2,3.671c-2.033-0.252-4.509-0.963-6.92-2.006c-2.859-1.237-4.884-2.575-6.2-3.671
		C246.008,224.9,248.484,225.611,250.895,226.654z"/>
	<path d="M415.231,429.997c-3.307-3.496-11.795-8.143-47.185-8.143c-34.285,0-77.037,4.21-95.912,6.271V268.889
		c25.637-38.04,66.611-105.139,59.423-135.754c-1.488-6.338-4.867-11.037-10.043-13.968c-0.639-0.361-1.36-0.551-2.094-0.551
		h-12.607l-5.498-5.498h18.105c0.734,0,1.455-0.189,2.094-0.551c6.554-3.71,10.303-9.344,10.84-16.292
		c1.104-14.26-11.431-34.748-37.255-60.896C276.358,16.401,257.05,1.07,256.857,0.918c-1.546-1.224-3.729-1.224-5.275,0
		c-0.193,0.152-19.501,15.483-38.244,34.462c-25.824,26.148-38.359,46.637-37.255,60.896c0.538,6.948,4.286,12.582,10.84,16.292
		c0.639,0.361,1.36,0.551,2.094,0.551h81.861l5.497,5.498h-87.359c-0.734,0-1.455,0.189-2.094,0.551
		c-5.176,2.931-8.555,7.63-10.043,13.968c-7.188,30.616,33.786,97.714,59.423,135.753v160.497
		c-10.496,2.676-43.423,10.225-80.126,9.948l-1.142-0.004c-20.67,0-40.17,4.306-54.906,12.124
		c-13.713,7.276-21.901,16.919-21.901,25.796c0,7.528,5.427,12.023,14.518,12.023c8.998,0,20.365-4.22,24.553-7.244
		c0.271-0.196,0.746-0.457,1.724-0.457c4.327,0,11.7,4.605,18.83,9.058c1.014,0.634,2.035,1.271,3.058,1.903
		c6.681,4.126,19.93,4.992,29.867,4.992c15.678,0,32.6-2.172,41.152-5.281c4.495-1.634,8.72-3.771,13.193-6.031
		c9.274-4.688,18.863-9.536,31.016-9.536c1.211,0,2.447,0.048,3.674,0.145c6.665,0.521,15.542,2.778,25.821,5.394
		c16.282,4.142,36.544,9.297,56.439,9.297c0.001,0,0.001,0,0.003,0c6.008,0,11.772-0.474,17.132-1.407
		c25.672-4.475,41.799-12.069,46.638-21.96c2.114-4.322,2.017-8.895-0.281-13.221c-0.482-0.906-0.772-1.452,4.797-5.05
		c3.879-2.506,8.275-5.346,8.871-10.301C419.617,436.382,418.308,433.249,415.231,429.997z M405.749,442.734
		c-4.237,2.737-12.124,7.832-7.691,16.177c0.379,0.713,0.622,1.405,0.731,2.089h-55.644c-2.347,0-4.25,1.903-4.25,4.25
		c0,2.348,1.903,4.25,4.25,4.25h50.326c-5.111,3.794-15.341,8.678-35.722,12.23c-4.879,0.851-10.152,1.281-15.672,1.281h-0.002
		c-18.83,0-37.697-4.8-54.343-9.035c-10.658-2.711-19.862-5.053-27.254-5.63c-1.446-0.113-2.905-0.17-4.336-0.17
		c-14.179,0-25.161,5.552-34.851,10.45c-4.24,2.144-8.245,4.168-12.263,5.629c-7.601,2.764-23.686,4.769-38.248,4.769
		c-12.129,0-21.625-1.392-25.4-3.724c-1.011-0.625-2.02-1.255-3.022-1.881c-8.521-5.322-16.569-10.349-23.332-10.349
		c-2.548,0-4.803,0.695-6.701,2.066c-2.751,1.986-12.272,5.635-19.577,5.635c-6.018,0-6.018-2.205-6.018-3.523
		c0-9.985,24.11-29.42,68.307-29.42l1.078,0.004c43.235,0.328,81.426-9.93,85.577-11.082c1.839-0.511,3.113-2.187,3.113-4.096
		V267.588c0-0.849-0.254-1.677-0.729-2.38c-42.204-62.425-63.679-109.855-58.919-130.129c0.844-3.593,2.506-6.208,5.07-7.962h96.411
		c1.719,0,3.269-1.036,3.926-2.624c0.658-1.588,0.294-3.416-0.921-4.632l-13.997-13.997c-0.797-0.797-1.878-1.245-3.005-1.245
		h-82.444c-2.235-1.432-3.771-3.109-4.679-5.119h51.63c2.347,0,4.25-1.902,4.25-4.25c0-2.347-1.903-4.25-4.25-4.25h-52
		c-0.113,0-0.22,0.024-0.331,0.033c0.404-2.36,1.203-4.884,2.336-7.533h35.994c2.347,0,4.25-1.902,4.25-4.25
		c0-2.347-1.903-4.25-4.25-4.25h-31.522c2.285-3.732,5.029-7.609,8.094-11.543c0.143,0.015,0.281,0.043,0.427,0.043h92
		c2.347,0,4.25-1.902,4.25-4.25c0-2.347-1.903-4.25-4.25-4.25h-85.441c4.861-5.59,10.163-11.17,15.527-16.5h39.914
		c2.347,0,4.25-1.902,4.25-4.25c0-2.347-1.903-4.25-4.25-4.25h-31.102c8.689-8.146,16.975-15.267,23.177-20.302
		c22.279,18.086,71.432,63.07,69.662,85.923c-0.298,3.849-2.097,6.731-5.637,8.998h-27.188c-1.719,0-3.269,1.036-3.927,2.624
		c-0.658,1.588-0.294,3.416,0.921,4.632l13.998,13.997c0.797,0.797,1.878,1.245,3.005,1.245h13.159
		c2.564,1.754,4.226,4.369,5.07,7.962c4.76,20.273-16.715,67.704-58.919,130.13c-0.475,0.703-0.729,1.532-0.729,2.381v165.263
		c0,1.2,0.507,2.344,1.396,3.149c0.89,0.806,2.079,1.198,3.271,1.08c0.862-0.084,1.738-0.174,2.646-0.274
		c17.463-1.94,61.883-6.454,97.1-6.454c33.239,0,39.793,4.198,41.01,5.484c1.502,1.588,1.763,2.501,1.737,2.719
		C410.673,439.552,407.47,441.622,405.749,442.734z"/>
	<path d="M182.144,454h-31c-2.347,0-4.25,1.903-4.25,4.25c0,2.348,1.903,4.25,4.25,4.25h31c2.347,0,4.25-1.902,4.25-4.25
		C186.394,455.903,184.491,454,182.144,454z"/>
	<path d="M269.144,444h-31c-2.347,0-4.25,1.903-4.25,4.25c0,2.348,1.903,4.25,4.25,4.25h31c2.347,0,4.25-1.902,4.25-4.25
		C273.394,445.903,271.491,444,269.144,444z"/>
	<path d="M378.144,440h-46c-2.347,0-4.25,1.903-4.25,4.25c0,2.348,1.903,4.25,4.25,4.25h46c2.347,0,4.25-1.902,4.25-4.25
		C382.394,441.903,380.491,440,378.144,440z"/>
</g>
<g>
</g>
<g>
</g>
<g>
</g>
<g>
</g>
<g>
</g>
<g>
</g>
<g>
</g>
<g>
</g>
<g>
</g>
<g>
</g>
<g>
</g>
<g>
</g>
<g>
</g>
<g>
</g>
<g>
</g>
</svg>
