<?xml version="1.0" encoding="iso-8859-1"?>
<!-- Generator: Adobe Illustrator 18.0.0, SVG Export Plug-In . SVG Version: 6.00 Build 0)  -->
<!DOCTYPE svg PUBLIC "-//W3C//DTD SVG 1.1//EN" "http://www.w3.org/Graphics/SVG/1.1/DTD/svg11.dtd">
<svg version="1.1" id="Capa_1" xmlns="http://www.w3.org/2000/svg" xmlns:xlink="http://www.w3.org/1999/xlink" x="0px" y="0px"
	 viewBox="0 0 492.295 492.295" style="enable-background:new 0 0 492.295 492.295;" xml:space="preserve">
<g>
	<path d="M198.637,146.122c12.24-27.67,13.106-43.303,13.137-43.955c0.068-1.444-0.602-2.824-1.779-3.663
		c-0.47-0.334-37.9-27.381-54.503-65.071h31.067c2.347,0,4.25-1.903,4.25-4.25s-1.903-4.25-4.25-4.25h-34.377
		c-2.273-6.738-3.809-13.755-4.303-20.972c-0.161-2.342-2.197-4.102-4.531-3.95c-2.342,0.161-4.11,2.189-3.95,4.531
		c3.502,51.108,52.804,91.171,63.648,99.393c-0.68,5.004-3.205,18.453-12.182,38.748c-4.614,10.429-16.518,27.392-44.43,23.812
		c-6.482-0.831-12.348-1.683-18.02-2.506c-30.949-4.495-49.628-7.206-72.427,8.111C12.079,201.6,19.163,262.88,23.851,303.431
		c0.676,5.847,1.315,11.37,1.707,16.113c3.487,42.135-1.463,163.956-1.514,165.181c-0.096,2.345,1.727,4.325,4.072,4.421
		c0.06,0.002,0.119,0.003,0.178,0.003c2.267,0,4.149-1.79,4.244-4.075c0.087-2.118,0.992-24.387,1.747-52.641h10.273
		c2.347,0,4.25-1.903,4.25-4.25s-1.903-4.25-4.25-4.25H34.501c0.913-37.355,1.425-82.172-0.472-105.091
		c-0.404-4.881-1.05-10.47-1.734-16.388c-1.995-17.258-4.444-38.47-2.976-59.021h33.239c2.347,0,4.25-1.903,4.25-4.25
		s-1.903-4.25-4.25-4.25h-32.39c0.826-6.341,2.095-12.554,3.94-18.5h83.45c2.347,0,4.25-1.903,4.25-4.25s-1.903-4.25-4.25-4.25
		H37.233c4.891-11.328,12.363-21.299,23.494-28.778c20.08-13.491,36.557-11.098,66.465-6.755c5.706,0.829,11.608,1.685,18.16,2.525
		C179.978,179.367,194.151,156.261,198.637,146.122z"/>
	<path d="M106.888,302.155c-2.021,0.322-3.525,2.04-3.579,4.085c-0.022,0.859-2.398,86.936-14.995,178.077
		c-0.321,2.325,1.303,4.471,3.628,4.792c0.198,0.027,0.394,0.04,0.587,0.04c2.089,0,3.911-1.541,4.205-3.669
		c8.521-61.651,12.389-120.997,14.014-153.49c8.656,32.936,20.835,94.306,10.727,151.415c-0.409,2.311,1.133,4.517,3.444,4.926
		c2.313,0.41,4.517-1.133,4.926-3.444c15.055-85.061-17.95-179.026-18.285-179.965C110.873,302.996,108.914,301.831,106.888,302.155
		z"/>
	<path d="M468.443,303.431c4.688-40.55,11.773-101.831-32.135-131.331c-22.857-15.357-42.886-12.46-73.202-8.076
		c-5.616,0.813-11.424,1.652-17.811,2.471c-27.905,3.575-39.817-13.382-44.43-23.812c-5.189-11.729-7.915-18.827-9.348-23.023
		c13.966,2.692,45.174,6.255,59.849-11.611c18.272-22.246-6.862-96.768-9.788-105.192c-0.77-2.217-3.191-3.391-5.409-2.62
		c-2.217,0.77-3.39,3.192-2.62,5.409c3.689,10.62,9.581,30.383,13.098,49.621h-88.088c-26.124,0-34.157,20.945-34.754,32.021
		c-0.004,0.076-0.006,0.153-0.006,0.229v199.411c-0.02,10.302,3.058,18.388,9.149,24.032c6.213,5.757,14.085,7.491,19.201,7.975
		c-1.835,9.044-6.918,20.855-20.816,24.134c-33.446,7.891-48.903,17.021-52.08,50.263c-2.267,23.723-5.046,59.376-3.023,94.954
		c0.129,2.261,2.003,4.009,4.239,4.009c0.081,0,0.163-0.002,0.245-0.007c2.344-0.133,4.135-2.141,4.002-4.484
		c-1.99-34.999,0.758-70.217,2.998-93.663c2.68-28.048,13.729-35.287,45.57-42.799c11.058-2.609,17.791-9.261,21.895-16.413
		c5.382,0.169,8.567,1.148,11.913,2.183c3.927,1.214,8.378,2.59,16.084,2.59c7.787,0,11.903-1.443,15.534-2.716
		c3.424-1.201,6.381-2.238,12.722-2.238s9.297,1.037,12.722,2.238c2.809,0.985,5.917,2.069,10.782,2.51
		c-0.652,1.724-1.381,3.472-2.2,5.232c-11.869,25.527-35.753,41.488-70.988,47.44c-14.41,2.434-27.281,0.045-39.354-7.304
		c-7.024-4.275-12.359-3.15-15.597-1.453c-12.753,6.684-15.791,34.141-16.966,54.213c-0.039,0.664-0.072,1.24-0.103,1.715
		c-0.003,0.049-0.005,0.098-0.007,0.147l-1.411,47.237c-0.07,2.346,1.775,4.305,4.121,4.375c0.044,0.001,0.086,0.002,0.129,0.002
		c2.288,0,4.177-1.82,4.246-4.123l1.409-47.165c0.03-0.475,0.064-1.042,0.102-1.691c2.137-36.506,8.702-45.23,12.425-47.181
		c0.702-0.368,2.84-1.489,7.232,1.185c13.895,8.458,28.674,11.214,45.189,8.424c47.757-8.067,68.48-33.064,77.454-52.614
		c9.298-20.255,8.192-38.598,8.009-40.891c-0.099-26.291-21.518-47.648-47.832-47.648c-19.388,0-36.831,11.736-44.351,29.511
		c-1.256-0.235-2.286-0.752-3.114-1.559c-2.698-2.625-3.09-7.924-3.014-9.728c0.003-0.071,0.005-0.142,0.005-0.212V93.183
		c0-0.131-0.01-0.301-0.022-0.433c-0.005-0.054-0.46-5.445,3.296-9.567c3.275-3.594,8.87-5.416,16.629-5.416h79.223
		c0.528,10.887-0.634,19.998-4.649,24.886c-15.326,18.659-57.549,7.357-57.971,7.241c-1.105-0.304-2.286-0.149-3.274,0.43
		c-0.989,0.579-1.702,1.532-1.978,2.644c-0.31,1.247-1.132,4.559,11.517,33.153c4.1,9.268,16.287,29.366,44.793,29.364
		c2.682-0.001,5.513-0.179,8.491-0.561c6.455-0.828,12.297-1.672,17.947-2.489c30.374-4.392,47.105-6.812,67.245,6.719
		c27.745,18.641,32.754,52.771,31.737,84.778h-67.747c-2.347,0-4.25,1.903-4.25,4.25s1.903,4.25,4.25,4.25h67.343
		c-0.627,10.07-1.716,19.762-2.725,28.5h-15.618c-2.347,0-4.25,1.903-4.25,4.25s1.903,4.25,4.25,4.25h14.646
		c-0.37,3.333-0.698,6.499-0.938,9.409c-3.531,42.659,1.285,161.206,1.492,166.232c0.094,2.286,1.977,4.075,4.244,4.075
		c0.059,0,0.118-0.001,0.178-0.003c2.345-0.097,4.168-2.076,4.072-4.421c-0.051-1.226-5.002-123.044-1.514-165.181
		C467.129,314.8,467.767,309.278,468.443,303.431z M270.225,69.267c-10.338,0-18.087,2.801-23.033,8.325
		c-5.699,6.365-5.487,14.129-5.371,15.761v183.961c-0.06,1.503-0.16,10.496,5.541,16.086c2.153,2.111,6.026,4.539,12.252,4.103
		c1.696-0.118,3.158-1.236,3.718-2.842c5.489-15.759,20.894-26.765,37.463-26.766c21.688,0,39.332,17.645,39.332,39.332
		c0,0.128,0.006,0.264,0.018,0.391c0.012,0.134,0.86,10.308-2.567,23.54c-4.933-0.206-7.593-1.136-10.612-2.195
		c-3.631-1.273-7.747-2.716-15.534-2.716c-7.788,0-11.903,1.443-15.534,2.716c-3.424,1.201-6.381,2.238-12.721,2.238
		c-6.421,0-9.896-1.074-13.574-2.211c-2.92-0.903-6.132-1.894-10.754-2.343c1.47-4.431,2.148-8.518,2.46-11.365
		c0.137-1.253-0.296-2.502-1.171-3.411c-0.874-0.908-2.114-1.372-3.372-1.291c-0.107,0.009-11.005,0.707-18.085-5.897
		c-4.25-3.965-6.397-9.933-6.382-17.748V87.658c0.143-1.927,2.306-23.891,26.26-23.891h89.484c0.267,1.855,0.502,3.691,0.706,5.5
		H270.225z"/>
	<path d="M388.418,306.24c-0.054-2.046-1.558-3.763-3.579-4.085c-2.025-0.324-3.985,0.841-4.673,2.769
		c-0.3,0.84-26.767,76.207-21.524,153.01h-94.085c-2.347,0-4.25,1.903-4.25,4.25s1.903,4.25,4.25,4.25h94.799
		c0.616,6.172,1.442,12.337,2.525,18.455c0.409,2.312,2.611,3.855,4.926,3.444c2.312-0.409,3.854-2.614,3.444-4.926
		c-10.099-57.059,2.075-118.443,10.727-151.396c1.626,32.497,5.494,91.831,14.013,153.471c0.294,2.128,2.116,3.669,4.205,3.669
		c0.194,0,0.39-0.013,0.587-0.04c2.325-0.321,3.949-2.467,3.628-4.792C390.816,393.176,388.441,307.099,388.418,306.24z"/>
</g>
<g>
</g>
<g>
</g>
<g>
</g>
<g>
</g>
<g>
</g>
<g>
</g>
<g>
</g>
<g>
</g>
<g>
</g>
<g>
</g>
<g>
</g>
<g>
</g>
<g>
</g>
<g>
</g>
<g>
</g>
</svg>
