<?xml version="1.0" encoding="iso-8859-1"?>
<!-- Generator: Adobe Illustrator 18.0.0, SVG Export Plug-In . SVG Version: 6.00 Build 0)  -->
<!DOCTYPE svg PUBLIC "-//W3C//DTD SVG 1.1//EN" "http://www.w3.org/Graphics/SVG/1.1/DTD/svg11.dtd">
<svg version="1.1" id="Capa_1" xmlns="http://www.w3.org/2000/svg" xmlns:xlink="http://www.w3.org/1999/xlink" x="0px" y="0px"
	 viewBox="0 0 427.437 427.437" style="enable-background:new 0 0 427.437 427.437;" xml:space="preserve">
<g>
	<path d="M82.172,96.556c1.095,0,2.189-0.42,3.021-1.261c8.328-8.416,17.507-16.335,27.279-23.537c1.89-1.392,2.293-4.053,0.9-5.943
		c-1.394-1.889-4.054-2.293-5.943-0.9c-10.126,7.463-19.641,15.673-28.278,24.401c-1.65,1.668-1.637,4.359,0.032,6.01
		C80.011,96.146,81.091,96.556,82.172,96.556z"/>
	<path d="M65.936,110.571c-1.872-1.417-4.537-1.046-5.953,0.826C23.227,160.003,15.901,213.693,41.318,248.18
		c0.834,1.13,2.121,1.729,3.425,1.729c0.876,0,1.76-0.27,2.519-0.829c1.89-1.393,2.292-4.053,0.899-5.943
		c-23.131-31.384-15.829-81.083,18.602-126.613C68.178,114.652,67.808,111.986,65.936,110.571z"/>
	<path d="M141.684,244.248c26.41-1.371,54.73-12.277,79.739-30.71c1.89-1.393,2.292-4.053,0.9-5.943
		c-1.393-1.89-4.054-2.292-5.943-0.9c-48.376,35.654-106.487,39.212-129.539,7.934c-13.229-17.95-12.076-43.532,0.447-68.813h49.645
		c2.348,0,4.25-1.903,4.25-4.25c0-2.347-1.902-4.25-4.25-4.25H91.935c3.798-6.341,8.299-12.605,13.455-18.666h83.211
		c2.348,0,4.25-1.903,4.25-4.25c0-2.347-1.902-4.25-4.25-4.25h-75.404c5.884-5.954,12.421-11.636,19.57-16.905
		c48.376-35.653,106.486-39.212,129.539-7.934c1.394,1.889,4.053,2.292,5.942,0.9c1.89-1.393,2.292-4.053,0.9-5.943
		c-12.717-17.253-34.629-25.984-61.685-24.576c-26.41,1.371-54.73,12.277-79.739,30.71c-25.011,18.433-43.812,42.254-52.94,67.075
		c-9.354,25.433-7.502,48.942,5.214,66.195c11.829,16.05,31.612,24.723,56.102,24.723
		C137.935,244.395,139.797,244.346,141.684,244.248z"/>
	<path d="M420.204,228.13c-2.721-36.305-11.92-70.503-26.601-98.899c-14.094-27.258-32.908-48.578-54.492-61.849
		c-2.884-10.35-7.489-19.923-13.81-28.499C306.822,13.809,275.317,0,236.591,0c-43.985,0-93.619,17.988-136.175,49.351
		c-40.009,29.487-70.07,67.555-84.646,107.19c-14.802,40.248-11.934,77.366,8.076,104.516c13.702,18.592,34.569,30.982,60.227,36.15
		c-34.36,26.779-49.858,57.977-41.561,84.407c6.729,21.438,28.09,36.655,60.145,42.847c10.304,1.991,21.333,2.975,32.843,2.975
		c23.265-0.001,48.482-4.025,73.559-11.897c11.789-3.7,23.236-8.174,34.069-13.292c18.721,14.487,39.424,22.175,60.167,22.174
		c2.085,0,4.174-0.078,6.258-0.234c33.633-2.521,63.652-24.539,84.528-61.998C414.642,325.302,423.918,277.691,420.204,228.13z
		 M30.689,256.014c-18.26-24.775-20.725-59.06-6.941-96.539c14.008-38.092,43.027-74.771,81.712-103.282
		C146.585,25.884,194.381,8.5,236.591,8.5c35.957,0,65.031,12.582,81.867,35.426c18.259,24.775,20.725,59.06,6.941,96.539
		c-14.008,38.092-43.027,74.771-81.712,103.282c-41.126,30.31-88.922,47.693-131.132,47.693
		C76.599,291.44,47.525,278.859,30.689,256.014z M113.314,351.816h28.12c2.348,0,4.25-1.903,4.25-4.25c0-2.347-1.902-4.25-4.25-4.25
		h-25.976c6.872-16.256,29.151-33.395,57.64-42.337c2.885-0.906,4.529-1.366,6.776-1.898c6.975,25.38,17.524,48.64,30.784,68.026
		c-4.811,2.353-8.993,4.192-14.904,6.048c-38.11,11.962-75.495,5.544-81.636-14.018C113.38,356.786,113.133,354.333,113.314,351.816
		z M206.514,407.431c-36.163,11.352-72.475,14.436-102.244,8.685c-28.846-5.572-47.898-18.729-53.648-37.047
		c-7.425-23.655,10.849-55.073,45.062-80.053c5.451,0.609,11.079,0.925,16.873,0.925c20.733,0,42.72-4,64.63-11.51
		c0.186,0.808,0.38,1.611,0.573,2.415c-2.36,0.563-4.165,1.068-7.207,2.023c-43.973,13.803-72.323,44.03-64.543,68.813
		c5.271,16.792,25.576,26.155,51.804,26.154c12.481,0,26.309-2.122,40.487-6.573c6.993-2.195,11.672-4.326,17.386-7.158
		c3.467,4.585,7.093,8.917,10.87,12.966c3.038,3.258,6.159,6.307,9.347,9.158C226.493,400.49,216.635,404.253,206.514,407.431z
		 M308.918,415.712c-1.885,0.142-3.761,0.211-5.639,0.211c-51.933-0.003-100.691-53.547-118.038-130.413
		c21.847-8.355,43.452-20.154,63.489-34.92c38.361-28.273,67.568-64.436,82.758-102.305c19.519,18.648,31.664,48.22,34.34,83.921
		c0.574,7.654,0.615,15.219,0.167,22.61h-23.763c-2.347,0-4.25,1.903-4.25,4.25c0,2.347,1.903,4.25,4.25,4.25h23.016
		c-0.711,6.176-1.786,12.191-3.207,18H306.8c-2.347,0-4.25,1.903-4.25,4.25c0,2.347,1.903,4.25,4.25,4.25h52.878
		c-2.421,7.659-5.478,14.874-9.162,21.483c-11.755,21.094-28.38,33.471-46.811,34.853c-2.341,0.176-4.097,2.215-3.921,4.556
		c0.168,2.232,2.03,3.932,4.233,3.932c0.107,0,0.215-0.004,0.322-0.012c21.373-1.602,40.408-15.52,53.601-39.191
		c12.875-23.101,18.687-52.886,16.364-83.868c-2.951-39.38-17.005-71.925-39.612-91.877c7.347-21.454,9.623-41.947,6.919-60.433
		c38.659,27.996,65.213,84.081,70.115,149.505C419.093,327.047,372.974,410.911,308.918,415.712z"/>
	<path d="M399.122,230.475c-2.34,0.176-4.096,2.215-3.92,4.556c3.871,51.651-9.648,100.266-36.167,130.044
		c-1.561,1.753-1.405,4.439,0.348,6c0.811,0.722,1.819,1.076,2.824,1.076c1.171,0,2.336-0.481,3.176-1.423
		c28.02-31.464,42.335-82.43,38.296-136.333C403.502,232.055,401.479,230.308,399.122,230.475z"/>
	<path d="M201.189,390.452c-27.762,8.713-55.619,11.084-78.442,6.673c-21.897-4.231-36.34-14.15-40.666-27.932
		c-0.703-2.24-3.088-3.487-5.328-2.782c-2.239,0.703-3.484,3.088-2.781,5.328c5.305,16.901,22.055,28.881,47.163,33.732
		c8.013,1.548,16.589,2.314,25.537,2.314c18.056,0,37.617-3.12,57.063-9.222c2.24-0.703,3.485-3.088,2.783-5.328
		C205.814,390.995,203.429,389.747,201.189,390.452z"/>
</g>
<g>
</g>
<g>
</g>
<g>
</g>
<g>
</g>
<g>
</g>
<g>
</g>
<g>
</g>
<g>
</g>
<g>
</g>
<g>
</g>
<g>
</g>
<g>
</g>
<g>
</g>
<g>
</g>
<g>
</g>
</svg>
