<?xml version="1.0" encoding="iso-8859-1"?>
<!-- Generator: Adobe Illustrator 18.0.0, SVG Export Plug-In . SVG Version: 6.00 Build 0)  -->
<!DOCTYPE svg PUBLIC "-//W3C//DTD SVG 1.1//EN" "http://www.w3.org/Graphics/SVG/1.1/DTD/svg11.dtd">
<svg version="1.1" id="Capa_1" xmlns="http://www.w3.org/2000/svg" xmlns:xlink="http://www.w3.org/1999/xlink" x="0px" y="0px"
	 viewBox="0 0 494.5 494.5" style="enable-background:new 0 0 494.5 494.5;" xml:space="preserve">
<g>
	<path d="M281.519,247.25C339.211,187.814,397.844,125.459,397.844,4.25c0-2.347-1.903-4.25-4.25-4.25h-56.689
		c-2.347,0-4.25,1.903-4.25,4.25c0,5.967-0.145,11.783-0.42,17.466h-169.97c-0.275-5.683-0.42-11.499-0.42-17.466
		c0-2.347-1.903-4.25-4.25-4.25h-56.689c-1.127,0-2.208,0.448-3.005,1.245c-0.797,0.797-1.245,1.878-1.245,3.005
		c0.001,121.209,58.634,183.564,116.326,243C155.29,306.686,96.655,369.042,96.655,490.25c0,2.347,1.903,4.25,4.25,4.25h56.69
		c2.347,0,4.25-1.903,4.25-4.25c0-5.891,0.139-11.637,0.407-17.25h169.998c0.268,5.614,0.407,11.359,0.407,17.25
		c0,1.127,0.448,2.208,1.245,3.005c0.797,0.797,1.878,1.245,3.005,1.245l56.689,0c2.347,0,4.25-1.903,4.25-4.25
		C397.845,369.041,339.212,306.686,281.519,247.25z M282.025,168.5h-69.548c-2.919-4.133-5.727-8.315-8.431-12.553h86.409
		C287.752,160.185,284.944,164.367,282.025,168.5z M275.814,177c-8.744,11.636-18.3,22.966-28.564,34.255
		c-10.264-11.289-19.819-22.619-28.564-34.255H275.814z M295.67,147.447h-96.839c-6.292-10.643-11.893-21.687-16.709-33.312h130.256
		C307.563,125.759,301.962,136.803,295.67,147.447z M315.708,105.635H178.792c-1.529-4.108-2.963-8.29-4.299-12.553h145.514
		C318.672,97.344,317.238,101.527,315.708,105.635z M322.508,84.582H171.993c-2.911-10.568-5.234-21.637-6.916-33.313h164.347
		C327.742,62.944,325.418,74.014,322.508,84.582z M331.713,30.216c-0.316,4.266-0.724,8.44-1.196,12.553H163.984
		c-0.472-4.113-0.879-8.287-1.196-12.553H331.713z M212.321,326.216h69.86c2.914,4.132,5.712,8.316,8.41,12.553H203.91
		C206.608,334.532,209.406,330.348,212.321,326.216z M218.525,317.716c8.788-11.712,18.398-23.113,28.726-34.472
		c10.328,11.359,19.938,22.759,28.726,34.472H218.525z M198.701,347.27H295.8c6.279,10.642,11.864,21.687,16.667,33.312H182.034
		C186.837,368.957,192.423,357.912,198.701,347.27z M178.711,389.082H315.79c1.525,4.107,2.954,8.29,4.285,12.553h-145.65
		C175.757,397.372,177.186,393.189,178.711,389.082z M171.931,410.135H322.57c2.9,10.567,5.212,21.638,6.885,33.313H165.047
		C166.719,431.772,169.031,420.702,171.931,410.135z M162.769,464.5c0.314-4.267,0.721-8.439,1.19-12.553h166.583
		c0.469,4.114,0.876,8.286,1.19,12.553H162.769z M378.202,486c-0.049-31.107-3.833-59.168-11.572-85.758
		c-0.656-2.254-3.013-3.55-5.268-2.893c-2.254,0.656-3.549,3.015-2.893,5.268c7.511,25.809,11.185,53.092,11.233,83.383l-28.57,0
		c-0.516-45.755-9.414-85.979-27.158-122.845c-17.829-37.045-42.155-65.821-63.599-89.084c-0.805-0.873-1.938-1.37-3.125-1.37
		s-2.32,0.497-3.125,1.37c-21.444,23.263-45.77,52.04-63.599,89.085c-17.744,36.866-26.642,77.09-27.158,122.845h-48.189
		c0.057-5.039,0.223-9.96,0.479-14.784h28.587c2.347,0,4.25-1.903,4.25-4.25c0-2.347-1.903-4.25-4.25-4.25h-28.024
		c8.022-101.58,60.462-155.596,115.732-212.505c1.602-1.649,1.603-4.274,0.001-5.923C162.605,183.179,106.508,125.417,105.18,8.5
		h14.171c0.201,30.335,3.98,57.787,11.558,83.823c0.541,1.857,2.237,3.063,4.079,3.063c0.393,0,0.793-0.055,1.189-0.17
		c2.254-0.656,3.549-3.015,2.893-5.268c-7.35-25.256-11.019-51.931-11.219-81.448h25.518c0.516,45.755,9.414,85.979,27.158,122.845
		c17.83,37.045,42.155,65.821,63.599,89.084c0.805,0.873,1.938,1.37,3.125,1.37s2.32-0.497,3.125-1.37
		c21.443-23.263,45.769-52.04,63.598-89.084c17.743-36.866,26.641-77.09,27.157-122.844h48.189
		c-0.047,4.149-0.171,8.214-0.354,12.216h-29.722c-2.347,0-4.25,1.903-4.25,4.25c0,2.347,1.903,4.25,4.25,4.25h29.231
		c-7.333,103.246-60.195,157.685-115.93,215.072c-1.602,1.649-1.602,4.273,0,5.922c59.35,61.11,115.448,118.873,116.775,235.789
		H378.202z"/>
	<path d="M143.638,102.403c-0.786-2.212-3.217-3.369-5.427-2.582c-2.212,0.786-3.368,3.216-2.583,5.427
		c3.326,9.362,7.244,18.671,11.646,27.667c0.737,1.507,2.248,2.383,3.82,2.383c0.627,0,1.264-0.139,1.865-0.434
		c2.108-1.031,2.981-3.577,1.95-5.685C150.648,120.471,146.856,111.463,143.638,102.403z"/>
	<path d="M353.901,389.027c0.619,1.742,2.256,2.829,4.005,2.829c0.472,0,0.952-0.079,1.422-0.246
		c2.212-0.786,3.368-3.216,2.582-5.427c-3.326-9.362-7.244-18.671-11.645-27.667c-1.032-2.108-3.577-2.982-5.685-1.95
		c-2.108,1.031-2.981,3.577-1.95,5.685C346.891,370.959,350.683,379.968,353.901,389.027z"/>
</g>
<g>
</g>
<g>
</g>
<g>
</g>
<g>
</g>
<g>
</g>
<g>
</g>
<g>
</g>
<g>
</g>
<g>
</g>
<g>
</g>
<g>
</g>
<g>
</g>
<g>
</g>
<g>
</g>
<g>
</g>
</svg>
