<?xml version="1.0" encoding="iso-8859-1"?>
<!-- Generator: Adobe Illustrator 18.0.0, SVG Export Plug-In . SVG Version: 6.00 Build 0)  -->
<!DOCTYPE svg PUBLIC "-//W3C//DTD SVG 1.1//EN" "http://www.w3.org/Graphics/SVG/1.1/DTD/svg11.dtd">
<svg version="1.1" id="Capa_1" xmlns="http://www.w3.org/2000/svg" xmlns:xlink="http://www.w3.org/1999/xlink" x="0px" y="0px" fill="#5894B5"
	 viewBox="0 0 494.473 494.473" style="enable-background:new 0 0 494.473 494.473;" xml:space="preserve">
<g>
	<path d="M438.726,313.776c13.769-68.524,14.351-131.577,1.682-182.344c-18.685-74.88-58.274-90.755-68.345-93.631
		c-5.462-10.986-36.794-55.4-178.59-30.152c-22.126,3.94-56.003,18.991-84.726,49.419c-34.031,36.05-53.469,85.8-56.212,143.87
		c-0.006,0.124-0.006,0.249-0.001,0.372c0.015,0.38,1.453,38.49-5.134,83.867c-8.425,58.029,6.979,131.183,17.599,154.125
		c10.413,22.495,32.288,52.193,33.214,53.447c0.819,1.108,2.099,1.725,3.419,1.725c0.5,0,1.006-0.089,1.495-0.272
		c1.779-0.668,2.897-2.436,2.74-4.33c-0.051-0.611-4.767-61.74,22.002-115.956c24.374-49.367,11.599-103.053,5.46-128.853
		c-0.555-2.332-1.064-4.474-1.489-6.373c32.836-3.852,63.212-12.42,90.529-25.587c26.567-12.804,50.308-29.942,70.564-50.938
		c19.071-19.768,31.343-39.033,38.603-52.575c3.909,3.688,11.338,12.317,17.766,29.112c8.554,22.349,16.988,63.984,8.587,135.41
		c-0.239,2.03-0.504,4.104-0.775,6.23c-2.4,18.801-5.388,42.199,4.37,75.324c13.21,44.849,54.582,74.491,70.261,72.227
		c4.359-0.628,7.067-3.673,7.067-7.945c0-3.941-0.863-8.215-1.956-13.626C433.718,390.796,428.47,364.813,438.726,313.776z
		 M430.393,312.102c-3.54,17.615-5.281,32.35-5.917,44.782h-25.223c-2.347,0-4.25,1.903-4.25,4.25s1.903,4.25,4.25,4.25H424.2
		c-0.254,19.931,2.409,33.151,4.321,42.621c0.952,4.716,1.714,8.487,1.783,11.508c-1.188,0.09-4.09-0.265-9.053-2.598
		c-13.195-6.202-40.965-27.487-51.617-63.65c-9.254-31.415-6.392-53.833-4.091-71.846c0.275-2.155,0.543-4.256,0.785-6.314
		c14.911-126.769-21.143-165.435-30.807-173.364c3.098-6.472,4.554-10.519,4.72-10.993c0.779-2.214-0.385-4.64-2.6-5.419
		c-2.213-0.78-4.64,0.385-5.419,2.6c-0.118,0.334-12.152,33.863-45.409,68.335c-30.751,31.874-86.385,70.894-176.788,75.77
		c-2.344,0.127-4.141,2.129-4.015,4.473c0.122,2.266,1.998,4.021,4.24,4.021c0.077,0,0.155-0.002,0.233-0.006
		c4.322-0.233,8.598-0.561,12.843-0.95c0.478,2.196,1.074,4.704,1.73,7.459c5.909,24.832,18.205,76.504-4.813,123.123
		c-20.112,40.734-23.196,84.196-23.282,106.103c-7.392-10.773-18.082-27.198-24.251-40.524
		c-10.249-22.143-25.087-92.945-16.9-149.333c6.46-44.502,5.328-82.189,5.222-85.235c1.192-24.916,5.558-48.211,12.905-69.444
		h42.453c2.347,0,4.25-1.903,4.25-4.25c0-2.347-1.903-4.25-4.25-4.25H77.079c1.956-4.958,4.085-9.789,6.38-14.495h66.472
		c2.347,0,4.25-1.903,4.25-4.25c0-2.347-1.903-4.25-4.25-4.25H87.861c6.466-11.761,14.049-22.63,22.704-32.505h39.366
		c2.347,0,4.25-1.903,4.25-4.25c0-2.347-1.903-4.25-4.25-4.25h-31.41c26.472-26.45,56.557-39.661,76.442-43.202
		c78.426-13.965,120.634-5.753,142.231,3.595c22.863,9.896,27.746,23.056,27.779,23.146c0.484,1.465,1.746,2.556,3.262,2.844
		c0.109,0.021,11.122,2.223,24.392,13.994c8.058,7.147,18.042,18.873,26.866,37.589h-23.52c-2.347,0-4.25,1.903-4.25,4.25
		c0,2.347,1.903,4.25,4.25,4.25h27.239c2.144,5.284,4.182,11.045,6.067,17.318h-46.428c-2.347,0-4.25,1.903-4.25,4.25
		s1.903,4.25,4.25,4.25h48.796c0.171,0.662,0.345,1.314,0.513,1.986C444.526,183.043,443.914,244.806,430.393,312.102z"/>
	<path d="M304.728,75.051c-1.99-1.242-4.612-0.637-5.856,1.354c-0.148,0.237-15.171,24.023-46.075,49.867
		c-28.568,23.891-76.82,54.317-144.452,63.594c-2.325,0.319-3.952,2.462-3.633,4.788c0.292,2.129,2.114,3.673,4.205,3.673
		c0.192,0,0.387-0.013,0.583-0.04c69.634-9.551,119.326-40.888,148.75-65.495c31.933-26.705,47.197-50.87,47.832-51.886
		C307.325,78.915,306.719,76.294,304.728,75.051z"/>
	<path d="M392.22,227.019c0.179-2.34-1.572-4.383-3.912-4.563c-2.331-0.185-4.382,1.57-4.563,3.91
		c-0.143,1.851-3.357,45.986,8.703,103.417c0.42,2.002,2.187,3.377,4.155,3.377c0.29,0,0.583-0.03,0.878-0.092
		c2.297-0.482,3.768-2.735,3.286-5.033C388.972,271.867,392.187,227.46,392.22,227.019z"/>
	<path d="M79.883,281.593c-2.317-0.376-4.499,1.199-4.874,3.515c-0.214,1.325-5.215,32.97-1.769,79.255
		c0.167,2.233,2.03,3.935,4.234,3.935c0.106,0,0.213-0.004,0.32-0.012c2.341-0.174,4.097-2.213,3.923-4.554
		c-3.367-45.21,1.632-76.951,1.683-77.267C83.774,284.149,82.2,281.967,79.883,281.593z"/>
</g>
<g>
</g>
<g>
</g>
<g>
</g>
<g>
</g>
<g>
</g>
<g>
</g>
<g>
</g>
<g>
</g>
<g>
</g>
<g>
</g>
<g>
</g>
<g>
</g>
<g>
</g>
<g>
</g>
<g>
</g>
</svg>
