<?xml version="1.0" encoding="iso-8859-1"?>
<!-- Generator: Adobe Illustrator 18.0.0, SVG Export Plug-In . SVG Version: 6.00 Build 0)  -->
<!DOCTYPE svg PUBLIC "-//W3C//DTD SVG 1.1//EN" "http://www.w3.org/Graphics/SVG/1.1/DTD/svg11.dtd">
<svg version="1.1" id="Capa_1" xmlns="http://www.w3.org/2000/svg" xmlns:xlink="http://www.w3.org/1999/xlink" x="0px" y="0px"
	 viewBox="0 0 475.279 475.279" style="enable-background:new 0 0 475.279 475.279;" xml:space="preserve">
<g>
	<path d="M280.805,240.874c16.174,0,29.332-13.159,29.332-29.333c0-16.174-13.159-29.333-29.332-29.333
		c-16.174,0-29.333,13.159-29.333,29.333C251.472,227.715,264.63,240.874,280.805,240.874z M280.805,190.708
		c11.487,0,20.832,9.346,20.832,20.833s-9.345,20.833-20.832,20.833c-11.487,0-20.833-9.345-20.833-20.833
		S269.317,190.708,280.805,190.708z"/>
	<path d="M224.68,164.23c7.777,0,14.104-6.327,14.104-14.104c0-7.777-6.327-14.104-14.104-14.104
		c-7.777,0-14.104,6.327-14.104,14.104C210.576,157.902,216.903,164.23,224.68,164.23z M224.68,144.522
		c3.09,0,5.604,2.514,5.604,5.604c0,3.09-2.514,5.604-5.604,5.604c-3.09,0-5.604-2.514-5.604-5.604
		C219.076,147.036,221.59,144.522,224.68,144.522z"/>
	<path d="M293.658,126.605c6.789,0,12.312-5.523,12.312-12.313c0-6.789-5.523-12.313-12.312-12.313s-12.313,5.523-12.313,12.313
		C281.345,121.082,286.869,126.605,293.658,126.605z M293.658,110.48c2.102,0,3.812,1.711,3.812,3.813
		c0,2.102-1.71,3.813-3.812,3.813c-2.102,0-3.813-1.71-3.813-3.813C289.845,112.191,291.556,110.48,293.658,110.48z"/>
	<path d="M393.093,201.854c8.765,0,15.895-7.131,15.895-15.896c0-8.765-7.131-15.895-15.895-15.895
		c-8.765,0-15.896,7.131-15.896,15.895C377.198,194.723,384.329,201.854,393.093,201.854z M393.093,178.563
		c4.078,0,7.395,3.317,7.395,7.395c0,4.078-3.317,7.396-7.395,7.396c-4.078,0-7.396-3.318-7.396-7.396
		C385.698,181.88,389.015,178.563,393.093,178.563z"/>
	<path d="M370.698,281.582c5.801,0,10.521-4.72,10.521-10.521c0-5.801-4.72-10.521-10.521-10.521
		c-5.801,0-10.521,4.72-10.521,10.521C360.177,276.862,364.897,281.582,370.698,281.582z M370.698,269.04
		c1.114,0,2.021,0.907,2.021,2.021c0,1.114-0.907,2.021-2.021,2.021c-1.114,0-2.021-0.906-2.021-2.021
		C368.677,269.947,369.584,269.04,370.698,269.04z"/>
	<path d="M282.908,7.92c-106.074,0-192.371,86.297-192.371,192.372c0,31.018,9.842,67.263,25.181,96.019
		c-1.977,5.299-3.118,10.729-3.379,16.208c-0.44,9.214,1.707,18.118,6.132,26.014l-0.976,0.976
		c-1.947,1.948-3.125,4.372-3.555,6.901c-4.842,5.059-8.061,7.069-11.456,9.183c-3.824,2.38-7.778,4.842-13.674,11.118
		c-5.921,6.302-7.953,10.227-9.918,14.021c-1.776,3.43-3.454,6.67-8.565,12.11c-5.136,5.467-8.456,7.534-11.972,9.722
		c-3.824,2.38-7.778,4.842-13.674,11.117c-5.921,6.303-7.953,10.228-9.919,14.022c-1.776,3.43-3.455,6.67-8.567,12.112
		c-5.13,5.461-8.3,7.416-11.655,9.485c-3.68,2.269-7.485,4.616-13.388,10.899c-1.555,1.655-1.534,4.24,0.048,5.87
		c0.831,0.857,1.939,1.29,3.051,1.29c1.003,0,2.008-0.353,2.815-1.067c5.557-4.916,8.89-6.51,12.417-8.197
		c3.9-1.865,7.934-3.794,14.382-9.499c6.412-5.671,9.064-9.619,11.628-13.437c2.37-3.528,4.609-6.861,10.204-11.811
		c5.541-4.902,8.715-6.382,12.076-7.949c3.762-1.754,7.651-3.568,14.115-9.286c6.411-5.671,9.063-9.619,11.627-13.436
		c2.37-3.528,4.608-6.86,10.203-11.809c5.541-4.902,8.715-6.382,12.076-7.949c3.647-1.7,8.826-4.633,15.029-10.021
		c2.405-0.475,4.701-1.64,6.561-3.5l1.049-1.049c7.136,3.922,15.097,6.01,23.312,6.01c5.431,0,10.895-0.925,16.266-2.686
		c30.738,20.483,69.592,30.99,104.896,30.99c106.074,0,192.372-86.297,192.372-192.371C475.279,94.217,388.982,7.92,282.908,7.92z
		 M112.203,365.215c-3.762,1.754-7.652,3.567-14.116,9.286c-6.411,5.671-9.063,9.619-11.627,13.436
		c-2.37,3.528-4.608,6.86-10.203,11.81c-1.878,1.661-3.484,2.929-4.918,3.941c1.564-1.359,3.271-2.993,5.182-5.026
		c5.921-6.302,7.953-10.227,9.918-14.021c1.776-3.43,3.454-6.67,8.565-12.11c5.136-5.467,8.456-7.534,11.971-9.722
		c2.771-1.725,5.615-3.501,9.212-6.732c0.393,0.542,0.818,1.067,1.306,1.555l1.766,1.766c0.373,0.373,0.768,0.709,1.174,1.026
		C117.096,362.932,114.7,364.051,112.203,365.215z M125.272,353.387l-1.766-1.766c-1.621-1.621-1.664-4.212-0.161-5.905
		c1.12,1.374,2.318,2.704,3.597,3.983c1.365,1.365,2.797,2.63,4.276,3.815C129.527,355.054,126.905,355.021,125.272,353.387z
		 M132.952,343.688c-6.948-6.947-11.084-15.662-11.976-24.989h17.748c2.347,0,4.25-1.903,4.25-4.25s-1.903-4.25-4.25-4.25h-17.669
		c1.282-11.462,7.174-22.721,17.176-32.722c14.447-14.447,35.197-23.782,52.864-23.782c9.834,0,17.94,2.908,23.441,8.409
		c7.595,7.594,10.159,19.868,7.262,34.596h-62.076c-2.347,0-4.25,1.903-4.25,4.25c0,2.347,1.903,4.25,4.25,4.25h59.855
		c-3.967,12.169-11.156,23.952-20.414,33.209c-11.416,11.416-24.355,17.45-37.417,17.45
		C150.87,355.858,140.913,351.65,132.952,343.688z M194.989,196.042h-59.158c0.163-5.699,0.656-11.315,1.452-16.836h25.44
		c2.347,0,4.25-1.903,4.25-4.25c0-2.347-1.903-4.25-4.25-4.25h-23.969c6.908-33.707,25.381-63.247,51.072-84.286h64.204
		c2.347,0,4.25-1.903,4.25-4.25s-1.903-4.25-4.25-4.25h-52.737c23.371-15.639,51.445-24.771,81.616-24.771
		c46.081,0,87.274,21.298,114.274,54.561h-18.47c-2.347,0-4.25,1.903-4.25,4.25c0,2.347,1.903,4.25,4.25,4.25h24.877
		c3.14,4.492,6.043,9.161,8.674,13.999h-50.05c-2.347,0-4.25,1.903-4.25,4.25c0,2.347,1.903,4.25,4.25,4.25h54.313
		c8.674,18.746,13.525,39.607,13.525,61.584c0,49.127-24.206,92.703-61.313,119.443c-0.604-0.331-1.288-0.536-2.026-0.536h-56.997
		c-2.347,0-4.25,1.903-4.25,4.25s1.903,4.25,4.25,4.25h46.736c-21.65,12.545-46.772,19.736-73.543,19.736
		c-23.282,0-46.332-5.555-66.925-16.08c6.813-9.948,11.739-21.184,14.039-32.382c3.67-17.872,0.305-33.1-9.474-42.879
		c-7.13-7.13-17.314-10.898-29.452-10.898c-13.966,0-29.571,5.132-43.158,13.752c-7.509-17.241-11.581-35.509-12.11-54.405h59.161
		c2.347,0,4.25-1.903,4.25-4.25C199.239,197.944,197.336,196.042,194.989,196.042z M282.908,384.163
		c-33.708,0-66.594-9.211-95.263-26.614c6.159-3.275,12.076-7.677,17.529-13.129c1.962-1.962,3.83-4.039,5.616-6.192
		c22.122,11.581,46.992,17.708,72.118,17.708c85.822,0,155.643-69.821,155.643-155.643S368.73,44.648,282.908,44.648
		S127.265,114.47,127.265,200.292c0,22.164,4.573,43.561,13.575,63.624c-3.041,2.344-5.933,4.865-8.619,7.551
		c-4.744,4.744-8.671,9.77-11.759,14.984c-14.01-26.375-21.425-56.108-21.425-86.159c0-101.387,82.484-183.872,183.871-183.872
		c101.387,0,183.872,82.484,183.872,183.872C466.779,301.678,384.295,384.163,282.908,384.163z"/>
	<path d="M453.908,196.042c-2.347,0-4.25,1.903-4.25,4.25c0,91.946-74.804,166.749-166.751,166.749c-2.347,0-4.25,1.903-4.25,4.25
		c0,2.347,1.903,4.25,4.25,4.25c96.633,0,175.251-78.617,175.251-175.249C458.158,197.944,456.255,196.042,453.908,196.042z"/>
	<path d="M282.908,24.542c-96.909,0-175.749,78.841-175.749,175.75c0,2.347,1.903,4.25,4.25,4.25c2.347,0,4.25-1.903,4.25-4.25
		c0-92.222,75.028-167.25,167.249-167.25c2.347,0,4.25-1.903,4.25-4.25C287.158,26.444,285.255,24.542,282.908,24.542z"/>
</g>
<g>
</g>
<g>
</g>
<g>
</g>
<g>
</g>
<g>
</g>
<g>
</g>
<g>
</g>
<g>
</g>
<g>
</g>
<g>
</g>
<g>
</g>
<g>
</g>
<g>
</g>
<g>
</g>
<g>
</g>
</svg>
