<?xml version="1.0" encoding="iso-8859-1"?>
<!-- Generator: Adobe Illustrator 18.0.0, SVG Export Plug-In . SVG Version: 6.00 Build 0)  -->
<!DOCTYPE svg PUBLIC "-//W3C//DTD SVG 1.1//EN" "http://www.w3.org/Graphics/SVG/1.1/DTD/svg11.dtd">
<svg version="1.1" id="Capa_1" xmlns="http://www.w3.org/2000/svg" xmlns:xlink="http://www.w3.org/1999/xlink" x="0px" y="0px"
	 viewBox="0 0 494.165 494.165" style="enable-background:new 0 0 494.165 494.165;" xml:space="preserve">
<g>
	<path d="M462.65,429.57c2.917-0.583,5.173-1.629,5.712-3.17c0.601-1.72,0.004-3.632-1.443-4.739
		c-0.578-0.441-6.269-4.734-16.087-10.405c4.189,0.43,8.003,0.616,11.461,0.616c16.411-0.001,24.87-3.853,28.024-5.635
		c1.917-1.083,3.087-1.854,3.626-3.455c0.582-1.729-0.005-3.638-1.46-4.741c-0.819-0.622-11.858-8.882-30.346-17.882
		c0,0,3.667-0.217,4.876-0.395c1.886-0.277,3.436-1.157,4.022-2.879c0.587-1.722,0.014-3.625-1.426-4.736
		c-0.853-0.658-12.995-9.891-33.372-19.49l9.959-3.128c1.615-0.507,2.775-1.925,2.953-3.609c0.178-1.684-0.661-3.313-2.135-4.146
		c-41.605-23.516-75.59-26.213-131.896-30.682c-7.207-0.572-14.798-1.174-22.838-1.853c-64.989-5.492-106.933-30.727-111.904-33.851
		c-2.393-15.695-5.393-45.457-8.405-101.798c-2.915-54.53-4.409-107.714-4.423-108.245c-0.065-2.346-2.014-4.185-4.367-4.13
		c-2.346,0.065-4.195,2.02-4.13,4.367c0.015,0.532,1.511,53.81,4.432,108.447c3.807,71.213,7.575,100.386,10.378,112.993
		c-15.689-7.769-32.435-13.234-39.261-15.324c-3.107-19.167-22.052-138.96-21.159-203.224c0.033-2.347-1.843-4.276-4.19-4.309
		c-0.02,0-0.04,0-0.061,0c-2.319,0-4.216,1.864-4.248,4.191c-0.978,70.399,21.474,205.99,21.7,207.351c0,0,0.601,3.027,0.163,4.996
		c-0.975,4.385-9.708,14.335-52.937,23.598c-11.625,2.491-22.398,6.354-31.927,11.241c-0.815-0.352-2.214-1.149-2.618-2.604
		c-0.388-1.396-0.68-6.904,11.845-19.151c29.118-28.47,28.014-52.195,27.833-54.475L71.136,68.222
		c-0.108-2.345-2.105-4.162-4.441-4.05c-2.345,0.108-4.158,2.096-4.05,4.441l7.87,171.177c0.002,0.055,0.009,0.143,0.014,0.198
		c0.019,0.212,1.502,21.518-25.301,47.724c-11.5,11.245-16.11,20.241-14.093,27.504c0.554,1.993,1.57,3.599,2.769,4.878
		C14.596,332.127,1.918,348.67,0.194,366.117c-1.799,18.196,8.988,33.743,29.594,42.654c7.211,3.117,15.782,4.698,25.477,4.698
		c25.736,0,57.35-11.602,75.456-25.518c8.541,4.885,40.447,21.429,70.82,15.179c24.966-5.142,72.879-6.253,159.351,17.641
		c34.42,9.511,58.901,12.555,75.447,12.141C443.317,432.737,457.358,430.628,462.65,429.57z M446.335,373.141
		c-10.759-4.329-23.116-8.402-36.746-11.451c0.148-1.832,1.649-5.788,3.943-9.256c18.189,6.692,32.396,14.514,41.121,19.907
		L446.335,373.141z M405.69,391.145c1.394-4.992,3.256-13.749,1.854-21.209c7.762,1.736,15.113,3.836,21.987,6.133
		c-1.566,5.656-3.581,15.027-1.656,22.269C427.876,398.338,415.73,395.136,405.69,391.145z M211.75,367.224L181.692,344.6
		c6.222-3.422,12.126-6.961,16.555-10.712c1.993-1.688,3.64-3.392,4.95-5.11l24.912,19.029
		C218.574,355.639,213.548,363.138,211.75,367.224z M186.093,395.981c-20.42-0.405-40.056-9.5-48.578-14.018
		c3.645-3.768,6.177-7.604,7.245-11.342c2.112-7.394,16.153-14.934,28.726-21.613l29.123,22.439
		C192.047,380.565,187.673,391.046,186.093,395.981z M397.877,357.578c-3.777-1.34-9-2.56-15.257-3.67
		c1.175-2.794,2.205-6.359,2.024-9.959c7.215,1.589,14.067,3.494,20.504,5.582c-1.784,2.784-3.554,6.277-4.038,9.699
		C400.121,358.556,399.046,357.993,397.877,357.578z M375.91,342.882c0.941,2.826-0.668,6.993-2.029,9.638
		c-39.137-5.61-104.65-7.983-129.177-8.705c1.338-10.493,6.307-14.286,7.549-15.081c43.104,1.439,101.816,4.532,119.881,10.943
		C374.887,340.654,375.607,341.973,375.91,342.882z M241.186,328.389c-2.193,3.429-4.199,8.262-4.973,14.911l-20.326-15.525
		C222.419,327.902,231.146,328.098,241.186,328.389z M236.445,352.094c14.177,0.361,130.747,3.615,158.589,13.495
		c6.662,2.364,4.436,15.792,2.504,23.051c-6.646-1.913-13.661-3.619-21.023-4.997c-1.227-1.059-2.636-1.893-4.217-2.454
		c-25.537-9.061-116.926-12.651-150.42-13.681C224.166,363.627,228.515,357.922,236.445,352.094z M381.53,393.335
		c8.044,1.775,15.648,3.944,22.736,6.325c-1.145,5.493-2.537,14.813-0.781,21.884c-7.39-1.184-15.592-2.796-24.653-4.941
		C380.538,411.027,382.881,401.304,381.53,393.335z M314.446,319.57c52.76,4.187,83.589,6.633,119.57,24.878l-9.616,3.02
		c-12.724-5.176-27.749-10.013-44.592-13.177c-1.254-1.003-2.831-1.915-4.832-2.625c-19.664-6.978-81.728-10.153-125.551-11.554
		c0.495-2.901,3.396-5.998,5.42-7.747c11.219,2.34,23.486,4.229,36.72,5.347C299.621,318.393,307.226,318.996,314.446,319.57z
		 M182.448,286.468c10.545,5.82,32.149,16.259,62.725,23.709c-2.187,2.774-3.953,6.116-4.273,9.677
		c-15.697-0.447-28.141-0.657-33.96-0.739c0.048-2.16-0.412-4.332-1.402-6.512c-3.264-7.181-11.145-13.791-20.606-19.537
		C184.931,293.067,182.996,292.01,182.448,286.468z M33.162,400.969c-17.236-7.454-25.94-19.534-24.509-34.016
		c1.945-19.673,23.741-45.068,66.999-54.338c34.722-7.441,54.689-17.128,59.346-28.794c0.395-0.989,0.658-1.932,0.819-2.821
		c19.349,6.295,55.374,20.582,61.982,35.121c3.518,7.738-9.3,15.289-27.792,25.111c-9.579,5.088-18.828,10.004-25.261,15.586
		h-37.073c-2.347,0-4.25,1.903-4.25,4.25c0,2.347,1.903,4.25,4.25,4.25h30.076c-0.48,0.964-0.871,1.953-1.161,2.969
		c-0.571,1.998-1.99,4.212-4.081,6.531H67.175c-2.347,0-4.25,1.902-4.25,4.25c0,2.348,1.903,4.25,4.25,4.25h55.251
		c-16.06,11.039-42.929,21.652-67.161,21.652C46.737,404.969,39.3,403.624,33.162,400.969z M199.827,394.804
		c-1.498,0.309-3.005,0.534-4.515,0.72c2.107-5.07,6.605-13.116,15.566-19.818c14.231,0.362,130.741,3.616,158.578,13.493
		c1.315,0.467,2.231,1.34,2.883,2.747c2.372,5.121,0.456,15.439-1.773,22.607c-2.419-0.625-4.878-1.275-7.411-1.976
		C293.42,393.309,236.942,387.163,199.827,394.804z M413.418,423.1c-2.646-0.546-2.946-10.662-1.06-20.556
		c18.867,7.123,33.342,15.366,41.609,20.598C446.801,424.382,432.646,427.072,413.418,423.1z M438.514,400.794
		c-4.055-1.342-2.868-12.983-0.835-21.834c20.326,7.638,35.612,16.567,43.552,21.683
		C474.984,402.487,458.484,407.404,438.514,400.794z"/>
	<path d="M149.666,219.827c0.146,0,0.294-0.008,0.443-0.023c2.334-0.242,4.031-2.33,3.79-4.665
		c-4.442-42.933-11.913-147.308-11.988-148.357c-0.167-2.341-2.199-4.104-4.542-3.937c-2.341,0.167-4.104,2.201-3.936,4.542
		c0.075,1.051,7.556,105.56,12.011,148.627C145.67,218.2,147.516,219.827,149.666,219.827z"/>
</g>
<g>
</g>
<g>
</g>
<g>
</g>
<g>
</g>
<g>
</g>
<g>
</g>
<g>
</g>
<g>
</g>
<g>
</g>
<g>
</g>
<g>
</g>
<g>
</g>
<g>
</g>
<g>
</g>
<g>
</g>
</svg>
