<?xml version="1.0" encoding="iso-8859-1"?>
<!-- Generator: Adobe Illustrator 18.0.0, SVG Export Plug-In . SVG Version: 6.00 Build 0)  -->
<!DOCTYPE svg PUBLIC "-//W3C//DTD SVG 1.1//EN" "http://www.w3.org/Graphics/SVG/1.1/DTD/svg11.dtd">
<svg version="1.1" id="Capa_1" xmlns="http://www.w3.org/2000/svg" xmlns:xlink="http://www.w3.org/1999/xlink" x="0px" y="0px"
	 viewBox="0 0 487.293 487.293" style="enable-background:new 0 0 487.293 487.293;" xml:space="preserve">
<g>
	<path d="M237.358,383.334c-20.968-0.362-51.199-8.81-56.017-12.494c-2.71-2.073-6.08-1.772-8.386,0.749
		c-5.823,6.366-5.307,30.359,4.33,42.698l-4.932,67.724c-0.17,2.341,1.589,4.377,3.93,4.547c0.105,0.008,0.21,0.011,0.313,0.011
		c2.207,0,4.072-1.706,4.234-3.941l5.058-69.447c0.085-1.167-0.315-2.318-1.106-3.18c-7.483-8.165-7.974-25.03-6.292-30.974
		c10.323,5.459,39.505,12.475,58.721,12.807c3.513,0.061,5.728,0.869,6.584,2.403c2.08,3.727-1.568,12.214-3.657,15.735
		c-0.344,0.576-0.546,1.225-0.591,1.894l-4.696,69.809c-0.158,2.342,1.613,4.368,3.955,4.525c2.333,0.167,4.368-1.613,4.525-3.955
		l4.631-68.836c1.962-3.558,7.717-15.293,3.263-23.3C249.551,387.097,245.786,383.479,237.358,383.334z"/>
	<path d="M322.197,403.142c2.603-8.414-0.063-14.943-3.54-18.318c-3.337-3.238-7.975-4.254-12.104-2.646
		c-1.761,0.686-6.93-0.071-11.083-0.68c-7.776-1.14-16.588-2.431-22.936,0.871c-14.949,7.773-11.166,22.821-4.851,37.925
		c7.975,19.069,12.765,62.767,12.813,63.207c0.252,2.334,2.342,4.022,4.682,3.769c2.333-0.253,4.021-2.348,3.769-4.682
		c-0.199-1.843-4.971-45.366-13.422-65.573c-9.143-21.866-3.321-24.894,0.93-27.104c3.911-2.034,11.602-0.907,17.782-0.001
		c6.193,0.907,11.541,1.692,15.396,0.192c1.331-0.515,2.422,0.162,3.103,0.824c1.647,1.599,2.925,5.285,1.105,10.412
		c-0.23,0.65-0.299,1.345-0.201,2.027l11.561,80.286c0.305,2.118,2.122,3.645,4.201,3.645c0.201,0,0.405-0.014,0.611-0.044
		c2.323-0.335,3.935-2.489,3.601-4.813L322.197,403.142z"/>
	<path d="M274.56,344.471c-1.061-7.582-4.654-16.436-11.284-16.436c-0.304,0-0.611,0.021-0.916,0.063
		c-0.137,0.019-0.452,0.05-1.023,0.05h0c-9.889-0.001-43.208-7.847-61.184-14.316c0.487,0.075,0.982,0.125,1.489,0.125
		c0.001,0,0.001,0,0.001,0c0.236,0,0.474-0.008,0.714-0.025l16.276-1.171c2.632-0.189,5.032-1.393,6.759-3.388
		c1.726-1.995,2.573-4.542,2.383-7.173l-0.182-2.525c-0.243-3.379-2.223-6.333-5.066-7.922l-6.265-68.44
		c2.524-1.985,4.018-5.152,3.778-8.488l-0.182-2.526c-0.387-5.376-5.103-9.53-10.561-9.141l-16.275,1.171
		c-5.432,0.391-9.533,5.128-9.143,10.562l0.182,2.524c0.243,3.379,2.224,6.333,5.066,7.921l6.265,68.44
		c-2.524,1.985-4.018,5.151-3.779,8.486l0.182,2.527c0.244,3.385,2.209,6.278,4.988,7.866c-2.203-0.666-4.463-1.02-6.747-1.02
		c-10.015,0-19.683,6.61-24.058,16.449c-4.343,9.765-2.5,20.512,4.929,28.748c17.594,19.507,79.777,22.938,82.415,23.074
		c0.073,0.004,0.146,0.006,0.22,0.006c0.395,0,0.788-0.055,1.167-0.164C272.304,374.72,276.4,357.602,274.56,344.471z
		 M193.713,218.065c-0.543-0.077-1.121-0.535-1.173-1.262l-0.182-2.524c-0.055-0.757,0.518-1.418,1.275-1.472l16.276-1.171
		l0.105-0.003c0.715,0,1.316,0.562,1.368,1.278l0.182,2.525c0.052,0.727-0.454,1.263-0.981,1.417
		c-1.95,0.571-3.223,2.442-3.038,4.466l6.764,73.884c0.18,1.961,1.684,3.543,3.634,3.82c0.544,0.078,1.122,0.536,1.173,1.261
		l0.182,2.526c0.036,0.495-0.193,0.839-0.332,1c-0.14,0.161-0.447,0.437-0.942,0.472l-16.275,1.171l-0.104,0.004
		c-0.716,0-1.318-0.562-1.37-1.278l-0.182-2.526c-0.052-0.726,0.454-1.262,0.98-1.416c1.95-0.571,3.224-2.442,3.039-4.466
		l-6.763-73.885C197.168,219.924,195.663,218.343,193.713,218.065z M266.162,354.55c-0.85,6.078-3.829,13.86-13.133,16.828
		c-17.572-0.992-63.321-6.393-75.81-20.239c-4.801-5.323-6.236-11.837-4.063-18.092c0.385,0.294,0.817,0.538,1.307,0.69l58,18
		c0.42,0.13,0.844,0.192,1.261,0.192c1.813,0,3.492-1.169,4.058-2.991c0.696-2.242-0.558-4.623-2.799-5.319l-57.399-17.814
		c3.363-3.529,7.87-5.669,12.454-5.669c1.79,0,3.568,0.329,5.286,0.977c18.466,6.969,54.866,15.536,66.014,15.536h0.001
		c0.57,0,1.083-0.02,1.553-0.06C264.624,338.187,267.382,345.828,266.162,354.55z"/>
	<path d="M274.455,374.168c0.523,1.503,1.842,2.588,3.419,2.811c0.238,0.034,5.902,0.824,13.102,0.824c0,0,0,0,0,0
		c8.207,0,15-1.012,20.186-3.009c10.233-3.939,12.382-10.936,12.382-16.113c0-18.011-6.434-43.376-20.735-43.376
		c-0.652,0-1.313,0.059-1.964,0.175c-10.785,1.926-20.577,7.897-20.989,8.151c-1.689,1.039-2.433,3.111-1.796,4.988
		c0.096,0.283,9.466,28.465-2.668,41.222C274.293,370.995,273.932,372.665,274.455,374.168z M287.132,329.315
		c3.333-1.721,9.187-4.392,15.205-5.466c0.162-0.029,0.315-0.043,0.471-0.043c4.813,0,12.235,14.976,12.235,34.876
		c0,2.366-0.719,5.788-6.936,8.18c-4.149,1.598-10.073,2.442-17.132,2.441c-1.732,0-3.375-0.051-4.856-0.126
		C293.04,355.496,289.197,336.933,287.132,329.315z"/>
	<path d="M180.896,310.048c4.371-3.248,5.285-9.447,2.037-13.819l-1.509-2.031c-1.962-2.641-5.209-4.141-8.471-3.971l-18.871-25.397
		c1.089-3.044,0.656-6.546-1.352-9.25l-1.51-2.031c-1.855-2.496-4.82-3.987-7.933-3.987c-2.134,0-4.169,0.674-5.886,1.949
		l-13.098,9.732c-4.371,3.248-5.285,9.447-2.038,13.819l1.51,2.032c1.961,2.641,5.205,4.149,8.471,3.97l18.871,25.398
		c-1.09,3.044-0.656,6.546,1.351,9.249l1.51,2.031c1.855,2.497,4.82,3.987,7.933,3.987c2.134,0,4.169-0.674,5.886-1.949
		L180.896,310.048z M161.912,313.229c-0.209,0-0.737-0.054-1.11-0.557l-1.509-2.031c-0.435-0.585-0.295-1.309,0.066-1.723
		c1.317-1.506,1.405-3.727,0.212-5.333l-22.136-29.792c-0.823-1.107-2.102-1.716-3.414-1.716c-0.591,0-1.189,0.124-1.754,0.38
		c-0.176,0.08-0.365,0.121-0.561,0.121c-0.209,0-0.735-0.054-1.107-0.555l-1.51-2.031c-0.453-0.61-0.325-1.474,0.284-1.927
		l13.097-9.731c0.303-0.225,0.612-0.272,0.817-0.272c0.209,0,0.737,0.054,1.11,0.557l1.509,2.031
		c0.435,0.585,0.296,1.309-0.065,1.722c-1.318,1.506-1.407,3.727-0.213,5.333l22.136,29.792c1.194,1.606,3.345,2.162,5.168,1.335
		c0.176-0.08,0.365-0.121,0.562-0.121c0.208,0,0.734,0.054,1.105,0.555l1.51,2.031c0.453,0.61,0.326,1.474-0.284,1.927
		l-13.097,9.731C162.487,313.137,162.212,313.229,161.912,313.229z"/>
	<path d="M192.134,100.53c-4.729,0-9.174,2.335-13.214,6.941c-0.769,0.876-1.144,2.029-1.038,3.19l6.51,71.116
		c-2.524,1.985-4.018,5.151-3.779,8.486l0.182,2.527c0.371,5.141,4.696,9.167,9.847,9.168c0.001,0,0.001,0,0.001,0
		c0.236,0,0.474-0.008,0.714-0.025l16.276-1.172c2.632-0.189,5.032-1.392,6.759-3.387c1.726-1.995,2.573-4.542,2.383-7.173
		l-0.182-2.525c-0.243-3.38-2.223-6.333-5.066-7.922l-6.519-71.209c-0.079-0.864-0.421-1.683-0.979-2.347
		C203.542,105.616,199.067,100.53,192.134,100.53z M206.942,187.022c0.544,0.078,1.122,0.536,1.173,1.261l0.182,2.526
		c0.036,0.495-0.193,0.839-0.332,1c-0.14,0.161-0.447,0.437-0.942,0.472l-16.275,1.171l-0.104,0.004
		c-0.716,0-1.318-0.562-1.37-1.278l-0.182-2.526c-0.052-0.726,0.454-1.262,0.98-1.415c1.95-0.571,3.224-2.443,3.039-4.466
		l-6.587-71.966c1.93-1.843,3.813-2.775,5.611-2.775c1.947,0,3.609,1.08,4.553,1.857l6.62,72.316
		C203.487,185.164,204.991,186.745,206.942,187.022z"/>
	<path d="M142.392,247.372c1.726-1.995,2.573-4.542,2.383-7.173l-0.182-2.525c-0.247-3.424-2.276-6.411-5.18-7.984l-6.424-48.64
		c-0.106-0.802-0.439-1.558-0.96-2.178c-0.487-0.58-4.963-5.667-11.895-5.667c-4.729,0-9.174,2.335-13.214,6.941
		c-0.808,0.921-1.179,2.145-1.019,3.359l6.386,48.354c-2.461,1.989-3.911,5.114-3.674,8.402l0.182,2.527
		c0.371,5.141,4.696,9.167,9.847,9.168c0,0,0.001,0,0.001,0c0.236,0,0.474-0.008,0.714-0.025l16.276-1.171
		C138.265,250.571,140.665,249.367,142.392,247.372z M118.747,243.453l-0.104,0.004c-0.716,0-1.318-0.562-1.37-1.278l-0.182-2.526
		c-0.052-0.726,0.454-1.262,0.98-1.416c2.012-0.589,3.294-2.557,3.02-4.635l-6.496-49.189c1.905-1.798,3.764-2.707,5.539-2.707
		c1.995,0,3.69,1.133,4.621,1.913l6.571,49.753c0.249,1.89,1.727,3.383,3.615,3.651c0.544,0.078,1.122,0.536,1.173,1.261
		l0.182,2.526c0.035,0.495-0.193,0.839-0.333,1c-0.14,0.161-0.447,0.437-0.942,0.472L118.747,243.453z"/>
	<path d="M234.634,93.03c-4.729,0-9.174,2.335-13.214,6.941c-0.769,0.876-1.144,2.029-1.038,3.19l6.51,71.116
		c-2.524,1.985-4.018,5.151-3.779,8.486l0.182,2.527c0.371,5.141,4.696,9.167,9.847,9.168c0.001,0,0.001,0,0.001,0
		c0.236,0,0.474-0.008,0.714-0.025l16.276-1.172c2.632-0.189,5.032-1.392,6.759-3.387c1.726-1.995,2.573-4.542,2.383-7.173
		l-0.182-2.525c-0.243-3.38-2.223-6.333-5.066-7.922l-6.519-71.209c-0.079-0.864-0.421-1.683-0.979-2.347
		C246.042,98.116,241.567,93.03,234.634,93.03z M249.442,179.522c0.544,0.078,1.122,0.536,1.173,1.261l0.182,2.526
		c0.036,0.495-0.193,0.839-0.332,1c-0.14,0.161-0.447,0.437-0.942,0.472l-16.275,1.171l-0.104,0.004
		c-0.716,0-1.318-0.562-1.37-1.278l-0.182-2.526c-0.052-0.726,0.454-1.262,0.98-1.415c1.95-0.571,3.224-2.443,3.039-4.466
		l-6.587-71.966c1.93-1.843,3.813-2.775,5.611-2.775c1.947,0,3.609,1.08,4.553,1.857l6.62,72.316
		C245.987,177.664,247.491,179.245,249.442,179.522z"/>
	<path d="M298.701,194.912l16.236,1.628c0.334,0.034,0.666,0.05,0.994,0.05c5.09,0,9.311-3.823,9.82-8.892l0.252-2.519
		c0.339-3.372-1.108-6.62-3.637-8.671l5.754-71.277c0.069-0.864-0.127-1.729-0.564-2.479c-1.69-2.905-6.359-7.823-13.134-7.823
		c-3.911,0-7.889,1.609-11.823,4.784c-0.907,0.732-1.474,1.804-1.568,2.966l-5.747,71.183c-2.827,1.524-4.84,4.389-5.174,7.716
		l-0.254,2.52C289.315,189.516,293.281,194.367,298.701,194.912z M298.569,182.426c0.072-0.724,0.662-1.166,1.208-1.227
		c2.019-0.229,3.594-1.855,3.757-3.881l5.816-72.034c1.838-1.231,3.539-1.854,5.073-1.854c2.388,0,4.179,1.624,5.098,2.689
		l-5.843,72.383c-0.158,1.963,1.054,3.779,2.928,4.385c0.522,0.169,1.013,0.719,0.939,1.444l-0.252,2.519
		c-0.074,0.743-0.743,1.315-1.507,1.232l-16.236-1.628c-0.756-0.076-1.31-0.753-1.234-1.508L298.569,182.426z"/>
	<path d="M383.244,138.032c-1.631-2.803-6.135-7.546-12.675-7.546c-3.77,0-7.598,1.546-11.379,4.597
		c-0.892,0.719-1.455,1.768-1.563,2.908l-5.425,57.451c-2.718,1.49-4.65,4.259-4.972,7.471l-0.24,2.397
		c-0.528,5.269,3.328,9.986,8.599,10.516l15.448,1.55c0.324,0.032,0.647,0.048,0.966,0.048c4.949,0,9.055-3.717,9.549-8.646
		l0.24-2.396c0.324-3.225-1.031-6.335-3.417-8.333l5.426-57.479C383.886,139.686,383.691,138.799,383.244,138.032z M372.583,204.376
		c0.418,0.135,0.811,0.576,0.752,1.157l-0.24,2.397c-0.06,0.595-0.604,1.056-1.208,0.988l-15.448-1.549
		c-0.606-0.061-1.05-0.604-0.989-1.21l0.24-2.397c0.059-0.581,0.53-0.934,0.967-0.983c1.998-0.227,3.564-1.822,3.753-3.824
		l5.503-58.275c1.692-1.124,3.254-1.692,4.657-1.692c2.13,0,3.75,1.417,4.618,2.399l-5.527,58.548
		C369.473,201.916,370.688,203.763,372.583,204.376z"/>
	<path d="M251.179,197.774l-16.305,0.631c-2.637,0.102-5.075,1.225-6.867,3.161c-1.792,1.936-2.722,4.455-2.62,7.09l0.098,2.532
		c0.131,3.386,2.013,6.403,4.801,8.085l3.993,68.61c-2.589,1.9-4.187,5.015-4.058,8.358l0.099,2.529
		c0.205,5.325,4.539,9.496,9.866,9.496c0.128,0,0.257-0.002,0.386-0.008l16.307-0.631c5.442-0.212,9.697-4.811,9.486-10.253
		l-0.098-2.529c-0.131-3.385-2.012-6.402-4.8-8.085l-3.994-68.611c2.588-1.9,4.186-5.016,4.057-8.356l-0.098-2.532
		C261.221,201.808,256.701,197.558,251.179,197.774z M257.773,295.174l0.099,2.53c0.029,0.758-0.564,1.399-1.323,1.429
		l-16.305,0.631l-0.057,0.001c-0.741,0-1.345-0.582-1.374-1.325l-0.098-2.529c-0.028-0.728,0.495-1.246,1.025-1.383
		c1.969-0.505,3.304-2.334,3.186-4.363l-4.31-74.068c-0.114-1.967-1.566-3.597-3.506-3.938c-0.541-0.095-1.104-0.572-1.131-1.299
		l-0.098-2.532c-0.019-0.495,0.221-0.831,0.365-0.987c0.145-0.157,0.461-0.421,0.957-0.441l16.362-0.632
		c0.742,0,1.345,0.581,1.374,1.322l0.098,2.532c0.028,0.727-0.496,1.247-1.028,1.384c-1.967,0.507-3.301,2.335-3.183,4.363
		l4.311,74.066c0.114,1.966,1.564,3.596,3.504,3.938C257.182,293.968,257.745,294.445,257.773,295.174z"/>
	<path d="M276.596,306.652l15.88,3.758c0.748,0.177,1.514,0.267,2.278,0.267c4.597,0,8.548-3.127,9.607-7.604l0.583-2.464
		c0.78-3.296-0.225-6.708-2.461-9.075l14.521-67.156c3.021-1.122,5.37-3.686,6.15-6.982l0.584-2.467
		c1.252-5.299-2.04-10.631-7.339-11.884l-15.878-3.757c-0.749-0.178-1.517-0.268-2.282-0.268c-4.596,0-8.545,3.127-9.605,7.604
		l-0.583,2.464c-0.78,3.297,0.224,6.708,2.46,9.075l-14.521,67.156c-3.021,1.122-5.37,3.686-6.151,6.984l-0.582,2.463
		C268.005,300.065,271.296,305.397,276.596,306.652z M277.531,296.722l0.582-2.462c0.165-0.694,0.795-1.058,1.359-1.058h0.001
		c2.048,0.056,3.807-1.365,4.236-3.35l15.68-72.517c0.417-1.926-0.545-3.885-2.323-4.734c-0.495-0.236-0.909-0.846-0.741-1.555
		l0.583-2.464c0.197-0.835,0.999-1.179,1.657-1.021l15.88,3.757c0.738,0.175,1.197,0.918,1.022,1.656l-0.583,2.465
		c-0.172,0.727-0.811,1.058-1.359,1.058h-0.001c-2.045-0.044-3.806,1.365-4.235,3.351l-15.68,72.517
		c-0.417,1.925,0.544,3.884,2.322,4.733c0.496,0.237,0.911,0.847,0.743,1.556l-0.583,2.464c-0.197,0.834-1.008,1.179-1.656,1.023
		l-15.879-3.758C277.815,298.206,277.356,297.462,277.531,296.722z"/>
	<path d="M366.866,222.641l-14.528-5.478c-1.089-0.41-2.229-0.618-3.386-0.618c-3.974,0-7.585,2.499-8.987,6.217l-0.852,2.258
		c-1.148,3.047-0.628,6.418,1.184,8.968l-21.796,61.415c-3.015,0.753-5.561,2.95-6.685,5.933l-0.85,2.255
		c-1.867,4.954,0.645,10.505,5.6,12.374l14.529,5.477c1.089,0.41,2.228,0.619,3.386,0.619c3.975,0,7.587-2.499,8.988-6.22
		l0.848-2.252c1.151-3.048,0.632-6.419-1.181-8.971l21.796-61.415c3.015-0.753,5.561-2.95,6.685-5.932l0.852-2.257
		C374.333,230.057,371.82,224.508,366.866,222.641z M364.514,232.014l-0.852,2.256c-0.211,0.56-0.754,0.765-1.188,0.702
		c-2.01-0.3-3.95,0.868-4.629,2.783l-23.61,66.529c-0.658,1.857,0.045,3.923,1.7,4.992c0.369,0.238,0.636,0.765,0.429,1.313
		l-0.849,2.254c-0.25,0.664-0.923,0.832-1.423,0.643l-14.527-5.476c-0.57-0.215-0.859-0.854-0.645-1.424l0.85-2.254
		c0.185-0.492,0.651-0.712,1.031-0.712c0.052,0,0.104,0.004,0.157,0.012c2.014,0.293,3.95-0.868,4.63-2.783l23.61-66.529
		c0.659-1.857-0.045-3.924-1.701-4.993c-0.369-0.238-0.635-0.765-0.431-1.308l0.852-2.256c0.251-0.665,0.924-0.834,1.421-0.645
		l14.529,5.478C364.438,230.809,364.727,231.447,364.514,232.014z"/>
	<path d="M131.708,163.24c0.956-1.195,1.196-2.813,0.627-4.233c-0.825-2.063-1.564-12.343-2.104-19.849
		c-0.494-6.868-1.004-13.971-1.722-19.482c-0.742-5.697-1.664-12.788-7.065-12.788c-0.863,0-1.726,0.232-2.497,0.673
		c-2.032,1.161-4.56,2.605-10.461,29.788c-2.736,12.604-4.927,25.043-4.949,25.167c-0.309,1.757,0.513,3.52,2.057,4.414
		c3.736,2.163,7.521,3.259,11.252,3.259C126.043,170.188,131.481,163.524,131.708,163.24z M120.442,123.925
		c0.544,5.182,0.985,11.311,1.311,15.843c0.652,9.061,1.147,15.532,1.905,19.476c-1.392,1.091-3.74,2.445-6.813,2.445
		c-1.408,0-2.872-0.287-4.374-0.857C114.893,147.464,117.942,133.145,120.442,123.925z"/>
	<path d="M173.628,95.114c-0.469,1.687,0.145,3.489,1.546,4.538c0.752,0.564,1.649,0.849,2.549,0.849
		c0.775,0,1.552-0.212,2.241-0.639c2.37-1.471,10.274-5.669,15.339-5.669c0.851,0,1.549,0.124,2.019,0.359
		c0.602,0.301,1.253,0.449,1.9,0.449c0.007,0,0.014,0.001,0.02,0c2.347,0,4.25-1.903,4.25-4.25c0-0.454-0.071-0.891-0.203-1.301
		c-0.999-4.587-9.319-41.581-22.878-65.308c-0.979-1.713-3.007-2.527-4.898-1.966c-1.891,0.561-3.148,2.349-3.035,4.318
		C173.817,49.807,175.311,89.051,173.628,95.114z M193.697,85.764c-3.741,0.322-7.71,1.688-10.995,3.124
		c0.415-10.452-0.088-27.32-0.662-41.039C187.679,62.465,191.722,77.682,193.697,85.764z"/>
	<path d="M353.674,128.152c0.752,0.564,1.649,0.849,2.549,0.849c0.775,0,1.553-0.212,2.241-0.639
		c2.369-1.471,10.273-5.669,15.339-5.669c0.851,0,1.549,0.124,2.018,0.359c0.603,0.301,1.253,0.449,1.9,0.449
		c0.007,0.001,0.013,0,0.021,0c2.348,0,4.25-1.903,4.25-4.25c0-0.45-0.069-0.884-0.199-1.292
		c-0.899-4.163-7.899-35.224-21.381-58.816c-0.971-1.698-2.975-2.514-4.855-1.979c-1.881,0.537-3.153,2.288-3.081,4.243
		c0.764,20.817,1.345,56.114-0.348,62.207C351.659,125.301,352.273,127.102,353.674,128.152z M361.531,81.169
		c5.278,13.041,8.844,25.902,10.649,33.097c-3.684,0.32-7.59,1.651-10.843,3.063C361.887,107.79,361.774,93.177,361.531,81.169z"/>
	<path d="M300.628,87.114c-0.395,1.422-0.023,2.947,0.98,4.028c1.004,1.082,2.498,1.565,3.945,1.277
		c0.056-0.011,5.673-1.115,11.325-1.115c4.74,0,7.012,0.782,7.943,1.248c0.603,0.301,1.253,0.449,1.9,0.449c0.007,0,0.015,0,0.021,0
		c2.348,0,4.25-1.903,4.25-4.25c0-0.454-0.071-0.891-0.202-1.301c-0.999-4.587-9.319-41.581-22.878-65.308
		c-0.977-1.711-3.002-2.527-4.892-1.968c-1.89,0.557-3.149,2.34-3.042,4.308C301.124,45.478,302.313,81.047,300.628,87.114z
		 M321.007,82.988c-1.278-0.123-2.652-0.184-4.129-0.184c-2.582,0-5.115,0.193-7.25,0.428c0.607-9.104,0.272-24.69-0.194-37.66
		C314.952,59.818,318.955,74.68,321.007,82.988z"/>
	<path d="M216.628,88.114c-0.469,1.687,0.145,3.489,1.546,4.538c0.752,0.564,1.649,0.849,2.549,0.849
		c0.775,0,1.552-0.212,2.241-0.639c2.37-1.471,10.274-5.669,15.339-5.669c0.851,0,1.549,0.124,2.019,0.359
		c0.602,0.301,1.253,0.449,1.9,0.449c0.007,0,0.012,0.001,0.02,0c2.347,0,4.25-1.903,4.25-4.25c0-0.473-0.077-0.927-0.22-1.352
		c-1.264-5.494-13.193-56.338-26.86-80.256c-0.995-1.742-3.07-2.552-4.981-1.941c-1.91,0.609-3.135,2.471-2.938,4.466
		C215.091,41.129,218.113,82.765,216.628,88.114z M236.659,78.768c-3.829,0.337-7.896,1.764-11.219,3.236
		c0.053-12.246-1.553-34.077-3.074-51.901C228.885,48.321,234.226,68.883,236.659,78.768z"/>
	<path d="M213.07,416.442c-2.339-0.2-4.391,1.549-4.583,3.889l-5,61c-0.192,2.339,1.549,4.391,3.889,4.583
		c0.118,0.01,0.235,0.014,0.352,0.014c2.189,0,4.049-1.682,4.231-3.903l5-61C217.15,418.685,215.409,416.634,213.07,416.442z"/>
</g>
<g>
</g>
<g>
</g>
<g>
</g>
<g>
</g>
<g>
</g>
<g>
</g>
<g>
</g>
<g>
</g>
<g>
</g>
<g>
</g>
<g>
</g>
<g>
</g>
<g>
</g>
<g>
</g>
<g>
</g>
</svg>
