<?xml version="1.0" encoding="iso-8859-1"?>
<!-- Generator: Adobe Illustrator 18.0.0, SVG Export Plug-In . SVG Version: 6.00 Build 0)  -->
<!DOCTYPE svg PUBLIC "-//W3C//DTD SVG 1.1//EN" "http://www.w3.org/Graphics/SVG/1.1/DTD/svg11.dtd">
<svg version="1.1" id="Capa_1" xmlns="http://www.w3.org/2000/svg" xmlns:xlink="http://www.w3.org/1999/xlink" x="0px" y="0px"
	 viewBox="0 0 498.502 498.502" style="enable-background:new 0 0 498.502 498.502;" xml:space="preserve">
<g>
	<path d="M492.953,442.006c-20.97-0.997-34.471,6.472-36.248,7.517c-33.657,16.917-65.039,25.688-93.277,26.066
		c-23.118,0.289-43.87-5.188-59.95-15.9c-9.615-6.405-17.232-14.507-22.133-23.098h48.618c2.347,0,4.25-1.902,4.25-4.25
		c0-2.348-1.903-4.25-4.25-4.25h-52.511c-1.762-5.069-2.546-10.172-2.198-15.076c0.617-8.699,4.996-15.422,12.33-18.93
		c27.225-13.02,56.107-50.569,57.316-90.868c0.673-22.451-7.123-53.98-48.089-76.684c-38.909-21.564-70.251-24.149-93.135-26.036
		c-26.583-2.192-35.538-2.931-33.687-27.933c0.467-6.303,0.456-13.379,0.08-20.96h104.398c2.347,0,4.25-1.903,4.25-4.25
		c0-2.347-1.903-4.25-4.25-4.25H169.514c-0.553-6.906-1.361-14.129-2.355-21.498h27.811c2.347,0,4.25-1.903,4.25-4.25
		s-1.903-4.25-4.25-4.25h-29.026c-7.769-51.429-23.18-106.723-24.102-110.005c-0.634-2.26-2.985-3.579-5.24-2.943
		c-2.26,0.634-3.578,2.98-2.943,5.24c0.318,1.133,31.752,113.903,27.853,166.538c-2.475,33.409,15.956,34.929,41.464,37.032
		c22.116,1.824,52.404,4.321,89.714,24.999c37.221,20.628,44.316,48.905,43.713,68.994c-1.097,36.567-28.099,71.791-52.487,83.455
		c-10.211,4.884-16.299,14.116-17.142,25.996c-1.359,19.164,11.198,40.497,31.99,54.35c17.051,11.359,38.732,17.339,62.811,17.339
		c0.653,0,1.309-0.005,1.966-0.014c29.574-0.397,62.25-9.495,97.119-27.04c0.099-0.05,0.209-0.112,0.304-0.169
		c0.121-0.074,12.295-7.301,31.583-6.383c2.337,0.102,4.336-1.698,4.447-4.043C497.108,444.109,495.298,442.118,492.953,442.006z"/>
	<path d="M308.938,309.509c0.692-17.329-5.402-41.618-38.362-58.921c-34.871-18.307-58.299-21.688-76.617-22.582
		c-14.241-0.693-52.025-2.538-74.762,35.906c-1.535,2.066-21.812,28.511-49.789,24.14c-4.088-0.639-8.216-1.404-12.208-2.144
		c-18.002-3.337-35.006-6.489-45.749,2.447c-6.694,5.567-9.949,15.02-9.949,28.896c0,21.174,15.877,34.796,34.261,50.57
		c20.864,17.901,44.511,38.19,51.801,75.155l9,52c0.358,2.067,2.154,3.526,4.183,3.526c0.241,0,0.484-0.021,0.729-0.063
		c2.313-0.4,3.863-2.6,3.463-4.912l-9.018-52.098c-7.411-37.586-30.789-59.493-50.874-76.834H59.72
		c2.916,2.575,6.825,5.978,9.418,8.186c19.455,16.564,39.571,33.693,46.77,70.194l9,52c0.357,2.067,2.153,3.526,4.183,3.526
		c0.241,0,0.484-0.021,0.729-0.063c2.313-0.4,3.863-2.6,3.463-4.912l-9.018-52.098c-7.79-39.505-29.053-57.61-49.617-75.12
		c-0.662-0.564-1.337-1.143-2.006-1.714h36.832c2.347,0,4.25-1.902,4.25-4.25c0-2.347-1.903-4.25-4.25-4.25H35.979
		c-0.244,0-0.479,0.032-0.712,0.072c-13.138-11.465-23.172-21.574-24.97-34.665h48.181c2.347,0,4.25-1.903,4.25-4.25
		c0-2.347-1.903-4.25-4.25-4.25H10.123c0.521-8.82,2.745-14.77,6.762-18.11c7.68-6.386,22.779-3.588,38.765-0.625
		c4.05,0.751,8.238,1.527,12.445,2.185c2.654,0.414,5.237,0.606,7.75,0.606c29.883-0.001,49.486-27.097,50.372-28.346
		c0.07-0.099,0.136-0.2,0.197-0.305c17.833-30.315,45.246-32.976,67.13-31.91c17.391,0.848,39.674,4.08,73.08,21.618
		c29.029,15.24,34.415,36.176,33.82,51.056c-0.006,0.143-0.02,0.284-0.027,0.427H215.97c-2.347,0-4.25,1.903-4.25,4.25
		c0,2.347,1.903,4.25,4.25,4.25h83.395c-4.629,23.415-22.902,44.153-39.494,51.239l-1.978,0.841
		c-18.085,7.675-54.12,22.975-54.974,56.414h-28.947c-2.347,0-4.25,1.902-4.25,4.25c0,2.348,1.903,4.25,4.25,4.25h29.465
		c0.039,0.274,0.072,0.546,0.116,0.823c1.393,8.824,2.942,16.721,4.503,23.676h-35.584c-2.347,0-4.25,1.902-4.25,4.25
		c0,2.348,1.903,4.25,4.25,4.25h37.608c4.458,17.651,8.514,27.249,8.765,27.835c0.924,2.157,3.421,3.156,5.577,2.232
		c2.157-0.923,3.158-3.42,2.237-5.578c-0.088-0.206-8.879-21.063-14.71-57.991c-5.279-33.437,30.203-48.496,49.265-56.587
		l1.995-0.849C284.726,367.964,307.714,340.15,308.938,309.509z"/>
	<path d="M194.804,254.07c16.009,0.78,36.521,3.756,67.285,19.907c2.078,1.089,4.647,0.291,5.739-1.788
		c1.091-2.078,0.29-4.647-1.788-5.739c-32.228-16.919-53.886-20.045-70.822-20.871c-13.215-0.647-48.307-2.356-69.373,33.458
		c-1.19,2.023-0.515,4.628,1.508,5.818c0.677,0.398,1.418,0.587,2.151,0.587c1.457,0,2.875-0.749,3.667-2.096
		C149.534,255.531,174.703,253.089,194.804,254.07z"/>
	<path d="M416.62,327.704c-6.552,0-13.133,1.052-19.561,3.126c-28.238,9.116-45.069,35.561-37.521,58.953
		c5.689,17.627,23.487,29.017,45.342,29.017c6.552,0,13.133-1.052,19.561-3.127c28.237-9.116,45.069-35.562,37.52-58.952
		C456.274,339.093,438.476,327.704,416.62,327.704z M421.831,407.584c-5.582,1.802-11.285,2.716-16.949,2.716
		c-18.096,0-32.719-9.078-37.253-23.128c-6.109-18.93,8.265-40.577,32.043-48.253c5.582-1.802,11.285-2.715,16.949-2.715
		c18.097,0,32.719,9.078,37.253,23.127C459.983,378.261,445.608,399.908,421.831,407.584z"/>
	<path d="M227.969,72.11h49.921c4.209,19.394,18.071,68.313,56.939,111.67c39.617,44.192,92.619,69.611,157.535,75.551
		c0.132,0.012,0.262,0.018,0.392,0.018c2.172,0,4.025-1.658,4.228-3.863c0.214-2.337-1.508-4.406-3.845-4.62
		C333.744,236.281,293.907,104.007,286.6,72.11h17.53c3.032,11.701,7.109,24.212,12.593,36.947
		c13.554,31.477,32.913,57.646,57.542,77.782c30.747,25.137,69.761,40.826,115.957,46.629c0.18,0.022,0.358,0.034,0.535,0.034
		c2.111,0,3.941-1.572,4.211-3.721c0.293-2.329-1.358-4.454-3.687-4.747c-80.814-10.152-136.876-50.21-166.631-119.061
		C302.328,54.322,303.979,4.913,303.998,4.419c0.092-2.345-1.734-4.321-4.079-4.414c-2.349-0.096-4.321,1.731-4.415,4.076
		c-0.036,0.885-0.36,10.346,1.044,25.03h-46.081c-2.347,0-4.25,1.903-4.25,4.25c0,2.347,1.903,4.25,4.25,4.25h47.029
		c0.989,7.758,2.442,16.54,4.573,25.999h-74.102c-2.347,0-4.25,1.903-4.25,4.25C223.719,70.207,225.622,72.11,227.969,72.11z"/>
</g>
<g>
</g>
<g>
</g>
<g>
</g>
<g>
</g>
<g>
</g>
<g>
</g>
<g>
</g>
<g>
</g>
<g>
</g>
<g>
</g>
<g>
</g>
<g>
</g>
<g>
</g>
<g>
</g>
<g>
</g>
</svg>
