<?xml version="1.0" encoding="iso-8859-1"?>
<!-- Generator: Adobe Illustrator 18.0.0, SVG Export Plug-In . SVG Version: 6.00 Build 0)  -->
<!DOCTYPE svg PUBLIC "-//W3C//DTD SVG 1.1//EN" "http://www.w3.org/Graphics/SVG/1.1/DTD/svg11.dtd">
<svg version="1.1" id="Capa_1" xmlns="http://www.w3.org/2000/svg" xmlns:xlink="http://www.w3.org/1999/xlink" x="0px" y="0px"
	 viewBox="0 0 481.207 481.207" style="enable-background:new 0 0 481.207 481.207;" xml:space="preserve">
<g>
	<path d="M241.392,55.136c-82.721,98.891-97.085,133.298-97.085,133.298c-4.188-2.442-9.753-3.052-11.305-3.176
		C41.924,176.161,9.075,162.802,8.759,162.671c-1.305-0.548-2.795-0.411-3.977,0.364c-1.183,0.775-1.902,2.089-1.919,3.504L0,407.93
		c-0.021,1.763,1.048,3.354,2.687,4.003c21.862,8.643,135.484,14.451,231.293,15.527c8.015,0.091,19.127,0.177,32.226,0.177
		c65.281,0,179.857-2.145,205.811-16.655c3.967-2.219,6.255-4.905,6.799-7.987c5.737-32.513-0.619-201.612-0.892-208.795
		c-0.044-1.165-0.565-2.262-1.441-3.031c-0.876-0.77-2.024-1.147-3.191-1.04c-0.757,0.069-76.317,6.812-132.675-0.088
		c-21.353-2.615-34.787-1.525-51.792-0.146c-20.826,1.689-46.744,3.792-99.659,0.124c-3.053-0.213-7.521,0.771-11.427,2.642
		c0.352-15.149,0.474-33.732,13.993-60.409c6.058-11.955,55.759-71.141,56.254-71.748c1.481-1.821,1.207-4.498-0.613-5.979
		C245.551,53.042,242.875,53.316,241.392,55.136z M9.924,287.945h59.96c2.347,0,4.25-1.902,4.25-4.25c0-2.347-1.903-4.25-4.25-4.25
		h-59.86l0.653-55.042c10.495,0.453,38.856,2.399,57.219,10.48c15.252,6.711,30.462,8.035,40.098,8.035
		c3.407,0,6.113-0.165,7.882-0.317c0.34,10.64,3.131,20.749,10.327,28.099c4.825,4.928,10.463,8.311,16.452,10.06
		c-0.75,5.769-2.361,17.061-4.813,28.666c-5.33,25.228-11.457,33.144-14.152,35.39C67.143,338.161,20.276,328.072,9.476,325.66
		L9.924,287.945z M146.159,311.181c2.498-11.822,4.118-23.098,4.895-29.065c0.402,0.014,0.803,0.031,1.206,0.031
		c0.355,0,0.711-0.013,1.067-0.023c-2.03,13.674-5.903,48.491,3.969,66.074c-7.76-0.642-15.44-1.382-22.985-2.191
		C137.971,340.517,142.097,330.409,146.159,311.181z M168.92,349.084c-10.962-11.718-9.299-51.567-6.754-68.388
		c0.685-0.201,1.368-0.416,2.049-0.66c11.785-4.227,21.051-13.783,26.294-26.454c10.434-1.451,22.871-0.094,35.228,3.879l2.45,0.79
		c12.436,4.023,23.18,7.494,38.366,6.073c2.582-0.242,5.26-0.561,8.096-0.899c14.26-1.7,32.005-3.816,60.469,0.862
		c9.907,1.628,15.258,2.72,18.455,3.371c5.586,1.139,6.002,1.159,11.155,0.531c2.784-0.34,6.991-0.853,14.828-1.475
		c28.978-2.31,91.458,14.02,92.086,14.185c0.098,0.025,0.197,0.039,0.294,0.058c0.083,3.911,0.162,7.857,0.234,11.82h-49.619
		c-2.348,0-4.25,1.903-4.25,4.25c0,2.348,1.902,4.25,4.25,4.25h49.767c0.147,9.04,0.261,18.073,0.325,26.834H360.551
		c-2.348,0-4.25,1.902-4.25,4.25c0,2.347,1.902,4.25,4.25,4.25h112.139c0.032,8.996,0.005,17.596-0.101,25.495
		c-20.087-1.172-173.793-10.001-264.572-11.329C195.03,350.588,181.908,349.983,168.92,349.084z M289.512,198.367
		c16.523-1.341,29.574-2.398,50.071,0.11c49.273,6.033,112.784,1.819,130.009,0.483c0.387,10.808,1.387,39.999,2.149,73.187
		c-11.363-2.896-65.141-16.103-92.859-13.906c-8.016,0.637-12.503,1.184-15.184,1.511c-3.979,0.485-3.978,0.485-8.427-0.422
		c-3.257-0.664-8.708-1.775-18.775-3.431c-29.651-4.874-48.842-2.586-62.854-0.915c-2.78,0.332-5.407,0.646-7.882,0.877
		c-13.449,1.26-22.94-1.81-34.958-5.697l-2.464-0.796c-12.014-3.861-24.2-5.452-34.956-4.635c0.781-3.215,1.333-6.568,1.633-10.036
		c0.004-0.053,0.008-0.107,0.011-0.159l1.722-35.508C244.849,201.984,269.507,199.989,289.512,198.367z M175.273,154.028
		c-6.817,24.159-6.313,39.688-5.822,54.824c0.279,8.596,0.567,17.483-0.547,27.889c-1.146,10.697-5.526,16.121-13.016,16.121
		c-4.744-0.001-9.149-2.271-10.762-3.885C127.515,231.367,153.459,185.019,175.273,154.028z M139.115,254.987
		c3.172,3.173,9.589,6.374,16.772,6.375h0c5.691,0,19.174-2.312,21.467-23.716c1.178-10.994,0.88-20.183,0.592-29.069
		c-0.06-1.862-0.121-3.714-0.168-5.573c0.032-0.058,0.075-0.105,0.105-0.166c0.82-1.64,6.988-4.381,10.379-4.343l-1.725,35.549
		c-1.594,18.166-11.477,33.072-25.194,37.991c-10.315,3.701-20.913,1.048-29.068-7.283c-17.375-17.745-1.792-59.31,2.913-70.598
		c2.416,0.49,4.613,1.264,5.418,1.963C128.077,223.66,127.553,243.426,139.115,254.987z M126.404,193.126
		c-3.306,8.219-9.056,24.491-10.315,40.912c-4.479,0.438-24.878,1.815-44.77-6.936c-20.045-8.82-49.729-10.783-60.541-11.213
		l0.513-43.301C23.89,176.69,58.102,185.984,126.404,193.126z M466.169,404.417c-23.01,10.478-113.532,16.031-236.239,14.495
		c-103.344-1.294-197.948-7.337-221.393-13.984l0.21-17.648h61.138c2.347,0,4.25-1.903,4.25-4.25c0-2.348-1.903-4.25-4.25-4.25
		H8.847l0.527-44.435c20.441,4.496,112.381,23.673,198.519,24.934c91.153,1.334,246.007,10.253,264.545,11.336
		c-0.105,4.627-0.243,8.931-0.42,12.832h-56.133c-2.347,0-4.25,1.903-4.25,4.25c0,2.348,1.903,4.25,4.25,4.25h55.637
		c-0.292,3.902-0.644,7.138-1.068,9.538C470.449,401.495,469.935,402.702,466.169,404.417z"/>
	<path d="M143.58,378.779H96.519c-2.347,0-4.25,1.902-4.25,4.25c0,2.347,1.903,4.25,4.25,4.25h47.061c2.347,0,4.25-1.903,4.25-4.25
		C147.83,380.681,145.928,378.779,143.58,378.779z"/>
</g>
<g>
</g>
<g>
</g>
<g>
</g>
<g>
</g>
<g>
</g>
<g>
</g>
<g>
</g>
<g>
</g>
<g>
</g>
<g>
</g>
<g>
</g>
<g>
</g>
<g>
</g>
<g>
</g>
<g>
</g>
</svg>
