<?xml version="1.0" encoding="iso-8859-1"?>
<!-- Generator: Adobe Illustrator 18.0.0, SVG Export Plug-In . SVG Version: 6.00 Build 0)  -->
<!DOCTYPE svg PUBLIC "-//W3C//DTD SVG 1.1//EN" "http://www.w3.org/Graphics/SVG/1.1/DTD/svg11.dtd">
<svg version="1.1" id="Capa_1" xmlns="http://www.w3.org/2000/svg" xmlns:xlink="http://www.w3.org/1999/xlink" x="0px" y="0px" fill="#5894B5"
	 viewBox="0 0 494.636 494.636" style="enable-background:new 0 0 494.636 494.636;" xml:space="preserve">
<g>
	<path d="M294.747,215.753c-3.148-8.837-6.122-17.183-8.935-25.737c-23.191-70.541,28.29-182.134,28.813-183.253
		c0.993-2.127,0.075-4.656-2.051-5.649c-2.127-0.995-4.656-0.076-5.649,2.05c-0.099,0.212-7.447,16.037-15.404,39.382
		c-6.418-4.023-18.976-9.963-35.309-8.352c9.419-17.222,16.717-27.251,16.846-27.427c1.389-1.892,0.982-4.551-0.909-5.94
		c-1.891-1.39-4.55-0.985-5.94,0.906c-0.602,0.819-9.745,13.367-20.821,34.586c-0.292,0.085-0.578,0.156-0.871,0.247
		c-5.682,1.758-12.857,2.062-19.186,2.33c-10.486,0.444-20.391,0.864-21.64,8.804c-0.085,0.538-0.195,1.152-0.316,1.826
		c-1.081,6.026-3.095,17.244,3.907,23.4c4.398,3.868,11.105,4.725,20.386,2.605c-0.98,2.54-1.951,5.123-2.905,7.767
		c-2.245,6.226-4.45,12.918-6.531,19.994c-6.237,3.682-13.936,4.244-20.753,4.733c-8.805,0.633-18.784,1.35-19.765,11.183
		c-0.05,0.5-0.11,1.036-0.173,1.602c-0.684,6.1-1.829,16.31,5.274,21.739c2.715,2.074,6.248,3.113,10.652,3.113
		c4.369,0,9.606-1.036,15.736-3.085c-1.931,11.684-3.28,23.98-3.788,36.74c-5.189,1.468-10.265,1.829-14.651,2.136
		c-7.845,0.548-16.737,1.17-17.714,10.395c-0.586,5.538-2.37,22.391,7.881,29.309c2.718,1.834,5.896,2.753,9.571,2.753
		c4.616,0,10.027-1.474,16.276-4.382c0.999,9.125,2.508,18.389,4.601,27.748c-4.537,1.252-9.37,1.615-13.834,1.948
		c-8.521,0.637-18.18,1.358-19.161,10.624l-0.011,0.104c-0.68,6.418-2.271,21.45,7.128,28.152c6.702,4.778,16.648,3.976,30.41-2.459
		c1.905-0.891,3.853-1.66,5.833-2.328c4.005,13.403,7.27,26.214,9.929,38.399c-0.216,0.075-0.432,0.143-0.648,0.22
		c-6.761,2.423-14.348,2.395-21.038,2.377c-9.729-0.031-19.796-0.064-21.858,9.44l-0.196,0.893
		c-1.49,6.747-4.262,19.307,3.549,26.692c5.959,5.634,16.081,6.348,30.944,2.181c5.411-1.517,10.793-2.35,16.137-2.507
		c1.323,10.051,2.222,19.49,2.789,28.278c-0.259,0.019-0.516,0.029-0.776,0.053c-6.476,0.567-12.049-0.188-16.967-0.854
		c-8.295-1.124-16.873-2.287-20.48,7.307c-1.274,3.39-5.151,13.706,0.78,22.272c5.344,7.718,16.639,11.471,34.531,11.473
		c1.146,0,2.271,0.047,3.374,0.135c-0.009,0.197-0.017,0.403-0.026,0.6c-1.777,37.064-9.077,57.75-9.148,57.95
		c-0.798,2.207,0.344,4.644,2.551,5.442c0.478,0.172,0.965,0.254,1.445,0.254c1.739,0,3.372-1.075,3.997-2.806
		c0.315-0.87,7.723-21.736,9.616-59.846c25.664,7.753,37.073,39.263,38.982,45.097c-1.411,4.121-2.892,8.307-4.446,12.558
		c-0.806,2.205,0.329,4.645,2.533,5.451c0.481,0.176,0.974,0.259,1.458,0.259c1.734,0,3.363-1.069,3.992-2.792
		C343.574,352.791,317.634,279.986,294.747,215.753z M302.4,432.089c-7.801-14.525-25.205-39.934-52.528-42.689
		c-0.55-8.732-1.418-18.091-2.695-28.043c12.85,1.395,25.449,6.763,37.665,16.091c13.647,10.422,22.185,22.507,23.871,24.998
		C307.062,411.906,304.972,421.775,302.4,432.089z M290.217,370.858c-14.036-10.774-29.004-16.845-44.218-18.079
		c-1.177-7.98-2.626-16.319-4.37-24.978c34.743-6.879,66.965,22.234,72.07,27.113c-0.341,11.281-1.342,23.186-3.135,35.829
		C306.167,385.331,299.287,377.82,290.217,370.858z M225.676,267.407c-1.636-5.018-3.062-10.017-4.333-14.995
		c0.898-0.487,1.786-1.011,2.653-1.601c30.762-20.899,72.213,4.249,75.848,6.535c2.842,9.354,5.439,18.979,7.601,29.039
		c-14.833-6.729-49.089-19.779-79.987-13.4C226.874,271.134,226.286,269.278,225.676,267.407z M296.076,245.482
		c-15.57-7.886-49.022-20.543-76.776-1.754c-2.06-9.534-3.512-18.97-4.412-28.25c38.098-18.049,66.463-0.75,71.773,2.906
		c0.026,0.073,0.053,0.148,0.079,0.221C289.899,227.47,293.07,236.377,296.076,245.482z M213.739,185.347
		c1.566-0.684,3.137-1.468,4.701-2.393c24.268-14.371,50.394-4.209,56.213-1.614c0.866,3.915,1.889,7.696,3.084,11.331
		c1.485,4.516,3.048,9.066,4.633,13.594c-13.153-6.149-37.812-13.056-68.179,0.198C213.754,199.312,213.608,192.264,213.739,185.347
		z M232.669,86.429c0.166-0.462,0.336-0.912,0.504-1.372c4.643-1.303,12.024-2.789,15.008-2.245
		c2.314,0.416,4.522-1.112,4.942-3.422c0.42-2.31-1.112-4.522-3.421-4.941c-3.536-0.642-8.688,0.1-12.856,0.968
		c0.365-0.92,0.73-1.837,1.099-2.742c23.545-6.062,38.399,0.409,43.545,3.359c-2.081,8.085-3.844,15.926-5.292,23.519
		c-8.76-3.471-27.757-8.934-47.478-1.478C230.01,94.039,231.332,90.144,232.669,86.429z M225.446,108.919
		c20.337-11.182,42.003-3.829,49.231-0.772c-1.321,8.118-2.264,15.938-2.823,23.45c-9.028-3.507-28.014-8.565-51.567-1.873
		C221.833,122.481,223.575,115.528,225.446,108.919z M288.759,50.895c-1.702,5.306-3.395,10.906-5.019,16.73
		c-6.998-3.506-21.214-8.355-41.732-4.552c3.105-7.061,6.233-13.592,9.247-19.499C269.981,39.454,283.873,47.456,288.759,50.895z
		 M230.597,65.93c-8.73,2.756-15.018,2.976-17.703,0.613c-3.401-2.991-1.939-11.139-1.153-15.516
		c0.121-0.674,0.232-1.292,0.321-1.844c1.529-1.282,8.789-1.59,13.629-1.796c4.693-0.198,9.812-0.43,14.738-1.218
		c-2.901,5.976-5.863,12.474-8.781,19.447C231.295,65.725,230.952,65.817,230.597,65.93z M187.976,135.795
		c-3.282-2.509-2.504-9.447-1.99-14.038c0.067-0.602,0.131-1.173,0.185-1.705c0.231-2.319,3.178-2.92,11.916-3.548
		c5.212-0.374,11.302-0.813,17.234-2.693c-1.591,6.126-3.064,12.496-4.366,19.097C195.564,138.908,189.952,137.305,187.976,135.795z
		 M215.732,156.941c0.274-0.321,8.182-8.8,22.038-6.582c2.311,0.364,4.497-1.207,4.868-3.525c0.371-2.317-1.208-4.497-3.525-4.868
		c-9.764-1.563-16.979,0.674-21.729,3.258c0.325-2.02,0.664-4.025,1.023-6.008c25.9-8.846,46.643-1.392,52.957,1.41
		c-0.375,10.992,0.121,21.277,1.495,30.828c-11.483-4.1-35.458-9.606-58.749,4.186c-0.001,0-0.002,0.001-0.003,0.001
		C214.451,169.298,215.001,163.018,215.732,156.941z M185.684,214.111c-2.744-1.852-5.697-7.063-4.183-21.368
		c0.178-1.683,1.424-2.222,9.854-2.811c3.979-0.277,8.76-0.619,13.856-1.791c-0.061,7.322,0.152,14.774,0.716,22.343
		C196.444,215.39,189.45,216.653,185.684,214.111z M212.308,277.946c-10.436,4.881-17.999,6.001-21.874,3.238
		c-5.359-3.821-4.134-15.395-3.61-20.337l0.011-0.104c0.202-1.905,3.508-2.457,11.341-3.042c4.633-0.346,9.934-0.75,15.188-2.163
		c1.251,4.816,2.65,9.651,4.232,14.504c0.564,1.728,1.105,3.44,1.645,5.15C216.893,275.975,214.577,276.885,212.308,277.946z
		 M229.969,281.17c33.116-6.355,71.82,11.776,79.521,15.624c2.583,14.505,4.199,29.964,4.34,46.823
		c-12.672-10.603-41.762-30.698-73.951-24.152C237.213,307.295,233.949,294.516,229.969,281.17z M220.129,355.336
		c-11.416,3.201-19.304,3.143-22.81-0.173c-4.313-4.078-2.215-13.579-1.089-18.684l0.203-0.923c0.544-2.51,4.746-2.762,13.523-2.743
		c6.893,0.024,15.437,0.044,23.467-2.718c1.557,7.78,2.866,15.287,3.953,22.502C231.632,352.821,225.871,353.726,220.129,355.336z
		 M238.439,421.042c-14.482-0.002-24.007-2.703-27.544-7.811c-2.317-3.347-2.257-7.936,0.188-14.443
		c1.022-2.719,2.038-3.14,11.381-1.874c5.093,0.691,11.433,1.549,18.852,0.898c0.165-0.015,0.327-0.02,0.492-0.033
		c0.367,8.502,0.429,16.313,0.284,23.393C240.897,421.09,239.681,421.042,238.439,421.042z M250.564,422.487
		c0.174-7.377,0.132-15.537-0.239-24.438c29.991,4.251,46.839,42.209,48.732,46.704c-1.71,6.149-3.582,12.446-5.637,18.914
		C287.29,450.02,274.075,428.252,250.564,422.487z"/>
	<path d="M276.341,223.495c-0.829-0.414-20.635-10.033-49.361,0.477c-2.204,0.807-3.337,3.247-2.531,5.452
		c0.63,1.722,2.258,2.79,3.992,2.79c0.485,0,0.978-0.083,1.46-0.26c25.022-9.156,42.381-0.981,42.654-0.85
		c2.096,1.039,4.64,0.186,5.687-1.908C279.292,227.098,278.441,224.545,276.341,223.495z"/>
	<path d="M258.935,308.129c0.011,0,0.022,0,0.033,0c0.156-0.001,0.309-0.002,0.464-0.002c21.346,0,38.004,11.159,38.272,11.341
		c0.735,0.504,1.572,0.746,2.4,0.746c1.352,0,2.682-0.645,3.506-1.843c1.33-1.935,0.839-4.58-1.095-5.91
		c-0.768-0.527-18.946-12.834-43.074-12.834c-0.178,0-0.359,0.001-0.538,0.002c-2.347,0.018-4.235,1.935-4.218,4.282
		C254.704,306.248,256.603,308.129,258.935,308.129z"/>
	<path d="M259.518,451.422c-2.048-1.147-4.638-0.417-5.785,1.632c-1.147,2.048-0.416,4.638,1.631,5.784
		c10.681,5.982,13.942,16.305,14.002,16.499c0.547,1.847,2.238,3.044,4.073,3.044c0.394,0,0.795-0.055,1.192-0.171
		c2.253-0.657,3.547-3.017,2.89-5.271C277.358,472.382,273.376,459.182,259.518,451.422z"/>
</g>
<g>
</g>
<g>
</g>
<g>
</g>
<g>
</g>
<g>
</g>
<g>
</g>
<g>
</g>
<g>
</g>
<g>
</g>
<g>
</g>
<g>
</g>
<g>
</g>
<g>
</g>
<g>
</g>
<g>
</g>
</svg>
