<?xml version="1.0" encoding="iso-8859-1"?>
<!-- Generator: Adobe Illustrator 18.0.0, SVG Export Plug-In . SVG Version: 6.00 Build 0)  -->
<!DOCTYPE svg PUBLIC "-//W3C//DTD SVG 1.1//EN" "http://www.w3.org/Graphics/SVG/1.1/DTD/svg11.dtd">
<svg version="1.1" id="Capa_1" xmlns="http://www.w3.org/2000/svg" xmlns:xlink="http://www.w3.org/1999/xlink" x="0px" y="0px"
	 viewBox="0 0 479.388 479.388" style="enable-background:new 0 0 479.388 479.388;" xml:space="preserve">
<g>
	<path d="M372.078,318.921c19.841-33.921,29.8-50.947,48.886-94.573c21.648-49.481,13.543-94.459,6.233-111.329
		c-13.704-31.624-17.999-38.219-41.779-64.147C365.358,27,307.872-5.4,239.024,0.767c-68.48,6.132-90.167,14.825-115.277,24.89
		l-2.416,0.968c-28.485,11.394-29.824,27.06-32.042,53.014l-0.105,1.235c-1.8,21.004,2.312,31.869,4.733,36.281
		c-3.944,9.235-19,45.764-17.588,61.999c0.559,6.425,2.382,11.388,3.99,15.767c2.91,7.92,4.371,11.896-2.842,19.508
		c-9.979,10.533-41.689,46.285-30.789,64.123c4.524,7.402,11.476,10.44,16.552,12.659c6.61,2.889,6.471,3.331,5.704,5.786
		c-6.611,21.156-6.525,38.76,0.255,52.321c3.451,6.902,6.542,9.7,8.587,11.551c1.34,1.213,1.342,1.233,1.388,1.761
		c0.174,2.009-0.902,6.678-1.978,10.98c-3.015,12.06,1.025,20.576,4.945,25.598c6.544,8.382,16.706,12.199,23.377,12.199
		c1.357,0,3.233-0.066,5.607-0.151c13.125-0.466,53.06-1.888,56.834,12.131c5.342,19.84,21.393,52.27,22.074,53.641
		c0.743,1.495,2.247,2.36,3.81,2.36c0.635,0,1.279-0.143,1.887-0.444c2.102-1.044,2.96-3.594,1.916-5.696
		c-0.163-0.328-16.357-33.047-21.479-52.07c-5.531-20.543-45.929-19.104-65.344-18.415c-2.29,0.081-4.099,0.146-5.305,0.146
		c-4.822,0-12.099-3.067-16.677-8.931c-4.008-5.134-5.151-11.292-3.398-18.305c3.39-13.559,3.116-16.518-1.952-21.104
		c-1.237-1.119-2.687-2.436-4.389-5.016c17.827-7.272,90.221-33.29,127.969,6.316c35.787,37.546,58.308,119.556,58.531,120.38
		c0.513,1.894,2.228,3.14,4.1,3.14c0.368,0,0.742-0.048,1.114-0.148c2.265-0.614,3.604-2.948,2.991-5.213
		c-0.934-3.449-23.301-84.908-60.582-124.022c-19.672-20.641-50.554-28.241-89.308-21.979c-22.289,3.602-40.94,10.685-48.654,13.898
		c-3.622-9.712-3.609-21.847,0.046-36.202c8.939-3.857,34.059-13.866,61.864-17.532c45.898-6.054,82.071,4.414,107.514,31.108
		c50.186,52.653,72.883,155.701,73.107,156.735c0.43,1.992,2.192,3.354,4.15,3.354c0.297,0,0.598-0.031,0.9-0.097
		c2.294-0.495,3.753-2.756,3.258-5.05c-0.931-4.319-23.41-106.405-75.262-160.808c-27.035-28.365-66.726-40.009-114.778-33.672
		c-26.241,3.461-48.003,11.254-58.273,15.412c0.004-6.878-6.319-9.643-11.144-11.751c-4.707-2.058-9.574-4.185-12.703-9.304
		c-5.484-8.975,10.793-33.88,29.707-53.845c10.838-11.44,7.692-20.004,4.65-28.285c-1.495-4.069-3.041-8.276-3.501-13.571
		c-1.162-13.369,12.458-47.791,17.804-59.927c0.65-1.477,0.46-3.131-0.573-4.371c-0.064-0.084-6.421-8.652-4.375-32.521l0.106-1.237
		c0.053-0.625,0.106-1.234,0.158-1.842h81.923c2.347,0,4.25-1.903,4.25-4.25c0-2.348-1.903-4.25-4.25-4.25H98.715
		c1.994-18.477,5.601-27.435,25.773-35.504l2.421-0.97c25.498-10.22,45.637-18.293,112.873-24.313
		c37.268-3.336,68.679,5.44,88.468,13.39c25.17,10.112,42.798,23.157,50.902,31.994c23.152,25.244,26.914,31.019,40.245,61.782
		c2.301,5.312,5.316,16.083,6.464,30.38h-75.979c-2.347,0-4.25,1.902-4.25,4.25c0,2.347,1.903,4.25,4.25,4.25h76.418
		c0.174,7.92-0.271,16.665-1.664,25.978h-23.037c-2.347,0-4.25,1.903-4.25,4.25c0,2.348,1.903,4.25,4.25,4.25h21.524
		c-2.062,9.959-5.249,20.444-9.948,31.185c-14.663,33.515-23.896,51.188-36.497,73.154h-58.141c-2.347,0-4.25,1.902-4.25,4.25
		c0,2.347,1.903,4.25,4.25,4.25h53.228c-2.211,3.802-4.54,7.783-7.026,12.034c-2.291,3.916-4.714,8.06-7.301,12.5
		c-13.56,23.27-14.95,55.667-4.132,96.292c7.95,29.857,19.592,52.698,20.084,53.656c1.072,2.089,3.634,2.912,5.722,1.84
		c2.088-1.072,2.912-3.634,1.84-5.722c-0.462-0.901-45.926-90.722-16.169-141.787C367.368,326.973,369.79,322.832,372.078,318.921z"
		/>
	<path d="M359.121,69.114c19.845,21.638,23.068,26.586,34.495,52.954c0.695,1.603,2.259,2.561,3.901,2.561
		c0.564,0,1.138-0.113,1.688-0.351c2.154-0.934,3.143-3.436,2.21-5.59c-11.818-27.272-15.523-32.96-36.029-55.319
		c-17.324-18.89-66.952-46.873-126.361-41.552c-2.338,0.21-4.064,2.274-3.854,4.612c0.209,2.337,2.281,4.062,4.612,3.854
		c31.926-2.858,58.836,4.661,75.79,11.472C337.12,50.411,352.196,61.564,359.121,69.114z"/>
	<path d="M137.121,300.323c-30.182,3.979-53.353,14.792-54.325,15.25c-2.122,1.001-3.031,3.532-2.031,5.655
		c1,2.122,3.531,3.03,5.655,2.033c0.228-0.107,23.118-10.766,52.029-14.54c38.118-4.976,68.152,3.731,89.264,25.883
		c0.836,0.876,1.955,1.317,3.077,1.317c1.054,0,2.109-0.389,2.932-1.173c1.699-1.62,1.764-4.31,0.145-6.009
		C211.06,304.81,177.604,294.984,137.121,300.323z"/>
</g>
<g>
</g>
<g>
</g>
<g>
</g>
<g>
</g>
<g>
</g>
<g>
</g>
<g>
</g>
<g>
</g>
<g>
</g>
<g>
</g>
<g>
</g>
<g>
</g>
<g>
</g>
<g>
</g>
<g>
</g>
</svg>
