<?xml version="1.0" encoding="iso-8859-1"?>
<!-- Generator: Adobe Illustrator 18.0.0, SVG Export Plug-In . SVG Version: 6.00 Build 0)  -->
<!DOCTYPE svg PUBLIC "-//W3C//DTD SVG 1.1//EN" "http://www.w3.org/Graphics/SVG/1.1/DTD/svg11.dtd">
<svg version="1.1" id="Capa_1" xmlns="http://www.w3.org/2000/svg" xmlns:xlink="http://www.w3.org/1999/xlink" x="0px" y="0px" fill="#5894B5"
	 viewBox="0 0 494.368 494.368" style="enable-background:new 0 0 494.368 494.368;" xml:space="preserve">
<g>
	<path d="M200.189,148.581c-2.514,20.429-8.013,38.618-16.345,54.063c-1.115,2.066-0.343,4.644,1.722,5.758
		c0.642,0.346,1.333,0.511,2.014,0.511c1.512,0,2.976-0.809,3.744-2.233c8.836-16.379,14.657-35.578,17.301-57.06
		c0.287-2.33-1.37-4.451-3.7-4.737C202.597,144.601,200.476,146.251,200.189,148.581z"/>
	<path d="M201.639,130.116c-0.086,2.346,1.746,4.317,4.091,4.403c0.053,0.002,0.106,0.003,0.159,0.003
		c2.275,0,4.16-1.802,4.244-4.094c0.491-13.393-0.105-27.684-1.774-42.475c-0.263-2.333-2.372-4.019-4.699-3.747
		c-2.332,0.263-4.01,2.367-3.747,4.699C201.533,103.278,202.114,117.143,201.639,130.116z"/>
	<path d="M365.034,144.523c1.042-46.891,8.015-137.976,8.085-138.891c0.18-2.34-1.571-4.383-3.911-4.563
		c-2.35-0.186-4.384,1.572-4.564,3.912c-0.071,0.916-7.061,92.231-8.108,139.354c-0.268,12.024,0.065,28.877,0.45,48.39
		c0.534,27.059,1.16,58.825,0.384,88.174c-68.378-4.5-184.764-58.491-190.077-60.973c2.256-4.334,4.595-8.744,7.023-13.247
		c22.941-42.524,20.886-95.792,15.122-132.991c-6.207-40.058-17.587-69.73-18.068-70.973c-0.848-2.189-3.309-3.275-5.497-2.429
		c-2.189,0.847-3.277,3.308-2.431,5.497c0.115,0.297,11.571,30.198,17.623,69.383c5.538,35.856,7.564,87.079-14.229,127.477
		c-25.482,47.234-37.972,78.295-43.109,107.21c-6.07,34.162-1.114,65.154,15.599,97.533c31.915,61.835,27.202,81.318,27.18,81.513
		c-0.161,1.436-0.283,3.978,2.298,4.624c3.167,0.791,5.271-0.722,5.809-2.071c1.108-2.783,5.929-22.744-27.733-87.964
		c-4.824-9.347-8.568-18.466-11.317-27.485c1.396-3.655,23.223-57.193,98.418-57.193c40.684,0,68.254,13.509,84.219,24.843
		c14.374,10.204,23.205,22.533,25.845,26.515c-4.711,15.739-7.584,34.715-9.322,52.898H297.22c-2.347,0-4.25,1.903-4.25,4.25
		c0,2.347,1.903,4.25,4.25,4.25h36.763c-2.389,30.453-1.799,56.721-1.751,58.659c0.058,2.311,1.948,4.144,4.247,4.144
		c0.036,0,0.072,0,0.107-0.001c2.347-0.059,4.202-2.008,4.143-4.354c-0.02-0.838-1.901-84.312,14.505-126.355
		c12.971-33.236,11.399-112.919,10.251-171.1C365.102,173.14,364.771,156.37,365.034,144.523z M347.605,359.794
		c-3.919-5.082-11.711-13.935-24.106-22.801c-17.017-12.172-46.361-26.683-89.52-26.683c-43.46,0-70.064,17.033-84.73,31.322
		c-8.09,7.882-13.508,15.747-16.92,21.683c-7.501-36.894,1.481-73.075,22.085-117.376c6.347,3.005,57.903,27.145,112.239,44.336
		c0.427,0.135,0.858,0.199,1.283,0.199c1.804,0,3.478-1.158,4.051-2.969c0.708-2.238-0.532-4.626-2.77-5.334
		c-53.83-17.031-104.912-40.953-111.155-43.909c1.713-3.539,3.496-7.13,5.346-10.778c0.026,0.013,0.047,0.031,0.073,0.043
		c5.031,2.37,122.442,57.329,193.621,61.87c-0.119,3.225-0.259,6.408-0.419,9.544c-15.858-0.91-41-4.078-56.632-7.98
		c-2.278-0.569-4.584,0.817-5.153,3.094c-0.568,2.277,0.817,4.585,3.094,5.153c16.101,4.019,41.913,7.28,58.196,8.218
		C354.761,329.013,352.15,347.661,347.605,359.794z"/>
	<path d="M338.015,148.678c0.032,0.001,0.064,0.001,0.096,0.001c2.303,0,4.196-1.841,4.247-4.156
		c0.171-7.717,0.515-17.141,1.023-28.01c0.109-2.345-1.703-4.334-4.047-4.444c-2.329-0.101-4.334,1.703-4.444,4.047
		c-0.51,10.938-0.857,20.433-1.03,28.218C333.809,146.682,335.668,148.626,338.015,148.678z"/>
	<path d="M340.776,85.489c0.087,0.005,0.173,0.008,0.258,0.008c2.231,0,4.104-1.739,4.238-3.996
		c2.313-38.602,5.143-75.5,5.171-75.868c0.18-2.34-1.571-4.383-3.912-4.563c-2.334-0.185-4.383,1.572-4.563,3.912
		c-0.028,0.369-2.864,37.335-5.181,76.011C336.648,83.335,338.433,85.349,340.776,85.489z"/>
	<path d="M234.98,330.464c-34.281,0-55.288,13.457-66.874,24.746c-12.648,12.324-17.072,24.657-17.254,25.176
		c-0.777,2.215,0.388,4.641,2.603,5.418c0.466,0.164,0.941,0.241,1.407,0.241c1.754,0,3.396-1.095,4.01-2.844
		c0.155-0.442,16.214-44.236,76.107-44.236c2.347,0,4.25-1.903,4.25-4.25C239.23,332.367,237.326,330.464,234.98,330.464z"/>
</g>
<g>
</g>
<g>
</g>
<g>
</g>
<g>
</g>
<g>
</g>
<g>
</g>
<g>
</g>
<g>
</g>
<g>
</g>
<g>
</g>
<g>
</g>
<g>
</g>
<g>
</g>
<g>
</g>
<g>
</g>
</svg>
