<?xml version="1.0" encoding="iso-8859-1"?>
<!-- Generator: Adobe Illustrator 18.0.0, SVG Export Plug-In . SVG Version: 6.00 Build 0)  -->
<!DOCTYPE svg PUBLIC "-//W3C//DTD SVG 1.1//EN" "http://www.w3.org/Graphics/SVG/1.1/DTD/svg11.dtd">
<svg version="1.1" id="Capa_1" xmlns="http://www.w3.org/2000/svg" xmlns:xlink="http://www.w3.org/1999/xlink" x="0px" y="0px"
	 viewBox="0 0 473.854 473.854" style="enable-background:new 0 0 473.854 473.854;" xml:space="preserve">
<g>
	<path d="M472.436,65.83c-1.054-0.942-2.509-1.297-3.879-0.951c-1.001,0.254-101.667,25.454-231.63,25.454
		c-129.895,0-230.628-25.199-231.63-25.454c-1.373-0.349-2.825,0.008-3.879,0.951c-1.054,0.943-1.571,2.348-1.377,3.749
		l10.729,77.828c0.019,1.622,0.049,3.222,0.08,4.775c0.045,2.293,0.088,4.501,0.088,6.561c0,18.671,4.716,24.802,19.971,25.196
		c2.024,10.549,7.943,14.083,20.76,14.083c4.3,0,8.921-0.234,12.756-2.121c0,0.031,0,0.063,0,0.094
		c0,27.13,10.889,31.708,35.298,31.708c16.287,0,26.546-2.049,31.576-11.464c0,0.145-0.002,0.291-0.002,0.436
		c0,13.974,5.567,23.875,16.546,29.429c10.5,5.312,24.88,5.993,36.235,5.993c11.355,0,25.735-0.681,36.235-5.993
		c10.979-5.554,16.546-15.455,16.546-29.429c0-20.988-3.806-89.465-52.781-89.465c-27.142,0-42.095,22.481-48.661,50.757
		c0.124-14.072-1.119-29.304-10.366-38.838c-5.897-6.08-14.419-9.162-25.328-9.162c-10.742,0-19.169,3.06-25.045,9.097
		c-0.872,0.896-1.666,1.848-2.404,2.838c-0.582-2.673-1.318-5.081-2.218-7.238c-4.582-10.982-12.528-13.288-18.387-13.288
		c-0.016,0-0.031,0.002-0.047,0.002c-4.104-11.513-12.475-14.063-19.07-14.063c-5.644,0-10.293,1.823-13.818,5.418
		c-1.373,1.4-2.494,3.039-3.443,4.83L11.44,89.89l31.074,8.632c0.381,0.106,0.764,0.156,1.14,0.156c1.861,0,3.57-1.232,4.092-3.113
		c0.628-2.262-0.696-4.604-2.957-5.232l-34.626-9.618l-0.856-6.156c23.843,5.422,114.877,24.275,227.62,24.275
		s203.777-18.853,227.621-24.275l-1.39,10.082c-14.783,3.523-109.739,24.968-229.632,24.968c-2.347,0-4.25,1.903-4.25,4.25
		s1.903,4.25,4.25,4.25c114.02,0,205.821-19.279,228.389-24.451l-3.307,23.99c-0.957-1.823-2.093-3.49-3.487-4.911
		c-3.525-3.596-8.175-5.418-13.818-5.418c-6.595,0-14.965,2.55-19.069,14.063c-0.016,0-0.031-0.002-0.047-0.002
		c-13.823,0-18.89,10.147-20.753,20.325c-0.696-0.919-1.442-1.803-2.255-2.638c-5.878-6.037-14.304-9.097-25.046-9.097
		c-10.909,0-19.431,3.082-25.328,9.162c-9.247,9.534-10.49,24.766-10.366,38.838c-6.566-28.276-21.52-50.757-48.661-50.757
		c-48.975,0-52.781,68.478-52.781,89.465c0,13.974,5.567,23.875,16.546,29.429c10.5,5.312,24.88,5.993,36.235,5.993
		c11.355,0,25.736-0.681,36.236-5.993c10.979-5.554,16.546-15.455,16.546-29.429c0-0.145-0.002-0.291-0.002-0.436
		c5.03,9.415,15.289,11.464,31.576,11.464c24.409,0,35.298-4.578,35.298-31.708c0-0.025,0.001-0.051,0.001-0.076
		c3.418,1.672,7.693,2.103,12.755,2.103c12.816,0,18.736-3.534,20.76-14.083c15.255-0.395,19.971-6.526,19.971-25.196
		c0-2.061,0.044-4.268,0.088-6.561c0.03-1.552,0.06-3.151,0.08-4.772l10.729-77.832C474.007,68.178,473.491,66.773,472.436,65.83z
		 M184.078,135.71c41.088,0,44.281,61.972,44.281,80.965c0,19.625-12.001,26.921-44.281,26.921c-32.28,0-44.282-7.296-44.282-26.921
		c0-2.611,0.081-7.239,0.513-12.998h22.342c2.347,0,4.25-1.903,4.25-4.25c0-2.347-1.903-4.25-4.25-4.25h-21.507
		C144.16,170.558,153.782,135.71,184.078,135.71z M80.767,144.994c4.276-4.392,10.476-6.527,18.955-6.527
		c8.643,0,14.932,2.152,19.226,6.58c8.761,9.032,8.233,26.353,7.766,41.634c-0.1,3.277-0.194,6.372-0.194,9.314
		c0,19.738-4.007,23.208-26.798,23.208c-22.791,0-26.798-3.47-26.798-23.208c0-2.79-0.079-5.717-0.161-8.815
		C72.369,172.453,71.878,154.125,80.767,144.994z M65.369,159.432c-1.482,8.474-1.369,17.649-1.155,25.959
		c-1.267,1.904-5.045,4.131-12.545,4.131c-5.959,0-8.994-0.671-10.475-2.316c-1.8-1.999-2.639-6.576-2.639-14.402
		c0-2.113-0.044-4.377-0.09-6.729c-0.238-12.128-0.534-27.221,5.455-33.329c1.894-1.931,4.428-2.869,7.749-2.869
		C54.958,129.878,64.936,131.127,65.369,159.432z M24.802,118.687c1.893-1.931,4.428-2.87,7.749-2.87
		c5.242,0,8.567,2.218,10.645,7.27c-1.991,0.893-3.785,2.116-5.346,3.709c-8.488,8.657-8.153,25.729-7.884,39.447
		c0.045,2.293,0.088,4.501,0.088,6.562c0,0.902,0.015,1.766,0.038,2.61c-4.359-0.176-6.754-0.869-8.016-2.27
		c-1.8-2-2.639-6.576-2.639-14.401c0-2.113-0.044-4.377-0.09-6.729C19.109,139.888,18.813,124.794,24.802,118.687z M289.776,243.597
		c-32.28,0-44.281-7.296-44.281-26.921c0-18.994,3.193-80.965,44.281-80.965c11.431,0,19.913,4.967,26.213,12.467h-27.338
		c-2.347,0-4.25,1.903-4.25,4.25c0,2.347,1.903,4.25,4.25,4.25h33.072c11.467,21,12.334,51.4,12.334,59.998
		C334.058,236.301,322.056,243.597,289.776,243.597z M401.091,187.18c-0.082,3.099-0.161,6.026-0.161,8.815
		c0,19.738-4.007,23.208-26.798,23.208c-22.791,0-26.798-3.47-26.798-23.208c0-2.942-0.094-6.037-0.194-9.314
		c-0.466-15.281-0.995-32.602,7.766-41.634c4.295-4.428,10.584-6.58,19.227-6.58c8.479,0,14.68,2.135,18.956,6.527
		C401.976,154.125,401.485,172.453,401.091,187.18z M435.39,166.076c-0.046,2.352-0.09,4.616-0.09,6.729
		c0,7.826-0.838,12.402-2.639,14.402c-1.481,1.645-4.517,2.316-10.475,2.316c-6.108,0-11.071-0.983-12.582-2.725
		c0.218-8.171,0.421-17.288-0.865-25.806c0.097-19.463,3.961-31.114,13.446-31.114c3.321,0,5.856,0.938,7.749,2.87
		C435.924,138.855,435.628,153.948,435.39,166.076z M454.417,158.744c0,7.825-0.839,12.401-2.639,14.401
		c-1.262,1.401-3.656,2.094-8.016,2.27c0.022-0.845,0.038-1.708,0.038-2.61c0-2.061,0.043-4.269,0.088-6.562
		c0.269-13.718,0.604-30.791-7.884-39.447c-1.561-1.592-3.355-2.816-5.346-3.709c2.078-5.052,5.403-7.27,10.645-7.27
		c3.321,0,5.856,0.938,7.749,2.87c5.989,6.108,5.693,21.202,5.456,33.33C454.461,154.367,454.417,156.631,454.417,158.744z"/>
	<path d="M456.526,250.214c0.294-5.248,0.298-9.987,0.298-13.396c0-19.92-5.339-25.993-22.85-25.993
		c-13.038,0-20.704,2.974-22.446,17.819c-0.189-0.001-0.372-0.006-0.564-0.006c-15.961,0.001-21.785,5.02-22.709,20.909
		c-1.262-0.084-2.591-0.128-4.008-0.128c-14.987,0.001-21.054,4.459-22.493,18.229c-5.473-5.125-14.251-6.379-26.722-6.379
		c-20.349,0-30.868,3.335-33.23,21.393c-4.654-9.681-14.582-11.745-30.596-11.745c-23.34,0-33.753,4.381-33.753,30.341
		c0,12.575,0.529,27.053,4.455,39.082c6.438,19.729,19.486,23.87,29.298,23.87c22.895,0,30.257-21.8,32.626-40.685
		c0.523,2.458,1.149,4.858,1.903,7.167c6.437,19.729,19.485,23.87,29.297,23.87c21.776,0,29.501-19.722,32.243-37.899
		c4.685,9.626,11.528,11.923,16.972,11.922c11.715,0,17.417-10.158,20.199-22.014c2.012,0.81,4.185,1.233,6.518,1.233
		c10.442,0,16.104-8.073,19.184-18.222c1.231,0.269,2.506,0.41,3.825,0.41c9.206,0,14.699-6.274,17.982-14.714l4,24.666
		l-18.849,14.08c-1.88,1.405-2.266,4.068-0.861,5.948c0.835,1.117,2.113,1.707,3.408,1.707c0.885,0,1.777-0.275,2.54-0.846
		l15.296-11.426l1.256,7.743c-3.525,4.889-17.826,23.073-47.139,41.053c-31.537,19.345-87.396,42.404-174.418,42.404
		c-87.023,0-142.882-23.059-174.419-42.404c-29.32-17.984-43.62-36.172-47.139-41.053l1.619-9.981
		c6.399,7.983,20.837,23.587,46.218,39.249c32.516,20.064,90.033,43.982,179.39,43.982c2.347,0,4.25-1.903,4.25-4.25
		s-1.903-4.25-4.25-4.25c-87.023,0-142.882-23.059-174.418-42.404c-30.798-18.891-46.459-39.879-49.307-43.929l3.142-19.375
		c3.32,7.971,8.737,13.799,17.606,13.799c1.319,0,2.594-0.141,3.824-0.41c3.08,10.148,8.742,18.222,19.184,18.222
		c2.333,0,4.506-0.422,6.518-1.233c2.782,11.855,8.484,22.014,20.2,22.014c8.316,0,13.596-4.946,16.961-11.992
		c2.732,18.197,10.45,37.969,32.253,37.969c9.813,0,22.86-4.141,29.298-23.87c0.753-2.308,1.379-4.707,1.902-7.164
		c2.37,18.885,9.733,40.682,32.627,40.682c9.813,0,22.861-4.141,29.298-23.87c3.925-12.029,4.454-26.507,4.454-39.082
		c0-25.96-10.412-30.341-33.752-30.341c-16.014,0-25.941,2.065-30.596,11.744c-2.363-18.057-12.883-21.391-33.231-21.391
		c-12.471,0-21.248,1.254-26.722,6.378c-1.438-13.77-7.505-18.228-22.494-18.229c-1.417,0-2.747,0.044-4.008,0.128
		c-0.924-15.889-6.748-20.908-22.709-20.909c-0.192,0-0.375,0.005-0.563,0.006c-1.741-14.845-9.407-17.818-22.444-17.819
		c-17.512,0-22.851,6.073-22.851,25.993c0,3.927,0.004,9.616,0.454,15.821L6.968,317.477c-0.167,1.026,0.049,2.078,0.606,2.956
		c0.583,0.919,14.677,22.753,50.226,44.69c32.516,20.065,90.033,43.982,179.39,43.982c89.357,0,146.874-23.918,179.39-43.982
		c35.55-21.936,49.644-43.771,50.227-44.69c0.557-0.878,0.772-1.93,0.606-2.956L456.526,250.214z M271.207,355.708
		c-22.252,0-25.253-27.526-25.253-54.452c0-10.01,1.427-15.441,4.771-18.162c3.754-3.054,10.903-3.68,20.482-3.68
		c9.579,0,16.728,0.626,20.482,3.68c3.343,2.72,4.77,8.151,4.77,18.162C296.459,338.405,288.435,355.708,271.207,355.708z
		 M335.033,346.06c-22.251,0-25.251-27.526-25.251-54.453c0-10.01,1.427-15.441,4.77-18.16c3.754-3.054,10.903-3.68,20.481-3.68
		c9.58,0,16.729,0.626,20.483,3.68c3.343,2.719,4.77,8.15,4.77,18.16c0,11.309-0.789,20.819-2.377,28.57h-15.258
		c-2.347,0-4.25,1.903-4.25,4.25s1.903,4.25,4.25,4.25h12.951C351.497,340.323,344.671,346.06,335.033,346.06z M384.248,320.083
		c-0.006,0-0.012,0-0.018,0c-2.069,0-8.281-0.041-11.78-14.218c-2.249-9.111-2.552-20.507-2.552-30.454
		c0-8.129,0.908-12.892,2.858-14.989c1.655-1.779,4.985-2.505,11.493-2.506c6.508,0,9.837,0.726,11.492,2.505
		c1.951,2.097,2.859,6.859,2.859,14.988C398.6,305.053,393.771,320.083,384.248,320.083z M410.966,299.302
		c-1.908,0-3.523-0.485-4.969-1.499c1.097-8.638,1.103-17.107,1.103-22.393c0-14.077-2.673-21.234-10.418-24.224
		c0.236-6.086,1.148-9.802,2.825-11.575c1.663-1.758,4.983-2.475,11.459-2.476c6.508,0,9.838,0.726,11.493,2.505
		c1.95,2.097,2.858,6.859,2.858,14.988C425.317,284.272,420.489,299.302,410.966,299.302z M433.975,281.49
		c-0.668,0-1.293-0.08-1.897-0.204c1.733-10.031,1.74-20.501,1.74-26.658c0-15.993-3.449-23.056-13.87-25.221
		c0.916-9.13,3.981-10.084,14.027-10.084c6.508,0,9.837,0.726,11.492,2.505c0.99,1.064,1.71,2.819,2.18,5.349h-6.996
		c-2.347,0-4.25,1.903-4.25,4.25c0,2.347,1.903,4.25,4.25,4.25h7.665c0.004,0.374,0.008,0.749,0.008,1.14
		C448.325,266.46,443.497,281.49,433.975,281.49z M182.165,283.094c3.754-3.054,10.903-3.68,20.482-3.68
		c9.579,0,16.727,0.626,20.481,3.68c3.344,2.72,4.771,8.151,4.771,18.162c0,26.926-3,54.452-25.252,54.452
		c-16.993,0-25.253-17.812-25.253-54.452C177.394,291.246,178.821,285.815,182.165,283.094z M118.337,273.447
		c3.754-3.054,10.904-3.68,20.483-3.68s16.728,0.626,20.482,3.68c3.343,2.72,4.77,8.15,4.77,18.16c0,26.927-3,54.453-25.253,54.453
		c-13.13,0-21.041-10.645-23.962-32.383h12.793c2.347,0,4.25-1.903,4.25-4.25s-1.903-4.25-4.25-4.25h-13
		c-0.219,0-0.429,0.032-0.638,0.065c-0.294-4.216-0.446-8.753-0.446-13.635C113.567,281.597,114.994,276.167,118.337,273.447z
		 M101.098,260.423c1.95,2.097,2.858,6.859,2.858,14.988c0,9.944-0.303,21.339-2.553,30.453
		c-3.51,14.218-9.748,14.218-11.797,14.218h-0.001c-9.522,0-14.351-15.03-14.351-44.672c0-8.128,0.908-12.891,2.859-14.988
		c1.655-1.779,4.985-2.505,11.492-2.505C96.113,257.918,99.443,258.644,101.098,260.423z M74.347,239.612
		c1.677,1.772,2.588,5.488,2.825,11.575c-7.745,2.99-10.418,10.147-10.418,24.224c0,5.286,0.006,13.754,1.103,22.393
		c-1.446,1.013-3.061,1.499-4.969,1.499c-9.523,0-14.352-15.03-14.352-44.673c0-8.128,0.908-12.891,2.858-14.988
		c1.655-1.779,4.985-2.505,11.493-2.505C69.364,237.137,72.684,237.854,74.347,239.612z M28.388,221.829
		c1.655-1.779,4.984-2.505,11.493-2.505c10.045,0,13.109,0.954,14.025,10.084c-10.42,2.165-13.869,9.228-13.869,25.221
		c0,6.156,0.007,16.626,1.74,26.658c-0.604,0.124-1.229,0.204-1.896,0.204c-7.645,0-12.261-9.696-13.786-28.853l0.031-0.19
		c0.116-0.715,0.028-1.409-0.192-2.049c-0.268-4.124-0.404-8.645-0.404-13.581C25.529,228.688,26.437,223.926,28.388,221.829z"/>
</g>
<g>
</g>
<g>
</g>
<g>
</g>
<g>
</g>
<g>
</g>
<g>
</g>
<g>
</g>
<g>
</g>
<g>
</g>
<g>
</g>
<g>
</g>
<g>
</g>
<g>
</g>
<g>
</g>
<g>
</g>
</svg>
