<?xml version="1.0" encoding="iso-8859-1"?>
<!-- Generator: Adobe Illustrator 18.0.0, SVG Export Plug-In . SVG Version: 6.00 Build 0)  -->
<!DOCTYPE svg PUBLIC "-//W3C//DTD SVG 1.1//EN" "http://www.w3.org/Graphics/SVG/1.1/DTD/svg11.dtd">
<svg version="1.1" id="Capa_1" xmlns="http://www.w3.org/2000/svg" xmlns:xlink="http://www.w3.org/1999/xlink" x="0px" y="0px"
	 viewBox="0 0 470.452 470.452" style="enable-background:new 0 0 470.452 470.452;" xml:space="preserve">
<g>
	<path d="M364.879,153.752C340.602,106.355,342.71,46.622,348.754,4.86c0.336-2.323-1.275-4.479-3.598-4.815
		c-2.323-0.336-4.479,1.274-4.814,3.597c-6.221,42.986-8.326,104.595,16.972,153.985c2.567,5.012,4.945,10.1,7.158,15.247
		c-8.371,4.587-42.248,22.111-86.405,31.051c-66.496,13.463-124.025,2.216-171.065-33.389c1.922-4.35,3.959-8.657,6.137-12.909
		c15.837-30.918,22.71-68.944,20.565-113.398h54.707c2.347,0,4.25-1.903,4.25-4.25c0-2.347-1.903-4.25-4.25-4.25h-55.223
		c-0.754-10.377-1.972-21.084-3.676-32.126c-0.357-2.32-2.528-3.911-4.848-3.552c-2.32,0.358-3.91,2.528-3.553,4.848
		c9.324,60.438,4.097,110.519-15.538,148.854c-22.829,44.573-33.721,99.736-31.497,159.526
		c1.938,52.073,13.898,106.961,33.676,154.553c0.679,1.634,2.26,2.62,3.926,2.62c0.544,0,1.097-0.105,1.63-0.326
		c2.167-0.901,3.194-3.388,2.293-5.556c-3.933-9.464-7.685-19.626-11.161-30.341h34.971c2.347,0,4.25-1.903,4.25-4.25
		c0-2.347-1.903-4.25-4.25-4.25h-37.633c-1.819-6.017-3.548-12.189-5.168-18.5h26.801c2.347,0,4.25-1.903,4.25-4.25
		c0-2.347-1.903-4.25-4.25-4.25H94.513c-13.715-57.926-18.118-126.127-1.271-188.961c80.758,23.685,115.474,70.863,119.341,76.437
		c1.041,10.798,7.891,88.038,0.441,178.487c-0.192,2.339,1.548,4.392,3.888,4.585c0.118,0.01,0.236,0.014,0.354,0.014
		c2.189,0,4.048-1.681,4.23-3.901c6.967-84.598,1.516-157.833-0.148-176.679h26.031c-1.663,18.846-7.114,92.081-0.149,176.679
		c0.184,2.221,2.042,3.901,4.232,3.901c0.117,0,0.235-0.004,0.354-0.014c2.339-0.193,4.079-2.245,3.887-4.585
		c-7.6-92.293-0.306-170.91,0.5-179.083c1.394-2.869,8.581-16.638,25.022-31.962c16.808-15.665,46.992-36.169,95.568-45.411
		c24.487,89.362,5.675,189.881-21.941,256.334c-0.9,2.168,0.126,4.655,2.294,5.556c0.533,0.221,1.085,0.326,1.629,0.326
		c1.666,0,3.247-0.986,3.927-2.62c19.778-47.592,31.737-102.48,33.675-154.553C398.601,253.488,387.709,198.324,364.879,153.752z
		 M275.053,247.781c-15.198,14.259-22.864,27.121-25.65,32.429h-30.638c-3.184-4.431-12.087-15.827-28.132-29.262
		c-18.145-15.193-49.256-35.93-95.073-49.357c2.332-7.764,5.009-15.432,8.04-22.978c26.257,19.427,56.066,31.783,88.7,36.728
		c10.977,1.663,22.275,2.494,33.845,2.494c17.402,0,35.417-1.879,53.867-5.63c44.293-9.007,77.693-25.943,87.714-31.407
		c2.478,6.335,4.702,12.755,6.691,19.242C324.048,209.782,292.617,231.302,275.053,247.781z"/>
	<path d="M369.71,304.195c0.007,0,0.015,0,0.022,0c2.337,0,4.238-1.889,4.25-4.229c0.101-20.231-1.325-40.023-4.239-58.828
		c-0.359-2.32-2.528-3.909-4.851-3.549c-2.319,0.359-3.908,2.531-3.549,4.851c2.845,18.361,4.237,37.701,4.139,57.483
		C365.47,302.27,367.363,304.183,369.71,304.195z"/>
	<path d="M317.954,67.229c0.026,0,0.053,0,0.079,0c2.347-0.043,4.215-1.98,4.172-4.327c-0.336-18.431,0.967-37.959,3.873-58.041
		c0.336-2.323-1.274-4.479-3.598-4.815c-2.324-0.336-4.479,1.274-4.814,3.597c-2.972,20.536-4.304,40.526-3.96,59.415
		C313.749,65.377,315.644,67.229,317.954,67.229z"/>
	<path d="M235.226,169.612c2.347,0,4.25-1.903,4.25-4.25v-20.882c0-2.347-1.903-4.25-4.25-4.25c-2.348,0-4.25,1.903-4.25,4.25
		v20.882C230.976,167.71,232.878,169.612,235.226,169.612z"/>
	<path d="M114.83,164.352c-1.251,1.986-0.654,4.61,1.332,5.861c27.949,17.597,59.575,27.715,94,30.074
		c0.1,0.007,0.197,0.01,0.295,0.01c2.215,0,4.082-1.717,4.236-3.96c0.16-2.342-1.608-4.37-3.95-4.531
		c-33.008-2.261-63.306-11.947-90.052-28.787C118.705,161.769,116.082,162.366,114.83,164.352z"/>
</g>
<g>
</g>
<g>
</g>
<g>
</g>
<g>
</g>
<g>
</g>
<g>
</g>
<g>
</g>
<g>
</g>
<g>
</g>
<g>
</g>
<g>
</g>
<g>
</g>
<g>
</g>
<g>
</g>
<g>
</g>
</svg>
