<?xml version="1.0" encoding="iso-8859-1"?>
<!-- Generator: Adobe Illustrator 18.0.0, SVG Export Plug-In . SVG Version: 6.00 Build 0)  -->
<!DOCTYPE svg PUBLIC "-//W3C//DTD SVG 1.1//EN" "http://www.w3.org/Graphics/SVG/1.1/DTD/svg11.dtd">
<svg version="1.1" id="Capa_1" xmlns="http://www.w3.org/2000/svg" xmlns:xlink="http://www.w3.org/1999/xlink" x="0px" y="0px"
	 viewBox="0 0 487.172 487.172" style="enable-background:new 0 0 487.172 487.172;" xml:space="preserve">
<g>
	<path d="M80.147,315.971c-2.072,4.694-4.343,10.061-6.252,14.598c-12.218,29.043-24.851,59.074-72.827,113.241
		c-1.556,1.757-1.394,4.443,0.364,6c0.809,0.716,1.814,1.068,2.816,1.068c1.174,0,2.343-0.484,3.183-1.432
		c13.106-14.798,23.608-27.821,32.229-39.548c27.358,9.402,35.802,32.988,37.275,37.863c-11.64,8.574-24.554,18.999-39.209,31.98
		c-1.757,1.557-1.92,4.242-0.363,5.999c0.84,0.948,2.009,1.433,3.183,1.433c1.002,0,2.008-0.353,2.816-1.068
		c54.167-47.977,84.198-60.61,113.242-72.828c4.536-1.908,9.902-4.18,14.597-6.252c49.33-21.776,96.602-42.642,137.241-75.945
		c45.114-36.972,78.352-85.822,104.602-153.736c21.52-55.68,38.239-95.378,73.17-138.174c1.484-1.818,1.214-4.496-0.604-5.98
		c-1.819-1.484-4.496-1.214-5.98,0.605c-10.308,12.628-19.048,24.967-26.8,37.485c-25.962-9.067-34.761-30.935-36.751-37.047
		c12.455-7.724,24.734-16.43,37.301-26.687c1.818-1.484,2.09-4.162,0.605-5.98c-1.484-1.818-4.162-2.089-5.98-0.605
		c-42.797,34.931-82.494,51.65-138.174,73.17c-67.914,26.249-116.765,59.487-153.736,104.602
		C122.79,219.369,101.924,266.64,80.147,315.971z M87.924,319.404c44.554-100.934,80.043-181.332,224.971-237.347
		c37.026-14.31,67.093-26.538,95.754-43.342c1.263,3.419,3.57,8.667,7.418,14.401c-24.403,13.607-50.866,24.659-88.171,39.077
		c-2.189,0.846-3.278,3.307-2.432,5.497c0.651,1.686,2.26,2.719,3.965,2.719c0.51,0,1.027-0.092,1.531-0.287
		c37.418-14.462,65.58-26.427,90.33-40.181c3.359,3.869,7.465,7.71,12.457,11.151l-33.733,47.227
		c-1.364,1.91-0.922,4.564,0.988,5.929c0.748,0.535,1.611,0.792,2.467,0.792c1.325,0,2.632-0.619,3.462-1.78l34.139-47.794
		c2.282,1.175,4.696,2.269,7.28,3.242c-16.749,28.606-28.955,58.622-43.234,95.569c-56.015,144.927-136.414,180.416-237.347,224.97
		c-4.626,2.042-9.958,4.299-14.461,6.193c-20.138,8.471-40.75,17.153-69.164,37.128c-1.818-4.928-5.802-13.664-13.449-22.157
		c19.528-25.103,28.063-41.498,36.314-57.357c2.789-5.362,5.674-10.906,8.947-16.714c54.142-96.058,102.084-168.289,226.535-223.117
		c2.147-0.946,3.122-3.455,2.176-5.602c-0.946-2.148-3.454-3.121-5.602-2.176C278.745,142.02,232.804,173.845,194.482,215.6
		c-34.975,38.11-59.608,79.867-85.931,126.566c-3.344,5.933-6.262,11.541-9.084,16.965c-8.359,16.067-16.271,31.271-34.896,55.309
		c-5.262-4.519-11.761-8.655-19.753-11.719c19.82-28.255,28.472-48.792,36.912-68.857C83.625,329.362,85.882,324.03,87.924,319.404z
		"/>
	<path d="M298.64,104.485c-59.109,27.002-102.147,60.839-135.44,106.488c-1.383,1.896-0.967,4.555,0.93,5.938
		c0.756,0.551,1.632,0.817,2.501,0.817c1.312,0,2.605-0.605,3.437-1.746c32.398-44.423,74.376-77.395,132.105-103.766
		c2.135-0.975,3.075-3.497,2.1-5.632C303.297,104.45,300.775,103.51,298.64,104.485z"/>
	<path d="M322.067,259.048c-1.898-1.384-4.556-0.967-5.939,0.929c-32.398,44.423-74.375,77.395-132.104,103.766
		c-2.135,0.975-3.075,3.496-2.1,5.632c0.714,1.563,2.256,2.485,3.868,2.485c0.591,0,1.19-0.124,1.764-0.385
		c59.109-27.001,102.146-60.839,135.439-106.488C324.38,263.089,323.964,260.43,322.067,259.048z"/>
</g>
<g>
</g>
<g>
</g>
<g>
</g>
<g>
</g>
<g>
</g>
<g>
</g>
<g>
</g>
<g>
</g>
<g>
</g>
<g>
</g>
<g>
</g>
<g>
</g>
<g>
</g>
<g>
</g>
<g>
</g>
</svg>
