<?xml version="1.0" encoding="iso-8859-1"?>
<!-- Generator: Adobe Illustrator 18.0.0, SVG Export Plug-In . SVG Version: 6.00 Build 0)  -->
<!DOCTYPE svg PUBLIC "-//W3C//DTD SVG 1.1//EN" "http://www.w3.org/Graphics/SVG/1.1/DTD/svg11.dtd">
<svg version="1.1" id="Capa_1" xmlns="http://www.w3.org/2000/svg" xmlns:xlink="http://www.w3.org/1999/xlink" x="0px" y="0px" fill="#5894B5"
	 viewBox="0 0 489.323 489.323" style="enable-background:new 0 0 489.323 489.323;" xml:space="preserve">
<g>
	<path d="M146.235,302.16c2.348,0,4.25-1.903,4.25-4.25s-1.902-4.25-4.25-4.25c-33.861,0-61.409-27.548-61.409-61.41
		c0-4.368,0.466-8.627,1.337-12.739h63.804c2.348,0,4.25-1.903,4.25-4.25s-1.902-4.25-4.25-4.25H88.616
		c8.662-23.425,31.221-40.17,57.619-40.17c2.348,0,4.25-1.903,4.25-4.25s-1.902-4.25-4.25-4.25c-3.086,0-6.119,0.222-9.102,0.612
		c0.543-3.794,1.501-10.415,2.797-19.116c0.146,0.015,0.286,0.044,0.436,0.044h63.637c2.347,0,4.25-1.903,4.25-4.25
		c0-2.347-1.903-4.25-4.25-4.25H141.2c0.969-6.404,2.069-13.582,3.282-21.33h37.646c2.347,0,4.25-1.903,4.25-4.25
		c0-2.347-1.903-4.25-4.25-4.25h-36.306c4.785-30.157,11.009-67.138,17.617-100.473c0.456-2.302-1.04-4.539-3.343-4.995
		c-2.303-0.457-4.539,1.04-4.995,3.343c-13.609,68.65-25.588,152.688-26.799,161.257c-29.886,7.939-51.977,35.218-51.977,67.568
		C76.326,270.798,107.688,302.16,146.235,302.16z"/>
	<path d="M363.132,162.935c-2.941-0.379-5.932-0.596-8.975-0.596c-2.347,0-4.25,1.903-4.25,4.25s1.903,4.25,4.25,4.25
		c18.519,0,35.135,8.251,46.404,21.255H343.19c-2.348,0-4.25,1.903-4.25,4.25c0,2.347,1.902,4.25,4.25,4.25h63.569
		c5.588,9.25,8.809,20.083,8.809,31.655c0,33.861-27.548,61.41-61.41,61.41c-2.347,0-4.25,1.903-4.25,4.25s1.903,4.25,4.25,4.25
		c38.549,0,69.91-31.361,69.91-69.91c0-32.397-22.154-59.711-52.106-67.605c-1.222-8.643-12.934-90.777-26.331-158.88
		c-0.453-2.303-2.689-3.805-4.99-3.35c-2.304,0.453-3.803,2.687-3.351,4.99C349.703,70.504,360.67,145.726,363.132,162.935z"/>
	<path d="M307.44,95.163c0.338,2.088,2.142,3.573,4.191,3.573c0.225,0,0.453-0.018,0.683-0.055c2.317-0.374,3.893-2.556,3.518-4.873
		c-5.37-33.261-10.604-62.883-15.554-88.044c-0.453-2.303-2.689-3.805-4.99-3.35c-2.304,0.453-3.803,2.687-3.35,4.99
		C296.869,32.471,302.085,61.997,307.44,95.163z"/>
	<path d="M177.099,280.188c-6.401-8.059-22.962-20.645-40.088-10.882c-2.039,1.163-2.75,3.758-1.588,5.797
		c1.163,2.039,3.758,2.749,5.798,1.587c15.084-8.599,28.682,8.109,29.248,8.816c0.021,0.028,0.045,0.056,0.067,0.084
		c20.724,24.863,47.824,38.259,77.002,38.257c2.551,0,5.123-0.103,7.702-0.309c28.741-2.296,56.57-16.483,74.444-37.95
		c0.022-0.026,0.049-0.06,0.069-0.086c0.567-0.715,14.058-17.402,29.127-8.813c2.039,1.163,4.634,0.453,5.797-1.587
		c1.162-2.039,0.452-4.635-1.588-5.797c-17.132-9.766-33.613,2.825-39.976,10.89c-16.197,19.425-42.459,32.786-68.552,34.871
		C225.32,317.4,197.812,305.016,177.099,280.188z"/>
	<path d="M453.126,460.118c-28.662-10.288-53.313-21.775-79.411-33.936c-7.002-3.263-14.243-6.637-21.613-10.01
		c-8.593-3.932-18.204-7.888-28.647-8.989c-12.922-21.903-13.871-67.507-13.878-67.968c-0.042-2.347-1.982-4.24-4.323-4.175
		c-2.347,0.041-4.217,1.976-4.176,4.322c0.032,1.858,0.882,42.952,12.69,67.677c-2.079,0.171-4.186,0.473-6.321,0.935
		c-13.114,2.413-23.989,7.642-34.507,12.698c-6.94,3.337-14.104,6.782-21.883,9.391c-10.091-3.001-18.536-7.08-27.458-11.388
		c-4.421-2.135-8.991-4.342-13.829-6.449c-6.65-3.043-13.602-4.584-20.448-5.031c11.879-24.708,12.732-65.972,12.766-67.833
		c0.04-2.347-1.829-4.282-4.177-4.323c-2.355-0.043-4.282,1.83-4.322,4.176c-0.008,0.461-0.945,46.146-13.924,68.043
		c-9.903,0.757-19.144,3.525-26.373,6.992c-34.883,17.145-69.92,32.05-117.156,49.839c-2.196,0.828-3.307,3.279-2.479,5.476
		c0.642,1.703,2.26,2.753,3.979,2.753c0.498,0,1.004-0.088,1.497-0.273c47.506-17.891,82.768-32.893,117.872-50.147
		c12.625-6.052,32.189-9.74,49.3-1.91c4.757,2.073,9.252,4.244,13.6,6.343c9.625,4.648,18.716,9.038,30.066,12.27
		c0.806,0.229,1.664,0.215,2.462-0.041c8.813-2.83,16.631-6.589,24.192-10.225c10.491-5.044,20.4-9.81,32.423-12.01
		c0.046-0.009,0.093-0.018,0.14-0.028c14.223-3.1,27.785,2.301,39.379,7.607c7.344,3.36,14.571,6.728,21.56,9.985
		c26.279,12.246,51.102,23.813,80.13,34.231c2.209,0.794,4.643-0.355,5.436-2.564C456.483,463.345,455.336,460.911,453.126,460.118z
		"/>
	<path d="M170.298,431.256c-34.883,17.145-69.92,32.05-117.156,49.839c-2.196,0.828-3.307,3.279-2.479,5.476
		c0.642,1.703,2.26,2.753,3.979,2.753c0.498,0,1.004-0.088,1.497-0.273c47.506-17.891,82.769-32.893,117.909-50.166
		c2.106-1.035,2.975-3.582,1.939-5.688C174.951,431.088,172.402,430.22,170.298,431.256z"/>
	<path d="M168.275,340.344c0,0.142-0.037,14.352-3.229,28.391c-0.52,2.289,0.914,4.566,3.203,5.086
		c0.316,0.072,0.634,0.107,0.945,0.107c1.941,0,3.692-1.337,4.141-3.309c3.4-14.96,3.439-29.657,3.439-30.275
		c0-2.347-1.903-4.25-4.25-4.25C170.178,336.094,168.275,337.997,168.275,340.344z"/>
	<path d="M328.909,368.103c-2.342,0.156-4.114,2.181-3.959,4.523c0.701,10.512,7.959,29.745,8.268,30.558
		c0.645,1.699,2.26,2.744,3.975,2.744c0.501,0,1.011-0.089,1.506-0.277c2.195-0.832,3.3-3.287,2.467-5.481
		c-1.978-5.212-7.221-20.423-7.733-28.108C333.275,369.719,331.233,367.95,328.909,368.103z"/>
</g>
<g>
</g>
<g>
</g>
<g>
</g>
<g>
</g>
<g>
</g>
<g>
</g>
<g>
</g>
<g>
</g>
<g>
</g>
<g>
</g>
<g>
</g>
<g>
</g>
<g>
</g>
<g>
</g>
<g>
</g>
</svg>
