<?xml version="1.0" encoding="iso-8859-1"?>
<!-- Generator: Adobe Illustrator 18.0.0, SVG Export Plug-In . SVG Version: 6.00 Build 0)  -->
<!DOCTYPE svg PUBLIC "-//W3C//DTD SVG 1.1//EN" "http://www.w3.org/Graphics/SVG/1.1/DTD/svg11.dtd">
<svg version="1.1" id="Capa_1" xmlns="http://www.w3.org/2000/svg" xmlns:xlink="http://www.w3.org/1999/xlink" x="0px" y="0px"
	 viewBox="0 0 494.548 494.548" style="enable-background:new 0 0 494.548 494.548;" xml:space="preserve">
<path d="M493.911,301.573c-1.914-19.976-9.497-40.376-12.993-48.923c2.445-28.968-5.457-58.062-13.421-78.991
	c-8.651-22.736-22.179-45.839-26.953-53.694c-5.365-13.047-14.626-24.021-26.484-30.833c-15.015-8.625-34.015-10.5-53.503-5.278
	c-14.725,3.945-28.627,11.631-39.264,21.53c-6.753-9.421-29.3-35.474-72.15-35.474c-46.663,0-69.107,27.937-74.859,36.441
	c-10.759-10.368-25.091-18.424-40.294-22.497c-19.488-5.222-38.488-3.348-53.503,5.278c-12.141,6.975-21.56,18.313-26.86,31.772
	c-3.236,5.17-17.201,28.114-26.577,52.754c-8.042,21.134-16.016,50.596-13.34,79.845c-2.593,5.827-10.956,25.985-13.073,48.069
	c-2.293,23.924,0.504,59.062,26.854,90.632c0.019,0.023,0.038,0.046,0.057,0.069c21.175,25.323,53.918,32.366,83.793,32.365
	c9.197,0,18.126-0.668,26.356-1.675c39.878-4.881,75.679-19.131,86.191-27.54c11.77-9.416,14.95-20.674,14.809-29.29
	c1.853,0.571,3.819,0.882,5.858,0.882h4.178c2.513,0,4.909-0.487,7.124-1.34c-0.262,8.671,2.822,20.165,14.8,29.748
	c10.512,8.41,46.314,22.659,86.191,27.54c8.233,1.008,17.158,1.676,26.356,1.675c29.874,0,62.621-7.044,83.793-32.365
	c0.019-0.023,0.038-0.046,0.057-0.069C493.407,360.635,496.204,325.496,493.911,301.573z M469.515,210.588h-31.191
	c-2.347,0-4.25,1.903-4.25,4.25c0,2.347,1.903,4.25,4.25,4.25h31.499c0.423,0,0.822-0.081,1.208-0.195
	c2.641,16.8,2.797,34.334-1.651,50.974c-4.105,15.358-14.708,27.549-31.514,36.234c-43.178,22.313-119.65,16.915-169.215-1.196
	v-9.32h57.18c2.347,0,4.25-1.903,4.25-4.25c0-2.347-1.903-4.25-4.25-4.25h-57.18v-48.896c5.351,1.132,11.794,1.694,19.066,1.694
	c16.376-0.001,36.877-2.816,58.142-8.202c35.249-8.929,64.21-22.794,79.456-38.04c13.259-13.259,20.317-29.845,20.382-47.458
	C453.382,160.829,464.119,184.447,469.515,210.588z M21.722,237.743h64.755c2.347,0,4.25-1.903,4.25-4.25s-1.903-4.25-4.25-4.25
	h-64.24c0.701-7.752,2.002-15.421,3.712-22.854c0.066,0.003,0.129,0.02,0.197,0.02h20.667c2.347,0,4.25-1.903,4.25-4.25
	s-1.903-4.25-4.25-4.25H28.094c5.789-20.999,14.338-39.493,20.758-51.727c0.064,17.613,7.123,34.2,20.382,47.459
	c15.246,15.246,44.206,29.111,79.456,38.039c21.267,5.387,41.765,8.202,58.142,8.202c6.709,0,12.714-0.479,17.809-1.441v66.909
	c-26.596,9.518-60.63,15.415-93.11,15.413c-28.085-0.001-54.993-4.403-74.847-14.664c-16.806-8.685-27.409-20.876-31.514-36.234
	C22.365,259.378,21.398,248.535,21.722,237.743z M233.14,181.038c0-6.295,5.121-11.416,11.416-11.416h4.178
	c6.295,0,11.416,5.121,11.416,11.416v90.42c-0.578,0.176-1.13,0.465-1.608,0.895c-1.304,1.173-13.085,11.119-25.224-0.564
	c-0.056-0.053-0.12-0.09-0.178-0.14V181.038z M409.827,96.502c14.244,8.183,24.533,24.121,26.853,41.596
	c2.43,18.307-3.74,35.898-17.375,49.532c-14.195,14.195-41.725,27.247-75.532,35.811c-30.241,7.661-59.57,9.997-75.121,6.027
	v-48.431c0-1.75-0.249-3.439-0.675-5.057c0.233-0.163,0.453-0.352,0.656-0.567c0.325-0.344,32.69-34.676,53.243-58.439
	C341.685,94.069,381.754,80.375,409.827,96.502z M249.144,78.41c41.459,0,61.814,26.732,66.131,33.2
	c-18.016,20.816-45.049,49.694-51.432,56.488c-3.656-4.262-9.067-6.976-15.109-6.976h-4.178c-5.712,0-10.855,2.43-14.49,6.295
	c-7.237-7.711-32.349-34.58-49.795-54.657C181.748,110.298,201.843,78.41,249.144,78.41z M84.722,96.502
	c28.071-16.125,68.141-2.434,87.952,20.473c19.426,22.461,49.391,54.347,52.892,58.066c-0.599,1.894-0.926,3.907-0.926,5.997v7.051
	h-51.803c-2.347,0-4.25,1.903-4.25,4.25s1.903,4.25,4.25,4.25h51.803v33.181c-15.842,3.542-44.42,1.129-73.863-6.329
	c-33.807-8.563-61.337-21.616-75.532-35.81c-13.635-13.635-19.806-31.226-17.376-49.533C60.19,120.623,70.479,104.685,84.722,96.502
	z M9.071,302.674c1.316-14.039,4.619-25.835,7.201-33.356c0.218,0.917,0.441,1.832,0.685,2.744
	c4.75,17.767,16.803,31.76,35.824,41.59c24.405,12.612,54.856,15.668,78.633,15.668c2.999,0,5.895-0.049,8.656-0.133
	c29.049-0.886,59.518-6.25,84.571-14.816v32.728c0,3.408,0.863,6.618,2.378,9.425c-7.126,4.432-25.144,14.673-51.522,23.025
	c-31.688,10.033-82.02,19.184-142.373,6.125C14.179,362.426,6.088,334.51,9.071,302.674z M218.58,388.785
	c-16.12,12.896-122.106,50.286-174.768,7.623c56.63,9.748,103.788,0.89,134.25-8.755c25.757-8.156,43.68-17.947,52.017-23.017
	C230.605,370.44,229.41,380.122,218.58,388.785z M244.556,358.515c-6.295,0-11.416-5.121-11.416-11.416v-64.768
	c4.302,2.576,8.603,3.579,12.629,3.579c5.562,0,10.594-1.913,14.381-4.22v65.409c0,6.295-5.121,11.416-11.416,11.416H244.556z
	 M275.968,388.785c-10.871-8.697-12.057-18.361-11.516-24.159c8.329,5.067,26.259,14.866,52.034,23.027
	c30.462,9.645,77.619,18.502,134.251,8.754C398.076,439.071,292.088,401.68,275.968,388.785z M461.424,385.675
	c-60.2,13.026-110.416,3.947-142.038-6.02c-27.774-8.753-46.427-19.687-52.821-23.74c1.322-2.662,2.084-5.648,2.084-8.816v-2.017
	h60.179c2.347,0,4.25-1.903,4.25-4.25c0-2.347-1.903-4.25-4.25-4.25H268.65v-22.653c25.288,8.821,56.288,14.357,85.829,15.258
	c2.762,0.084,5.654,0.133,8.655,0.133c23.776-0.001,54.229-3.057,78.633-15.668c19.021-9.829,31.074-23.822,35.824-41.59
	c0.241-0.902,0.462-1.807,0.678-2.713c3.717,10.919,8.917,30.868,7.427,53.825c-0.282-0.059-0.574-0.092-0.874-0.092h-44.998
	c-2.347,0-4.25,1.903-4.25,4.25c0,2.347,1.903,4.25,4.25,4.25h44.998c0.012,0,0.022-0.004,0.034-0.004
	c-1.156,8.467-3.308,17.227-6.822,26.002h-35.21c-2.347,0-4.25,1.903-4.25,4.25s1.903,4.25,4.25,4.25l31.48-0.233
	C470.932,372.541,466.702,379.192,461.424,385.675z"/>
<g>
</g>
<g>
</g>
<g>
</g>
<g>
</g>
<g>
</g>
<g>
</g>
<g>
</g>
<g>
</g>
<g>
</g>
<g>
</g>
<g>
</g>
<g>
</g>
<g>
</g>
<g>
</g>
<g>
</g>
</svg>
