<?xml version="1.0" encoding="iso-8859-1"?>
<!-- Generator: Adobe Illustrator 18.0.0, SVG Export Plug-In . SVG Version: 6.00 Build 0)  -->
<!DOCTYPE svg PUBLIC "-//W3C//DTD SVG 1.1//EN" "http://www.w3.org/Graphics/SVG/1.1/DTD/svg11.dtd">
<svg version="1.1" id="Capa_1" xmlns="http://www.w3.org/2000/svg" xmlns:xlink="http://www.w3.org/1999/xlink" x="0px" y="0px"
	 viewBox="0 0 485.197 485.197" style="enable-background:new 0 0 485.197 485.197;" xml:space="preserve">
<g>
	<path d="M484.141,213.718c-5.926-8.06-89.627-120.68-148.272-134.008c-9.422-2.141-20.256-3.182-33.12-3.182
		c-40.812,0-96.15,10.782-160.229,23.266c-35.694,6.954-76.15,14.837-117.933,21.53c-1.156,0.185-2.185,0.839-2.843,1.807
		c-0.658,0.969-0.888,2.166-0.635,3.309l13.667,61.668c0.5,2.257,2.712,3.702,4.979,3.249c1.919-0.382,192.605-38.274,255.64-45.278
		c3.619-0.402,7.421-0.606,11.3-0.606c74.295,0,170.67,73.67,171.635,74.414c0.761,0.586,1.664,0.878,2.566,0.884
		c0.017,0,0.033,0,0.05,0c2.347,0,4.25-1.903,4.25-4.25C485.197,215.447,484.798,214.466,484.141,213.718z M424.613,175.154
		c-45.728-25.336-85.401-38.182-117.917-38.182c-4.191,0-8.31,0.221-12.238,0.658c-58.218,6.469-224.089,39.013-252.28,44.581
		l-11.794-53.213c6.305-1.025,12.569-2.077,18.794-3.144l7.411,37.98c0.396,2.029,2.174,3.437,4.167,3.437
		c0.27,0,0.543-0.026,0.818-0.08c2.304-0.45,3.807-2.682,3.358-4.985l-7.377-37.804c30.581-5.355,59.917-11.068,86.591-16.265
		c63.646-12.4,118.612-23.109,158.604-23.109c12.223,0,22.44,0.972,31.236,2.971c41.066,9.333,97.882,73.816,126.127,108.718
		C450.425,190.316,438.256,182.712,424.613,175.154z"/>
	<path d="M294.458,120.623c-15.02,1.669-38.356,5.194-69.364,10.48c-2.313,0.394-3.87,2.59-3.476,4.903
		c0.395,2.314,2.592,3.873,4.903,3.476c30.847-5.257,54.019-8.76,68.875-10.41c30.966-3.44,72.282,8.125,119.481,33.449
		c0.64,0.343,1.327,0.506,2.006,0.506c1.516,0,2.982-0.813,3.749-2.242c1.109-2.068,0.332-4.645-1.736-5.754
		C369.476,128.515,327.613,116.941,294.458,120.623z"/>
	<path d="M8.407,135.966c-0.492-2.295-2.751-3.754-5.047-3.265c-2.295,0.492-3.757,2.751-3.265,5.046l12,56
		c0.428,1.995,2.19,3.36,4.151,3.36c0.295,0,0.595-0.031,0.894-0.095c2.295-0.492,3.757-2.751,3.266-5.046L8.407,135.966z"/>
	<path d="M308.437,303.28c0.452,0,0.912-0.073,1.364-0.226c40.443-13.703,79.681-36.435,116.622-67.564
		c1.795-1.513,2.025-4.194,0.512-5.989c-1.514-1.796-4.194-2.023-5.989-0.511c-36.126,30.443-74.439,52.653-113.872,66.014
		c-2.224,0.753-3.415,3.166-2.662,5.389C305.012,302.163,306.666,303.28,308.437,303.28z"/>
	<path d="M226.962,318.603c18.674-0.781,37.419-3.384,55.714-7.737c2.283-0.544,3.694-2.835,3.151-5.119
		c-0.544-2.283-2.838-3.696-5.119-3.151c-17.767,4.227-35.97,6.755-54.102,7.514c-2.346,0.098-4.167,2.079-4.068,4.424
		c0.095,2.285,1.977,4.072,4.243,4.072C226.84,318.607,226.901,318.606,226.962,318.603z"/>
	<path d="M449.287,298.112c-0.222,0.032-21.31,2.731-41.955-13.426c6.424-4.815,12.791-9.872,19.092-15.183
		c1.795-1.513,2.025-4.194,0.512-5.989c-1.514-1.795-4.194-2.023-5.989-0.511c-93.563,78.842-183.462,86.527-242.405,79.089
		c-64.015-8.077-106.482-35.212-106.904-35.485c-1.969-1.277-4.6-0.718-5.877,1.25c-1.14,1.754-0.813,4.03,0.665,5.411
		c-0.129,34.605,21.324,70.124,22.257,71.65c0.802,1.31,2.199,2.033,3.63,2.033c0.756,0,1.521-0.202,2.214-0.625
		c2.002-1.225,2.633-3.84,1.408-5.843c-0.204-0.333-18.964-31.376-20.859-62.039c10.697,5.831,31.54,15.905,60.001,23.665
		c6.405,34.152,33.974,63.94,35.168,65.216c0.837,0.894,1.969,1.345,3.104,1.345c1.04,0,2.084-0.38,2.903-1.147
		c1.714-1.604,1.802-4.293,0.198-6.007c-0.264-0.282-24.898-26.877-32.187-57.055c10.137,2.432,21.106,4.522,32.821,6.016
		c12.548,1.6,25.093,2.399,37.601,2.399c0.298,0,0.596-0.006,0.894-0.007c16.971,29.509,51.734,46.121,53.24,46.829
		c0.585,0.275,1.199,0.405,1.806,0.405c1.596,0,3.125-0.903,3.849-2.443c0.999-2.124,0.087-4.655-2.038-5.654
		c-0.326-0.154-30.521-14.574-46.983-39.333c19.598-0.721,39.074-3.41,58.287-8.055c23.623,23.158,60.905,27.905,62.517,28.099
		c0.173,0.021,0.345,0.031,0.515,0.031c2.118,0,3.951-1.583,4.212-3.739c0.282-2.329-1.377-4.446-3.706-4.73
		c-0.345-0.042-32.009-4.109-53.696-22.217c19.734-5.486,39.179-13.066,58.239-22.699c23.564,23.897,61.74,28.759,63.372,28.956
		c0.173,0.021,0.344,0.031,0.514,0.031c2.12,0,3.954-1.584,4.214-3.742c0.281-2.33-1.38-4.447-3.71-4.728
		c-0.359-0.043-34.778-4.416-56.463-24.656c13.72-7.385,27.231-15.84,40.5-25.344c17.845,14.894,36.329,16.932,45.072,16.932
		c3.006,0,4.861-0.24,5.143-0.279c2.325-0.324,3.947-2.47,3.624-4.795C453.758,299.41,451.615,297.782,449.287,298.112z"/>
	<path d="M166.443,185.769c-0.415-2.31-2.621-3.848-4.935-3.432l-117,21c-2.31,0.415-3.847,2.624-3.432,4.934
		c0.369,2.056,2.159,3.5,4.178,3.5c0.249,0,0.502-0.022,0.756-0.067l117-21C165.321,190.288,166.857,188.079,166.443,185.769z"/>
</g>
<g>
</g>
<g>
</g>
<g>
</g>
<g>
</g>
<g>
</g>
<g>
</g>
<g>
</g>
<g>
</g>
<g>
</g>
<g>
</g>
<g>
</g>
<g>
</g>
<g>
</g>
<g>
</g>
<g>
</g>
</svg>
