<?xml version="1.0" encoding="iso-8859-1"?>
<!-- Generator: Adobe Illustrator 18.0.0, SVG Export Plug-In . SVG Version: 6.00 Build 0)  -->
<!DOCTYPE svg PUBLIC "-//W3C//DTD SVG 1.1//EN" "http://www.w3.org/Graphics/SVG/1.1/DTD/svg11.dtd">
<svg version="1.1" id="Capa_1" xmlns="http://www.w3.org/2000/svg" xmlns:xlink="http://www.w3.org/1999/xlink" x="0px" y="0px"
	 viewBox="0 0 480.225 480.225" style="enable-background:new 0 0 480.225 480.225;" xml:space="preserve">
<g>
	<path d="M262.27,228.041c2.923,17.141,8.361,49.047,41.066,49.047c2.142,0,4.394-0.145,6.694-0.429
		c19.343-2.392,32.096-9.048,37.906-19.786c8.371-15.47,0.866-35.164-7.577-52.387c-6.784-13.841-21.351-21.463-41.015-21.463
		c-5.971,0-10.395,0.726-11.344,0.894c-11.051,1.244-18.605,4.769-23.089,10.773c-6.103,8.172-5.149,19.285-3.21,30.078
		C261.887,225.795,262.074,226.891,262.27,228.041z M340.46,252.828c-4.426,8.181-15.016,13.36-31.473,15.396
		c-0.124,0.015-0.242,0.021-0.365,0.034c11.946-3.956,20.261-10.17,24.808-18.573c6.668-12.324,4.468-27.068-0.77-41.584
		c0.022,0.043,0.046,0.083,0.066,0.127C339.78,222.613,347.033,240.683,340.46,252.828z M271.723,199.777
		c3.018-4.042,8.698-6.472,17.362-7.428c0.108-0.013,0.223-0.029,0.329-0.05c0.041-0.008,4.177-0.776,9.931-0.776
		c5.689,0,12.266,0.713,18.279,3.104c8.036,16.593,15.896,37.031,8.33,51.013c-5.237,9.678-17.674,15.795-36.966,18.18
		c-0.5,0.061-0.961,0.223-1.386,0.438c-10.721-7.176-14.334-22.275-16.954-37.645c-0.2-1.177-0.392-2.297-0.58-3.348
		C268.468,214.359,267.561,205.35,271.723,199.777z"/>
	<path d="M217.464,224.768c1.939-10.793,2.893-21.906-3.21-30.078c-4.484-6.004-12.038-9.528-23.089-10.773
		c-0.949-0.169-5.373-0.894-11.344-0.894c-19.664,0-34.23,7.622-41.015,21.463c-8.443,17.223-15.948,36.917-7.577,52.387
		c5.811,10.738,18.564,17.395,37.906,19.786c2.301,0.284,4.553,0.429,6.694,0.429c32.705,0,38.143-31.906,41.066-49.047
		C217.093,226.891,217.28,225.795,217.464,224.768z M146.44,208.227c0.02-0.044,0.044-0.084,0.066-0.127
		c-5.237,14.516-7.438,29.26-0.77,41.584c4.547,8.403,12.861,14.617,24.808,18.573c-0.123-0.014-0.241-0.02-0.365-0.034
		c-16.457-2.035-27.047-7.215-31.473-15.396C132.134,240.683,139.387,222.613,146.44,208.227z M209.098,223.265
		c-0.188,1.051-0.38,2.171-0.58,3.348c-2.62,15.369-6.233,30.469-16.954,37.645c-0.425-0.215-0.886-0.376-1.386-0.438
		c-19.292-2.385-31.729-8.502-36.966-18.18c-7.565-13.981,0.294-34.42,8.33-51.013c6.014-2.391,12.591-3.104,18.279-3.104
		c5.754,0,9.89,0.769,9.931,0.776c0.106,0.02,0.221,0.037,0.329,0.05c8.664,0.956,14.344,3.386,17.362,7.428
		C211.606,205.35,210.699,214.359,209.098,223.265z"/>
	<path d="M375.671,243.201c0.202-0.15,0.399-0.311,0.577-0.501c28.467-30.434,44.145-69.427,44.145-109.796
		c0-22.511-4.83-42.756-14.354-60.171c-8.972-16.403-22.134-30.37-39.123-41.514C335.78,10.796,291.931,0,240.112,0
		c-51.819,0-95.667,10.796-126.803,31.22C96.32,42.363,83.157,56.33,74.186,72.733c-9.525,17.415-14.354,37.66-14.354,60.171
		c0,40.336,15.654,79.304,44.081,109.726c0.199,0.213,0.415,0.401,0.644,0.563c-1.228,3.545-2.51,7.028-3.767,10.439
		c-5.401,14.665-10.066,27.33-7.293,37.615c1.963,7.28,7.614,14.581,14.613,21.272c0.168,0.886,10.432,54.905,16.915,85.156
		c10.912,50.918,55.011,82.549,115.087,82.549c60.076,0,104.175-31.631,115.087-82.549c5.806-27.089,14.877-74.76,16.832-85.076
		c7.038-6.712,12.727-14.041,14.697-21.351c2.773-10.286-1.892-22.951-7.293-37.617
		C378.179,250.224,376.898,246.742,375.671,243.201z M101.704,289.035c-0.613-2.275-0.663-4.893-0.314-7.788h26.164
		c2.348,0,4.25-1.902,4.25-4.25c0-2.348-1.902-4.25-4.25-4.25h-24.341c1.415-4.938,3.42-10.386,5.554-16.177
		c8.06-21.884,18.091-49.118,6.261-76.905c-16.625-39.051,5.3-53.338,6.295-53.959c1.992-1.219,2.629-3.819,1.42-5.821
		c-1.213-2.009-3.825-2.652-5.835-1.442c-0.316,0.19-7.782,4.786-12.573,15.258c-4.28,9.355-7.257,25.501,2.873,49.295
		c7.423,17.436,5.112,34.736,0.321,50.985c-25.305-28.403-39.196-64.146-39.196-101.076c0-20.373,4.1-38.455,12.23-54.147H192.05
		c2.347,0,4.25-1.902,4.25-4.25c0-2.348-1.903-4.25-4.25-4.25H85.515c5.912-9.085,13.346-17.258,22.279-24.498h52.758
		c2.347,0,4.25-1.902,4.25-4.25c0-2.348-1.903-4.25-4.25-4.25h-40.908C149.292,18.441,190.882,8.5,240.112,8.5
		c50.158,0,92.395,10.313,122.142,29.826c4.5,2.951,8.686,6.102,12.578,9.432h-14.79c-2.348,0-4.25,1.902-4.25,4.25
		c0,2.348,1.902,4.25,4.25,4.25h23.696c8.058,8.625,14.391,18.305,18.998,28.999h-50.193c-2.348,0-4.25,1.902-4.25,4.25
		c0,2.348,1.902,4.25,4.25,4.25h53.43c3.94,11.919,5.921,24.98,5.921,39.147c0,36.932-13.892,72.671-39.196,101.076
		c-4.791-16.249-7.102-33.549,0.322-50.985c10.129-23.794,7.152-39.939,2.872-49.295c-4.791-10.473-12.259-15.067-12.574-15.259
		c-2.009-1.211-4.621-0.566-5.835,1.442c-1.213,2.009-0.567,4.621,1.441,5.835c0.232,0.14,23.066,14.501,6.275,53.946
		c-11.831,27.787-1.8,55.021,6.26,76.905c4.9,13.303,9.132,24.792,7.063,32.466c-0.285,1.058-0.685,2.129-1.184,3.21h-38.295
		c-2.347,0-4.25,1.902-4.25,4.25c0,2.348,1.903,4.25,4.25,4.25h32.617c-11.9,13.972-35.011,27.768-45.039,32.897
		c-1.113,0.57-1.921,1.603-2.204,2.821l-5.564,23.912h-157.48l-5.564-23.913c-0.284-1.22-1.091-2.252-2.205-2.821
		C140.74,327.067,106.341,306.236,101.704,289.035z M313.194,386.625h-17.399v-17.748h17.399V386.625z M287.294,386.625h-17.4
		v-17.748h17.4V386.625z M261.395,386.625h-17.4v-17.748h17.4V386.625z M235.495,386.625h-17.399v-17.748h17.399V386.625z
		 M209.595,386.625h-17.399v-17.748h17.399V386.625z M183.696,386.625h-17.4v-17.748h17.4V386.625z M157.795,399.522
		c-5.027-5.815-8.315-12.907-10.143-21.436c-3.615-16.869-7.351-33.757-9.495-43.393c4.305,2.591,7.811,4.521,9.813,5.591
		l5.889,25.306c0.433,1.857,2.049,3.18,3.938,3.27V399.522z M166.295,395.125h17.4v19.932c-6.819-2.094-12.593-4.741-17.4-8.007
		V395.125z M192.196,395.125h17.399v24.816c-6.349-0.648-12.128-1.542-17.399-2.686V395.125z M218.095,395.125h17.399v26.145
		c-6.174-0.067-11.966-0.276-17.399-0.63V395.125z M243.995,395.125h17.4v25.566c-5.433,0.338-11.235,0.526-17.4,0.583V395.125z
		 M269.895,395.125h17.4v22.294c-5.275,1.109-11.062,1.971-17.4,2.595V395.125z M295.794,395.125h17.399v12.393
		c-4.833,3.161-10.602,5.729-17.399,7.755V395.125z M321.694,368.877h0.533c1.976,0,3.691-1.362,4.139-3.287l5.889-25.305
		c2.002-1.07,5.509-3,9.813-5.59c-2.145,9.636-5.88,26.523-9.495,43.391c-1.915,8.938-5.433,16.3-10.878,22.265V368.877z
		 M346.887,395.895c-10.023,46.773-50.938,75.83-106.775,75.83s-96.752-29.057-106.775-75.83
		c-4.754-22.18-11.554-57.221-14.885-74.555c3.199,2.469,6.441,4.785,9.573,6.898c0.012,0.066,0.01,0.132,0.024,0.198
		c0.058,0.256,5.813,25.872,11.291,51.431c9.403,43.884,53.99,49.933,100.771,49.933c46.781,0,91.367-6.049,100.771-49.933
		c5.478-25.557,11.233-51.176,11.291-51.432c0.015-0.065,0.012-0.13,0.023-0.195c3.132-2.113,6.375-4.43,9.574-6.898
		C358.441,338.677,351.641,373.715,346.887,395.895z"/>
	<path d="M217.087,304.5c1.438,3.031,4.865,6.646,13.024,6.645c2.845,0,6.211-0.438,10.015-1.3c3.205,0.7,6.08,1.055,8.558,1.055
		c7.815,0,11.199-3.526,12.662-6.484c6.369-12.882-13.758-40.297-17.857-45.661c-0.789-1.033-2.008-1.648-3.309-1.669
		c-1.31-0.047-2.538,0.554-3.36,1.561C232.438,264.013,210.892,291.445,217.087,304.5z M239.996,268.373
		c8.883,12.674,16.127,27.431,13.73,32.275c-0.574,1.161-2.271,1.751-5.042,1.751c-2.075,0-4.631-0.355-7.598-1.053
		c-0.648-0.152-1.323-0.151-1.971,0.005c-3.558,0.858-6.587,1.293-9.005,1.293c-2.051,0-4.643-0.31-5.344-1.788
		C222.445,295.965,230.417,281.095,239.996,268.373z"/>
</g>
<g>
</g>
<g>
</g>
<g>
</g>
<g>
</g>
<g>
</g>
<g>
</g>
<g>
</g>
<g>
</g>
<g>
</g>
<g>
</g>
<g>
</g>
<g>
</g>
<g>
</g>
<g>
</g>
<g>
</g>
</svg>
