<?xml version="1.0" encoding="iso-8859-1"?>
<!-- Generator: Adobe Illustrator 18.0.0, SVG Export Plug-In . SVG Version: 6.00 Build 0)  -->
<!DOCTYPE svg PUBLIC "-//W3C//DTD SVG 1.1//EN" "http://www.w3.org/Graphics/SVG/1.1/DTD/svg11.dtd">
<svg version="1.1" id="Capa_1" xmlns="http://www.w3.org/2000/svg" xmlns:xlink="http://www.w3.org/1999/xlink" x="0px" y="0px" fill="#5894B5"
	 viewBox="0 0 495.12 495.12" style="enable-background:new 0 0 495.12 495.12;" xml:space="preserve">
<g>
	<path d="M205.865,164.48c-1.82,1.481-2.095,4.158-0.613,5.979c0.221,0.271,22.15,28.145,27.257,114.974
		c0.133,2.258,2.006,4.001,4.239,4.001c0.084,0,0.168-0.003,0.253-0.007c2.343-0.138,4.131-2.149,3.993-4.492
		c-5.267-89.543-28.178-118.645-29.151-119.841C210.363,163.273,207.686,162.997,205.865,164.48z"/>
	<path d="M247.557,117.81c0.335-0.01,33.46-0.424,52.006,22.286c0.84,1.029,2.062,1.562,3.294,1.562
		c0.945,0,1.896-0.314,2.686-0.958c1.818-1.484,2.088-4.162,0.603-5.98c-20.935-25.634-56.186-25.447-58.583-25.409
		c-2.337-0.04-37.638-0.247-58.59,25.409c-1.485,1.818-1.215,4.496,0.603,5.98c0.79,0.645,1.741,0.958,2.686,0.958
		c1.232,0,2.454-0.533,3.294-1.562C214.104,117.385,247.246,117.802,247.557,117.81z"/>
	<path d="M289.255,164.48c-1.82-1.482-4.498-1.208-5.979,0.613c-0.973,1.195-23.884,30.298-29.151,119.841
		c-0.138,2.343,1.65,4.354,3.993,4.492c0.085,0.005,0.169,0.007,0.253,0.007c2.233,0,4.106-1.742,4.239-4.001
		c5.064-86.095,26.982-114.626,27.27-114.989C291.349,168.623,291.071,165.957,289.255,164.48z"/>
	<path d="M480.148,97.812c-13.966-12.156-31.613-17.377-51.035-15.092c-15.871,1.865-32.775,8.755-47.599,19.399
		c-18.04,12.952-37.491,23.345-59.467-3.565c-26.721-32.72-71.449-32.481-74.487-32.432c-3.036-0.054-47.765-0.29-74.487,32.432
		c-21.978,26.91-41.429,16.517-59.467,3.565C98.782,91.475,81.877,84.585,66.007,82.72c-19.423-2.285-37.069,2.936-51.035,15.092
		C2.245,108.889-2.696,126.03,1.416,144.84c4.731,21.641,20.152,40.315,37.501,45.411c14.883,4.372,31.415,2.02,35.761,1.273
		c11.265,15.551,25.678,20.484,42.91,14.641c4.967-1.684,6.873-2.819,13.189-6.58c2.788-1.66,6.606-3.934,12.051-7.069
		c7.444-4.286,15.141-8.717,21.425-11.587c7.841-3.582,10.361-3.272,10.892-3.124c1.222,3.108,13.91,35.028,25.008,49.297
		c8.066,10.371,6.727,14.512,2.751,26.806c-0.735,2.273-1.569,4.851-2.408,7.705c-6.009,20.43-3.416,33.139-0.487,41.928
		c0.314,0.942,0.633,1.878,0.952,2.816c2.917,8.566,5.673,16.657,5.219,30.293c-0.279,8.364,2.747,21.297,5.949,34.989
		c3.082,13.172,6.268,26.793,5.768,34.048c-0.826,11.972-2.245,15.961-2.569,16.736c-1.345,1.689-1.051,3.94,0.507,5.468
		c1.588,1.557,4.264,1.416,5.935-0.05c5.438-4.77,15.802-7.974,25.791-7.974c9.989,0,20.353,3.204,25.791,7.974
		c0.862,0.756,1.991,1.16,3.101,1.16c1.042,0,2.065-0.356,2.835-1.11c1.558-1.528,1.852-3.779,0.507-5.468
		c-0.324-0.775-1.743-4.765-2.569-16.736c-0.5-7.255,2.686-20.876,5.768-34.048c3.203-13.692,6.228-26.626,5.949-34.989
		c-0.455-13.636,2.301-21.727,5.219-30.293c0.319-0.938,0.639-1.875,0.952-2.816c2.93-8.789,5.522-21.498-0.487-41.928
		c-0.839-2.854-1.673-5.432-2.408-7.705c-3.976-12.294-5.316-16.435,2.751-26.806c11.098-14.27,23.786-46.189,25.008-49.297
		c0.531-0.147,3.052-0.457,10.892,3.124c6.284,2.87,13.981,7.301,21.426,11.588c5.443,3.134,9.261,5.408,12.049,7.068
		c6.315,3.761,8.222,4.895,13.189,6.58c17.232,5.843,31.645,0.911,42.91-14.641c2.381,0.409,8.431,1.303,15.88,1.303
		c6.116,0,13.168-0.604,19.881-2.576c17.349-5.096,32.77-23.77,37.501-45.411C497.816,126.03,492.875,108.889,480.148,97.812z
		 M73.631,155.07c-18.519-0.072-36.856-14.479-38.597-26.26c-0.813-5.501,2.702-9.353,10.449-11.448
		c30.975-8.377,47.398,8.101,61.886,22.641c6.054,6.076,11.773,11.815,18.02,15.023c16.581,8.514,27.354,3.09,35.221-0.871
		c2.458-1.238,4.581-2.307,6.501-2.787c1.279-0.32,2.086-0.46,2.286-0.223c0.18,0.213-0.105,0.688-0.223,0.832
		c-15.768,14.783-36.114,15.766-42.149,12.128c-16.539-9.972-28.955-12.958-37.892-12.958
		C81.661,151.147,76.62,153.233,73.631,155.07z M368.096,164.105c-6.034,3.637-26.381,2.655-42.123-12.102
		c-0.138-0.165-0.428-0.644-0.248-0.858c0.198-0.237,1.006-0.097,2.285,0.223c1.92,0.48,4.043,1.549,6.501,2.787
		c7.866,3.961,18.639,9.386,35.221,0.871c6.247-3.208,11.965-8.947,18.02-15.023c14.488-14.539,30.909-31.018,61.886-22.641
		c7.747,2.095,11.262,5.947,10.449,11.448c-1.741,11.782-20.077,26.189-38.597,26.26
		C414.925,151.036,398.459,145.798,368.096,164.105z M417.715,162.76c2.614,1.884,4.735,9.784-1.824,20.313
		c-5.989,9.613-16.2,21.631-35.629,15.043c-4.119-1.396-5.402-2.161-11.57-5.833c-2.81-1.674-6.66-3.966-12.158-7.132
		c-19.432-11.188-31.728-17.918-39.319-15.384c-2.325,0.775-4.063,2.372-5.026,4.621c-0.018,0.042-0.036,0.085-0.052,0.128
		c-0.131,0.335-13.204,33.646-23.879,47.37c-10.829,13.923-8.307,21.721-4.128,34.64c0.719,2.223,1.534,4.743,2.342,7.488
		c5.311,18.058,3.272,28.757,0.578,36.842c-0.308,0.924-0.621,1.843-0.935,2.764c-3.035,8.912-6.174,18.128-5.668,33.316
		c0.241,7.239-2.795,20.218-5.731,32.77c-1.396,5.969-2.756,11.794-3.833,17.185h-27.844c-2.347,0-4.25,1.903-4.25,4.25
		c0,2.347,1.903,4.25,4.25,4.25h26.361c-0.588,4.143-0.864,7.842-0.654,10.884c0.263,3.817,0.59,6.955,0.945,9.53
		c-6.485-2.797-14.356-4.434-22.129-4.434c-7.773,0-15.644,1.637-22.129,4.434c0.354-2.575,0.682-5.712,0.945-9.53
		c0.581-8.42-2.516-21.799-5.839-36.009h27.333c2.347,0,4.25-1.903,4.25-4.25c0-2.347-1.903-4.25-4.25-4.25h-29.302
		c-1.682-7.408-3.146-14.505-3.684-19.998h23.987c2.347,0,4.25-1.903,4.25-4.25c0-2.347-1.903-4.25-4.25-4.25h-24.152
		c-0.069-13.043-2.93-21.48-5.712-29.648c-0.314-0.921-0.627-1.84-0.935-2.764c-2.695-8.085-4.733-18.784,0.578-36.842
		c0.808-2.745,1.623-5.265,2.342-7.488c4.178-12.919,6.7-20.717-4.128-34.64c-10.667-13.714-23.748-47.035-23.879-47.37
		c-0.017-0.043-0.034-0.085-0.052-0.128c-0.963-2.248-2.701-3.846-5.026-4.621c-7.596-2.533-19.888,4.197-39.321,15.385
		c-5.497,3.165-9.346,5.457-12.157,7.131c-6.168,3.672-7.451,4.437-11.57,5.833c-19.432,6.588-29.641-5.43-35.629-15.043
		c-6.56-10.529-4.422-18.406-1.824-20.313c0.024-0.017-0.023,0.017,0,0c6.865-4.862,22.363-5.163,45.23,8.624
		c9.726,5.864,34.347,3.675,52.351-13.206c2.969-2.783,3.787-7.728,1.862-11.258c-0.973-1.786-4.071-5.733-11.8-3.799
		c-2.837,0.709-5.473,2.036-8.262,3.441c-7.266,3.659-14.777,7.442-27.516,0.901c-5.054-2.595-10.314-7.873-15.881-13.461
		c-14.513-14.565-34.388-34.511-70.127-24.846c-17.12,4.631-17.338,16.156-16.638,20.896c2.076,14.045,19.894,30.242,40.735,33.082
		c-1.773,5.374-1.371,12.614,2.477,20.495c-6.172,0.752-18.039,1.546-28.524-1.534c-14.273-4.192-27.56-20.624-31.593-39.071
		c-2.015-9.216-3.287-26.513,10.832-38.801c27.164-23.643,64.434-12.19,88.096,4.8c13.678,9.821,42.141,30.254,71.007-5.093
		c24.411-29.891,67.378-29.322,67.804-29.309c0.066,0.001,0.134,0.001,0.2,0c0.437-0.007,43.322-0.669,67.804,29.309
		c12.231,14.978,24.386,19.94,35.378,19.939c14.95-0.002,27.747-9.187,35.629-14.846c23.663-16.99,60.933-28.443,88.096-4.8
		c14.119,12.288,12.847,29.584,10.832,38.801c-4.033,18.447-17.32,34.878-31.593,39.071c-10.486,3.08-22.352,2.286-28.524,1.534
		c3.847-7.88,4.249-15.121,2.477-20.495c20.84-2.842,38.66-19.038,40.735-33.082c0.701-4.74,0.482-16.265-16.638-20.896
		c-35.739-9.668-55.613,10.281-70.126,24.846c-5.568,5.588-10.827,10.866-15.881,13.461c-12.738,6.542-20.25,2.757-27.516-0.901
		c-2.789-1.405-5.425-2.732-8.262-3.441c-7.729-1.934-10.827,2.013-11.8,3.799c-1.924,3.53-1.107,8.475,1.862,11.258
		c18.006,16.881,42.626,19.068,52.351,13.206C395.354,157.597,410.891,157.84,417.715,162.76z"/>
</g>
<g>
</g>
<g>
</g>
<g>
</g>
<g>
</g>
<g>
</g>
<g>
</g>
<g>
</g>
<g>
</g>
<g>
</g>
<g>
</g>
<g>
</g>
<g>
</g>
<g>
</g>
<g>
</g>
<g>
</g>
</svg>
