<?xml version="1.0" encoding="iso-8859-1"?>
<!-- Generator: Adobe Illustrator 18.0.0, SVG Export Plug-In . SVG Version: 6.00 Build 0)  -->
<!DOCTYPE svg PUBLIC "-//W3C//DTD SVG 1.1//EN" "http://www.w3.org/Graphics/SVG/1.1/DTD/svg11.dtd">
<svg version="1.1" id="Capa_1" xmlns="http://www.w3.org/2000/svg" xmlns:xlink="http://www.w3.org/1999/xlink" x="0px" y="0px" fill="#5894B5"
	 viewBox="0 0 478.127 478.127" style="enable-background:new 0 0 478.127 478.127;" xml:space="preserve">
<g>
	<path d="M154.143,321.374c-0.122-0.021-0.244-0.036-0.367-0.045c-0.823-0.066-1.638-0.1-2.42-0.1
		c-10.487,0-15.781,6.056-17.238,11.724c-3.579,13.919-2.6,25.658,2.913,34.891c6.185,10.36,15.773,13.688,19.608,14.637
		c4.072,1.009,7.902,1.52,11.382,1.52c18.384,0,24.202-13.999,24.705-21.34C194.986,335.527,168.477,323.79,154.143,321.374z
		 M184.252,361.989c-0.114,1.383-1.534,13.511-16.232,13.511c-2.792,0-5.934-0.427-9.339-1.27
		c-2.186-0.542-9.68-2.915-14.353-10.743c-4.307-7.214-4.973-16.775-1.978-28.417c0.513-1.994,2.365-5.34,9.006-5.34
		c0.497,0,1.016,0.02,1.547,0.058C155.825,330.323,186.372,336.552,184.252,361.989z"/>
	<path d="M460.318,87.942c-15.037-19.056-39.443-29.344-72.543-30.579c-1.048-0.039-2.078-0.058-3.103-0.058
		c-23.539,0-44.434,10.411-60.423,30.106c-10.738,13.227-15.836,26.338-16.897,29.273c-2.295,3.261-8.961,10.984-14.824,10.984
		c-0.413,0-0.821-0.04-1.215-0.119c-2.856-0.571-4.653-1.346-6.239-2.029c-1.807-0.778-3.676-1.584-6.113-1.584
		c-2.773,0-5.716,1-10.288,3.53h-59.222c-4.572-2.529-7.514-3.53-10.288-3.53c-2.437,0-4.306,0.805-6.113,1.584
		c-1.586,0.683-3.384,1.457-6.24,2.029c-0.394,0.079-0.802,0.119-1.215,0.119c-5.826,0-12.521-7.733-14.825-10.989
		c-1.066-2.945-6.161-16.049-16.892-29.268c-15.988-19.695-36.883-30.106-60.426-30.106c-1.021,0-2.058,0.019-3.103,0.058
		c-33.1,1.235-57.506,11.523-72.543,30.579c-18.031,22.851-22.397,58.32-12.976,105.424c0.338,1.691,1.678,3.013,3.372,3.341
		c1.012,0.196,24.895,5.091,34.843,30.726c2.297,5.921,4.977,13.295,8.079,21.834c11.33,31.188,26.765,73.672,40.414,90.349
		l4.442,31.496c0.073,1.979,0.778,12.509,7.545,23.42c6.741,10.869,20.971,24.215,50.487,26.074
		c2.273,0.144,4.475,0.216,6.545,0.216c25.718-0.001,33.409-11.016,41.55-22.678c7.247-10.38,14.738-21.108,36.954-27.615
		c22.216,6.507,29.704,17.235,36.95,27.615c8.141,11.663,15.83,22.679,41.555,22.678c2.073,0,4.275-0.072,6.544-0.216
		c29.516-1.859,43.746-15.205,50.487-26.074c1.475-2.378,2.647-4.73,3.602-6.987c0.436-0.58,0.718-1.271,0.81-2.027
		c2.692-7.183,3.081-12.989,3.133-14.405l4.442-31.496c13.649-16.677,29.084-59.161,40.414-90.349
		c3.102-8.538,5.781-15.913,8.079-21.834c9.948-25.635,33.831-30.53,34.831-30.724c1.705-0.32,3.044-1.643,3.384-3.343
		C482.715,146.262,478.349,110.792,460.318,87.942z M208.339,135.967h61.449c0.74,0,1.466-0.193,2.109-0.56
		c1.774-1.014,3.241-1.761,4.422-2.254c-2.468,5.335-10.814,16.697-37.128,16.697c-26.127,0-34.538-11.198-37.068-16.559
		c1.126,0.491,2.483,1.188,4.107,2.116C206.873,135.774,207.599,135.967,208.339,135.967z M95.046,328.528
		c-0.304,0.039-0.594,0.111-0.872,0.208c-9.088-14.127-19.053-39.057-27.727-62.361c16.509,9.231,42.488,27.782,40.121,45.537
		C104.578,326.845,95.373,328.474,95.046,328.528z M383.993,328.673c-0.194-0.053-0.387-0.11-0.593-0.136
		c-0.391-0.062-9.596-1.692-11.587-16.626c-2.352-17.64,23.277-36.066,39.8-45.357C402.967,289.772,393.047,314.571,383.993,328.673
		z M465.473,189.068c-7.696,2.222-28.658,10.398-38.318,35.29c-2.331,6.007-5.025,13.421-8.144,22.007
		c-0.984,2.71-2.002,5.511-3.046,8.37c-0.043,0.019-0.087,0.026-0.129,0.046c-2.314,1.089-56.613,27.023-52.449,58.254
		c2.061,15.459,10.46,20.994,15.343,22.929c-0.191,0.395-0.327,0.816-0.389,1.256l-4.646,32.941
		c-0.024,0.173-0.038,0.362-0.041,0.536c-0.009,0.501-0.139,4.606-1.907,10.058h-25.934c-2.347,0-4.25,1.902-4.25,4.25
		c0,2.348,1.903,4.25,4.25,4.25h22.102c-6.075,10.259-18.581,21.248-44.337,22.87c-2.093,0.132-4.115,0.198-6.01,0.198
		c-21.293,0.001-26.868-7.986-34.585-19.042c-7.455-10.681-16.732-23.973-42.774-31.265c-0.375-0.105-0.76-0.157-1.146-0.157
		c-0.386,0-0.771,0.053-1.146,0.157c-26.041,7.292-35.321,20.583-42.777,31.264c-7.718,11.055-13.295,19.042-34.582,19.043
		c-1.892,0-3.914-0.066-6.01-0.198c-48.861-3.078-50.048-39.863-50.075-41.412c-0.002-0.185-0.016-0.369-0.042-0.552l-4.646-32.941
		c-0.058-0.408-0.174-0.803-0.344-1.174c4.847-1.858,13.46-7.328,15.552-23.011c3.09-23.172-26.001-43.425-42.167-52.78h24.986
		c2.347,0,4.25-1.903,4.25-4.25c0-2.347-1.903-4.25-4.25-4.25H61.075c-0.665-1.827-1.32-3.629-1.959-5.389
		c-3.119-8.585-5.813-16-8.144-22.007c-9.66-24.892-30.622-33.068-38.318-35.29c-8.241-43.226-4.265-75.467,11.828-95.861
		c13.423-17.011,35.691-26.212,66.186-27.35c0.938-0.035,1.869-0.052,2.786-0.052c21.106,0,39.159,9.001,53.657,26.754
		c7.297,8.936,11.836,17.981,14.088,23.125c-8.735,2.902-25.259,12.068-26.787,40.084c-1.907,34.958,0.595,48.608,0.702,49.172
		c0.248,1.302,1.089,2.413,2.274,3.006c0.114,0.057,9.855,5.074,14.355,17.471c-2.665-0.802-5.618-1.379-8.629-1.379
		c-6.279,0-11.597,2.498-15.378,7.226c-12.482,15.603,6.28,43.301,21.937,58.111c10.196,9.645,41.224,38.994,73.466,38.998
		c0.002,0,0.003,0,0.005,0c2.951,0,5.885-0.246,8.719-0.731c1.275-0.218,2.382-1.005,3.006-2.138
		c0.624-1.133,0.698-2.489,0.201-3.684c-1.091-2.621-27.219-64.465-72.622-91.506c-0.139-0.09-0.398-0.255-0.762-0.475
		c-3.025-16.731-13.906-25.37-18.477-28.315c-0.569-4.674-1.765-18.585-0.308-45.293c1.37-25.11,16.38-31.419,22.211-32.928
		c3.381,4.333,11.215,12.864,20.488,12.864c0.971,0,1.941-0.095,2.882-0.284c2.006-0.401,3.627-0.889,4.982-1.374
		c2.327,6.54,11.695,23.839,45.73,23.839c33.893,0,43.324-17.155,45.7-23.757c1.308,0.457,2.863,0.913,4.757,1.292
		c0.941,0.188,1.911,0.284,2.882,0.284c9.313,0,17.172-8.602,20.53-12.918c5.668,1.409,21.036,7.559,22.423,32.982
		c1.305,23.931,0.48,37.582-0.113,43.522h-23.556c-2.347,0-4.25,1.903-4.25,4.25c0,2.347,1.903,4.25,4.25,4.25h15.472
		c-4.309,4.696-8.757,11.674-10.556,21.417c-0.507,0.3-0.878,0.533-1.049,0.644c-45.404,27.042-71.532,88.885-72.622,91.506
		c-0.497,1.194-0.423,2.55,0.201,3.684c0.625,1.133,1.731,1.92,3.006,2.138c2.834,0.485,5.769,0.731,8.724,0.731
		c32.239,0,63.27-29.352,73.466-38.998c15.657-14.81,34.419-42.509,21.937-58.111c-3.782-4.728-9.1-7.226-15.379-7.226
		c-2.905,0-5.76,0.535-8.35,1.293c4.437-12.173,13.88-17.155,14.33-17.385c1.185-0.593,2.026-1.704,2.274-3.006
		c0.107-0.564,2.609-14.214,0.702-49.172c-1.54-28.247-18.328-37.334-27.003-40.157c5.681-12.879,25.643-49.807,67.706-49.807
		c0.92,0,1.845,0.017,2.786,0.052c30.495,1.138,52.764,10.339,66.187,27.35C469.738,113.601,473.714,145.843,465.473,189.068z
		 M157.836,237.456c0.061,0.041,0.123,0.08,0.186,0.117c35.585,21.149,59.483,66.796,66.817,82.268
		c-0.564,0.022-1.129,0.032-1.697,0.032c-0.002,0-0.003,0-0.004,0c-28.859-0.003-58.038-27.603-67.626-36.672
		c-15.999-15.134-28.63-37.264-21.14-46.626c2.172-2.716,5.032-4.036,8.741-4.036C150.312,232.539,157.769,237.411,157.836,237.456z
		 M320.105,237.573c0.058-0.034,0.122-0.075,0.179-0.112c0.075-0.049,7.532-4.922,14.731-4.922c3.709,0,6.568,1.32,8.741,4.036
		c7.49,9.362-5.142,31.492-21.14,46.626c-9.589,9.07-38.77,36.672-67.625,36.672c-0.569,0-1.136-0.011-1.702-0.033
		C260.621,304.369,284.52,258.723,320.105,237.573z"/>
	<path d="M380.568,81.858c-2.346,0.083-4.179,2.053-4.095,4.399c0.084,2.346,2.059,4.181,4.399,4.095
		c17.739-0.632,31.985,2.527,42.538,9.401h-16.597c-2.347,0-4.25,1.903-4.25,4.25c0,2.347,1.903,4.25,4.25,4.25h26
		c0.078,0,0.15-0.019,0.227-0.023c7.777,9.218,12.162,22.103,13.134,38.523h-41.361c-2.347,0-4.25,1.903-4.25,4.25
		c0,2.347,1.903,4.25,4.25,4.25h41.563c-0.102,10.83-1.496,22.988-4.187,36.445c-0.46,2.302,1.032,4.54,3.334,5.001
		c0.281,0.056,0.562,0.083,0.838,0.083c1.984,0,3.759-1.397,4.163-3.417c8.348-41.738,4.609-72.276-11.11-90.768
		C426.909,87.888,407.115,80.904,380.568,81.858z"/>
	<path d="M326.772,321.229c-0.783,0-1.597,0.034-2.42,0.1c-0.123,0.01-0.246,0.025-0.367,0.045
		c-14.333,2.415-40.843,14.153-38.587,41.224c0.508,7.402,6.326,21.401,24.71,21.401h0c3.48,0,7.309-0.511,11.381-1.52
		c3.835-0.949,13.423-4.276,19.608-14.637c5.512-9.232,6.492-20.972,2.913-34.89C342.552,327.285,337.259,321.229,326.772,321.229z
		 M333.799,363.487c-4.673,7.828-12.168,10.201-14.353,10.743c-3.405,0.843-6.547,1.271-9.338,1.27
		c-14.699,0-16.119-12.128-16.235-13.545c-2.118-25.418,28.465-31.639,31.351-32.168c0.532-0.038,1.051-0.058,1.548-0.058
		c6.641,0,8.493,3.346,9.006,5.341C338.772,346.712,338.105,356.273,333.799,363.487z"/>
	<path d="M213.218,188.758h51.946c2.347,0,4.25-1.903,4.25-4.25c0-2.347-1.903-4.25-4.25-4.25h-51.946
		c-2.347,0-4.25,1.903-4.25,4.25C208.968,186.855,210.871,188.758,213.218,188.758z"/>
	<path d="M213.218,221.699h51.946c2.347,0,4.25-1.903,4.25-4.25c0-2.347-1.903-4.25-4.25-4.25h-51.946
		c-2.347,0-4.25,1.903-4.25,4.25C208.968,219.796,210.871,221.699,213.218,221.699z"/>
	<path d="M269.414,250.39c0-2.347-1.903-4.25-4.25-4.25h-51.946c-2.347,0-4.25,1.903-4.25,4.25c0,2.347,1.903,4.25,4.25,4.25h51.946
		C267.511,254.64,269.414,252.738,269.414,250.39z"/>
	<path d="M105.814,155.754H32.887c-0.076-5.893,0.228-11.394,0.911-16.5h22.016c2.347,0,4.25-1.903,4.25-4.25
		c0-2.347-1.903-4.25-4.25-4.25H35.376c2.199-9.086,5.843-16.654,10.94-22.65c10.737-12.629,28.259-18.596,52.066-17.751
		c2.342,0.076,4.315-1.75,4.399-4.095c0.084-2.346-1.75-4.316-4.095-4.399c-26.541-0.952-46.34,6.03-58.846,20.74
		c-15.719,18.491-19.458,49.03-11.11,90.768c0.404,2.021,2.179,3.417,4.163,3.417c0.276,0,0.557-0.027,0.838-0.083
		c2.302-0.46,3.795-2.699,3.334-5.001c-1.97-9.849-3.243-18.999-3.825-27.445h72.573c2.347,0,4.25-1.903,4.25-4.25
		C110.064,157.657,108.161,155.754,105.814,155.754z"/>
</g>
<g>
</g>
<g>
</g>
<g>
</g>
<g>
</g>
<g>
</g>
<g>
</g>
<g>
</g>
<g>
</g>
<g>
</g>
<g>
</g>
<g>
</g>
<g>
</g>
<g>
</g>
<g>
</g>
<g>
</g>
</svg>
