<?xml version="1.0" encoding="iso-8859-1"?>
<!-- Generator: Adobe Illustrator 18.0.0, SVG Export Plug-In . SVG Version: 6.00 Build 0)  -->
<!DOCTYPE svg PUBLIC "-//W3C//DTD SVG 1.1//EN" "http://www.w3.org/Graphics/SVG/1.1/DTD/svg11.dtd">
<svg version="1.1" id="Capa_1" xmlns="http://www.w3.org/2000/svg" xmlns:xlink="http://www.w3.org/1999/xlink" x="0px" y="0px"
	 viewBox="0 0 490.22 490.22" style="enable-background:new 0 0 490.22 490.22;" xml:space="preserve">
<g>
	<path d="M454.499,148.334c-54.308-51.997-127.564-75.659-151.208-80.388c-4.947-0.989-22.965-4.218-47.121-4.218
		c-29.96,0-71.618,5.094-106.539,28.147c4.345-15.973,9.883-31.01,13.174-32.891c1.825-1.043,2.613-3.262,1.855-5.223
		c-0.758-1.96-2.832-3.071-4.886-2.616c-1.369,0.304-32.855,7.608-48.497,37.047c-1.133-0.028-2.58-0.05-4.287-0.05
		c-18.742,0-63.579,2.714-75.101,27.852c-0.636,1.389-0.479,3.013,0.415,4.254c0.893,1.24,2.384,1.902,3.902,1.743
		c0.182-0.02,13.724-1.455,29.563-2.194c-6.814,3.285-14.311,7.779-21.755,13.909C22.303,151.587-2.911,187.339,0.274,256.119
		c0.002,0.035,0.004,0.071,0.006,0.106c0.073,1.018,7.727,102.672,47.302,180.625c0.741,1.459,2.226,2.327,3.79,2.327
		c0.434,0,0.873-0.067,1.304-0.206c1.989-0.642,3.216-2.633,2.895-4.698c-0.245-1.577-23.511-155.914,28.764-213.587
		c6.521,4.551,23.116,15.484,48.087,27.503c29.611,14.252,77.016,32.689,134.69,39.585c0.2,0.024,0.396,0.033,0.594,0.03
		c2.316-0.037,4.181-1.925,4.181-4.25c0-1.996-1.376-3.671-3.232-4.127c-3.587-1.118-57.11-18.274-87.905-53.554
		c27.196,12.89,85.786,36.173,154.129,36.173c14.51,0,28.917-1.05,42.822-3.121c0.155-0.023,0.316-0.057,0.467-0.097
		c0.047-0.012,4.767-1.24,10.957-1.24c6.564,0,15.737,1.407,22.154,8.109c6.186,6.461,9.014,16.854,8.403,30.888
		c-0.002,0.061-0.004,0.123-0.004,0.184c0,0.502-0.101,50.838-8.365,107.51c-0.266,1.823,0.673,3.61,2.326,4.425
		c1.654,0.815,3.643,0.471,4.927-0.85c1.665-1.712,38.939-40.916,53.1-127.042c1.447,5.759,2.514,13.697,2.077,24.189
		c-0.089,2.14,1.427,4.011,3.539,4.368c2.109,0.355,4.159-0.915,4.776-2.965c0.313-1.041,7.686-25.865,8.139-57.779
		C490.806,205.956,478.461,171.276,454.499,148.334z M481.703,248.291c-0.139,10.511-1.082,20.308-2.267,28.663
		c-2.725-9.67-6.419-13.952-6.677-14.243c-1.108-1.247-2.843-1.731-4.438-1.235c-1.593,0.495-2.75,1.876-2.957,3.531
		c-8.177,65.412-30.666,106.178-43.534,124.864c6.126-49.465,6.342-90.715,6.349-93.005c0.698-16.397-2.922-28.86-10.76-37.047
		c-6.721-7.02-16.505-10.731-28.293-10.731c-6.561,0-11.68,1.163-12.888,1.461c-13.426,1.989-27.34,2.997-41.358,2.997
		c-91.621,0-165.28-42.896-166.013-43.329c-1.675-0.989-3.807-0.717-5.178,0.663c-1.371,1.38-1.63,3.514-0.63,5.181
		c16.095,26.825,44.723,45.483,67.786,57.011c-87.207-18.875-143.84-60.91-144.478-61.39c-1.692-1.274-4.064-1.108-5.563,0.389
		c-24.719,24.719-37.87,69.963-39.087,134.475c-0.447,23.71,0.891,45.803,2.354,62.049C15.179,337.629,8.945,258.104,8.762,255.669
		c-1.079-23.409,1.07-44.104,6.39-62.007H49.77c2.347,0,4.25-1.903,4.25-4.25c0-2.347-1.903-4.25-4.25-4.25H17.995
		c3.269-8.742,7.372-16.744,12.318-23.982h69.751c2.347,0,4.25-1.903,4.25-4.25c0-2.347-1.903-4.25-4.25-4.25H36.805
		c3.728-4.379,7.818-8.428,12.276-12.133c21.746-18.072,44.599-20.935,44.819-20.961c2.199-0.25,3.837-2.146,3.767-4.357
		c-0.07-2.212-1.826-3.999-4.036-4.11c-3.324-0.167-7.016-0.251-10.973-0.251c-13.866,0-28.822,1.036-38.137,1.817
		c15.047-14.766,50.731-16.042,62.469-16.042c4.065,0,6.593,0.136,6.618,0.138c1.701,0.097,3.322-0.854,4.066-2.404
		c8.072-16.817,22.405-26.06,32.503-30.745c-5.611,12.453-10.038,30.54-11.645,37.569c-0.402,1.758,0.35,3.579,1.875,4.541
		c1.525,0.963,3.492,0.858,4.906-0.262c34.715-27.483,79.445-33.252,110.856-33.252c23.375,0,40.701,3.102,45.454,4.053
		c22.97,4.595,94.155,27.598,146.998,78.193c12.808,12.263,20.886,27.074,25.858,42.214h-96.057c-2.347,0-4.25,1.903-4.25,4.25
		c0,2.347,1.903,4.25,4.25,4.25h98.528c1.791,7.038,2.982,14.057,3.722,20.838h-23.666c-2.347,0-4.25,1.903-4.25,4.25
		c0,2.347,1.903,4.25,4.25,4.25h24.383C481.677,239.322,481.76,243.939,481.703,248.291z"/>
	<path d="M419.253,166.469c0.981,0,1.961-0.385,2.693-1.15c1.424-1.487,1.373-3.846-0.115-5.27
		c-47.63-45.604-111.88-66.357-132.618-70.505c-8.904-1.78-88.581-16.151-143.182,27.075c-1.614,1.278-1.887,3.622-0.609,5.236
		c1.277,1.615,3.622,1.887,5.236,0.609C202.63,81.32,279.191,95.143,287.751,96.855c20.146,4.03,82.579,24.206,128.925,68.579
		C417.398,166.125,418.326,166.469,419.253,166.469z"/>
</g>
<g>
</g>
<g>
</g>
<g>
</g>
<g>
</g>
<g>
</g>
<g>
</g>
<g>
</g>
<g>
</g>
<g>
</g>
<g>
</g>
<g>
</g>
<g>
</g>
<g>
</g>
<g>
</g>
<g>
</g>
</svg>
