<?xml version="1.0" encoding="iso-8859-1"?>
<!-- Generator: Adobe Illustrator 18.0.0, SVG Export Plug-In . SVG Version: 6.00 Build 0)  -->
<!DOCTYPE svg PUBLIC "-//W3C//DTD SVG 1.1//EN" "http://www.w3.org/Graphics/SVG/1.1/DTD/svg11.dtd">
<svg version="1.1" id="Capa_1" xmlns="http://www.w3.org/2000/svg" xmlns:xlink="http://www.w3.org/1999/xlink" x="0px" y="0px" fill="#5894B5"
	 viewBox="0 0 501.154 501.154" style="enable-background:new 0 0 501.154 501.154;" xml:space="preserve">
<g>
	<path d="M457.616,126.857c-0.083-1.879-1.391-3.479-3.215-3.935c-0.494-0.124-23.996-6.045-53.047-15.206L397.381,4.087
		c-0.09-2.345-2.082-4.177-4.41-4.084c-2.346,0.09-4.174,2.064-4.084,4.41l3.855,100.543c-30.424-9.915-64.821-22.913-84.934-36.321
		c-13.375-8.917-25.376-13.438-35.67-13.438c-11.047,0-17.804,5.042-21.56,9.348c-3.755-4.307-10.511-9.348-21.561-9.348
		c-10.294,0-22.296,4.521-35.671,13.438c-20.102,13.402-54.488,26.396-84.908,36.311l2.289-60.12h53.555
		c2.347,0,4.25-1.903,4.25-4.25c0-2.347-1.903-4.25-4.25-4.25H111.05l1.215-31.915c0.089-2.345-1.74-4.319-4.085-4.408
		c-2.339-0.09-4.319,1.74-4.409,4.085l-3.944,103.618c-29.063,9.165-52.58,15.092-53.074,15.215
		c-1.824,0.456-3.132,2.057-3.215,3.935c-0.083,1.878,1.078,3.588,2.854,4.204c8.236,2.854,16.492,5.328,24.75,7.44
		c-2.427,11.908-6.871,17.303-11.562,22.99c-6.417,7.779-13.052,15.823-13.916,38.241c-0.418,10.849,4.725,21.764,10.17,33.321
		c4.929,10.461,10.025,21.277,10.831,32.113c0.65,8.748-2.222,18.48-5.263,28.784c-3.852,13.053-7.835,26.551-4.843,39.457
		c3.078,13.27,13.128,23.66,22.847,33.708c7.122,7.363,13.849,14.317,17.711,22.052c3.694,7.398,5.432,16.409,7.272,25.95
		c2.815,14.592,5.727,29.682,16.32,39.499c10.327,9.57,25.662,11.059,40.491,12.499c9.161,0.89,18.633,1.81,26.875,4.58
		c6.625,2.227,13.442,6.917,20.661,11.882c11.978,8.239,25.553,17.578,41.841,17.578s29.864-9.339,41.841-17.578
		c7.218-4.965,14.036-9.655,20.66-11.882c8.241-2.77,17.714-3.691,26.875-4.58c14.83-1.44,30.164-2.93,40.491-12.499
		c10.594-9.817,13.505-24.906,16.32-39.499c1.841-9.54,3.579-18.551,7.272-25.949c3.862-7.735,10.589-14.689,17.71-22.052
		c9.719-10.048,19.77-20.438,22.847-33.707c2.993-12.906-0.99-26.404-4.843-39.458c-3.04-10.304-5.913-20.037-5.263-28.784
		c0.805-10.837,5.902-21.655,10.831-32.117c5.445-11.557,10.588-22.474,10.17-33.324c-0.864-22.416-7.499-30.459-13.916-38.237
		c-4.691-5.686-9.135-11.081-11.561-22.987c8.258-2.112,16.514-4.586,24.75-7.44C456.539,130.446,457.7,128.736,457.616,126.857z
		 M435.017,166.897c6.023,7.302,11.226,13.608,11.979,33.156c0.338,8.777-4.375,18.782-9.365,29.374
		c-5.258,11.162-10.696,22.704-11.618,35.11c-0.765,10.295,2.464,21.238,5.587,31.82c3.541,11.999,7.202,24.405,4.715,35.132
		c-2.545,10.974-11.352,20.079-20.676,29.718c-7.256,7.501-14.759,15.258-19.206,24.165c-4.214,8.44-6.146,18.452-8.014,28.135
		c-2.673,13.859-5.199,26.949-13.751,34.874c-8.224,7.621-21.49,8.909-35.535,10.274c-9.636,0.936-19.6,1.904-28.761,4.983
		c-7.753,2.606-15.047,7.624-22.77,12.936c-11.493,7.906-23.376,16.081-37.023,16.081s-25.531-8.175-37.023-16.081
		c-7.723-5.312-15.017-10.33-22.77-12.936c-9.161-3.08-19.125-4.047-28.761-4.983c-14.045-1.364-27.311-2.653-35.536-10.274
		c-8.552-7.925-11.078-21.015-13.751-34.874c-1.868-9.683-3.8-19.696-8.014-28.137c-4.447-8.907-11.95-16.664-19.206-24.165
		c-9.324-9.64-18.131-18.745-20.676-29.719c-2.487-10.726,1.174-23.133,4.715-35.131c3.123-10.582,6.353-21.524,5.587-31.819
		c-0.922-12.405-6.359-23.945-11.618-35.106c-4.99-10.591-9.704-20.594-9.365-29.371c0.753-19.55,5.955-25.856,11.979-33.159
		c4.892-5.931,10.396-12.604,13.276-26.414c4.023,0.908,8.045,1.727,12.065,2.457c-2.023,12.227-6.608,17.361-11.463,22.794
		c-6.379,7.139-12.976,14.521-13.765,35.165c-0.382,10.002,4.713,19.962,10.108,30.508c4.91,9.598,9.986,19.522,10.667,29.39
		c0.548,7.958-2.526,16.934-5.781,26.439c-4.085,11.929-8.31,24.265-5.722,36.159c2.651,12.183,12.055,21.626,21.148,30.757
		c6.808,6.836,13.239,13.294,16.592,20.462c3.274,7.001,4.45,16.101,5.586,24.902c1.746,13.515,3.55,27.489,12.818,36.688
		c9.307,9.238,23.561,10.563,37.345,11.844c8.535,0.793,17.36,1.613,24.786,4.283c5.961,2.143,12.099,6.784,18.598,11.698
		c10.824,8.185,23.093,17.462,38.181,17.462c15.089,0,27.357-9.277,38.182-17.462c6.498-4.913,12.635-9.554,18.597-11.698
		c7.426-2.67,16.251-3.49,24.786-4.283c13.785-1.282,28.04-2.607,37.348-11.846c9.268-9.199,11.072-23.174,12.817-36.688
		c1.136-8.801,2.312-17.901,5.586-24.902c3.353-7.168,9.783-13.626,16.591-20.462c9.094-9.132,18.497-18.574,21.148-30.757
		c2.588-11.894-1.636-24.23-5.722-36.159c-3.255-9.505-6.329-18.482-5.781-26.44c0.681-9.868,5.757-19.794,10.667-29.393
		c5.395-10.547,10.49-20.508,10.107-30.511c-0.789-20.642-7.386-28.023-13.765-35.161c-4.854-5.432-9.439-10.565-11.463-22.79
		c4.021-0.73,8.043-1.549,12.066-2.457C424.621,154.295,430.125,160.967,435.017,166.897z M187.081,143.186
		c3.821,4.69,20.226,21.002,63.497,21.002c43.269,0,59.674-16.311,63.496-21.001c13.743,2.544,29.391,4.239,46.736,4.239
		c9.196,0,18.446-0.497,27.726-1.461c1.358,8.849,5.305,36.014,4.506,47.996c-0.156,2.342,1.616,4.367,3.958,4.523
		c0.096,0.007,0.192,0.01,0.287,0.01c2.218,0,4.086-1.722,4.236-3.967c0.855-12.836-3.094-40.168-4.54-49.569
		c1.436-0.194,2.872-0.395,4.309-0.611c2.428,14.649,8.313,21.239,13.508,27.052c5.869,6.566,10.937,12.237,11.609,29.821
		c0.13,3.395-0.673,7.022-2.024,10.824c-0.163-0.019-0.322-0.049-0.49-0.049h-66.612c-2.347,0-4.25,1.903-4.25,4.25
		c0,2.347,1.903,4.25,4.25,4.25h63.48c-1.113,2.307-2.315,4.658-3.534,7.041c-5.113,9.996-10.38,20.323-11.464,31.459h-15.949
		c-2.347,0-4.25,1.903-4.25,4.25c0,2.347,1.903,4.25,4.25,4.25h16.042c0.855,7.438,3.465,15.063,6.011,22.498
		c3.708,10.826,7.542,22.022,5.458,31.598c-2.122,9.754-10.255,17.92-18.865,26.566c-7.024,7.053-14.287,14.346-18.268,22.859
		c-0.711,1.52-1.333,3.095-1.883,4.711h-54.026c-2.347,0-4.25,1.903-4.25,4.25s1.903,4.25,4.25,4.25h51.777
		c-0.951,4.657-1.572,9.47-2.184,14.203c-0.376,2.91-0.75,5.779-1.186,8.565h-19.408c-2.347,0-4.25,1.903-4.25,4.25
		c0,2.347,1.903,4.25,4.25,4.25h17.714c-1.493,5.822-3.708,10.919-7.496,14.679c-7.143,7.091-19.288,8.22-32.146,9.415
		c-9.063,0.843-18.434,1.714-26.875,4.748c-7.18,2.581-13.818,7.601-20.848,12.916c-10.235,7.739-20.818,15.742-33.055,15.742
		c-12.237,0-22.82-8.002-33.055-15.741c-7.029-5.315-13.668-10.335-20.848-12.917c-8.441-3.034-17.813-3.906-26.875-4.748
		c-12.857-1.195-25.001-2.324-32.143-9.413c-5.244-5.205-7.483-12.964-8.946-21.681h40.572c2.347,0,4.25-1.903,4.25-4.25
		c0-2.347-1.903-4.25-4.25-4.25h-41.799c-0.067-0.52-0.135-1.039-0.203-1.562c-1.22-9.447-2.481-19.214-6.317-27.415
		c-3.981-8.513-11.245-15.806-18.268-22.859c-8.61-8.647-16.744-16.813-18.866-26.567c-2.084-9.576,1.75-20.771,5.458-31.597
		c3.385-9.885,6.886-20.107,6.219-29.777c-0.648-9.397-4.365-18.209-8.57-26.723h79.48c2.347,0,4.25-1.903,4.25-4.25
		c0-2.347-1.903-4.25-4.25-4.25H82.628c-4.36-8.584-8.153-16.68-7.883-23.766c0.079-2.071,0.221-3.972,0.417-5.734h112.821
		c2.347,0,4.25-1.903,4.25-4.25c0-2.347-1.903-4.25-4.25-4.25H76.794c2.14-7.283,5.674-11.243,9.561-15.592
		c5.195-5.813,11.079-12.403,13.508-27.055c13.56,2.046,27.077,3.08,40.482,3.08C157.689,147.426,173.337,145.73,187.081,143.186z
		 M197.042,141.124c28.546-6.526,47.254-16.264,53.535-19.865c6.278,3.601,24.983,13.338,53.528,19.865
		c-6.434,5.382-22.022,14.565-53.528,14.565C219.046,155.688,203.458,146.491,197.042,141.124z M360.809,138.926
		c-65.924,0-107.538-25.94-107.947-26.2c-0.696-0.444-1.49-0.666-2.284-0.666c-0.793,0-1.586,0.221-2.282,0.663
		c-0.413,0.262-42.036,26.203-107.951,26.203c-25.526,0-51.498-3.857-77.391-11.481c18.107-4.931,50.652-14.339,81.179-25.951
		h39.149c2.347,0,4.25-1.903,4.25-4.25c0-2.347-1.903-4.25-4.25-4.25h-18.228c12.602-5.503,24.071-11.329,33.007-17.286
		c11.955-7.969,22.369-12.01,30.956-12.01c13.076,0,17.47,9.726,17.637,10.108c0.655,1.572,2.192,2.585,3.895,2.599
		c0.012,0,0.024,0,0.036,0c1.689,0,3.226-1.017,3.903-2.566c0.181-0.414,4.578-10.141,17.651-10.141
		c8.586,0,19.001,4.041,30.956,12.01c15.182,10.122,37.672,19.864,60.621,28.286h-10.432c-2.347,0-4.25,1.903-4.25,4.25
		c0,2.347,1.903,4.25,4.25,4.25h34.957c19.787,6.497,38.017,11.698,49.961,14.951C412.307,135.068,386.336,138.926,360.809,138.926z
		"/>
	<path d="M380.131,85.493c0.056,0,0.111-0.001,0.167-0.003c2.345-0.091,4.173-2.065,4.082-4.411l-2.852-73.662
		c-0.09-2.346-2.072-4.181-4.411-4.083c-2.345,0.091-4.173,2.066-4.082,4.411l2.852,73.662
		C375.976,83.697,377.859,85.493,380.131,85.493z"/>
</g>
<g>
</g>
<g>
</g>
<g>
</g>
<g>
</g>
<g>
</g>
<g>
</g>
<g>
</g>
<g>
</g>
<g>
</g>
<g>
</g>
<g>
</g>
<g>
</g>
<g>
</g>
<g>
</g>
<g>
</g>
</svg>
