<?xml version="1.0" encoding="iso-8859-1"?>
<!-- Generator: Adobe Illustrator 18.0.0, SVG Export Plug-In . SVG Version: 6.00 Build 0)  -->
<!DOCTYPE svg PUBLIC "-//W3C//DTD SVG 1.1//EN" "http://www.w3.org/Graphics/SVG/1.1/DTD/svg11.dtd">
<svg version="1.1" id="Capa_1" xmlns="http://www.w3.org/2000/svg" xmlns:xlink="http://www.w3.org/1999/xlink" x="0px" y="0px" fill="#5894B5"
	 viewBox="0 0 486.995 486.995" style="enable-background:new 0 0 486.995 486.995;" xml:space="preserve">
<g>
	<path d="M23.348,254.929l111.326,16.47c0.69,0.103,1.392,0.154,2.086,0.154c7.366,0,13.775-5.78,14.908-13.445l18.437-124.641
		c1.261-8.529-4.311-16.443-12.419-17.642L46.36,99.354c-0.689-0.102-1.391-0.153-2.085-0.153c-7.366,0-13.775,5.78-14.909,13.445
		L10.929,237.287C9.668,245.813,15.239,253.728,23.348,254.929z M34.982,132.769l65.348,9.563c0.208,0.031,0.415,0.046,0.621,0.046
		c2.075,0,3.891-1.521,4.2-3.636c0.34-2.322-1.267-4.48-3.59-4.82l-65.335-9.56l1.549-10.471c0.522-3.528,3.316-6.189,6.5-6.189
		c0.279,0,0.563,0.021,0.841,0.062l111.326,16.471c3.473,0.514,5.83,4.099,5.254,7.99L143.26,256.864
		c-0.522,3.527-3.316,6.189-6.5,6.189c-0.28,0-0.563-0.022-0.842-0.063L24.593,246.52c-3.473-0.514-5.831-4.099-5.255-7.99
		l0.82-5.54l77.822,11.117c0.204,0.029,0.406,0.043,0.606,0.043c2.081,0,3.899-1.529,4.202-3.65
		c0.331-2.323-1.283-4.477-3.607-4.809l-77.781-11.111L34.982,132.769z"/>
	<path d="M199.248,272.282c0.249,0,0.5-0.006,0.751-0.019l115.488-5.662c8.347-0.409,14.806-7.533,14.397-15.882l-5.914-120.568
		c-0.41-8.333-7.481-14.814-15.882-14.397L192.6,121.415c-8.348,0.411-14.806,7.536-14.396,15.883l5.913,120.568
		C184.513,265.95,191.16,272.282,199.248,272.282z M193.017,129.905l115.489-5.661c0.112-0.006,0.225-0.009,0.335-0.009
		c3.549,0,6.466,2.782,6.64,6.333l5.914,120.567c0.18,3.667-2.657,6.796-6.323,6.976l-115.488,5.662
		c-3.686,0.206-6.796-2.661-6.977-6.323l-0.647-13.198l51.651-4.695c2.337-0.212,4.06-2.279,3.848-4.617
		c-0.212-2.337-2.28-4.064-4.617-3.848l-51.298,4.663l-4.849-98.873C186.513,133.215,189.35,130.086,193.017,129.905z"/>
	<path d="M354.631,262.82l115.772-1.145c8.356-0.083,15.088-6.949,15.007-15.307l-1.196-120.706
		c-0.082-8.276-6.88-15.009-15.156-15.009l-115.772,1.143c-8.358,0.084-15.089,6.952-15.006,15.309l1.195,120.707
		C339.557,256.088,346.356,262.82,354.631,262.82z M353.37,120.297l115.688-1.143c3.635,0,6.621,2.957,6.656,6.592l0.924,93.209
		h-55.015c-2.347,0-4.25,1.902-4.25,4.25c0,2.347,1.903,4.25,4.25,4.25h55.1l0.188,18.998c0.036,3.671-2.921,6.686-6.591,6.723
		l-115.621,1.144l-0.068,0.001c-3.634,0-6.62-2.958-6.656-6.593l-1.195-120.706C346.742,123.35,349.699,120.334,353.37,120.297z"/>
	<path d="M88.241,218.618c16.778,0,30.429-13.65,30.429-30.429s-13.65-30.429-30.429-30.429s-30.428,13.65-30.428,30.429
		S71.463,218.618,88.241,218.618z M88.241,166.261c12.091,0,21.929,9.838,21.929,21.929c0,12.092-9.837,21.929-21.929,21.929
		s-21.928-9.837-21.928-21.929C66.313,176.099,76.15,166.261,88.241,166.261z"/>
	<path d="M250.406,203.347c16.778,0,30.429-13.649,30.429-30.428s-13.65-30.429-30.429-30.429c-16.778,0-30.429,13.65-30.429,30.429
		S233.628,203.347,250.406,203.347z M250.406,150.99c12.091,0,21.929,9.837,21.929,21.929c0,12.091-9.837,21.928-21.929,21.928
		c-12.092,0-21.929-9.837-21.929-21.928C228.477,160.827,238.314,150.99,250.406,150.99z"/>
	<path d="M415.479,206.983c16.778,0,30.428-13.65,30.428-30.429c0-16.778-13.65-30.429-30.428-30.429
		c-16.778,0-30.428,13.65-30.428,30.429C385.05,193.333,398.7,206.983,415.479,206.983z M415.479,154.626
		c12.091,0,21.928,9.838,21.928,21.929c0,12.092-9.837,21.929-21.928,21.929s-21.928-9.837-21.928-21.929
		C393.55,164.464,403.387,154.626,415.479,154.626z"/>
	<path d="M3.004,279.516c45.747,14.042,117.164,18.421,183.569,18.421c45.252,0,88.179-2.034,119.065-4.43
		c83.339-6.467,176.408-11.578,177.338-11.629c2.344-0.129,4.14-2.132,4.012-4.476c-0.128-2.345-2.146-4.14-4.476-4.012
		c-0.932,0.051-94.094,5.168-177.532,11.642c-75.613,5.866-223.778,9.594-299.483-13.643c-2.243-0.686-4.621,0.572-5.31,2.815
		C-0.5,276.449,0.76,278.826,3.004,279.516z"/>
	<path d="M482.513,325.392c-0.932,0.051-94.094,5.168-177.532,11.641c-75.611,5.866-223.774,9.597-299.483-13.642
		c-2.243-0.686-4.622,0.572-5.31,2.815c-0.688,2.244,0.572,4.621,2.816,5.31c45.75,14.042,117.162,18.421,183.567,18.421
		c45.251,0,88.182-2.034,119.067-4.431c83.339-6.466,176.408-11.577,177.338-11.628c2.344-0.128,4.14-2.132,4.012-4.475
		C486.86,327.059,484.842,325.263,482.513,325.392z"/>
	<path d="M3.004,312.967c45.75,14.042,117.163,18.421,183.568,18.421c45.251,0,88.181-2.034,119.066-4.431
		c2.34-0.182,4.09-2.226,3.909-4.565c-0.182-2.341-2.226-4.093-4.566-3.909c-75.611,5.866-223.775,9.596-299.483-13.642
		c-2.243-0.686-4.622,0.572-5.31,2.815C-0.5,309.9,0.76,312.277,3.004,312.967z"/>
	<path d="M369.05,312.22c-2.345,0.119-4.148,2.116-4.028,4.46c0.115,2.271,1.992,4.034,4.241,4.034c0.073,0,0.146-0.002,0.219-0.005
		l96.53-4.909c2.344-0.119,4.148-2.116,4.029-4.46c-0.12-2.345-2.129-4.138-4.46-4.029L369.05,312.22z"/>
	<path d="M459.252,359.66h-44.175c-2.347,0-4.25,1.902-4.25,4.25c0,2.348,1.903,4.25,4.25,4.25h44.175c2.347,0,4.25-1.902,4.25-4.25
		C463.502,361.562,461.599,359.66,459.252,359.66z"/>
	<path d="M365.994,367.841h-24.542c-2.347,0-4.25,1.902-4.25,4.25c0,2.348,1.903,4.25,4.25,4.25h24.542
		c2.347,0,4.25-1.902,4.25-4.25C370.244,369.743,368.34,367.841,365.994,367.841z"/>
	<path d="M264.555,376.021h-24.541c-2.347,0-4.25,1.902-4.25,4.25c0,2.348,1.903,4.25,4.25,4.25h24.541
		c2.347,0,4.25-1.902,4.25-4.25C268.805,377.924,266.902,376.021,264.555,376.021z"/>
	<path d="M177.841,364.569h-35.994c-2.347,0-4.25,1.902-4.25,4.25c0,2.348,1.903,4.25,4.25,4.25h35.994
		c2.347,0,4.25-1.902,4.25-4.25C182.091,366.472,180.189,364.569,177.841,364.569z"/>
	<path d="M91.128,372.75H76.403c-2.347,0-4.25,1.902-4.25,4.25c0,2.348,1.903,4.25,4.25,4.25h14.725c2.347,0,4.25-1.902,4.25-4.25
		C95.378,374.652,93.475,372.75,91.128,372.75z"/>
	<path d="M60.042,353.116H37.137c-2.347,0-4.25,1.903-4.25,4.25c0,2.348,1.903,4.25,4.25,4.25h22.905c2.347,0,4.25-1.902,4.25-4.25
		C64.292,355.019,62.389,353.116,60.042,353.116z"/>
	<path d="M32.228,379.294H7.687c-2.347,0-4.25,1.902-4.25,4.25c0,2.348,1.903,4.25,4.25,4.25h24.541c2.347,0,4.25-1.902,4.25-4.25
		C36.478,381.196,34.575,379.294,32.228,379.294z"/>
</g>
<g>
</g>
<g>
</g>
<g>
</g>
<g>
</g>
<g>
</g>
<g>
</g>
<g>
</g>
<g>
</g>
<g>
</g>
<g>
</g>
<g>
</g>
<g>
</g>
<g>
</g>
<g>
</g>
<g>
</g>
</svg>
