<?xml version="1.0" encoding="iso-8859-1"?>
<!-- Generator: Adobe Illustrator 18.0.0, SVG Export Plug-In . SVG Version: 6.00 Build 0)  -->
<!DOCTYPE svg PUBLIC "-//W3C//DTD SVG 1.1//EN" "http://www.w3.org/Graphics/SVG/1.1/DTD/svg11.dtd">
<svg version="1.1" id="Capa_1" xmlns="http://www.w3.org/2000/svg" xmlns:xlink="http://www.w3.org/1999/xlink" x="0px" y="0px"
	 viewBox="0 0 485.424 485.424" style="enable-background:new 0 0 485.424 485.424;" xml:space="preserve">
<g>
	<path d="M482.147,361.728c-9.726-2.285-19.43-3.443-28.843-3.443c-17.045,0-28.749,3.765-33.327,5.544
		c-77.303-44.234-119.733-84.104-141.751-109.841c-21.848-25.537-28.409-42.519-29.444-45.473c0.682-0.128,1.748-0.246,3.362-0.246
		c16.817,0,56.96,12.366,57.878,12.65c0.003,0.002,0.007,0.003,0.01,0.004c0.001,0,0.002,0,0.002,0
		c0.001,0.001,0.003,0.001,0.005,0.002c0.128,0.04,0.257,0.073,0.387,0.101c0.004,0,0.006,0.002,0.01,0.002
		c0.013,0.005,0.007,0.002,0.01,0.002c0.003,0.003,0.006,0.002,0.009,0.002c0.005,0.003,0.007,0.002,0.01,0.002
		c0.005,0.004,0.007,0.002,0.01,0.002c0.003,0.002,0.006,0.001,0.01,0.002c0.004,0.002,0.007,0.002,0.01,0.002
		c0.003,0.001,0.006,0.001,0.01,0.002c0.004,0.002,0.007,0.002,0.01,0.002c0.003,0.002,0.007,0.003,0.01,0.002
		c0.003,0.001,0.009,0.004,0.009,0.002c0.003,0,0.006,0.001,0.01,0.002c2.082,0.376,4.17-0.849,4.814-2.925
		c0.407-1.313,0.145-2.673-0.592-3.715c-0.005-0.007-0.01-0.014-0.015-0.019l-0.001-0.001c-0.002-0.004-0.004-0.007-0.006-0.01
		l-0.001-0.001c-0.002-0.003-0.004-0.006-0.006-0.009c-0.001-0.001-0.001-0.001-0.002-0.002c-0.002-0.003-0.004-0.006-0.006-0.009
		l-0.001-0.001c-0.002-0.003-0.004-0.006-0.006-0.009c0,0-0.001-0.001-0.001-0.002c-0.002-0.003-0.004-0.006-0.006-0.008
		c0-0.001-0.001-0.002-0.001-0.003c-0.002-0.002-0.004-0.005-0.006-0.007c0-0.001-0.001-0.002-0.002-0.003
		c-0.002-0.003-0.003-0.005-0.005-0.008c-0.001-0.001-0.001-0.002-0.003-0.003c-0.001-0.002-0.003-0.004-0.005-0.007
		c-0.001-0.001-0.002-0.002-0.003-0.003c-0.001-0.003-0.003-0.005-0.005-0.007c-0.001-0.001-0.002-0.003-0.003-0.004
		c-0.001-0.002-0.003-0.004-0.004-0.006c-0.001-0.002-0.002-0.003-0.003-0.004c-0.001-0.002-0.003-0.004-0.004-0.006
		c-0.001-0.002-0.002-0.003-0.003-0.005c-0.001-0.002-0.003-0.004-0.004-0.005c-0.001-0.002-0.003-0.004-0.004-0.005
		c-0.001-0.002-0.003-0.004-0.004-0.006c-0.001-0.001-0.002-0.003-0.004-0.005c-0.001-0.001-0.002-0.003-0.003-0.004
		c-0.001-0.002-0.003-0.004-0.004-0.006c-0.001-0.002-0.002-0.003-0.003-0.004c-0.001-0.002-0.003-0.005-0.005-0.007
		c-0.001-0.001-0.001-0.002-0.002-0.003c-0.002-0.002-0.003-0.005-0.005-0.007c-0.001-0.001-0.002-0.002-0.002-0.002
		c-0.003-0.004-0.004-0.006-0.006-0.008c-0.001-0.001-0.002-0.002-0.002-0.003c-0.002-0.003-0.004-0.005-0.006-0.008
		c0-0.001-0.001-0.001-0.002-0.003c-0.002-0.002-0.004-0.004-0.005-0.007c-0.001-0.001-0.001-0.001-0.003-0.002
		c-0.002-0.003-0.004-0.006-0.006-0.008c0,0-0.001-0.001-0.002-0.002c-0.002-0.003-0.004-0.006-0.006-0.008
		c0,0-0.001-0.001-0.001-0.002c-0.002-0.003-0.005-0.006-0.007-0.008l-0.001-0.002c-0.002-0.003-0.004-0.006-0.007-0.009
		c0,0,0,0-0.001-0.001c-0.002-0.003-0.005-0.006-0.007-0.009l0-0.001c-0.003-0.003-0.005-0.006-0.008-0.009
		c-0.003-0.004-0.005-0.007-0.008-0.01l0-0.001c-0.003-0.003-0.005-0.006-0.008-0.009c-0.003-0.004-0.005-0.007-0.008-0.01
		c-0.501-0.587-1.167-1.046-1.957-1.294c-0.005-0.002-0.01-0.003-0.014-0.005c-0.65-0.202-65.023-20.567-68.15-51.309
		c-1.569-15.42,12.863-31.646,42.897-48.229c1.167-0.614,1.796-0.985,1.796-0.985c1.995-1.178,2.683-3.738,1.542-5.755
		c-1.141-2.018-3.685-2.75-5.721-1.646c-0.551,0.299-1.104,0.601-1.644,0.898c-4.484,2.351-20.24,9.903-37.312,9.903
		c-13.741,0-25.14-4.884-33.879-14.516c-11.608-12.796-18.699-33.986-21.074-62.982c-0.185-2.254-2.122-3.955-4.361-3.901
		c-2.26,0.066-4.072,1.892-4.123,4.152c-0.015,0.682-1.974,68.209-39.576,68.209c-3.533,0-7.354-0.584-11.357-1.734
		c-52.589-15.12-79.75-41.351-80.015-41.61c-1.626-1.603-4.23-1.636-5.895-0.069c-1.665,1.565-1.793,4.166-0.292,5.889
		c0.332,0.381,33.409,38.356,49.746,59.647c5.289,6.892,6.31,16.203,2.603,23.723c-5.502,11.157-19.846,17.302-40.389,17.302
		c-14.583,0-32.029-3.087-51.854-9.175c-2.239-0.689-4.616,0.568-5.308,2.808c-0.692,2.239,0.559,4.616,2.798,5.313
		c0.997,0.311,99.804,31.493,111.129,72.631c2.815,10.224-0.189,20.092-9.181,30.161c-4.036,3.783-6.379,6.283-6.478,6.389
		c-1.549,1.656-1.524,4.237,0.056,5.863c1.581,1.628,4.159,1.728,5.86,0.227c2.436-2.148,4.669-4.342,6.638-6.523
		c11.266-10.52,39.855-34.645,65.031-34.645c23.962,0,39.264,22.553,45.481,67.03c0.311,2.224,2.295,3.827,4.535,3.649
		c2.238-0.172,3.957-2.055,3.924-4.299l-0.912-62.785c7.825,9.476,21.417,25.004,40.508,43.466
		c28.155,27.228,73.885,65.966,133.036,97.321l-15.593,33.232c-0.639,1.362-0.51,2.96,0.338,4.202
		c0.848,1.241,2.296,1.947,3.79,1.844c16.352-1.081,22.759-9.042,27.908-15.439c2.62-3.255,4.696-5.835,7.635-7.051
		c0.57,0.047,5.891,1.056,20.385,21.712c8.065,11.495,14.805,23.174,14.872,23.29c0.772,1.342,2.191,2.13,3.683,2.13
		c0.374,0,0.753-0.049,1.127-0.152c1.867-0.514,3.151-2.224,3.122-4.159c-0.337-23.263-19.693-57.031-24.471-65.02
		c3.364-6.386,22.932-10.722,36.079-11.706c2.092-0.156,3.757-1.816,3.92-3.907C485.574,364.106,484.189,362.208,482.147,361.728z
		 M72.531,189.493c-8.151-4.745-14.428-7.701-22.467-11.429c2.495,0.15,4.926,0.227,7.289,0.227
		c32.318,0,43.953-13.811,48.013-22.043c2.599-5.271,3.522-11.163,2.865-16.922h20.833c2.347,0,4.25-1.902,4.25-4.25
		c0-2.348-1.903-4.25-4.25-4.25h-23.03c-1.049-2.549-2.429-4.989-4.152-7.234c-7.266-9.469-17.783-22.174-27.305-33.459
		c13.483,7.789,31.689,16.34,54.669,22.947c4.767,1.37,9.378,2.065,13.706,2.065c27.058,0,38.898-25.592,44.073-47.195
		c11.09,45.686,37.208,56.233,58.94,56.233c3.773,0,7.463-0.315,10.999-0.846c-3.752,3.15-7.002,6.314-9.759,9.488h-13.474
		c-2.347,0-4.25,1.902-4.25,4.25c0,2.348,1.903,4.25,4.25,4.25h7.312c-1.592,2.717-2.827,5.439-3.692,8.167h-35.62
		c-2.347,0-4.25,1.902-4.25,4.25c0,2.348,1.903,4.25,4.25,4.25h34.102c-0.059,1.454-0.031,2.908,0.117,4.363
		c1.642,16.142,15.931,29.341,31.535,39.097c-5.798-1.024-11.158-1.685-15.341-1.685c-3.683,0-8.852,0.419-11.21,4.044
		c-0.747,1.147-1.768,3.554-0.374,6.923c0.787,2.454,7.075,20.394,30.622,48.091c22.621,26.608,66.384,67.886,146.408,113.425
		c1.207,0.689,2.683,0.736,3.938,0.14c0.118-0.056,12.025-5.607,31.778-5.607c0.246,0,0.493,0.001,0.739,0.002
		c-8.628,2.997-16.21,7.656-17.453,14.857c-0.177,1.025,0.029,2.081,0.578,2.965c0.17,0.274,12.314,19.974,19.338,39.81
		c-0.794-1.169-1.608-2.352-2.439-3.536c-15.775-22.492-22.94-25.376-27.42-25.376c-1.055,0-2.068,0.191-3.011,0.569
		c-5.06,2.025-8.181,5.903-11.2,9.654c-3.642,4.525-7.129,8.857-14.278,11.001l13.879-29.577c0.968-2.065,0.136-4.524-1.886-5.576
		c-114.716-59.67-181.426-149.207-182.087-150.104c-1.095-1.488-3.029-2.098-4.778-1.51c-1.752,0.59-2.922,2.242-2.895,4.09
		l0.544,37.494c-3.171-8.21-6.954-15.073-11.333-20.545c-8.849-11.058-20.14-16.664-33.559-16.664
		c-18.704,0-38.162,10.91-53.316,22.231c1.338-5.75,1.204-11.581-0.415-17.459c-1.64-5.958-4.79-11.674-9.011-17.118h15.762
		c2.347,0,4.25-1.902,4.25-4.25c0-2.348-1.903-4.25-4.25-4.25h-23.333c-0.023,0-0.045,0.007-0.068,0.007
		c-5.66-5.524-12.315-10.709-19.47-15.507h32.204c2.347,0,4.25-1.902,4.25-4.25c0-2.348-1.903-4.25-4.25-4.25H72.531z"/>
	<path d="M179.813,149.191c-1.548-0.267-3.124-0.402-4.684-0.402c-12.176,0-22.655,7.972-26.126,19.371h-18.605
		c-2.347,0-4.25,1.902-4.25,4.25c0,2.348,1.903,4.25,4.25,4.25h17.393c0.226,12.875,9.569,24.222,22.714,26.489
		c1.548,0.267,3.124,0.402,4.685,0.402c13.344,0,24.678-9.558,26.949-22.726c1.244-7.207-0.394-14.467-4.61-20.441
		C193.311,154.408,187.019,150.434,179.813,149.191z M193.762,179.38c-1.566,9.08-9.377,15.671-18.573,15.671
		c-1.077,0-2.167-0.094-3.24-0.279c-10.257-1.769-17.162-11.554-15.394-21.811c1.567-9.081,9.379-15.673,18.574-15.673
		c1.077,0,2.166,0.094,3.238,0.279c4.969,0.856,9.308,3.598,12.215,7.717C193.49,169.405,194.619,174.41,193.762,179.38z"/>
</g>
<g>
</g>
<g>
</g>
<g>
</g>
<g>
</g>
<g>
</g>
<g>
</g>
<g>
</g>
<g>
</g>
<g>
</g>
<g>
</g>
<g>
</g>
<g>
</g>
<g>
</g>
<g>
</g>
<g>
</g>
</svg>
