<?xml version="1.0" encoding="iso-8859-1"?>
<!-- Generator: Adobe Illustrator 18.0.0, SVG Export Plug-In . SVG Version: 6.00 Build 0)  -->
<!DOCTYPE svg PUBLIC "-//W3C//DTD SVG 1.1//EN" "http://www.w3.org/Graphics/SVG/1.1/DTD/svg11.dtd">
<svg version="1.1" id="Capa_1" xmlns="http://www.w3.org/2000/svg" xmlns:xlink="http://www.w3.org/1999/xlink" x="0px" y="0px" fill="#5894B5"
	 viewBox="0 0 486.543 486.543" style="enable-background:new 0 0 486.543 486.543;" xml:space="preserve">
<g>
	<path d="M376.193,263.66C344.73,216.465,248.61,4.631,247.643,2.497c-0.969-2.138-3.489-3.086-5.626-2.116
		c-2.138,0.969-3.085,3.487-2.117,5.625c1.976,4.36,26.213,57.775,53.962,116.147h-19.777
		C246.011,63.008,219.581,3.139,219.316,2.537c-0.947-2.148-3.455-3.121-5.604-2.174c-2.147,0.947-3.121,3.456-2.173,5.603
		c0.261,0.592,25.667,58.143,53.142,116.187h-16.223c-2.347,0-4.25,1.903-4.25,4.25c0,2.348,1.903,4.25,4.25,4.25h49.456
		c3.596,7.533,7.235,15.112,10.877,22.645H150.994c-2.347,0-4.25,1.902-4.25,4.25c0,2.347,1.903,4.25,4.25,4.25h161.918
		c11.738,24.142,23.354,47.431,33.524,66.754h-21.551c-2.347,0-4.25,1.903-4.25,4.25c0,2.348,1.903,4.25,4.25,4.25h26.07
		c2.701,5.025,5.275,9.71,7.692,13.979h-48.748c-2.347,0-4.25,1.902-4.25,4.25c0,2.347,1.903,4.25,4.25,4.25h53.682
		c2.003,3.352,3.858,6.32,5.54,8.843c24.528,36.792,32.116,75.873,20.297,104.543c-10.573,25.649-35.994,42.737-75.557,50.79
		c-10.039,2.044-20.188,1.725-33.035,1.319c-15.199-0.479-34.114-1.074-60.637,2.047c-0.113,0.014-0.226,0.031-0.337,0.054
		c-1.046,0.209-25.675,5.69-29.9,54.801c-0.201,2.338,1.532,4.397,3.87,4.599c0.124,0.011,0.247,0.016,0.369,0.016
		c2.182,0,4.039-1.672,4.229-3.886c3.497-40.652,21.603-46.757,23.012-47.171c25.765-3.013,44.257-2.431,59.126-1.963
		c13.402,0.421,23.987,0.754,34.998-1.486c42.507-8.651,70.001-27.452,81.72-55.879C410.175,344.866,402.294,302.811,376.193,263.66
		z"/>
	<path d="M256.806,386.18c1.455,0.583,2.366,1.563,2.954,3.18c0.803,2.205,3.24,3.345,5.447,2.542
		c2.206-0.803,3.344-3.241,2.542-5.447c-1.406-3.865-4.097-6.69-7.782-8.165c-12.669-5.071-35.544,6.267-59.767,18.273
		c-11.791,5.844-22.927,11.363-31.705,14.29c-16.598,5.531-40.735,4.984-57.249-8.708c-12.677-10.512-19.293-27.71-19.545-50.346
		h42.293c2.347,0,4.25-1.903,4.25-4.25c0-2.348-1.903-4.25-4.25-4.25H91.892c0.223-4.103,0.628-8.356,1.229-12.765
		c0.38-2.789,0.841-5.462,1.352-8.061h47.18c2.347,0,4.25-1.903,4.25-4.25c0-2.348-1.903-4.25-4.25-4.25H96.471
		c4.868-17.608,13.254-29.996,25.069-36.881c22.136-12.899,49.439-2.244,49.713-2.135c2.174,0.872,4.648-0.181,5.524-2.356
		c0.877-2.177-0.177-4.653-2.355-5.53c-1.267-0.51-31.33-12.326-57.098,2.64c-17.647,10.25-28.624,30.327-32.626,59.676
		c-6.257,45.882,8.032,68.449,21.121,79.302c11.995,9.946,27.359,13.911,41.797,13.91c8.462,0,16.608-1.363,23.564-3.682
		c9.337-3.112,20.73-8.759,32.792-14.737C223.441,394.529,247.671,382.521,256.806,386.18z"/>
</g>
<g>
</g>
<g>
</g>
<g>
</g>
<g>
</g>
<g>
</g>
<g>
</g>
<g>
</g>
<g>
</g>
<g>
</g>
<g>
</g>
<g>
</g>
<g>
</g>
<g>
</g>
<g>
</g>
<g>
</g>
</svg>
