<?xml version="1.0" encoding="iso-8859-1"?>
<!-- Generator: Adobe Illustrator 18.0.0, SVG Export Plug-In . SVG Version: 6.00 Build 0)  -->
<!DOCTYPE svg PUBLIC "-//W3C//DTD SVG 1.1//EN" "http://www.w3.org/Graphics/SVG/1.1/DTD/svg11.dtd">
<svg version="1.1" id="Capa_1" xmlns="http://www.w3.org/2000/svg" xmlns:xlink="http://www.w3.org/1999/xlink" x="0px" y="0px"
	 viewBox="0 0 489.15 489.15" style="enable-background:new 0 0 489.15 489.15;" xml:space="preserve">
<g>
	<path d="M466.871,303.43c4.688-40.55,11.773-101.83-32.135-131.331c-22.857-15.357-42.886-12.461-73.202-8.076
		c-5.616,0.813-11.424,1.652-17.811,2.471c-27.906,3.578-39.817-13.382-44.43-23.811c-5.188-11.73-7.915-18.827-9.348-23.023
		c13.966,2.691,45.174,6.254,59.849-11.611c18.272-22.246-6.862-96.768-9.788-105.192c-0.77-2.217-3.192-3.391-5.409-2.62
		c-2.217,0.77-3.39,3.192-2.62,5.409c3.692,10.63,9.592,30.422,13.108,49.677h-75.977c-12.002,0-21.521,3.525-28.292,10.478
		c-10.292,10.567-10.27,25.205-10.248,26.475v200.089l-8.645,5.32v-38.788c0.275-2.517,1.227-15.457-7.358-21.538
		c-6.218-4.405-15.329-3.657-27.078,2.216c-21.282,10.642-48.952,48.77-56.22,88.567c-5.084,27.833,0.732,51.748,16.816,69.158
		c0.057,0.062,0.115,0.122,0.176,0.18c1.343,1.291,12.85,12.011,24.646,12.01c0.705,0,1.413-0.039,2.118-0.119
		c5.218-0.599,9.657-3.502,12.838-8.395c6.556-10.087,12.268-13.248,18.315-16.594c3.483-1.927,7.085-3.92,10.678-7.184
		c5.577-5.065,5.216-13.437,5.069-15.219v-35.622l23.073-14.646l22.953,14.617v35.651c-0.147,1.782-0.506,10.153,5.069,15.218
		c3.593,3.264,7.195,5.257,10.678,7.184c6.048,3.346,11.76,6.507,18.316,16.593c3.18,4.893,7.62,7.796,12.837,8.396
		c0.706,0.081,1.412,0.12,2.118,0.12c11.796,0,23.304-10.719,24.647-12.01c0.061-0.058,0.119-0.118,0.176-0.18
		c16.084-17.411,21.899-41.325,16.815-69.159c-7.269-39.797-34.938-77.924-56.221-88.565c-11.75-5.875-20.86-6.621-27.077-2.216
		c-8.585,6.081-7.633,19.021-7.358,21.538v38.786l-8.516-5.24V100.272c0-0.054-0.001-0.123-0.004-0.177
		c-0.004-0.09-0.284-9.117,4.941-14.546c2.755-2.862,6.55-4.253,11.603-4.253h72.014c0.125,9.313-1.187,17.008-4.76,21.357
		c-15.327,18.659-57.549,7.357-57.971,7.241c-1.105-0.305-2.286-0.149-3.274,0.43c-0.989,0.579-1.702,1.532-1.979,2.644
		c-0.31,1.247-1.132,4.56,11.517,33.153c4.1,9.268,16.287,29.366,44.794,29.364c2.682,0,5.513-0.179,8.491-0.561
		c6.455-0.828,12.297-1.672,17.947-2.489c30.374-4.392,47.105-6.812,67.245,6.719c31.648,21.263,33.714,62.68,30.997,98.11h-58.963
		c-2.347,0-4.25,1.903-4.25,4.25s1.903,4.25,4.25,4.25h58.219c-0.567,5.841-1.215,11.448-1.821,16.689
		c-0.136,1.175-0.27,2.332-0.401,3.478h-20.996c-2.347,0-4.25,1.903-4.25,4.25c0,2.347,1.903,4.25,4.25,4.25h20.07
		c-0.152,1.521-0.292,2.997-0.408,4.409c-3.531,42.659,1.285,161.207,1.492,166.232c0.094,2.286,1.977,4.075,4.244,4.075
		c0.059,0,0.118-0.001,0.178-0.003c2.345-0.097,4.168-2.076,4.072-4.421c-0.051-1.226-5.001-123.047-1.514-165.182
		C465.557,314.8,466.195,309.278,466.871,303.43z M211.138,370.905c-2.86,2.598-5.88,4.27-9.079,6.039
		c-6.381,3.531-13.614,7.533-21.327,19.398c-1.801,2.772-3.982,4.27-6.669,4.582c-7.183,0.827-16.662-6.492-19.829-9.491
		c-17.847-19.404-17.798-44.291-14.607-61.765c6.711-36.746,32.612-72.967,51.66-82.491c8.468-4.235,14.985-5.262,18.35-2.892
		c4.149,2.922,4.145,11.25,3.801,14.099l-0.016,44.53l-4.073,2.506l-18.681-11.362c-3.733-2.271-8.621-1.082-10.893,2.654
		c-2.271,3.734-1.08,8.62,2.654,10.891l19.645,11.949v2.848l-12.239,20.123c-2.269,3.734-1.078,8.62,2.656,10.891
		c1.284,0.781,2.703,1.152,4.105,1.152c2.679,0,5.296-1.355,6.786-3.806l10.039-16.505v27.915c0,0.133,0.008,0.287,0.021,0.419
		C213.593,364.185,213.472,368.786,211.138,370.905z M280.232,244.286c3.363-2.37,9.88-1.343,18.35,2.892
		c19.048,9.524,44.949,45.744,51.661,82.489c3.191,17.476,3.241,42.365-14.61,61.77c-3.155,3.002-12.598,10.324-19.814,9.489
		c-2.691-0.309-4.876-1.808-6.68-4.583c-7.712-11.864-14.946-15.867-21.328-19.398c-3.198-1.77-6.218-3.441-9.078-6.038
		c-2.333-2.12-2.455-6.721-2.307-8.295c0.015-0.146,0.022-0.293,0.022-0.439v-27.28l9.652,15.87c1.49,2.45,4.107,3.805,6.786,3.805
		c1.403,0,2.823-0.372,4.108-1.152c3.733-2.272,4.923-7.159,2.652-10.892l-11.85-19.483v-3.721l19.258-11.713
		c3.734-2.272,4.924-7.159,2.653-10.891c-1.1-1.81-2.839-3.082-4.896-3.584c-2.058-0.502-4.187-0.172-5.997,0.929l-18.484,11.242
		l-3.882-2.389V258.39C276.102,255.531,276.083,247.208,280.232,244.286z M275.972,72.796c-7.413,0-13.395,2.326-17.78,6.914
		c-7.423,7.767-7.303,19.267-7.26,20.636V293.12c0,2.399,1.427,4.952,3.468,6.206l23.69,14.578c0.601,0.37,1.272,0.577,1.951,0.621
		c-0.478,0.696-0.745,1.531-0.745,2.403v6.622c-0.178-0.162-0.371-0.309-0.575-0.439l-31.439-20.022
		c-0.075-0.048-0.146-0.075-0.219-0.108c-1.318-0.735-2.979-0.761-4.342,0.105l-32.146,20.406v-6.328c0-0.924-0.3-1.807-0.833-2.528
		c0.644-0.057,1.278-0.262,1.849-0.613l24.01-14.776c2.041-1.257,3.467-3.809,3.467-6.206V92.231c0-0.038-0.001-0.075-0.001-0.112
		c-0.003-0.12-0.224-12.109,7.838-20.387c5.111-5.247,12.581-7.908,22.203-7.908h76.074c0.444,0,0.863-0.087,1.266-0.213
		c0.452,3.13,0.819,6.206,1.083,9.186H275.972z"/>
	<path d="M386.846,306.24c-0.054-2.046-1.558-3.763-3.579-4.085c-2.021-0.325-3.985,0.841-4.673,2.768
		c-0.309,0.866-28.404,80.854-20.962,160.01h-30.435c-2.347,0-4.25,1.903-4.25,4.25c0,2.347,1.903,4.25,4.25,4.25h31
		c0.127,0,0.248-0.026,0.373-0.038c0.489,3.843,1.064,7.677,1.74,11.493c0.409,2.311,2.61,3.856,4.926,3.444
		c2.312-0.409,3.854-2.614,3.444-4.926c-10.099-57.06,2.075-118.443,10.728-151.397c1.626,32.497,5.494,91.831,14.013,153.471
		c0.294,2.127,2.116,3.669,4.205,3.669c0.194,0,0.39-0.013,0.587-0.041c2.325-0.321,3.949-2.467,3.628-4.792
		C389.244,393.176,386.869,307.099,386.846,306.24z"/>
	<path d="M276.448,258.39C276.468,258.559,276.448,258.22,276.448,258.39L276.448,258.39z"/>
	<path d="M213.439,258.385C213.439,258.207,213.417,258.561,213.439,258.385L213.439,258.385z"/>
	<path d="M75.363,215.932H32.69c2.365-7.471,5.654-14.509,10.129-20.833h18.544c2.347,0,4.25-1.903,4.25-4.25
		c0-2.347-1.903-4.25-4.25-4.25H50.036c2.727-2.686,5.751-5.182,9.118-7.444c20.08-13.491,36.557-11.098,66.465-6.755
		c5.707,0.829,11.608,1.686,18.16,2.525c34.627,4.442,48.799-18.664,53.285-28.804c12.24-27.67,13.106-43.303,13.137-43.955
		c0.068-1.444-0.602-2.824-1.779-3.663c-0.494-0.352-41.923-30.283-56.935-71.071h34.977c2.347,0,4.25-1.903,4.25-4.25
		c0-2.347-1.903-4.25-4.25-4.25h-35c-0.912,0-1.752,0.293-2.444,0.782c-1.396-5.12-2.347-10.38-2.715-15.754
		c-0.161-2.342-2.192-4.111-4.531-3.95c-2.342,0.161-4.11,2.189-3.95,4.531c3.502,51.108,52.804,91.171,63.648,99.393
		c-0.68,5.004-3.205,18.453-12.182,38.748c-4.614,10.429-16.519,27.392-44.43,23.811c-6.482-0.831-12.348-1.683-18.02-2.506
		c-30.948-4.495-49.628-7.206-72.427,8.111C10.507,201.6,17.591,262.88,22.279,303.43c0.676,5.847,1.315,11.37,1.707,16.113
		c3.487,42.135-1.463,163.956-1.514,165.182c-0.096,2.345,1.727,4.325,4.072,4.421c0.059,0.002,0.119,0.003,0.178,0.003
		c2.267,0,4.149-1.79,4.244-4.075c0.207-5.026,5.023-123.573,1.492-166.232c-0.404-4.881-1.05-10.47-1.734-16.388
		c-2.621-22.672-6.027-52.167-0.301-78.023h44.941c2.347,0,4.25-1.903,4.25-4.25S77.71,215.932,75.363,215.932z"/>
	<path d="M171.063,436.933h-38.858c-0.072-68.977-21.944-131.246-22.216-132.01c-0.688-1.928-2.647-3.094-4.673-2.768
		c-2.021,0.322-3.525,2.039-3.579,4.085c-0.022,0.858-2.395,86.914-14.995,178.078c-0.321,2.325,1.303,4.471,3.628,4.792
		c0.198,0.027,0.394,0.041,0.587,0.041c2.089,0,3.911-1.541,4.205-3.669c8.521-61.652,12.389-120.998,14.014-153.49
		c8.656,32.936,20.835,94.306,10.727,151.416c-0.409,2.311,1.133,4.517,3.444,4.926c2.313,0.409,4.517-1.134,4.926-3.444
		c2.313-13.065,3.487-26.34,3.825-39.456h38.964c2.347,0,4.25-1.903,4.25-4.25C175.313,438.836,173.41,436.933,171.063,436.933z"/>
</g>
<g>
</g>
<g>
</g>
<g>
</g>
<g>
</g>
<g>
</g>
<g>
</g>
<g>
</g>
<g>
</g>
<g>
</g>
<g>
</g>
<g>
</g>
<g>
</g>
<g>
</g>
<g>
</g>
<g>
</g>
</svg>
