<?xml version="1.0" encoding="iso-8859-1"?>
<!-- Generator: Adobe Illustrator 18.0.0, SVG Export Plug-In . SVG Version: 6.00 Build 0)  -->
<!DOCTYPE svg PUBLIC "-//W3C//DTD SVG 1.1//EN" "http://www.w3.org/Graphics/SVG/1.1/DTD/svg11.dtd">
<svg version="1.1" id="Capa_1" xmlns="http://www.w3.org/2000/svg" xmlns:xlink="http://www.w3.org/1999/xlink" x="0px" y="0px" fill="#5894B5"
	 viewBox="0 0 496.083 496.083" style="enable-background:new 0 0 496.083 496.083;" xml:space="preserve">
<g>
	<path d="M265.39,362.814c0-8.899-7.24-16.139-16.139-16.139c-8.899,0-16.139,7.24-16.139,16.139c0,8.899,7.24,16.139,16.139,16.139
		C258.151,378.952,265.39,371.712,265.39,362.814z M241.613,362.814c0-4.212,3.427-7.639,7.639-7.639s7.639,3.427,7.639,7.639
		c0,4.212-3.427,7.639-7.639,7.639S241.613,367.025,241.613,362.814z"/>
	<path d="M277.405,385.673c4.116-6.882,8.111-14.234,8.111-22.859c0-5.085-1.333-9.816-2.954-14.322
		c-10.128-28.157-5.513-52.583-4.51-58.89c3.411-2.817,5.397-6.978,5.397-11.475V14.922C283.449,6.694,276.755,0,268.527,0h-38.551
		c-8.228,0-14.921,6.694-14.921,14.922v263.204c0,4.035,1.602,7.82,4.444,10.615c1.642,8.565,6.03,32.683-3.78,60.28
		c-1.542,4.337-2.732,8.911-2.732,13.793c0,8.246,3.366,15.445,7.426,21.954c0.008,0.013,0.009,0.028,0.016,0.042
		c0.198,0.398,19.569,40.137-1.463,74.662c-5.572,6.724-17.528,22.693-13.429,31.445c1.104,2.357,3.696,5.167,9.779,5.167
		c10.359,0,15.736-2.26,20.48-4.254c3.802-1.598,6.806-2.86,12.245-2.86c5.438,0,8.441,1.262,12.244,2.86
		c4.745,1.994,10.122,4.254,20.481,4.254c6.083,0,8.675-2.81,9.779-5.167c4.1-8.752-7.857-24.721-13.429-31.444
		C256.217,425.154,277.179,386.051,277.405,385.673z M221.487,362.814c0-15.31,12.455-27.765,27.765-27.765
		s27.765,12.455,27.765,27.765c0,15.309-12.455,27.765-27.765,27.765S221.487,378.123,221.487,362.814z M229.976,8.5h38.551
		c3.541,0,6.422,2.881,6.422,6.422v93.928H252.02c-2.347,0-4.25,1.903-4.25,4.25s1.903,4.25,4.25,4.25h22.929v118.491h-35.802
		c-2.347,0-4.25,1.903-4.25,4.25s1.903,4.25,4.25,4.25h35.802v16.578h-21.395c-2.347,0-4.25,1.903-4.25,4.25
		c0,2.347,1.903,4.25,4.25,4.25h21.395v8.707c0,2.223-1.135,4.258-3.035,5.444c-0.994,0.621-1.688,1.624-1.918,2.772
		c-1.77,8.854-2.854,26.58,0.691,47.244c-6.009-4.419-13.421-7.037-21.436-7.037c-8.041,0-15.477,2.635-21.498,7.081
		c3.905-23.446,1.088-41.849-0.211-48.001c-0.206-0.974-0.747-1.845-1.529-2.461c-1.563-1.23-2.459-3.068-2.459-5.042v-75.137
		h27.531c7.565,0,13.721-6.155,13.721-13.721c0-7.565-6.155-13.721-13.721-13.721h-27.531v-10.709h35.868
		c2.347,0,4.25-1.903,4.25-4.25c0-2.347-1.903-4.25-4.25-4.25h-35.868V81.066h16.66c2.347,0,4.25-1.903,4.25-4.25
		s-1.903-4.25-4.25-4.25h-16.66V47.985h38.536c2.347,0,4.25-1.903,4.25-4.25c0-2.347-1.903-4.25-4.25-4.25h-38.536V14.922
		C223.555,11.381,226.435,8.5,229.976,8.5z M223.555,184.047h27.531c2.879,0,5.221,2.342,5.221,5.221
		c0,2.879-2.342,5.221-5.221,5.221h-27.531V184.047z M282.873,487.254c-0.145,0.079-0.711,0.329-2.107,0.329
		c-8.645,0-12.794-1.744-17.188-3.59c-4.122-1.733-8.385-3.525-15.537-3.525c-7.153,0-11.415,1.792-15.538,3.525
		c-4.393,1.846-8.542,3.59-17.187,3.59c-1.395,0-1.961-0.25-2.106-0.329c-0.956-2.378,4.238-12.673,12.486-22.582
		c0.129-0.155,0.248-0.32,0.354-0.492c15.627-25.395,11.923-52.624,7.314-68.775c4.801,2.35,10.191,3.673,15.887,3.673
		c5.254,0,10.247-1.132,14.758-3.151c-5.165,15.958-9.611,42.849,6.022,68.254c0.106,0.172,0.225,0.337,0.354,0.493
		C277.924,473.718,283.947,484.625,282.873,487.254z"/>
	<path d="M246.676,300.539c0.776,0.603,1.694,0.895,2.607,0.895c1.267,0,2.52-0.564,3.358-1.641l7.47-9.604
		c1.441-1.853,1.107-4.523-0.746-5.964c-1.853-1.441-4.523-1.107-5.964,0.746l-7.471,9.604
		C244.49,296.427,244.824,299.097,246.676,300.539z"/>
	<path d="M238.068,312.221l8.538,6.936c0.788,0.64,1.736,0.952,2.678,0.952c1.236,0,2.461-0.536,3.301-1.57
		c1.48-1.822,1.203-4.499-0.618-5.979l-8.538-6.936c-1.822-1.48-4.499-1.203-5.979,0.618
		C235.969,308.064,236.246,310.741,238.068,312.221z"/>
	<path d="M246.97,452.331l-6.936,3.202c-2.131,0.984-3.061,3.509-2.078,5.64c0.718,1.554,2.255,2.47,3.862,2.47
		c0.596,0,1.202-0.126,1.778-0.392l6.936-3.202c2.131-0.984,3.061-3.509,2.078-5.64C251.627,452.278,249.102,451.348,246.97,452.331
		z"/>
</g>
<g>
</g>
<g>
</g>
<g>
</g>
<g>
</g>
<g>
</g>
<g>
</g>
<g>
</g>
<g>
</g>
<g>
</g>
<g>
</g>
<g>
</g>
<g>
</g>
<g>
</g>
<g>
</g>
<g>
</g>
</svg>
