<?xml version="1.0" encoding="iso-8859-1"?>
<!-- Generator: Adobe Illustrator 18.0.0, SVG Export Plug-In . SVG Version: 6.00 Build 0)  -->
<!DOCTYPE svg PUBLIC "-//W3C//DTD SVG 1.1//EN" "http://www.w3.org/Graphics/SVG/1.1/DTD/svg11.dtd">
<svg version="1.1" id="Capa_1" xmlns="http://www.w3.org/2000/svg" xmlns:xlink="http://www.w3.org/1999/xlink" x="0px" y="0px" fill="#5894B5"
	 viewBox="0 0 465.383 465.383" style="enable-background:new 0 0 465.383 465.383;" xml:space="preserve">
<g>
	<path d="M434.096,50.247C402.978,17.314,348.652,0.616,272.628,0.616c-41.374,0-79.556,4.807-104.82,7.987l-4.472,0.562
		c-32.09,4.011-60.315,26.48-81.625,64.979c-15.171,27.407-21.717,53.358-22.495,56.578c-0.455,1.088-3.84,8.53-18.049,26.799
		c-17.747,22.817-3.526,37.057,2.767,43.231c-3.098,5.677-22.767,21.888-40.566,34.479c-0.957,0.678-1.592,1.72-1.754,2.881
		c-0.163,1.162,0.162,2.339,0.897,3.252c8.628,10.73,30.829,41.442,29.957,54.516c-0.159,2.387-0.531,7.976-11.185,7.977
		c-4.804,0-9.167-1.217-9.204-1.227c-1.165-0.333-2.42-0.152-3.444,0.497c-1.024,0.65-1.723,1.707-1.918,2.904
		c-0.387,2.369-9.432,58.419-5.898,93.749c0.034,0.34,0.111,0.68,0.226,1.002c0.053,0.149,5.256,15.077,1.23,25.141
		c-3.048,7.618-2.194,16.905,2.227,24.236c4.901,8.126,13.683,13.241,24.727,14.403c1.315,0.139,2.8,0.206,4.539,0.206
		c12.898,0,36.978-3.85,62.47-7.926c27.229-4.353,55.386-8.855,71.132-8.855c1.732,0,3.287,0.057,4.621,0.168
		c2.014,0.164,3.863-1.103,4.432-3.039c7.435-25.345,24.907-66.688,40.145-69.736c6.076-1.215,14.848-3.874,25.953-7.24
		c22.618-6.856,53.595-16.246,92.406-23.232c29.634-5.334,60.369-14.111,84.399-41.979c26.642-30.895,41.603-81.36,45.739-154.282
		C467.394,107.567,456.974,74.461,434.096,50.247z M10.57,403.237c-0.542-2.267-1.07-3.966-1.342-4.785
		c-0.54-5.623-0.743-11.842-0.711-18.305c0.016,0,0.03,0.005,0.047,0.005h19.164v21.55c0,0.209,0.032,0.409,0.062,0.609
		c-3.23,0.165-6.102,0.313-8.558,0.442c-4.528,0.238-6.976,0.377-8.291,0.457C10.838,403.217,10.703,403.227,10.57,403.237z
		 M36.228,401.702v-21.55h17.689v20.857c-6.591,0.323-12.501,0.616-17.708,0.877C36.213,401.824,36.228,401.765,36.228,401.702z
		 M62.418,380.152h17.689v19.561c-0.462,0.03-0.922,0.066-1.388,0.089c-5.782,0.279-11.204,0.543-16.302,0.792V380.152z
		 M88.607,380.152h17.69v9.432c0,1.165,0.471,2.22,1.229,2.987c-5.824,2.923-12.136,4.971-18.92,6.147V380.152z M114.798,380.152
		h9.796c-3.062,3.068-6.329,5.78-9.796,8.136V380.152z M131.459,372.233c-0.623-0.359-1.337-0.581-2.109-0.581h-14.552v-21.988
		h29.248c-0.775,1.902-1.611,3.818-2.519,5.736C138.56,361.669,135.2,367.278,131.459,372.233z M106.298,371.652h-17.69v-21.988
		h17.69V371.652z M80.107,371.652H62.418v-21.988h17.689V371.652z M53.918,371.652H36.228v-21.988h17.689V371.652z M27.728,371.652
		H8.681c0.246-7.364,0.736-14.851,1.343-21.988h17.704V371.652z M456.577,148.164c-4.026,70.981-18.317,119.79-43.689,149.212
		c-21.062,24.424-47.001,33.32-79.469,39.165c-39.298,7.073-71.835,16.937-93.366,23.463c-10.885,3.3-19.482,5.906-25.154,7.04
		c-15.809,3.162-29.275,29.209-37.653,50.013c-15.766-0.942-52.251,3.904-82.345,8.715c-26.849,4.292-54.611,8.728-64.783,7.661
		c-2.332-0.242-4.426,1.447-4.671,3.781c-0.246,2.335,1.447,4.426,3.781,4.672c1.287,0.136,2.777,0.199,4.453,0.199
		c13.026,0,37.171-3.86,62.562-7.92c29.274-4.681,62.885-9.605,77.836-8.881c-2.187,5.946-3.829,10.983-4.839,14.223
		c-0.599-0.014-1.222-0.02-1.871-0.02c-16.421,0-44.917,4.557-72.474,8.962c-25.149,4.022-48.904,7.819-61.128,7.819
		c-1.419,0-2.647-0.054-3.649-0.159c-10.68-1.124-15.866-6.243-18.337-10.34c-3.075-5.099-3.693-11.493-1.614-16.69
		c2.227-5.567,2.4-11.911,1.847-17.417c4.341-0.256,18.827-1.033,67.118-3.369c31.396-1.518,55.668-18.632,70.188-49.488
		c10.772-22.89,12.354-45.011,12.416-45.941c0.155-2.341-1.614-4.364-3.955-4.521c-2.346-0.169-4.367,1.612-4.526,3.953
		c-0.011,0.166-0.961,13.205-6.175,29.098c-0.415-0.136-0.851-0.228-1.312-0.228H10.811c1.278-12.777,2.776-23.631,3.623-29.375
		c1.943,0.307,4.33,0.566,6.849,0.566c11.824-0.001,18.992-5.801,19.666-15.911c1.074-16.116-20.807-46.18-29.05-56.885
		c4.023-2.933,10.853-8.001,17.66-13.473c19.901-15.995,22.895-21.813,23.2-25.393c0.16-1.875-0.449-3.605-1.715-4.869
		c-0.318-0.319-0.661-0.654-1.021-1.007c-6.488-6.361-15.374-15.073-2.148-32.078c16.392-21.073,19.177-28.618,19.439-29.409
		c0.041-0.123,0.077-0.249,0.106-0.375c0.063-0.269,6.482-27.217,21.819-54.863c0.629-1.133,1.262-2.251,1.9-3.352h25.893
		c2.347,0,4.25-1.903,4.25-4.25c0-2.348-1.903-4.25-4.25-4.25h-20.66c3.295-5.052,6.708-9.718,10.238-13.999h61.419
		c2.347,0,4.25-1.903,4.25-4.25c0-2.348-1.903-4.25-4.25-4.25h-53.77c14.903-15.073,31.669-23.835,50.129-26.142l4.479-0.563
		c25.055-3.154,62.917-7.921,103.759-7.921c73.594,0,125.841,15.803,155.289,46.969c7.042,7.452,12.801,15.852,17.283,25.154
		h-25.182c-2.348,0-4.25,1.902-4.25,4.25c0,2.347,1.902,4.25,4.25,4.25h28.826c2.383,6.299,4.234,12.969,5.558,19.998h-56.883
		c-2.347,0-4.25,1.903-4.25,4.25c0,2.348,1.903,4.25,4.25,4.25h58.205C456.886,127.631,457.177,137.609,456.577,148.164z"/>
	<path d="M175.728,39.033l3.949-0.496c50.564-6.365,168.979-21.271,224.256,30.233c0.818,0.764,1.858,1.141,2.896,1.141
		c1.139,0,2.273-0.454,3.11-1.353c1.601-1.717,1.506-4.406-0.212-6.007C351.542,8.335,230.362,23.59,178.616,30.103l-3.942,0.495
		c-2.329,0.291-3.981,2.416-3.69,4.745C171.275,37.672,173.398,39.325,175.728,39.033z"/>
	<path d="M98.711,156.704c-7.769,0-14.358,3.757-18.558,10.577c-17.613,28.611-23.957,49.69-19.394,64.44
		c3.889,12.57,14.536,18.219,24.211,22.527c5.058,2.252,11.787,4.837,18.987,4.837c17.807,0,28.37-15.174,31.399-45.102
		c1.799-17.776-2.924-34.339-12.957-45.439C115.597,161.02,106.964,156.704,98.711,156.704z M126.9,213.129
		c-2.516,24.855-10.234,37.457-22.942,37.457c-5.599,0-11.24-2.192-15.529-4.102c-8.336-3.712-16.711-8.104-19.549-17.275
		c-3.743-12.101,2.485-31.436,18.512-57.472c2.632-4.273,6.545-6.533,11.319-6.533c5.854,0,12.19,3.296,17.384,9.041
		C124.519,183.565,128.458,197.738,126.9,213.129z"/>
	<path d="M378.47,269.881c-0.906,0.326-91.868,32.479-196.512,26.727c-2.002-0.113-3.802,1.188-4.332,3.117
		c-0.132,0.48-3.223,11.947-1.793,26.229c1.928,19.262,11.183,34.384,26.764,43.732c0.685,0.41,1.438,0.607,2.183,0.607
		c1.443,0,2.852-0.736,3.648-2.065c1.207-2.013,0.555-4.623-1.458-5.831c-26.977-16.186-23.79-46.952-21.878-57.119
		c104.824,4.92,195.338-27.071,196.25-27.398c2.209-0.793,3.357-3.227,2.564-5.436C383.113,270.235,380.679,269.088,378.47,269.881z
		"/>
	<path d="M199.286,234.197c26.686,17.875,59.533,26.839,98.113,26.839c19.555,0,40.586-2.304,63.025-6.918
		c2.299-0.473,3.779-2.72,3.307-5.019c-0.473-2.299-2.72-3.777-5.018-3.308c-64.324,13.228-116.329,6.978-154.568-18.57
		c-45.291-30.261-54.898-77.846-54.99-78.323c-0.44-2.304-2.663-3.814-4.968-3.377c-2.306,0.438-3.82,2.662-3.382,4.968
		C141.2,152.573,151.048,201.885,199.286,234.197z"/>
	<path d="M332.183,215.714c-44.035,7.653-82.047,1.568-112.98-18.086c-1.98-1.258-4.607-0.674-5.866,1.308
		c-1.259,1.98-0.673,4.607,1.308,5.866c23.697,15.058,51.188,22.62,82.056,22.62c11.825,0,24.147-1.11,36.939-3.334
		c2.313-0.402,3.861-2.602,3.459-4.915C336.697,216.86,334.5,215.309,332.183,215.714z"/>
	<path d="M184.296,178.8c0.84,0.952,2.012,1.438,3.188,1.438c0.999,0,2.002-0.35,2.811-1.064c1.76-1.553,1.928-4.238,0.374-5.998
		c-15.3-17.339-21.549-33.285-21.63-33.494c-0.839-2.19-3.295-3.287-5.485-2.45c-2.192,0.838-3.291,3.295-2.453,5.487
		C161.37,143.424,167.889,160.208,184.296,178.8z"/>
</g>
<g>
</g>
<g>
</g>
<g>
</g>
<g>
</g>
<g>
</g>
<g>
</g>
<g>
</g>
<g>
</g>
<g>
</g>
<g>
</g>
<g>
</g>
<g>
</g>
<g>
</g>
<g>
</g>
<g>
</g>
</svg>
