<?xml version="1.0" encoding="iso-8859-1"?>
<!-- Generator: Adobe Illustrator 18.0.0, SVG Export Plug-In . SVG Version: 6.00 Build 0)  -->
<!DOCTYPE svg PUBLIC "-//W3C//DTD SVG 1.1//EN" "http://www.w3.org/Graphics/SVG/1.1/DTD/svg11.dtd">
<svg version="1.1" id="Capa_1" xmlns="http://www.w3.org/2000/svg" xmlns:xlink="http://www.w3.org/1999/xlink" x="0px" y="0px"
	 viewBox="0 0 485.03 485.03" style="enable-background:new 0 0 485.03 485.03;" xml:space="preserve">
<g>
	<path d="M185.547,76.056c-8.712,2.01-28.134-0.922-46.919-3.757c-2.318-0.352-4.486,1.247-4.836,3.568
		c-0.351,2.321,1.247,4.486,3.568,4.836c15.232,2.3,29.835,4.504,40.551,4.504c3.687,0,6.914-0.261,9.547-0.869
		c2.287-0.528,3.713-2.81,3.186-5.097C190.116,76.954,187.831,75.527,185.547,76.056z"/>
	<path d="M98.315,66.926c-22.99-2.203-39.061-1.374-50.579,2.608c-2.218,0.767-3.395,3.187-2.628,5.405
		c0.608,1.759,2.254,2.862,4.017,2.862c0.46,0,0.929-0.075,1.389-0.234c10.184-3.521,25.555-4.234,46.992-2.181
		c2.328,0.222,4.412-1.489,4.636-3.825C102.365,69.225,100.652,67.149,98.315,66.926z"/>
	<path d="M440.337,156.957l9.326-23.424c14.594-34.577,17.606-59.676,9.206-76.732c-5.556-11.281-16.018-18.798-31.987-22.981
		c-31.968-8.374-52.324,20.399-73.872,50.86c-5.719,8.085-11.633,16.445-17.821,24.156c-5.794,7.221-11.865,13.325-17.843,18.483
		c2.302-9.072,7.856-24.896,21.26-47.322c23.812-39.838,11.087-75.702,10.534-77.21c-0.809-2.203-3.25-3.334-5.455-2.525
		c-2.203,0.809-3.333,3.251-2.525,5.455c0.122,0.331,11.901,33.526-9.851,69.918c-20.826,34.844-23.647,55.026-24.028,59.597
		c-10.715,7.661-20.367,12.29-26.566,14.813c4.176-12.955,12.571-44.203,5.627-68.291c28.499-41.615,18.296-63.007,17.843-63.905
		c-1.056-2.095-3.627-2.968-5.723-1.912c-2.096,1.057-2.953,3.583-1.896,5.678c0.081,0.174,7.345,16.844-14.081,50.546
		c-2.173-4.043-4.974-7.715-8.544-10.839c-24.78-21.683-52.413-13.106-74.615-6.215c-4.922,1.528-9.571,2.971-13.782,3.942
		c-8.718,2.011-27.968-0.896-48.349-3.974c-31.587-4.771-67.389-10.179-89.462-2.549c-14.267,4.932-23.382,14.811-25.667,27.818
		c-2.439,13.888,3.586,29.468,15,38.97c0.411,3.409,1.232,7.174,2.687,11.188c3.874,10.69,11.08,20.177,21.501,28.374
		c-18.9,14.351-15.186,62.919-9.482,105.003c0.27,1.991,0.499,3.683,0.666,5.02c1.173,9.383,3.822,17.102,7.691,22.758
		c-4.846,6.322-6.963,13.517-5.99,20.57c1.001,7.253,5.151,13.589,11.386,17.385c6.052,3.685,15.146,4.621,25.676,5.705
		c5.855,0.603,11.91,1.226,17.826,2.371c6.504,1.259,11.602,4.41,13.636,8.428c1.099,2.171,1.157,4.328,0.171,6.409
		c-2.316,4.889-8.861,3.96-10.325,3.282c-1.484-0.688-3.226-1.619-5.07-2.604c-11.83-6.32-31.633-16.899-49.461,2.233
		c-17.881,19.19-14.671,49.699-5.705,71.851c6.917,17.089,18.267,35.732,45.172,35.73c3.878,0,8.085-0.388,12.644-1.224
		c0.943-0.144,7.17-1.2,15.245-4.908c3.116,7.684,8.088,13.436,14.839,17.119c6.528,3.561,13.668,4.587,19.731,4.587
		c5.219,0,9.626-0.759,12.166-1.317c2.116,1.874,4.736,3.423,7.853,4.632c5.619,2.18,12.53,3.125,20.106,3.125
		c24.792,0,56.704-10.124,73.727-20.231c14.31-8.497,19.32-20.815,20.557-31.659c34.315-31.582,51.684-63.569,54.63-100.617
		c0.497-6.253,0.772-12.622,0.882-18.941c0.579,0.419,1.19,0.838,1.829,1.253c-1.976,8.696-6.672,34.999,4.677,49.902
		c5.292,6.951,13.16,10.475,23.384,10.475c8.431,0,15.774-3.29,21.824-9.778c21.928-23.514,20.521-83.906,19.799-98.998
		c26.091-6.707,31.09-41.011,34.406-63.85c0.44-3.034,0.856-5.899,1.281-8.395c2.085-12.253,0.596-21.939-4.428-28.792
		C449.608,161.317,445.409,158.46,440.337,156.957z M46.537,104.354c1.148-3.021,3.353-8.899,11.706-12.581
		c11.521-5.079,30.027-4.511,55.002,1.689c63.99,15.885,85.595,10.578,110.611,4.434c2.838-0.698,3.567,0.133,3.842,0.445
		c4.987,5.679-1.614,34.144-10.59,57.26c-0.85,2.188,0.235,4.65,2.423,5.5c2.189,0.848,4.65-0.235,5.5-2.422
		c0.204-0.524,5.032-13.002,8.729-27.083c7.109-27.07,3.59-35.145,0.326-38.863c-2.011-2.29-5.77-4.685-12.257-3.092
		c-24.908,6.119-44.583,10.95-106.536-4.429c-26.846-6.665-47.194-7.073-60.478-1.217c-11.619,5.122-14.869,13.746-16.22,17.335
		c-0.079,0.205-0.875,2.338-1.403,5.89c-5.608-7.354-8.26-16.808-6.75-25.404c1.221-6.953,5.695-16.285,20.072-21.255
		c20.095-6.947,56.314-1.476,85.416,2.92c22.125,3.343,41.233,6.229,51.53,3.852c4.518-1.043,9.313-2.531,14.39-4.106
		c21.232-6.59,45.296-14.058,66.498,4.493c25.802,22.578,2.609,84.627,2.372,85.25c-0.042,0.11-0.079,0.222-0.112,0.335
		c-0.035,0.123-3.636,12.392-12.536,23.568c-11.582,14.544-26.3,20.216-43.733,16.865c-13.764-2.647-23.333-8.231-28.443-16.599
		c-8.566-14.027-3.089-32.771-0.75-40.774c0.23-0.786,0.429-1.469,0.583-2.037c0.59-2.163,0.167-4.22-1.192-5.793
		c-3.291-3.807-9.815-3.184-25.574-1.271c-15.047,1.827-35.655,4.33-51.098,0.076c-2.262-0.622-4.603,0.707-5.226,2.969
		c-0.623,2.263,0.707,4.603,2.969,5.226c17.062,4.698,38.63,2.079,54.379,0.167c6.076-0.738,13.368-1.622,16.919-1.445
		c-2.039,6.981-5.954,20.701-3.24,34.354c-9.268,3.945-43.426,15.665-85.99-3.813C34.419,140.427,46.403,104.706,46.537,104.354z
		 M55.707,205.19c0.43-23.255,4.961-37.346,13.123-40.949c1.589,1.018,3.248,2.007,4.951,2.977
		c-9.635,16.941-9.021,50.033-7.688,69.09c0.157,2.241,2.023,3.954,4.235,3.954c0.1,0,0.2-0.003,0.301-0.01
		c2.342-0.164,4.107-2.195,3.943-4.536c-2.102-30.035,0.413-53.726,6.734-64.542c0.936,0.454,1.866,0.911,2.831,1.352
		c7.001,3.204,13.778,5.617,20.281,7.408c-5.155,4.55-10.301,12.595-10.795,26.69c-0.292,8.329,1.368,18.6,3.125,29.474
		c3.474,21.495,7.411,45.859-5.076,53.46c-7.194,4.38-13.355,5.386-18.311,2.994c-6.356-3.069-10.908-12.075-12.487-24.707
		c-0.17-1.359-0.403-3.081-0.678-5.106C58.489,250.139,55.31,226.684,55.707,205.19z M108.792,453.391
		c-0.057,0.008-0.113,0.018-0.169,0.028c-28.267,5.208-39.82-7.955-48.469-29.322c-7.984-19.726-11.114-46.6,4.044-62.867
		c13.371-14.351,27.713-6.686,39.237-0.53c1.953,1.044,3.797,2.029,5.499,2.818c6.065,2.813,17.24,1.813,21.583-7.354
		c2.107-4.449,2.012-9.38-0.269-13.886c-3.259-6.439-10.405-11.153-19.605-12.934c-6.286-1.217-12.531-1.86-18.571-2.481
		c-9.109-0.938-17.714-1.823-22.127-4.51c-4.044-2.461-6.736-6.575-7.386-11.286c-0.601-4.354,0.633-8.893,3.491-13.086
		c1.147,0.863,2.348,1.616,3.614,2.227c2.392,1.155,5.513,2.093,9.339,2.093c4.662,0,10.373-1.393,17.088-5.48
		c6.2-3.774,9.613-9.693,11.275-16.834c5.671-0.687,37.289-2.92,48.057,30.461c14.648,45.407,5.336,73.489-30.189,91.051
		c-6.587,3.256-12.971,5.65-28.898,4.329c-1.558-5.393-2.408-11.148-2.644-14.96c-0.144-2.342-2.173-4.118-4.499-3.982
		c-2.343,0.142-4.127,2.156-3.985,4.5c0.2,3.307,2.414,32.43,18.214,36.643c0.367,0.098,0.735,0.144,1.098,0.144
		c1.878,0,3.597-1.255,4.104-3.156c0.605-2.268-0.744-4.597-3.011-5.202c-2.247-0.599-4.144-2.557-5.721-5.239
		c1.63,0.078,3.181,0.121,4.635,0.121c12.004,0,18.319-2.534,24.476-5.578c20.78-10.273,33.896-24.746,38.985-43.016
		c4.465-16.031,3.002-35.09-4.473-58.264c-5.15-15.961-14.456-25.057-24.147-30.186c6.307-35.515-3.35-66.004-3.774-67.313
		c-0.723-2.233-3.12-3.458-5.353-2.733c-2.233,0.723-3.457,3.12-2.733,5.353c0.095,0.294,9.069,28.619,3.815,61.289
		c-9.389-3.08-18.144-3.139-22.764-2.863c0.672-11.299-1.438-24.383-3.418-36.641c-1.689-10.452-3.285-20.323-3.021-27.82
		c0.702-20.008,12.602-23.805,14.482-24.281c6.992,1.185,13.58,1.681,19.663,1.681c7.694,0,14.584-0.776,20.508-1.878
		c25.208,9.81,23.371,36.148,23.287,37.19c-0.385,3.756-9.271,92.324,3.902,121.396c6.193,13.666,18.062,22.743,32.564,24.903
		c2.224,0.332,4.455,0.494,6.677,0.494c12.892-0.001,25.431-5.463,33.851-15.039c23.511-26.738,19.402-85.289,19.216-87.768
		c-0.176-2.34-2.22-4.094-4.556-3.919c-2.34,0.176-4.096,2.215-3.921,4.555c0.043,0.572,4.026,57.468-17.122,81.519
		c-7.986,9.081-20.586,13.585-32.893,11.751c-11.763-1.753-21.023-8.857-26.075-20.005c-12.232-26.995-3.28-116.125-3.183-117.087
		c0.026-0.299,2.004-26.654-19.375-41.076c2.88-0.915,5.241-1.814,7.034-2.563c0.694,1.615,1.507,3.21,2.461,4.771
		c6.41,10.495,17.88,17.397,34.092,20.515c3.754,0.722,7.423,1.081,10.996,1.081c7.425,0,14.427-1.569,20.912-4.626
		c0.633,5.803,2.51,14.799,7.951,22.697c-1.626,2.486-7.213,8.543-24.476,12.413c-1.699,0.381-2.994,1.759-3.268,3.479
		c-0.372,2.336-8.5,54.327,0.242,77.952c-2.298,0.133-4.987-0.213-8.059-1.051c-2.265-0.617-4.601,0.717-5.218,2.982
		c-0.618,2.265,0.717,4.601,2.982,5.218c3.371,0.919,6.49,1.378,9.35,1.378c4.509,0,8.368-1.142,11.53-3.422
		c6.915-4.983,7.462-13.462,7.482-13.821c0.129-2.33-1.645-4.309-3.973-4.458c-2.341-0.14-4.343,1.626-4.512,3.952
		c-0.003,0.037-0.236,2.867-1.953,5.348c-5.785-16.924-2.31-53.318,0.1-69.942c14.852-3.778,22.049-9.346,25.508-13.507
		c6.999,6.243,16.212,9.415,27.444,9.415c3.4,0,7.265-0.501,11.503-1.461c-1.406,10.073-3.293,33.609-1.125,81.602
		c1.98,43.849-19.095,63.596-26.063,68.892c-5.305-2.244-11.327-3.508-18.04-3.701c-13.256-0.382-24.727,3.494-26.48,4.119
		c-49.672,13.044-83.686,47.938-85.096,49.404C126.236,450.664,108.955,453.368,108.792,453.391z M286.179,429.566
		c-0.655,12.315-6.294,21.711-16.76,27.925c-22.936,13.617-67.317,23.899-86.419,16.49c-4.574-1.775-7.316-4.348-8.384-7.866
		c-2.016-6.638-1.687-11.811,1.005-15.815c4.448-6.617,15.673-10.672,34.316-12.398c24.169-2.238,44.468-9.228,45.32-9.524
		c2.217-0.771,3.388-3.192,2.618-5.409c-0.771-2.216-3.192-3.389-5.409-2.62c-0.2,0.069-20.216,6.95-43.313,9.089
		c-13.619,1.261-32.644,4.304-40.587,16.12c-4.149,6.171-4.85,13.919-2.085,23.027c0.103,0.34,0.218,0.673,0.337,1.002
		c-5.608,0.808-14.825,1.181-22.573-3.045c-5.19-2.832-9.001-7.427-11.36-13.678c4.497-2.752,9.21-6.319,13.691-10.929
		c0.333-0.346,33.842-34.733,81.325-47.139c0.137-0.036,0.272-0.079,0.406-0.128c0.108-0.04,11.005-4.025,23.491-3.669
		c15.97,0.46,26.803,7.71,32.199,21.547C284.204,413.136,286.662,420.463,286.179,429.566z M349.859,302.437
		c-0.363-32.492-4.436-60.898-4.49-61.267c-0.338-2.322-2.494-3.933-4.818-3.593c-2.323,0.338-3.931,2.495-3.593,4.818
		c0.069,0.472,6.834,47.706,3.514,89.455c-2.635,33.132-16.94,61.034-46.108,89.539c-0.681-6.884-2.332-11.629-2.38-11.76
		c-0.012-0.033-0.024-0.066-0.037-0.099c-3.12-8.037-7.835-14.337-13.953-18.843c9.639-8.467,28.589-30.728,26.645-73.76
		c-2.545-56.355,0.614-78.298,1.662-83.771c13.313-4.432,29.155-12.371,45.535-23.008c2.38-1.546,4.715-3.11,6.999-4.688
		c8.908,4.375,12.945,13.521,12.968,13.574c10.423,25.188,14.721,53.28,14.303,68.722c-0.344,12.732-4.41,17.023-4.938,17.528
		c-0.257,0.163-0.299,0.234-0.538,0.484c-3.944,4.141-8.083,6.143-12.702,6.029C359.41,311.641,351.831,304.463,349.859,302.437z
		 M395.326,359.637c-4.44,4.761-9.545,7.075-15.608,7.075c-7.53,0-12.964-2.328-16.615-7.116c-8.392-11.006-5.43-31.73-3.581-40.84
		c2.554,0.89,5.307,1.479,8.196,1.539c0.167,0.003,0.332,0.005,0.498,0.005c6.763,0,12.944-2.85,18.379-8.474
		c1.748-1.49,7.568-7.646,8.006-23.841c0.175-6.462-0.374-14.691-1.73-23.872c6.122,3.08,11.762,3.999,16.514,3.998
		c1.231,0,2.396-0.065,3.501-0.165C413.524,283.791,414.298,339.291,395.326,359.637z M448.649,192.766
		c-0.442,2.598-0.865,5.513-1.313,8.6c-3.032,20.888-7.614,52.454-29.074,57.091c-7.581,1.639-16.556,2.667-27.378-5.603
		c-2.442-11.912-6.133-24.76-11.24-37.1c-0.191-0.454-4.15-9.596-13.24-15.712c18.712-13.874,33.152-28.345,39.897-40.257
		c5.023-8.871,5.804-16.311,2.322-22.113c-2.87-4.783-6.081-8.354-9.6-10.707c15.796-22.525,19.744-49.136,19.913-50.322
		c0.331-2.324-1.285-4.476-3.609-4.806c-2.325-0.329-4.475,1.285-4.806,3.609c-0.04,0.277-4.016,27.135-19.679,48.341
		c-0.329-0.046-0.658-0.093-0.991-0.121c-13.165-1.142-26.004,11.519-36.835,24.049c-17.52,20.269-50.102,37.451-62.269,43.439
		c-0.047-2.671,0.107-5.361,0.38-7.476c0.304-2.328-1.337-4.46-3.665-4.764c-2.333-0.3-4.46,1.338-4.764,3.665
		c-0.38,2.918-1.984,17.809,3.838,24.44c1.93,2.198,4.48,3.359,7.376,3.359c2.347,0,4.25-1.903,4.25-4.25
		c0-2.347-1.903-4.25-4.25-4.25c-0.392,0-0.64-0.07-0.988-0.466c-0.324-0.369-0.604-0.863-0.848-1.444
		c10.185-4.839,47.27-23.44,67.37-46.694c8.876-10.269,20.265-21.952,29.673-21.139c4.448,0.384,8.444,3.626,12.214,9.911
		c2.23,3.716-0.091,9.421-2.43,13.552c-16.627,29.366-84.296,73.074-113.134,73.074c-9.856,0-17.657-2.888-23.186-8.585
		c-8.776-9.04-9.672-22.774-9.751-26.409c4.26-3.097,8.24-6.927,11.888-11.508c6.453-8.103,10.38-16.617,12.387-21.749
		c6.855-2.113,38.181-13.201,64.712-46.262c6.348-7.912,12.338-16.379,18.13-24.567c20.659-29.206,38.501-54.428,64.779-47.546
		c13.627,3.569,22.052,9.452,26.515,18.514c7.145,14.507,3.978,37.948-9.444,69.752l-10.155,25.503
		c-13.796,0.505-26.388,11.89-28.653,26.839c-2.186,14.433-5.279,33.443-5.311,33.633c-0.377,2.317,1.195,4.501,3.512,4.878
		c2.311,0.376,4.501-1.196,4.877-3.512c0.031-0.191,3.131-19.247,5.325-33.726c1.828-12.066,12.635-20.984,23.579-19.471
		c4.719,0.651,8.343,2.661,10.771,5.973C449.306,175.282,450.31,183.007,448.649,192.766z"/>
	<path d="M256.347,446.944c-15.761,6.617-34.369,11.214-49.776,12.299c-2.341,0.165-4.106,2.197-3.941,4.538
		c0.158,2.24,2.024,3.952,4.235,3.952c0.1,0,0.201-0.003,0.303-0.01c16.283-1.147,35.898-5.984,52.469-12.94
		c2.164-0.909,3.182-3.4,2.274-5.564C261.002,447.054,258.511,446.037,256.347,446.944z"/>
	<path d="M369.914,287.376c2.292,0,4.182-1.826,4.246-4.131c0.042-1.525,0.893-37.568-11.712-56.476
		c-1.302-1.953-3.94-2.48-5.894-1.179c-1.953,1.302-2.481,3.94-1.179,5.894c11.102,16.653,10.297,51.179,10.288,51.526
		c-0.064,2.346,1.786,4.3,4.132,4.364C369.835,287.375,369.875,287.376,369.914,287.376z"/>
	<path d="M425.131,126.985c0.577,0.266,1.182,0.392,1.778,0.392c1.607,0,3.145-0.915,3.862-2.47
		c12.29-26.629,11.43-49.984,11.387-50.965c-0.102-2.343-2.093-4.148-4.425-4.059c-2.343,0.099-4.163,2.08-4.067,4.423
		c0.009,0.221,0.772,22.372-10.613,47.04C422.07,123.476,423,126.001,425.131,126.985z"/>
</g>
<g>
</g>
<g>
</g>
<g>
</g>
<g>
</g>
<g>
</g>
<g>
</g>
<g>
</g>
<g>
</g>
<g>
</g>
<g>
</g>
<g>
</g>
<g>
</g>
<g>
</g>
<g>
</g>
<g>
</g>
</svg>
