<?xml version="1.0" encoding="iso-8859-1"?>
<!-- Generator: Adobe Illustrator 18.0.0, SVG Export Plug-In . SVG Version: 6.00 Build 0)  -->
<!DOCTYPE svg PUBLIC "-//W3C//DTD SVG 1.1//EN" "http://www.w3.org/Graphics/SVG/1.1/DTD/svg11.dtd">
<svg version="1.1" id="Capa_1" xmlns="http://www.w3.org/2000/svg" xmlns:xlink="http://www.w3.org/1999/xlink" x="0px" y="0px" fill="#5894B5"
	 viewBox="0 0 484.47 484.47" style="enable-background:new 0 0 484.47 484.47;" xml:space="preserve">
<g>
	<path d="M391.745,114.138c-0.769-1.032-1.965-1.659-3.251-1.706c-0.367-0.014-35.121-1.422-51.205-12.485
		c3.222-8.449,9.949-28.502,5.212-37.722c-1.381-2.689-3.611-4.463-6.449-5.131c-5.178-1.218-11.607-1.598-17.826-1.965
		c-6.818-0.402-14.374-0.848-18.805-2.454l9.026-25.79c0.446-1.274,0.26-2.684-0.5-3.799c-0.761-1.115-2.006-1.802-3.355-1.852
		c-0.788-0.029-79.312-3.105-123.326-20.853c-0.274-0.111-0.56-0.192-0.851-0.244C180.182,0.096,179.534,0,178.565,0
		c-3.549,0-15.517,1.498-20.512,20.766c-1.353,5.217-2.554,10.132-3.715,14.885c-3.186,13.042-6.195,25.359-11.495,40.2
		c-1.017,2.847-1.983,5.368-2.837,7.592c-3.173,8.275-5.088,13.271-2.841,18.025c2.019,4.272,6.726,6.545,14.173,9.027
		c6.715,2.238,19.115,2.331,34.815,2.447c26.736,0.199,63.316,0.47,81.36,12.918c0.808,0.686,2.686,1.995,5.263,1.995
		c8.389,0,11.413-12.35,12.779-23.575c4.569,1.318,12.032,4.512,17.67,12.029c0.326,0.436,0.646,0.873,0.965,1.312
		c6.734,9.229,13.697,18.771,77.842,25.898c0.159,0.018,0.316,0.026,0.473,0.026c1.916,0,3.623-1.295,4.112-3.188l5.836-22.617
		C392.775,116.495,392.514,115.17,391.745,114.138z M178.565,8.5c0.041,0,0.079,0,0.114,0.001
		c38.887,15.473,100.714,19.917,119.863,20.955l-3.092,8.834c-10.094-0.554-85.517-5.228-127.018-21.474
		C172.045,9.203,176.92,8.5,178.565,8.5z M379.31,134.655c-57.015-6.641-62.978-14.814-68.253-22.043
		c-0.342-0.469-0.683-0.936-1.032-1.401c-10.91-14.547-27.128-16.21-27.813-16.274c-0.131-0.012-0.262-0.018-0.393-0.018
		c-0.989,0-1.951,0.345-2.717,0.982c-0.868,0.722-1.413,1.759-1.515,2.883c-1.371,15.079-3.956,19.299-4.865,20.343
		c-0.039-0.024-0.084-0.055-0.139-0.093c-20.14-14.098-56.861-14.371-86.366-14.59c-14.355-0.106-26.753-0.199-32.19-2.011
		c-5.517-1.839-8.604-3.385-9.176-4.596c-0.695-1.471,1.06-6.049,3.093-11.35c0.578-1.507,1.21-3.162,1.876-4.955h71.634
		c2.347,0,4.25-1.903,4.25-4.25c0-2.347-1.903-4.25-4.25-4.25H152.81c2.448-7.329,4.378-14.083,6.114-20.697h16.543
		c2.347,0,4.25-1.903,4.25-4.25c0-2.347-1.903-4.25-4.25-4.25h-14.385c0.506-2.046,1.008-4.097,1.514-6.166
		c1.006-4.117,2.047-8.369,3.182-12.805c44.175,17.798,119.641,21.551,126.724,21.853l-2.29,6.543
		c-0.596,1.702-0.052,3.596,1.356,4.722c5.515,4.413,15.543,5.005,26.158,5.631c5.858,0.346,11.916,0.704,16.38,1.754
		c0.293,0.069,0.54,0.167,0.835,0.74c2.729,5.31-2.281,22.864-6.709,33.633c-0.695,1.691-0.232,3.638,1.152,4.833
		c13.546,11.699,41.803,15.099,53.554,16.027L379.31,134.655z"/>
	<path d="M372.224,207.441c-0.085,0.011-8.685,1.062-19.517,1.063c-14.407,0-25.723-1.806-33.021-5.245
		c1.836-8.857,5.285-29.719-0.857-38.066c-1.792-2.435-4.275-3.832-7.183-4.039c-1.055-0.075-2.208-0.113-3.427-0.113
		c-4.501,0-9.576,0.513-14.485,1.01c-4.689,0.474-9.537,0.965-13.59,0.965c-2.14,0-3.932-0.136-5.364-0.406l4.806-26.886
		c0.238-1.329-0.17-2.691-1.099-3.671c-0.928-0.98-2.268-1.459-3.606-1.294c-0.325,0.04-32.923,4.019-68.242,4.02
		c-23.162,0.001-42.282-1.676-56.832-4.983c-0.309-0.07-0.637-0.105-0.954-0.105c-0.672,0-16.493,0.272-18.72,23.925
		c-0.505,5.369-0.909,10.414-1.299,15.294c-1.07,13.38-2.081,26.018-4.951,41.51c-0.551,2.972-1.104,5.614-1.592,7.946
		c-1.816,8.675-2.913,13.912,0.063,18.249c2.673,3.896,7.682,5.392,15.429,6.657c1.419,0.232,3.048,0.345,4.979,0.345
		c7.192,0,17.66-1.607,29.779-3.469c16.425-2.522,35.042-5.381,52.008-5.381c13.093,0,23.028,1.695,30.36,5.182
		c0.775,0.475,2.327,1.234,4.319,1.234c2.18,0,4.168-0.895,5.748-2.588c2.179-2.335,4.884-7.24,4.317-22.811
		c4.785,0.58,12.627,2.558,19.367,9.06c0.391,0.377,0.775,0.758,1.16,1.139c6.892,6.825,14.018,13.882,55.447,13.882
		c7.513,0,16.101-0.235,25.526-0.698c2.112-0.104,3.827-1.746,4.023-3.852l2.163-23.258c0.119-1.282-0.349-2.548-1.273-3.444
		C374.782,207.712,373.502,207.283,372.224,207.441z M366.695,230.843c-7.847,0.343-15.039,0.517-21.427,0.517
		c-37.933,0-43.796-5.806-49.466-11.421c-0.412-0.408-0.822-0.814-1.24-1.217c-11.226-10.831-24.903-11.672-28.827-11.672
		c-0.788,0-1.221,0.032-1.221,0.032c-2.333,0.172-4.116,2.2-3.955,4.534c1.046,15.104-0.835,19.682-1.566,20.858
		c-0.042-0.018-0.091-0.041-0.152-0.07c-8.534-4.132-19.751-6.141-34.292-6.141c-17.614,0-36.572,2.911-53.298,5.48
		c-11.776,1.809-21.946,3.37-28.489,3.37c-1.446,0-2.661-0.079-3.609-0.233c-5.739-0.937-9.033-1.973-9.79-3.077
		c-0.92-1.342,0.085-6.142,1.248-11.699c0.19-0.907,0.392-1.876,0.597-2.878c0.594,0.315,1.261,0.511,1.98,0.511h63.788
		c2.347,0,4.25-1.903,4.25-4.25c0-2.347-1.903-4.25-4.25-4.25h-63.788c-0.159,0-0.31,0.03-0.464,0.047
		c0.567-3.228,1.056-6.331,1.485-9.348h43.482c2.347,0,4.25-1.903,4.25-4.25c0-2.347-1.903-4.25-4.25-4.25h-42.393
		c0.856-7.46,1.425-14.549,2.009-21.852c0.388-4.85,0.789-9.865,1.289-15.174c1.344-14.272,8.383-15.989,9.917-16.194
		c15.087,3.358,34.639,5.062,58.125,5.061c27.071,0,52.565-2.305,63.579-3.452l-2.199,12.3h-47.308c-2.347,0-4.25,1.903-4.25,4.25
		c0,2.347,1.903,4.25,4.25,4.25H266.5l-0.722,4.038c-0.317,1.776,0.521,3.559,2.09,4.447c2.9,1.641,6.8,2.405,12.275,2.405
		c4.482,0,9.548-0.513,14.446-1.008c4.699-0.476,9.558-0.967,13.629-0.967c1.018,0,1.967,0.031,2.821,0.092
		c0.3,0.022,0.56,0.079,0.942,0.598c3.539,4.808,1.386,22.935-1.273,34.272c-0.418,1.78,0.351,3.629,1.907,4.589
		c8.516,5.251,22.004,7.914,40.09,7.914c6.173-0.001,11.603-0.32,15.332-0.619L366.695,230.843z"/>
	<path d="M356.175,329.283c-0.086,0.011-8.72,1.062-19.517,1.062c-14.407,0-25.724-1.806-33.022-5.245
		c1.836-8.857,5.285-29.718-0.857-38.066c-1.792-2.435-4.275-3.832-7.183-4.039c-1.056-0.075-2.209-0.114-3.428-0.114
		c-4.501,0-9.576,0.514-14.485,1.01c-4.689,0.475-9.536,0.965-13.589,0.965c-2.139,0-3.932-0.136-5.363-0.406l4.806-26.887
		c0.238-1.329-0.17-2.691-1.099-3.671c-0.929-0.979-2.269-1.458-3.606-1.294c-0.325,0.04-32.923,4.02-68.242,4.02
		c-23.161,0-42.282-1.676-56.831-4.982c-0.309-0.07-0.637-0.106-0.954-0.106c-0.672,0-16.493,0.272-18.72,23.925
		c-0.505,5.368-0.909,10.414-1.299,15.293c-1.07,13.38-2.081,26.019-4.952,41.512c-0.551,2.973-1.104,5.615-1.592,7.946
		c-1.816,8.675-2.912,13.911,0.063,18.248c2.673,3.897,7.681,5.392,15.429,6.658c1.42,0.232,3.049,0.345,4.979,0.345
		c7.192,0,17.66-1.607,29.78-3.469c16.425-2.522,35.042-5.381,52.008-5.381c13.092,0,23.027,1.695,30.359,5.182
		c0.775,0.475,2.327,1.234,4.319,1.234c2.18,0,4.167-0.895,5.748-2.588c2.179-2.335,4.884-7.24,4.317-22.811
		c4.785,0.58,12.627,2.558,19.367,9.06c0.391,0.377,0.775,0.758,1.16,1.139c6.892,6.825,14.018,13.882,55.448,13.882
		c7.512,0,16.1-0.235,25.525-0.698c2.112-0.104,3.827-1.746,4.023-3.851l2.164-23.258c0.119-1.281-0.349-2.547-1.273-3.444
		C358.732,329.554,357.449,329.125,356.175,329.283z M132.464,260.056c15.087,3.359,34.639,5.061,58.125,5.061
		c27.071,0,52.565-2.305,63.579-3.452l-2.048,11.457c-0.159,0.004-0.316-0.004-0.477,0.019
		c-0.825,0.117-82.487,11.528-128.891,1.364C124.482,261.843,130.995,260.253,132.464,260.056z M350.645,352.685
		c-7.847,0.343-15.039,0.517-21.427,0.517c-37.933,0-43.796-5.806-49.467-11.421c-0.412-0.408-0.822-0.814-1.24-1.217
		c-11.225-10.831-24.902-11.672-28.827-11.672c-0.788,0-1.221,0.032-1.221,0.032c-2.333,0.172-4.116,2.2-3.955,4.534
		c1.046,15.103-0.835,19.682-1.566,20.857c-0.042-0.018-0.091-0.041-0.152-0.07c-8.534-4.132-19.751-6.141-34.291-6.141
		c-17.615,0-36.573,2.911-53.298,5.48c-11.776,1.808-21.946,3.37-28.49,3.37c-1.446,0-2.661-0.079-3.609-0.233
		c-5.739-0.938-9.033-1.973-9.79-3.077c-0.92-1.342,0.084-6.141,1.247-11.698c0.357-1.705,0.749-3.58,1.151-5.632
		c0.381,0.112,0.775,0.19,1.192,0.19h60.079c2.347,0,4.25-1.903,4.25-4.25c0-2.347-1.903-4.25-4.25-4.25h-59.778
		c1.796-10.92,2.729-20.503,3.532-30.162h18.386c2.347,0,4.25-1.903,4.25-4.25s-1.903-4.25-4.25-4.25h-17.698
		c0.167-2.07,0.338-4.173,0.52-6.318c14.926,3.146,32.882,4.246,50.66,4.246c34.779,0,68.818-4.188,77.952-5.401l-0.829,4.636
		c-0.317,1.776,0.521,3.559,2.09,4.447c2.9,1.641,6.8,2.405,12.275,2.405c4.482,0,9.547-0.512,14.445-1.008
		c4.699-0.476,9.557-0.967,13.629-0.967c1.018,0,1.968,0.031,2.823,0.092c0.3,0.022,0.56,0.079,0.941,0.598
		c3.539,4.807,1.387,22.935-1.272,34.271c-0.418,1.78,0.351,3.629,1.907,4.589c8.517,5.251,22.005,7.914,40.092,7.914
		c6.172,0,11.601-0.319,15.331-0.619L350.645,352.685z"/>
	<path d="M343.602,448.298c-0.086,0.011-8.72,1.062-19.517,1.062c-14.407,0-25.724-1.806-33.022-5.245
		c1.836-8.857,5.285-29.718-0.857-38.066c-1.792-2.435-4.275-3.832-7.183-4.039c-1.055-0.075-2.209-0.114-3.428-0.114
		c-4.5,0-9.576,0.514-14.484,1.01c-4.688,0.475-9.537,0.965-13.589,0.965c-2.139,0-3.932-0.136-5.363-0.406l4.805-26.887
		c0.238-1.329-0.17-2.691-1.099-3.671c-0.929-0.979-2.268-1.46-3.607-1.294c-0.325,0.04-32.898,4.02-68.241,4.02
		c-23.162,0.001-42.282-1.676-56.831-4.982c-0.309-0.07-0.637-0.106-0.954-0.106c-0.672,0-16.493,0.272-18.72,23.925
		c-0.505,5.366-0.908,10.409-1.298,15.286c-1.07,13.382-2.081,26.023-4.952,41.518c-0.551,2.973-1.104,5.615-1.592,7.947
		c-1.816,8.675-2.912,13.911,0.063,18.248c2.673,3.897,7.681,5.392,15.429,6.658c1.42,0.232,3.049,0.345,4.979,0.345
		c7.192,0,17.66-1.607,29.78-3.469c16.425-2.522,35.042-5.381,52.008-5.381c13.092,0,23.027,1.695,30.359,5.182
		c0.775,0.475,2.327,1.234,4.319,1.234c2.18,0,4.167-0.895,5.748-2.588c2.179-2.335,4.884-7.24,4.317-22.812
		c4.785,0.58,12.628,2.558,19.367,9.06c0.391,0.377,0.775,0.757,1.16,1.139c6.892,6.825,14.019,13.882,55.448,13.882
		c7.513,0,16.1-0.235,25.525-0.698c2.112-0.104,3.827-1.746,4.023-3.852l2.164-23.258c0.119-1.281-0.349-2.547-1.273-3.444
		C346.158,448.57,344.877,448.14,343.602,448.298z M119.89,379.072c15.087,3.359,34.638,5.062,58.125,5.061
		c27.071,0,52.565-2.305,63.579-3.452l-1.446,8.089c-10.79,1.181-84.429,8.668-127.468-1.114c-0.378-0.086-0.751-0.101-1.12-0.085
		C114.139,380.315,118.692,379.232,119.89,379.072z M338.071,471.7c-7.847,0.343-15.039,0.517-21.427,0.517
		c-37.933,0-43.797-5.807-49.467-11.422c-0.412-0.408-0.822-0.814-1.24-1.217c-11.225-10.831-24.902-11.672-28.827-11.672
		c-0.788,0-1.221,0.032-1.221,0.032c-2.333,0.172-4.116,2.2-3.955,4.534c1.046,15.103-0.835,19.682-1.566,20.858
		c-0.042-0.018-0.091-0.04-0.152-0.07c-8.534-4.132-19.751-6.141-34.291-6.141c-17.615,0-36.573,2.911-53.298,5.48
		c-11.776,1.808-21.946,3.37-28.49,3.37c-1.446,0-2.661-0.079-3.609-0.233c-5.739-0.938-9.033-1.973-9.79-3.077
		c-0.921-1.342,0.084-6.141,1.247-11.698c0.498-2.377,1.062-5.071,1.63-8.14c2.484-13.405,3.604-24.632,4.546-35.964h18.386
		c2.347,0,4.25-1.903,4.25-4.25c0-2.347-1.903-4.25-4.25-4.25h-17.698c0.328-4.086,0.674-8.295,1.087-12.711
		c0.271,0.127,0.556,0.23,0.859,0.299c17.409,3.957,38.702,5.228,58.899,5.228c34.669,0,66.073-3.747,68.969-4.103l-1.51,8.449
		c-0.317,1.775,0.521,3.558,2.09,4.446c2.899,1.641,6.8,2.405,12.275,2.405c4.482,0,9.547-0.512,14.445-1.008
		c4.699-0.476,9.558-0.967,13.629-0.967c1.018,0,1.968,0.031,2.823,0.092c0.3,0.022,0.56,0.079,0.942,0.598
		c3.539,4.807,1.387,22.935-1.273,34.272c-0.417,1.78,0.351,3.629,1.907,4.589c8.517,5.251,22.005,7.914,40.092,7.914
		c6.172,0,11.601-0.319,15.331-0.619L338.071,471.7z"/>
</g>
<g>
</g>
<g>
</g>
<g>
</g>
<g>
</g>
<g>
</g>
<g>
</g>
<g>
</g>
<g>
</g>
<g>
</g>
<g>
</g>
<g>
</g>
<g>
</g>
<g>
</g>
<g>
</g>
<g>
</g>
</svg>
