<?xml version="1.0" encoding="iso-8859-1"?>
<!-- Generator: Adobe Illustrator 18.0.0, SVG Export Plug-In . SVG Version: 6.00 Build 0)  -->
<!DOCTYPE svg PUBLIC "-//W3C//DTD SVG 1.1//EN" "http://www.w3.org/Graphics/SVG/1.1/DTD/svg11.dtd">
<svg version="1.1" id="Capa_1" xmlns="http://www.w3.org/2000/svg" xmlns:xlink="http://www.w3.org/1999/xlink" x="0px" y="0px"
	 viewBox="0 0 495.395 495.395" style="enable-background:new 0 0 495.395 495.395;" xml:space="preserve">
<g>
	<path d="M462.706,73.975c-9.575-12.397-21.541-18.951-34.604-18.951c-12.083,0-24.26,5.746-35.214,16.616
		c-23.097,22.92-49.786,44.591-71.069,60.781C329.243,58.3,337.534,5.42,337.62,4.873c0.363-2.3-1.207-4.458-3.506-4.821
		c-2.298-0.359-4.458,1.207-4.821,3.506c-0.089,0.567-8.991,57.343-16.624,135.741c-17.336,12.874-29.316,20.898-29.579,21.073
		c-0.157,0.103-15.969,10.324-36.689,10.324c-12.142,0-23.617-3.476-34.074-10.311c-0.273-0.182-12.398-8.301-29.903-21.311
		C174.865,62.217,166.196,4.168,166.109,3.59c-0.346-2.303-2.496-3.888-4.794-3.543c-2.302,0.346-3.888,2.493-3.543,4.794
		c0.084,0.557,8.151,54.578,15.493,127.344c-21.229-16.163-47.766-37.732-70.755-60.545c-10.954-10.87-23.13-16.616-35.213-16.616
		c-13.066,0-25.033,6.554-34.608,18.952c-25.099,32.499-28.324,96.913-8.625,172.308c18.102,69.286,36.266,116.206,57.164,147.661
		c23.302,35.072,51.16,52.122,85.168,52.122c4.092,0,8.254-0.245,12.504-0.725c-2.014,16.558-4.055,30.665-8.113,44.665
		c-0.647,2.236,0.64,4.574,2.875,5.222c0.392,0.113,0.787,0.167,1.175,0.167c1.828,0,3.512-1.198,4.046-3.042
		c1.708-5.893,3.067-11.764,4.217-17.786h42.15c2.328,0,4.215-1.887,4.215-4.215c0-2.328-1.888-4.215-4.215-4.215h-40.684
		c1.111-6.985,2.04-14.268,2.978-22.084c7.592-1.397,15.496-3.526,23.826-6.415c13.044-4.525,25.998-6.819,38.502-6.819
		c20.872,0,33.437,6.494,33.55,6.555c0.09,0.048,0.182,0.093,0.275,0.134c2.295,1.02,4.572,1.965,6.834,2.848
		c0.263,1.95,0.545,3.934,0.843,5.946h-28.438c-2.328,0-4.215,1.887-4.215,4.215c0,2.328,1.887,4.215,4.215,4.215h29.758
		c2.303,13.948,5.208,28.046,7.983,37.622c0.535,1.844,2.218,3.042,4.046,3.042c0.389,0,0.784-0.054,1.175-0.167
		c2.236-0.648,3.523-2.986,2.875-5.222c-3.771-13.007-6.854-28.635-9.17-46.449c2.565,0.807,5.104,1.515,7.617,2.136
		c2.355,17.804,5.48,33.501,9.293,46.66c0.535,1.844,2.218,3.042,4.046,3.042c0.389,0,0.784-0.054,1.175-0.167
		c2.236-0.648,3.523-2.986,2.876-5.222c-3.49-12.04-6.391-26.329-8.641-42.515c5.176,0.845,10.226,1.279,15.125,1.279
		c32.355,0,59.546-17.78,83.128-54.356c20.828-32.306,39.509-80.76,57.11-148.13C491.032,170.891,487.806,106.477,462.706,73.975z
		 M463.179,244.153c-12.583,48.161-25.669,86.432-39.655,115.864H342.28c-2.329,0-4.215,1.888-4.215,4.215
		c0,2.328,1.887,4.215,4.215,4.215h77.087c-3.999,7.818-8.071,14.951-12.228,21.398c-21.906,33.978-46.78,50.495-76.043,50.495
		c-13.418,0-28.174-3.527-43.857-10.483c-1.679-0.862-15.269-7.468-37.368-7.468c-13.446,0-27.33,2.451-41.265,7.285
		c-15.228,5.283-29.431,7.962-42.213,7.962c-59.398,0-98.271-56.056-134.176-193.483c-1.193-4.566-2.301-9.089-3.323-13.563h60.481
		c2.328,0,4.215-1.888,4.215-4.215c0-2.328-1.887-4.215-4.215-4.215h-62.31c-3.352-16.152-5.564-31.602-6.649-46.117H125.41
		c2.328,0,4.215-1.888,4.215-4.215c0-2.328-1.887-4.215-4.215-4.215H19.898c-1.749-38.394,4.807-69.507,19.461-88.482
		c7.919-10.254,17.58-15.674,27.937-15.674c9.811,0,19.935,4.899,29.275,14.169c47.711,47.346,110.45,89.356,111.111,89.797
		c11.883,7.768,24.91,11.706,38.718,11.706c23.344,0,40.61-11.24,41.347-11.728c0.629-0.419,63.368-42.43,111.079-89.775
		c9.341-9.27,19.465-14.169,29.276-14.169c10.354,0,20.013,5.42,27.932,15.673C479.549,109.577,482.221,171.269,463.179,244.153z"/>
	<path d="M208.606,405.599c-27.551,9.558-50.319,9.195-69.605-1.108c-9.046-4.833-17.456-11.785-25.392-21.167h30.313
		c2.328,0,4.215-1.887,4.215-4.215c0-2.328-1.887-4.215-4.215-4.215h-36.85c-19.004-26.613-35.391-68.618-51.621-130.741
		c-0.588-2.253-2.895-3.602-5.144-3.012c-2.252,0.588-3.601,2.891-3.012,5.143c25.278,96.756,51.516,146.295,87.733,165.643
		c11.272,6.022,23.505,9.03,36.91,9.03c12.134,0,25.228-2.466,39.431-7.393c2.199-0.763,3.363-3.165,2.601-5.364
		C213.208,406.001,210.807,404.835,208.606,405.599z"/>
	<path d="M433.238,95.685c-12.7-7.312-27.784-4.232-40.35,8.239c-1.652,1.64-1.662,4.309-0.022,5.961
		c1.639,1.653,4.309,1.663,5.96,0.023c9.996-9.92,20.723-12.377,30.206-6.918c16.031,9.23,27.336,40.973,20.247,91.398h-67.327
		c-2.328,0-4.215,1.887-4.215,4.215c0,2.328,1.887,4.215,4.215,4.215h66.009c-1.352,7.757-3.119,15.913-5.353,24.466
		c-0.588,2.252,0.76,4.555,3.013,5.143c0.357,0.094,0.715,0.138,1.068,0.138c1.871,0,3.58-1.256,4.074-3.15
		c8.826-33.779,11.349-64.495,7.296-88.827C454.422,118.755,445.608,102.807,433.238,95.685z"/>
	<path d="M193.914,140.352c0.213,2.177,2.047,3.804,4.19,3.804c0.137,0,0.276-0.007,0.417-0.021c2.316-0.227,4.01-2.29,3.783-4.607
		c-0.671-6.831-1.351-13.511-2.032-20.019h93.576c2.328,0,4.215-1.887,4.215-4.215c0-2.328-1.887-4.215-4.215-4.215h-94.47
		c-1.624-15.12-3.244-29.18-4.767-41.82h98.907c2.328,0,4.215-1.887,4.215-4.215c0-2.328-1.887-4.215-4.215-4.215h-99.934
		c-4.289-34.808-7.585-56.884-7.638-57.239c-0.346-2.303-2.494-3.888-4.794-3.543c-2.302,0.346-3.888,2.493-3.542,4.794
		C177.695,5.419,186.368,63.496,193.914,140.352z"/>
	<path d="M315.533,164.709c-2.288-0.429-4.491,1.076-4.921,3.364c-0.232,1.237-23.046,124.967-6.604,236.773
		c0.308,2.095,2.108,3.603,4.165,3.603c0.204,0,0.411-0.015,0.618-0.046c2.303-0.338,3.896-2.48,3.557-4.783
		c-16.232-110.38,6.319-232.768,6.549-233.991C319.327,167.341,317.821,165.139,315.533,164.709z"/>
	<path d="M183.048,403.62c-0.339,2.303,1.254,4.445,3.557,4.783c0.208,0.031,0.414,0.046,0.618,0.046
		c2.057,0,3.857-1.507,4.165-3.603c16.446-111.832-8.041-236.242-8.29-237.485c-0.457-2.282-2.678-3.766-4.96-3.304
		c-2.283,0.457-3.762,2.678-3.305,4.961C175.079,170.247,199.277,293.266,183.048,403.62z"/>
</g>
<g>
</g>
<g>
</g>
<g>
</g>
<g>
</g>
<g>
</g>
<g>
</g>
<g>
</g>
<g>
</g>
<g>
</g>
<g>
</g>
<g>
</g>
<g>
</g>
<g>
</g>
<g>
</g>
<g>
</g>
</svg>
