<?xml version="1.0" encoding="iso-8859-1"?>
<!-- Generator: Adobe Illustrator 18.0.0, SVG Export Plug-In . SVG Version: 6.00 Build 0)  -->
<!DOCTYPE svg PUBLIC "-//W3C//DTD SVG 1.1//EN" "http://www.w3.org/Graphics/SVG/1.1/DTD/svg11.dtd">
<svg version="1.1" id="Capa_1" xmlns="http://www.w3.org/2000/svg" xmlns:xlink="http://www.w3.org/1999/xlink" x="0px" y="0px"
	 viewBox="0 0 484.889 484.889" style="enable-background:new 0 0 484.889 484.889;" xml:space="preserve">
<g>
	<path d="M315.309,350.827c-2.267-0.595-4.594,0.759-5.191,3.029c-12.277,46.677-33.718,68.417-67.476,68.417
		c-2.347,0-4.25,1.903-4.25,4.25c0,2.347,1.903,4.25,4.25,4.25c20.013,0,36.652-7.021,49.455-20.868
		c11.349-12.275,19.933-29.901,26.242-53.887C318.935,353.749,317.579,351.424,315.309,350.827z"/>
	<path d="M242.449,354.094c2.347,0,4.25-1.903,4.25-4.25v-33.152c0-2.347-1.903-4.25-4.25-4.25c-2.347,0-4.25,1.903-4.25,4.25
		v33.152C238.199,352.191,240.102,354.094,242.449,354.094z"/>
	<path d="M370.098,182.301c-1.843-11.279-7.056-21.958-15.309-30.987c-13.038-14.265-32.434-22.782-51.884-22.782
		c-25.83,0-48.985,14.426-60.453,36.79c-11.436-22.364-34.448-36.79-60.075-36.79c-19.451,0-38.847,8.517-51.885,22.783
		c-8.187,8.958-13.386,19.539-15.267,30.721C86.3,168.83,54.227,148.836,25.444,130.757c30.787,4.565,89.351,8.914,146.907-10.506
		c23.381-7.889,47.033-11.889,70.298-11.889c23.269,0,46.923,4,70.304,11.889c32.742,11.047,65.776,14.403,93.833,14.402
		c21.35,0,39.809-1.944,53.067-3.919C430.981,149.002,398.194,168.791,370.098,182.301z M453.563,122.988
		c-11.718-0.68-24.485-5.038-35.479-11.823c-38.327-23.655-66.756-43.476-95.059-66.275c-15.61-12.266-34.042-13.294-48.143-2.719
		c-3.854,2.752-7.533,5.644-11.091,8.441c-7.04,5.534-13.718,10.785-21.458,14.706c-7.739-3.92-14.418-9.171-21.458-14.706
		c-3.558-2.797-7.237-5.69-11.091-8.441c-14.101-10.576-32.533-9.547-48.144,2.719c-28.303,22.799-56.732,42.62-95.059,66.275
		c-10.994,6.785-23.749,11.429-35.479,11.823c-15.832,0.531-25.322-4.501-25.601-4.573l0,0c-1.098-0.336-2.332-0.209-3.399,0.417
		c-2.025,1.188-2.704,3.792-1.516,5.816c17.031,29.039,38.972,53.849,60.028,76.819c11.425,12.097,34.458,33.647,61.799,43.939
		c9.562,48.628,24.15,106.007,25.287,110.459c5.111,26.563,15.89,49.352,31.176,65.909c17.037,18.454,39.087,28.208,63.768,28.208
		c25.052,0,45.874-8.782,61.888-26.101c14.264-15.428,25.064-37.626,33.024-67.891c0.856-3.351,15.712-61.663,25.375-110.876
		c11.968-4.309,23.908-11.431,37.434-22.33c30.272-24.393,58.493-57.376,83.881-98.035c1.243-1.991,0.637-4.613-1.354-5.856
		c-1.029-0.642-2.224-0.782-3.313-0.5l-0.003-0.009C466.911,124.09,460.155,123.37,453.563,122.988z M428.743,125.431
		c-30.983,1.854-72.908,0.317-113.072-13.234c-24.259-8.185-48.827-12.335-73.022-12.335c-24.19,0-48.756,4.15-73.016,12.335
		c-41.043,13.848-82.654,15.241-113.713,13.252c5.149-1.791,10.255-4.046,15.123-7.05c38.646-23.852,67.334-43.855,95.887-66.857
		c4.717-3.707,21.383-14.847,37.831-2.512c3.774,2.696,7.376,5.527,10.858,8.265c8.009,6.297,15.575,12.245,25.031,16.658
		c1.204,0.561,2.168,0.591,3.359,0c9.348-4.638,17.022-10.361,25.031-16.658c3.482-2.738,7.083-5.569,10.858-8.265
		c16.449-12.335,33.114-1.195,37.831,2.512c28.553,23.002,57.242,43.006,95.887,66.857
		C418.488,121.403,423.594,123.64,428.743,125.431z M66.835,195.676c-16.786-18.311-34.161-37.83-48.989-59.653
		c0.138,0.086,0.273,0.171,0.411,0.258c30.576,19.211,65.128,40.903,96.18,54.715c-0.016,1.878,0.049,3.763,0.22,5.654
		c0.932,10.342,3.077,23.929,5.849,38.811C96.897,225.166,77.013,206.453,66.835,195.676z M329.326,353.856
		c-15.724,59.782-43.268,87.625-86.684,87.625c-51.523,0-78.528-45.12-86.621-87.344c-0.016-0.085-0.035-0.169-0.056-0.252
		c-0.03-0.117-0.369-1.448-0.951-3.763h18.688c2.347,0,4.25-1.903,4.25-4.25s-1.903-4.25-4.25-4.25h-20.805
		c-6.393-25.862-21.063-86.887-27.329-126.824h47.133c2.347,0,4.25-1.903,4.25-4.25c0-2.347-1.903-4.25-4.25-4.25h-48.379
		c-0.507-3.755-0.916-7.252-1.2-10.411c-1.265-14.034,3.58-27.827,13.644-38.839c11.455-12.534,28.505-20.017,45.61-20.017
		c25.257,0,47.602,16.047,55.822,39.992v93.248c0,2.347,1.903,4.25,4.25,4.25c2.347,0,4.25-1.903,4.25-4.25v-93.246
		c8.22-23.946,30.72-39.994,56.206-39.994c17.105,0,34.155,7.483,45.61,20.016c10.064,11.012,14.91,24.806,13.645,38.839
		c-1.482,16.442-6.223,41.795-11.659,67.411h-46.8c-2.347,0-4.25,1.903-4.25,4.25c0,2.347,1.903,4.25,4.25,4.25h44.974
		c-1.184,5.447-2.386,10.862-3.583,16.162h-23.958c-2.347,0-4.25,1.903-4.25,4.25c0,2.347,1.903,4.25,4.25,4.25h22.022
		C335.945,327.879,329.459,353.336,329.326,353.856z M395.029,216.166c-10.936,8.812-20.69,14.979-30.21,19.07
		c2.752-14.794,4.88-28.296,5.808-38.586c0.16-1.769,0.22-3.533,0.216-5.29c29.72-13.991,64.908-35.274,95.435-54.633
		C444.279,169.065,420.371,195.746,395.029,216.166z"/>
</g>
<g>
</g>
<g>
</g>
<g>
</g>
<g>
</g>
<g>
</g>
<g>
</g>
<g>
</g>
<g>
</g>
<g>
</g>
<g>
</g>
<g>
</g>
<g>
</g>
<g>
</g>
<g>
</g>
<g>
</g>
</svg>
