<?xml version="1.0" encoding="iso-8859-1"?>
<!-- Generator: Adobe Illustrator 18.0.0, SVG Export Plug-In . SVG Version: 6.00 Build 0)  -->
<!DOCTYPE svg PUBLIC "-//W3C//DTD SVG 1.1//EN" "http://www.w3.org/Graphics/SVG/1.1/DTD/svg11.dtd">
<svg version="1.1" id="Capa_1" xmlns="http://www.w3.org/2000/svg" xmlns:xlink="http://www.w3.org/1999/xlink" x="0px" y="0px"
	 viewBox="0 0 483.293 483.293" style="enable-background:new 0 0 483.293 483.293;" xml:space="preserve">
<path d="M471.809,270.39c0-0.854-0.253-1.65-0.686-2.316c-0.184-0.349-0.504-0.952-0.956-1.79
	c-6.011-11.641-14.785-34.034-24.942-59.958c-27.39-69.904-64.901-165.64-100.805-191.697C334.22,7.227,323.235,0,310.958,0
	c-3.464,0-6.901,0.594-10.217,1.765c-13.064,3.945-25.295,12.507-37.125,20.788c-6.966,4.876-13.578,9.505-20.284,13.222
	c-7.531-3.875-12.787-8.824-18.8-14.486c-4.464-4.203-9.079-8.549-14.965-12.752c-6.994-5.246-14.82-7.905-23.261-7.905
	c-9.865,0-20.519,3.632-31.667,10.795C111.06,39.433,59.404,159.804,28.541,231.723c-6.582,15.338-12.266,28.583-16.681,38.163
	c-0.001,0-0.001,0.001-0.001,0.003c-0.389,0.847-0.475,1.809-0.26,2.734l-0.014,0.022c0.515,2.17,13.006,53.758,47.529,105.919
	c20.353,30.752,44.148,55.177,70.724,72.598c32.537,21.328,69.282,32.13,109.271,32.13c0.963,0,1.929-0.006,2.895-0.019
	c41.09,0.538,78.817-10.34,112.063-32.32c26.514-17.529,50.222-42.105,70.465-73.046c33.767-51.612,46.227-102.66,47.111-106.407
	C471.74,271.145,471.809,270.777,471.809,270.39z M158.183,305.874c-0.339-0.528-32.056-50.536-25.398-89.007
	c10.628,7.343,53.644,40.734,48.76,96.759c-7.756-2.778-15.503-5.183-23.116-7.268C158.351,306.194,158.283,306.029,158.183,305.874
	z M222.58,287.487c4.11,6.127,10.991,9.684,20.45,10.571c0.265,0.024,0.53,0.024,0.793,0c9.423-0.883,16.252-4.419,20.295-10.507
	c8.75-13.171,2.072-34.413-3.293-51.482c-1.775-5.648-3.453-10.983-4.066-14.665c-1.771-10.628,4.316-28.311,17.237-38.35
	c12.571-9.765,28.978-10.624,47.445-2.487c13.688,6.032,22.846,15.328,27.265,27.649c-2.295,1.425-16.441,10.563-29.941,27.289
	c-19.201,23.789-27.775,51.661-24.795,80.604c0.119,1.163,0.705,2.157,1.543,2.843c-17.386,7.181-35.046,16.211-51.907,27.591
	c-16.434-12.724-35.027-22.434-53.867-29.845c0.048-0.193,0.096-0.386,0.117-0.589c2.979-28.943-5.595-56.815-24.795-80.604
	c-13.665-16.929-27.984-26.081-30.014-27.334c4.425-12.3,13.579-21.58,27.25-27.605c23.848-10.508,39.899-4.135,49.165,3.063
	c13.169,10.231,19.486,27.573,17.786,37.774c-0.599,3.594-2.099,8.521-3.836,14.226C220.18,252.814,213.668,274.201,222.58,287.487z
	 M325.557,305.874c-0.493,0.769-0.7,1.635-0.662,2.482c-7.354,2.292-14.878,4.89-22.486,7.836c0.038-0.311,0.05-0.628,0.017-0.952
	c-2.773-26.946,4.887-51.9,22.77-74.165c10.224-12.73,21.058-20.906,25.768-24.157C357.585,255.381,325.897,305.345,325.557,305.874
	z M239.177,353.887v25.554c0,2.347,1.903,4.25,4.25,4.25c2.347,0,4.25-1.903,4.25-4.25v-25.372
	c45.184-30.713,96.585-44.091,131.963-49.898c27.709-4.548,50.119-5.29,60.879-5.334c-8.523,9.664-19.343,20.685-32.444,31.658
	c-33.755,28.271-89.974,61.97-166.103,61.97c-76.143,0-132.553-33.365-166.467-61.354c-12.717-10.496-23.314-21.042-31.752-30.373
	C71.138,300.401,173.986,302.772,239.177,353.887z M447.672,290.423c-2.39-0.096-30.311-1.037-69.193,5.325
	c-12.525,2.049-27.016,5.028-42.534,9.346c8.957-15.532,32.434-61.225,21.682-96.965c-4.81-15.991-15.831-27.881-32.758-35.34
	c-27.167-11.971-45.496-4.675-56.087,3.553c-15.602,12.12-22.628,33.14-20.408,46.46c0.711,4.268,2.394,9.62,4.342,15.816
	c4.569,14.535,10.826,34.44,4.323,44.23c-2.54,3.823-6.995,6.019-13.612,6.707c-6.671-0.694-11.184-2.921-13.788-6.804
	c-6.664-9.934-0.555-29.997,3.905-44.646c1.824-5.989,3.398-11.162,4.089-15.304c2.118-12.706-4.507-33.106-20.956-45.884
	c-15.679-12.18-36.209-13.646-57.807-4.129c-16.927,7.46-27.948,19.349-32.758,35.34c-10.381,34.509,11.15,78.297,20.708,95.255
	c-12.52-2.977-24.457-5.115-35.177-6.649c-41.281-5.91-72.833-4.429-75.13-4.31c-5.755-6.86-10.078-12.651-12.943-16.705
	l22.056-0.549c2.346-0.059,4.201-2.008,4.143-4.355c-0.059-2.346-1.982-4.19-4.354-4.143l-20.375,0.507
	c1.925-2.224,4.288-4.902,7.065-7.959h70.891c2.347,0,4.25-1.903,4.25-4.25c0-2.347-1.903-4.25-4.25-4.25H40.007
	c11.836-12.444,28.165-28.389,47.653-44.256c37.841-30.812,95.583-67.54,155.767-67.54c60.117,0,116.825,36.311,153.811,66.773
	c29.5,24.295,51.48,48.827,61.286,60.413l-28.146-0.091c-0.005,0-0.009,0-0.014,0c-2.34,0-4.242,1.894-4.249,4.236
	c-0.008,2.347,1.889,4.256,4.236,4.264l29.305,0.095C456.948,278.509,452.953,283.965,447.672,290.423z M376.102,148.136
	c28.893,31.202,52.576,65.759,67.994,90.455c-10.79-11.773-24.753-25.688-41.313-39.338c-8.055-6.64-17.035-13.547-26.767-20.315
	c0.056-0.274,0.086-0.558,0.086-0.849V148.136z M367.602,173.256c-16.912-11.091-35.808-21.469-55.988-29.23V93.732
	c19.905,11.93,38.764,27.935,55.988,45.484V173.256z M303.114,140.958c-17.754-6.052-36.384-9.945-55.437-10.455V72.631
	c18.962,0.79,37.577,6.802,55.437,16.291V140.958z M239.177,130.504c-19.359,0.522-38.376,4.564-56.539,10.835V90.675
	c0-0.343-0.051-0.671-0.128-0.99c18.213-9.822,37.303-16.222,56.667-17.049V130.504z M174.138,144.45
	c-20.097,7.798-39.002,18.142-55.988,29.193v-34.002c16.86-16.906,35.81-32.987,55.988-45.17V144.45z M109.65,179.333
	c-9.932,6.843-19.112,13.828-27.357,20.541c-15.896,12.943-29.739,25.955-40.824,37.148c11.804-18.327,27.845-41.459,46.87-64.445
	c6.541-7.902,13.675-16.067,21.311-24.167V179.333z M159.234,18.578c9.753-6.268,18.862-9.446,27.071-9.446
	c6.561,0,12.671,2.087,18.24,6.263c5.497,3.927,9.9,8.073,14.158,12.082c6.746,6.352,13.117,12.351,22.925,16.928
	c1.204,0.561,2.6,0.528,3.777-0.09c7.832-4.122,15.585-9.55,23.083-14.799c11.31-7.917,23.005-16.103,34.796-19.64
	c0.07-0.021,0.14-0.044,0.208-0.068c2.463-0.88,4.904-1.308,7.463-1.308c9.73,0,19.4,6.426,28.47,13.009
	c8.159,5.922,16.586,16.124,25.036,29.096h-37.046c-2.348,0-4.25,1.903-4.25,4.25c0,2.347,1.902,4.25,4.25,4.25h42.354
	c24.868,41.425,49.475,104.222,67.539,150.322c1,2.551,1.985,5.066,2.956,7.542c-12.042-18.13-27.171-39.122-44.566-59.528
	c-52.836-61.98-104.068-93.407-152.273-93.407c-0.002,0,0.001,0-0.001,0c-28.022,0-57.702,10.956-88.206,32.56
	c-24.123,17.085-48.859,40.862-73.518,70.671c-14.71,17.782-27.663,35.654-38.285,51.375
	C74.302,147.022,120.896,43.215,159.234,18.578z M242.06,474.774c-0.037,0-0.075,0-0.112,0
	c-31.429,0.417-60.438-5.877-86.895-18.793h65.835c2.347,0,4.25-1.903,4.25-4.25c0-2.347-1.903-4.25-4.25-4.25h-81.309
	c-6.243-3.816-12.329-8.037-18.259-12.648h18.413c2.347,0,4.25-1.903,4.25-4.25s-1.903-4.25-4.25-4.25h-28.658
	c-16.18-14.292-31.113-31.706-44.737-52.256c-19.587-29.545-32.052-59.442-39.089-79.435c9.599,11.786,23.772,27.25,42.602,42.824
	c22.273,18.421,46.436,33.102,71.818,43.636c31.758,13.181,65.505,19.864,100.305,19.864c34.806,0,68.524-6.752,100.215-20.07
	c25.328-10.644,49.414-25.477,71.589-44.087c18.683-15.68,32.736-31.249,42.269-43.14c-6.71,19.351-18.393,47.86-36.575,76.402
	h-35.422c-2.347,0-4.25,1.903-4.25,4.25c0,2.347,1.903,4.25,4.25,4.25h29.8c-9.106,13.326-18.783,25.278-29.018,35.854h-86.531
	c-2.347,0-4.25,1.903-4.25,4.25s1.903,4.25,4.25,4.25h77.89C338.419,458.06,293.524,475.47,242.06,474.774z"/>
<g>
</g>
<g>
</g>
<g>
</g>
<g>
</g>
<g>
</g>
<g>
</g>
<g>
</g>
<g>
</g>
<g>
</g>
<g>
</g>
<g>
</g>
<g>
</g>
<g>
</g>
<g>
</g>
<g>
</g>
</svg>
