<?xml version="1.0" encoding="iso-8859-1"?>
<!-- Generator: Adobe Illustrator 18.0.0, SVG Export Plug-In . SVG Version: 6.00 Build 0)  -->
<!DOCTYPE svg PUBLIC "-//W3C//DTD SVG 1.1//EN" "http://www.w3.org/Graphics/SVG/1.1/DTD/svg11.dtd">
<svg version="1.1" id="Capa_1" xmlns="http://www.w3.org/2000/svg" xmlns:xlink="http://www.w3.org/1999/xlink" x="0px" y="0px"
	 viewBox="0 0 491.098 491.098" style="enable-background:new 0 0 491.098 491.098;" xml:space="preserve">
<path d="M486.933,305.474c-0.47-0.01-47.263-1.382-84.637-39.419c0.406-2.202,0.794-4.365,1.156-6.465
	c2.157-12.531,3.699-24.139,4.807-34.301c38.169,35.501,76.884,35.93,78.59,35.93c2.347,0,4.25-1.903,4.25-4.25
	c0-2.347-1.903-4.25-4.25-4.25c-0.4,0-40.272-0.445-77.516-38.241c1.37-15.353,1.65-25.839,1.705-28.752
	c2.542-3.839,5.084-7.836,7.577-11.966c26.307-43.593,33.461-78.716,21.264-104.393c-12.008-25.279-34.275-36.921-66.192-34.597
	c-25.464,1.854-51.335,12.245-66.792,18.453c-2.115,0.85-4.037,1.622-5.738,2.283c-25.283,9.833-53.317,9.968-53.595,9.968
	c-0.28,0-28.256-0.114-53.595-9.968c-1.701-0.662-3.623-1.433-5.738-2.283c-15.457-6.208-41.328-16.6-66.792-18.453
	C89.515,32.45,67.25,44.089,55.243,69.368C43.046,95.045,50.2,130.167,76.506,173.761c2.684,4.447,5.426,8.737,8.162,12.844
	c0.022,1.707,0.207,11.743,1.585,27.341C49.129,251.631,4.781,252.719,4.336,252.72c-2.331-0.048-4.283,1.812-4.334,4.157
	c-0.051,2.347,1.81,4.29,4.157,4.341c0.085,0.002,0.255,0.004,0.508,0.004c5.237,0,45.565-1.201,82.656-36.44
	c1.105,10.171,2.667,21.938,4.883,34.808c0.346,2.012,0.718,4.084,1.105,6.19c-37.313,37.903-88.652,39.68-89.167,39.694
	c-2.345,0.059-4.198,2.007-4.141,4.352c0.056,2.311,1.947,4.146,4.247,4.146c0.035,0,0.07,0,0.106-0.001
	c2.167-0.053,51.664-1.69,90.886-38.215c7.7,37.913,21.928,87.494,47.993,133.079c18.529,32.405,33.087,47.782,45.387,47.782
	c1.266,0,2.509-0.163,3.73-0.487c17.405-4.625,21.059-41.287,21.059-71.228c0-2.2-0.022-4.754-0.048-7.598
	c-0.157-17.672-0.418-47.25,4.254-72.408c5.304-28.553,15.469-43.702,30.214-45.035c14.745,1.333,24.91,16.481,30.214,45.035
	c4.673,25.158,4.411,54.735,4.254,72.407c-0.025,2.845-0.048,5.398-0.048,7.599c0,29.941,3.653,66.603,21.059,71.228
	c13.07,3.47,28.68-11.555,49.116-47.295c26-45.471,40.221-94.917,47.934-132.793c38.934,36.548,84.417,37.891,86.405,37.93
	c0.029,0.001,0.058,0.001,0.086,0.001c2.308,0,4.201-1.847,4.247-4.165C491.144,307.461,489.279,305.52,486.933,305.474z
	 M62.921,73.015c10.498-22.101,29.436-31.836,57.897-29.766c24.143,1.757,49.244,11.839,64.241,17.863
	c2.147,0.862,4.099,1.646,5.825,2.317c26.81,10.426,55.469,10.546,56.676,10.546s29.866-0.12,56.676-10.546
	c1.727-0.671,3.678-1.455,5.825-2.317c14.997-6.024,40.098-16.106,64.241-17.863c28.46-2.067,47.399,7.666,57.897,29.766
	c5.577,11.741,6.011,25.304,3.245,39.393c-12.697-19.725-33.421-28.678-61.759-26.617c-25.464,1.854-51.335,12.245-66.792,18.453
	c-2.115,0.85-4.037,1.622-5.738,2.283c-25.283,9.832-53.317,9.968-53.595,9.968c-0.28,0-28.256-0.114-53.595-9.968
	c-1.701-0.662-3.623-1.434-5.738-2.283c-15.457-6.208-41.328-16.6-66.792-18.453c-28.34-2.063-49.063,6.892-61.759,26.616
	C56.91,98.319,57.344,84.756,62.921,73.015z M345.044,404.615c-24.107,42.16-35.691,44.328-39.555,43.299
	c-8.817-2.343-14.741-27.666-14.741-63.013c0-2.179,0.022-4.707,0.047-7.523c0.159-17.979,0.426-48.07-4.397-74.035
	c-6.135-33.026-19.003-50.516-38.248-51.985c-0.215-0.017-0.432-0.017-0.646,0c-19.245,1.469-32.113,18.959-38.248,51.985
	c-4.823,25.965-4.556,56.056-4.397,74.035c0.025,2.816,0.047,5.345,0.047,7.523c0,35.347-5.924,60.67-14.741,63.013
	c-3.863,1.029-15.448-1.139-39.555-43.299c-11.934-20.871-21.382-42.676-28.874-64.089h38.45c2.347,0,4.25-1.903,4.25-4.25
	c0-2.347-1.903-4.25-4.25-4.25h-41.33c-18.481-56.36-23.678-108.714-25.13-132.422c13.321,18.31,24.582,30.547,25.244,31.263
	c1.593,1.721,4.282,1.827,6.005,0.233c1.723-1.594,1.828-4.283,0.234-6.006c-0.501-0.541-28.553-31.183-48.252-67.73h26.083
	c2.347,0,4.25-1.903,4.25-4.25c0-2.347-1.903-4.25-4.25-4.25H72.592c-3.921-8.037-7.321-16.26-9.853-24.432
	c10.525-21.92,29.725-32.225,58.078-30.161c24.143,1.757,49.244,11.839,64.241,17.863c2.147,0.862,4.099,1.646,5.825,2.317
	c26.81,10.426,55.469,10.546,56.676,10.546s29.866-0.12,56.676-10.546c1.727-0.671,3.678-1.455,5.825-2.317
	c14.997-6.024,40.098-16.106,64.241-17.863c28.298-2.058,47.519,8.388,58.058,30.227c-1.459,4.701-3.2,9.419-5.169,14.109h-29.625
	c-2.347,0-4.25,1.903-4.25,4.25s1.903,4.25,4.25,4.25h25.806c-19.498,40.889-52.914,77.396-53.461,77.987
	c-1.594,1.723-1.489,4.412,0.234,6.006c0.817,0.756,1.853,1.13,2.885,1.13c1.143,0,2.283-0.458,3.12-1.363
	c0.671-0.726,12.255-13.311,25.832-32.071c-1.74,29.447-9.407,106.122-42.96,178.656h-49.373c-2.347,0-4.25,1.903-4.25,4.25
	c0,2.347,1.903,4.25,4.25,4.25h45.316C351.865,392.23,348.563,398.463,345.044,404.615z"/>
<g>
</g>
<g>
</g>
<g>
</g>
<g>
</g>
<g>
</g>
<g>
</g>
<g>
</g>
<g>
</g>
<g>
</g>
<g>
</g>
<g>
</g>
<g>
</g>
<g>
</g>
<g>
</g>
<g>
</g>
</svg>
