<?xml version="1.0" encoding="iso-8859-1"?>
<!-- Generator: Adobe Illustrator 18.0.0, SVG Export Plug-In . SVG Version: 6.00 Build 0)  -->
<!DOCTYPE svg PUBLIC "-//W3C//DTD SVG 1.1//EN" "http://www.w3.org/Graphics/SVG/1.1/DTD/svg11.dtd">
<svg version="1.1" id="Capa_1" xmlns="http://www.w3.org/2000/svg" xmlns:xlink="http://www.w3.org/1999/xlink" x="0px" y="0px"
	 viewBox="0 0 475.688 475.688" style="enable-background:new 0 0 475.688 475.688;" xml:space="preserve">
<g>
	<path d="M405.152,115.04c-23.745,0-52.603,12.906-71.812,32.115c-14.104,14.105-21.622,30.113-21.739,46.293
		c-0.108,14.96,6.287,29.654,18.008,41.376c11.614,11.614,26.171,18.01,40.992,18.01c16.314,0,32.454-7.518,46.677-21.74
		c14.471-14.471,25.376-34.028,29.92-53.656c4.968-21.461,1.556-39.429-9.609-50.593C429.867,119.122,418.65,115.04,405.152,115.04z
		 M438.917,175.521c-0.1,0.43-0.22,0.863-0.327,1.294h-52.226c-2.347,0-4.25,1.903-4.25,4.25c0,2.347,1.903,4.25,4.25,4.25h49.689
		c-3.17,9.032-7.759,17.955-13.345,25.998h-37.845c-2.347,0-4.25,1.903-4.25,4.25s1.903,4.25,4.25,4.25h31.28
		c-1.576,1.835-3.203,3.596-4.876,5.27c-12.594,12.594-26.656,19.251-40.666,19.251c-12.731,0-24.828-5.367-34.981-15.521
		c-10.246-10.246-15.612-22.453-15.52-35.303c0.101-13.901,6.757-27.852,19.25-40.344c17.719-17.72,44.163-29.626,65.801-29.626
		c11.195,0,20.333,3.221,26.426,9.315C440.462,141.739,443.137,157.29,438.917,175.521z"/>
	<path d="M347.065,160.881c-9.42,9.42-14.441,20.151-14.52,31.033c-0.073,10.095,4.225,19.993,12.103,27.871
		c0.83,0.83,1.918,1.245,3.005,1.245c1.088,0,2.175-0.415,3.005-1.245c1.66-1.66,1.66-4.351,0-6.011
		c-6.347-6.347-9.671-13.884-9.614-21.798c0.063-8.603,4.223-17.276,12.03-25.084c1.66-1.66,1.66-4.351,0.001-6.01
		C351.416,159.221,348.725,159.221,347.065,160.881z"/>
	<path d="M458.549,105.885c-11.189-11.188-27.25-17.103-46.447-17.103c-31.846,0-69.049,16.626-94.78,42.355
		c-19.738,19.738-30.756,42.434-31.863,65.634c-0.731,15.312,3.028,30.094,10.749,43.061l-3.075,3.075
		c-2.989,2.989-4.71,6.765-5.196,10.667c-8.528,9.026-14.08,12.488-19.948,16.141c-6.132,3.817-12.474,7.765-21.915,17.813
		c-9.466,10.076-12.715,16.351-15.857,22.419c-3.007,5.808-5.848,11.293-14.504,20.507c-8.681,9.24-14.283,12.727-20.212,16.419
		c-6.133,3.817-12.474,7.765-21.916,17.814c-9.467,10.077-12.716,16.352-15.859,22.42c-3.008,5.808-5.849,11.294-14.507,20.509
		c-8.676,9.235-14.031,12.538-19.701,16.035c-5.893,3.634-11.986,7.393-21.436,17.45c-1.555,1.655-1.534,4.24,0.048,5.87
		c0.831,0.857,1.939,1.29,3.051,1.29c1.002,0,2.008-0.353,2.815-1.067c9.416-8.329,15.058-11.027,21.03-13.884
		c6.237-2.983,12.687-6.068,22.994-15.186c10.27-9.084,14.526-15.421,18.643-21.55c3.994-5.945,7.766-11.561,17.22-19.924
		c9.398-8.314,14.787-10.827,20.492-13.487c6.003-2.799,12.21-5.693,22.531-14.824c10.268-9.084,14.525-15.42,18.641-21.548
		c3.993-5.944,7.765-11.56,17.217-19.921c9.398-8.314,14.787-10.827,20.491-13.486c5.845-2.726,14.397-7.827,24.371-16.521
		c3.777-0.545,7.417-2.247,10.317-5.146l3.202-3.202c11.771,6.872,25.035,10.552,38.747,10.552
		c24.502,0,48.502-11.049,69.407-31.954c20.014-20.014,34.619-46.721,40.071-73.271
		C479.205,145.412,473.942,121.278,458.549,105.885z M283.661,285.679c-6.003,2.799-12.21,5.693-22.531,14.824
		c-10.268,9.084-14.525,15.42-18.641,21.548c-3.993,5.944-7.765,11.56-17.217,19.921c-9.398,8.314-14.787,10.827-20.492,13.487
		c-6.003,2.799-12.21,5.693-22.531,14.824c-6.08,5.378-10.052,9.793-13.135,13.772c2.306-3.748,5.417-7.963,10.665-13.549
		c8.681-9.24,14.282-12.727,20.212-16.418c6.133-3.817,12.474-7.765,21.915-17.814c9.466-10.076,12.715-16.351,15.857-22.418
		c3.008-5.808,5.848-11.294,14.505-20.507c8.681-9.24,14.282-12.727,20.212-16.418c5.044-3.14,10.234-6.376,17.171-13.017
		c0.864,1.768,2.014,3.432,3.482,4.9l2.902,2.901c1.414,1.414,3.008,2.537,4.704,3.391
		C293.373,281.149,288.637,283.359,283.661,285.679z M315.93,265.705c-3.828,3.827-10.058,3.828-13.886,0l-2.901-2.901
		c-3.828-3.829-3.829-10.058,0-13.886l1.901-1.901c2.301,3.055,4.829,5.99,7.605,8.767c2.914,2.914,6.006,5.566,9.241,7.961
		L315.93,265.705z M465.042,172.13c-5.127,24.964-18.888,50.102-37.756,68.971c-19.275,19.276-41.197,29.464-63.396,29.464
		c-18.338,0-35.822-7.384-49.229-20.792c-30.603-30.603-27.037-76.916,8.672-112.625c24.218-24.218,59.061-39.866,88.769-39.866
		c16.894,0,30.876,5.053,40.436,14.613C465.845,125.202,470.285,146.594,465.042,172.13z"/>
	<path d="M210.448,156.77c12.931,0,25.702-5.937,36.933-17.167c23.155-23.156,34.823-63.284,15.779-82.329
		c-6.181-6.181-15.126-9.447-25.869-9.447c-18.973,0-41.135,9.902-56.459,25.226c-11.137,11.137-17.073,23.803-17.166,36.628
		c-0.086,11.878,4.981,23.534,14.268,32.821C187.134,151.702,198.682,156.77,210.448,156.77z M173.594,99.819h62.777
		c2.347,0,4.25-1.903,4.25-4.25c0-2.347-1.903-4.25-4.25-4.25H177.29c2.073-3.633,4.835-7.316,8.356-11.01h32.644
		c2.347,0,4.25-1.903,4.25-4.25s-1.903-4.25-4.25-4.25h-23.012c12.761-9.493,28.597-15.481,42.013-15.481
		c5.885,0,14.107,1.207,19.858,6.958c13.599,13.599,5.718,43.899-10.219,64.032h-34.557c-2.347,0-4.25,1.903-4.25,4.25
		s1.903,4.25,4.25,4.25h26.649c-8.982,8.152-18.804,12.453-28.574,12.453c-9.633,0-18.799-4.073-26.505-11.779
		C174.93,127.478,169.206,114.338,173.594,99.819z"/>
	<path d="M117.19,213.805c3.067-4.566,5.965-8.879,13.217-15.295c7.198-6.368,11.324-8.292,15.691-10.328
		c4.589-2.14,10.925-5.956,18.728-12.757c3.201-0.473,6.16-1.934,8.49-4.264l1.974-1.974c9.128,5.187,19.366,7.962,29.943,7.962
		c19.292,0,38.169-8.68,54.59-25.101c15.676-15.676,27.116-36.598,31.388-57.402c4.602-22.407,0.421-41.461-11.771-53.653
		c-8.874-8.874-21.583-13.564-36.754-13.564c-24.979,0-54.143,13.025-74.301,33.182c-15.503,15.503-24.159,33.352-25.03,51.614
		c-0.565,11.835,2.268,23.268,8.108,33.346l-1.87,1.87c-2.395,2.395-3.804,5.4-4.26,8.519c-6.425,6.762-10.646,9.397-15.104,12.172
		c-4.816,2.997-9.796,6.098-17.215,13.995c-7.444,7.924-9.999,12.858-12.47,17.629c-2.305,4.451-4.483,8.656-11.117,15.718
		c-6.66,7.088-10.959,9.765-15.512,12.599c-4.816,2.998-9.796,6.098-17.215,13.995c-7.445,7.924-10,12.859-12.472,17.631
		c-2.306,4.452-4.483,8.657-11.119,15.72c-6.654,7.082-10.762,9.617-15.112,12.299c-4.631,2.855-9.419,5.809-16.846,13.713
		c-1.555,1.655-1.534,4.24,0.048,5.87c0.832,0.857,1.939,1.29,3.051,1.29c1.003,0,2.008-0.353,2.815-1.067
		c7.215-6.383,11.539-8.451,16.118-10.641c4.904-2.346,9.976-4.771,18.083-11.942c8.069-7.138,11.411-12.112,14.642-16.923
		c3.068-4.567,5.965-8.88,13.218-15.296c7.199-6.368,11.324-8.292,15.691-10.328c4.725-2.203,9.61-4.481,17.731-11.666
		C110.618,223.589,113.959,218.615,117.19,213.805z M174.397,66.62c18.645-18.645,45.451-30.693,68.29-30.693
		c12.867,0,23.498,3.829,30.743,11.075c10.105,10.104,13.462,26.417,9.455,45.933c-3.946,19.216-14.543,38.571-29.073,53.101
		c-14.792,14.793-31.591,22.612-48.58,22.612c-13.993,0-27.337-5.638-37.574-15.875C144.28,129.394,147.051,93.966,174.397,66.62z
		 M161.649,158.784c2.033,2.033,4.18,3.896,6.413,5.61l-0.756,0.756c-1.262,1.262-2.939,1.956-4.723,1.956
		c-1.784,0-3.462-0.695-4.724-1.957l-2.254-2.254c-2.605-2.604-2.605-6.842,0-9.446l0.716-0.716
		C157.958,154.831,159.723,156.858,161.649,158.784z M96.918,224.36c-7.199,6.368-11.324,8.292-15.691,10.328
		c-3.187,1.486-6.446,3.006-10.722,6.042c2.864-2.306,5.344-3.85,7.903-5.443c4.816-2.997,9.796-6.098,17.215-13.995
		c7.444-7.924,9.999-12.858,12.47-17.629c2.305-4.451,4.482-8.656,11.118-15.718c6.659-7.088,10.959-9.766,15.512-12.6
		c3.742-2.329,7.588-4.731,12.595-9.386c0.628,1.048,1.375,2.044,2.277,2.946l2.254,2.253c0.809,0.809,1.699,1.503,2.643,2.101
		c-5.029,3.973-8.427,5.559-11.985,7.218c-4.724,2.203-9.61,4.481-17.731,11.666c-8.068,7.137-11.41,12.111-14.641,16.921
		C107.067,213.632,104.17,217.945,96.918,224.36z"/>
</g>
<g>
</g>
<g>
</g>
<g>
</g>
<g>
</g>
<g>
</g>
<g>
</g>
<g>
</g>
<g>
</g>
<g>
</g>
<g>
</g>
<g>
</g>
<g>
</g>
<g>
</g>
<g>
</g>
<g>
</g>
</svg>
