<?xml version="1.0" encoding="iso-8859-1"?>
<!-- Generator: Adobe Illustrator 18.0.0, SVG Export Plug-In . SVG Version: 6.00 Build 0)  -->
<!DOCTYPE svg PUBLIC "-//W3C//DTD SVG 1.1//EN" "http://www.w3.org/Graphics/SVG/1.1/DTD/svg11.dtd">
<svg version="1.1" id="Capa_1" xmlns="http://www.w3.org/2000/svg" xmlns:xlink="http://www.w3.org/1999/xlink" x="0px" y="0px"
	 viewBox="0 0 403.834 403.834" style="enable-background:new 0 0 403.834 403.834;" xml:space="preserve">
<g>
	<path d="M264.396,87.967c-19.152-13.346-38.009-19.442-48.337-20.607c-4.123-0.465-7.936-0.69-11.655-0.69
		c-17.44,0-30.685,5.007-39.367,14.881c-9.707,11.04-13.185,27.833-10.336,49.911c5.3,41.078,34.007,45.289,59.335,49.005
		c10.535,1.545,20.486,3.005,28.313,6.919c10.385,5.192,15.672,20.022,13.467,37.781c-2.128,17.134-11.553,36.023-27.812,39.601
		c-2.201,0.484-4.703,0.729-7.434,0.73c-0.003,0-0.003,0-0.006,0c-15.695,0-37.464-8.09-56.667-15.227
		c-17.734-6.59-34.484-12.814-46.05-12.814c-4.28,0-7.704,0.816-10.468,2.494c-5.837,3.544-7.704,10.874-5.12,20.108
		c7.137,25.511,46.941,63.261,109.711,63.267c0.005,0,0.01,0,0.015,0c5.458,0,11.073-0.284,16.689-0.847
		c30.066-3.006,53.069-16.304,68.369-39.523c12.058-18.299,19.011-42.788,20.108-70.82c0.883-22.573-2.098-46.568-8.182-65.832
		C299.841,117.397,279.692,98.625,264.396,87.967z M289.944,278.278c-13.822,20.978-34.721,33.003-62.117,35.743
		c-5.337,0.533-10.667,0.804-15.843,0.804c-0.004,0-0.009,0-0.014,0c-33.929-0.003-57.582-11.338-71.449-20.847
		c-18.197-12.477-27.469-26.886-30.077-36.21c-0.546-1.952-2.063-8.483,1.345-10.553c1.377-0.836,3.415-1.26,6.057-1.26
		c10.038,0,26.092,5.966,43.089,12.282c20.848,7.748,42.404,15.759,59.628,15.759c0.002,0,0.005,0,0.007,0
		c3.344-0.001,6.459-0.314,9.259-0.93c20.313-4.468,31.924-26.752,34.421-46.855c2.696-21.709-4.24-39.501-18.1-46.432
		c-9.046-4.522-20.145-6.15-30.88-7.726c-24.511-3.596-47.663-6.992-52.139-41.683c-2.522-19.548,0.267-34.086,8.289-43.211
		c6.997-7.958,18.095-11.993,32.984-11.993c3.397,0,6.898,0.208,10.702,0.638c17.356,1.957,69.921,22.908,85.757,73.056
		C310.547,179.527,315.63,239.298,289.944,278.278z"/>
	<path d="M247.924,101.914c-2.009-1.216-4.622-0.57-5.835,1.438c-1.215,2.009-0.572,4.622,1.437,5.836
		c14.104,8.527,32.659,23.481,40.963,46.299c11.747,32.273,15.358,94.754-24.958,125.022c-1.877,1.409-2.256,4.073-0.847,5.95
		c0.835,1.112,2.11,1.698,3.402,1.698c0.888,0,1.783-0.277,2.548-0.852c43.988-33.023,40.422-100.164,27.841-134.727
		C283.325,127.435,263.198,111.148,247.924,101.914z"/>
	<path d="M395.167,198.25c0-12.596-8.682-23.338-20.655-26.18c-3.798-19.702-10.774-38.487-20.768-55.927
		c5.12-5.028,8.089-11.974,8.089-19.227c0-14.842-12.075-26.917-26.917-26.917c-0.362,0-0.723,0.007-1.084,0.021
		c-0.124-14.737-12.15-26.688-26.916-26.688c-6.61,0-12.933,2.427-17.826,6.757c-23.461-14.108-50.053-22.81-77.341-25.313
		C210.656,10.932,199.039,0,184.917,0C170.075,0,158,12.075,158,26.917c0,0.271,0.004,0.544,0.013,0.816
		c-3.399,0.697-6.796,1.496-10.162,2.39c-4.066-9.945-13.935-16.79-24.934-16.79c-10.835,0-20.489,6.495-24.697,16.204
		c-1.096-0.136-2.199-0.204-3.303-0.204C80.074,29.333,68,41.408,68,56.25c0,5.312,1.555,10.44,4.44,14.81
		c-11.854,10.692-22.246,22.862-30.955,36.256c-1.928-0.432-3.902-0.649-5.901-0.649c-14.842,0-26.917,12.075-26.917,26.917
		c0,8.516,4.057,16.489,10.777,21.535C14.503,171.88,12,189.29,12,206.917c0,18.892,2.866,37.488,8.521,55.328
		C13.959,267.302,10,275.198,10,283.583c0,14.842,12.075,26.917,26.917,26.917c2.263,0,4.492-0.28,6.661-0.835
		c17.959,26.408,42.399,47.615,71.015,61.62c-0.394,1.843-0.592,3.726-0.592,5.632c0,14.842,12.075,26.917,26.917,26.917
		c10.889,0,20.576-6.549,24.754-16.332c9.634,1.549,19.454,2.332,29.246,2.332c29.298,0,58.274-7.064,84.135-20.472
		c4.267,9.522,13.714,15.806,24.532,15.806c14.843,0,26.917-12.075,26.917-26.917c0-7.62-3.13-14.676-8.571-19.712
		c3.723-3.594,7.306-7.357,10.711-11.248c5.051,5.785,12.403,9.209,20.276,9.209c14.841,0,26.917-12.075,26.917-26.917
		c0-11.935-7.951-22.27-18.945-25.701c8.847-19.026,14.282-39.241,16.184-60.202C387.725,219.97,395.167,209.742,395.167,198.25z
		 M368.841,220.08c-1.698,22.768-7.745,44.637-17.973,65.002c-0.635,1.266-0.599,2.766,0.098,3.999
		c0.697,1.233,1.963,2.038,3.376,2.146c9.528,0.729,16.992,8.792,16.992,18.356c0,10.155-8.261,18.417-18.417,18.417
		c-6.776,0-12.989-3.708-16.215-9.677c-0.673-1.245-1.921-2.073-3.33-2.21c-1.404-0.133-2.793,0.438-3.691,1.53
		c-5.271,6.406-11.053,12.495-17.188,18.098c-0.988,0.902-1.494,2.217-1.364,3.548c0.128,1.331,0.876,2.524,2.019,3.221
		c5.544,3.377,8.853,9.262,8.853,15.741c0,10.155-8.262,18.417-18.417,18.417c-8.538,0-16.092-6.039-17.962-14.359
		c-0.294-1.307-1.186-2.398-2.407-2.946c-1.222-0.549-2.63-0.488-3.801,0.162c-25.714,14.268-54.933,21.81-84.496,21.81
		c-10.504,0-21.043-0.945-31.323-2.81c-2.177-0.398-4.303,0.954-4.868,3.099c-2.126,8.073-9.45,13.711-17.808,13.711
		c-10.155,0-18.417-8.262-18.417-18.417c0-2.21,0.389-4.374,1.156-6.432c0.775-2.078-0.179-4.402-2.19-5.338
		c-29.575-13.753-54.673-35.484-72.582-62.844c-0.805-1.23-2.158-1.923-3.558-1.923c-0.528,0-1.063,0.099-1.577,0.304
		c-2.181,0.873-4.48,1.315-6.833,1.315c-10.155,0-18.417-8.262-18.417-18.417c0-6.538,3.521-12.645,9.19-15.936
		c1.747-1.015,2.539-3.118,1.894-5.032c-6.027-17.899-9.084-36.64-9.084-55.698c0-17.844,2.688-35.449,7.99-52.327
		c0.601-1.912-0.216-3.984-1.961-4.972c-5.775-3.27-9.362-9.414-9.362-16.035c0-10.155,8.262-18.417,18.417-18.417
		c2.171,0,4.296,0.374,6.316,1.11c1.883,0.689,3.995-0.037,5.06-1.738c9.315-14.888,20.776-28.25,34.063-39.716
		c0.872-0.752,1.401-1.825,1.467-2.975c0.066-1.149-0.337-2.276-1.118-3.123C78.23,65.314,76.5,60.884,76.5,56.25
		c0-10.155,8.262-18.417,18.417-18.417c1.669,0,3.335,0.229,4.953,0.68c1.094,0.306,2.266,0.159,3.252-0.405
		c0.986-0.563,1.706-1.5,1.998-2.598c2.138-8.053,9.457-13.677,17.798-13.677c8.561,0,16.119,6.058,17.973,14.403
		c0.254,1.146,0.972,2.137,1.982,2.735c1.01,0.599,2.222,0.752,3.351,0.426c5.654-1.642,11.439-3.005,17.191-4.053
		c1.114-0.203,2.101-0.843,2.742-1.775c0.641-0.934,0.883-2.084,0.672-3.197c-0.218-1.151-0.329-2.314-0.329-3.455
		c0-10.155,8.262-18.417,18.417-18.417c10.155,0,18.417,8.262,18.417,18.417c0,0.43-0.02,0.904-0.063,1.451
		c-0.088,1.13,0.279,2.248,1.019,3.106c0.74,0.857,1.792,1.385,2.923,1.463c28.413,1.979,56.167,11.017,80.265,26.136
		c1.781,1.118,4.109,0.766,5.48-0.827c3.508-4.075,8.596-6.413,13.96-6.413c10.155,0,18.417,8.262,18.417,18.417
		c0,1.294-0.138,2.598-0.411,3.874c-0.31,1.445,0.155,2.947,1.226,3.967c1.07,1.019,2.593,1.408,4.021,1.029
		c1.549-0.411,3.146-0.62,4.748-0.62c10.155,0,18.417,8.262,18.417,18.417c0,5.852-2.827,11.412-7.563,14.875
		c-1.773,1.297-2.267,3.73-1.137,5.615c10.947,18.269,18.365,38.143,22.048,59.067c0.326,1.854,1.831,3.271,3.7,3.486
		c9.285,1.067,16.286,8.93,16.286,18.289c0,8.604-6.094,16.171-14.49,17.993C370.339,216.643,368.981,218.204,368.841,220.08z"/>
	<path d="M88.508,82.562c-13.932,12.022-25.949,26.033-35.716,41.644c-1.245,1.989-0.641,4.611,1.349,5.856
		c0.701,0.439,1.48,0.648,2.25,0.648c1.416,0,2.8-0.708,3.607-1.997c9.315-14.888,20.776-28.25,34.063-39.716
		c1.777-1.533,1.975-4.218,0.441-5.994C92.969,81.226,90.285,81.029,88.508,82.562z"/>
	<path d="M334.917,118.707c-1.206-2.014-3.816-2.667-5.83-1.461c-2.013,1.206-2.667,3.816-1.461,5.83
		c10.946,18.27,18.364,38.143,22.048,59.067c0.363,2.063,2.156,3.515,4.181,3.515c0.244,0,0.492-0.021,0.742-0.065
		c2.312-0.407,3.855-2.61,3.449-4.922C354.183,158.719,346.4,137.871,334.917,118.707z"/>
	<path d="M279.413,336.849c-25.714,14.268-54.933,21.81-84.496,21.81c-10.504,0-21.043-0.945-31.323-2.81
		c-2.307-0.419-4.521,1.114-4.94,3.423c-0.419,2.309,1.114,4.521,3.423,4.94c10.779,1.955,21.828,2.946,32.84,2.946
		c31.003,0,61.647-7.911,88.62-22.878c2.052-1.139,2.793-3.726,1.654-5.778C284.052,336.451,281.466,335.707,279.413,336.849z"/>
	<path d="M48.385,149.262c-2.242-0.702-4.625,0.542-5.329,2.781c-5.561,17.703-8.381,36.165-8.381,54.874
		c0,2.348,1.903,4.25,4.25,4.25c2.347,0,4.25-1.902,4.25-4.25c0-17.844,2.688-35.449,7.99-52.327
		C51.869,152.351,50.624,149.965,48.385,149.262z"/>
</g>
<g>
</g>
<g>
</g>
<g>
</g>
<g>
</g>
<g>
</g>
<g>
</g>
<g>
</g>
<g>
</g>
<g>
</g>
<g>
</g>
<g>
</g>
<g>
</g>
<g>
</g>
<g>
</g>
<g>
</g>
</svg>
