<?xml version="1.0" encoding="iso-8859-1"?>
<!-- Generator: Adobe Illustrator 18.0.0, SVG Export Plug-In . SVG Version: 6.00 Build 0)  -->
<!DOCTYPE svg PUBLIC "-//W3C//DTD SVG 1.1//EN" "http://www.w3.org/Graphics/SVG/1.1/DTD/svg11.dtd">
<svg version="1.1" id="Capa_1" xmlns="http://www.w3.org/2000/svg" xmlns:xlink="http://www.w3.org/1999/xlink" x="0px" y="0px"
	 viewBox="0 0 498.503 498.503" style="enable-background:new 0 0 498.503 498.503;" xml:space="preserve">
<g>
	<path d="M408.489,276.048c-2.453-31.89-11.86-59.493-27.958-82.041c-12.898-18.065-30.065-32.897-51.025-44.085
		c-12.622-6.737-25.018-11.319-35.817-14.429c17.539-3.348,31.408-10.419,41.422-21.161c20.016-21.469,16.877-49.414,16.733-50.594
		c-0.234-1.929-1.747-3.453-3.675-3.702c-29.251-3.774-84.044-56.315-84.595-56.845c-1.689-1.629-4.38-1.581-6.009,0.11
		c-1.629,1.689-1.58,4.38,0.109,6.009c0.625,0.603,5.057,4.853,11.821,10.825H242.26c-2.347,0-4.25,1.903-4.25,4.25
		c0,2.347,1.903,4.25,4.25,4.25h37.133c3.088,2.579,6.399,5.275,9.867,7.999h-78.498c-2.347,0-4.25,1.903-4.25,4.25
		c0,2.347,1.903,4.25,4.25,4.25h89.771c14.507,10.463,30.253,19.864,43.046,22.71c0.152,7.264-0.948,25.956-14.685,40.69
		c-14.199,15.231-37.766,22.12-70.052,20.471c-0.001,0-0.003,0-0.004,0c-2.364-0.142-4.338,1.687-4.456,4.03
		c-0.118,2.343,1.685,4.339,4.028,4.459c0.007,0,0.011,0.001,0.018,0.001c0.802,0.043,33.463,1.98,67.077,19.923
		c14.971,7.991,27.719,17.748,38.248,29.207h-61.494c-2.347,0-4.25,1.903-4.25,4.25c0,2.347,1.903,4.25,4.25,4.25h68.665
		c16.847,21.863,26.597,49.127,29.093,81.572c2.031,26.404-0.85,49.634-8.562,69.581h-53.197c-2.347,0-4.25,1.903-4.25,4.25
		c0,2.347,1.903,4.25,4.25,4.25h49.523c-3.705,7.714-8.201,14.887-13.5,21.499h-48.022c-2.348,0-4.25,1.903-4.25,4.25
		c0,2.347,1.902,4.25,4.25,4.25h40.46c-5.1,5.193-10.759,9.992-17,14.374c-27.062,18.999-55.733,23.163-58.36,23.51H248.26
		c-2.347,0-4.25,1.903-4.25,4.25c0,2.347,1.903,4.25,4.25,4.25h37.899l-15.269,60.04c-0.579,2.274,0.796,4.588,3.071,5.166
		c0.352,0.09,0.704,0.132,1.051,0.132c1.897,0,3.627-1.28,4.116-3.204l15.917-62.592c8.562-1.423,34.222-6.911,59.263-24.393
		C382.105,386.91,414.067,348.558,408.489,276.048z"/>
	<path d="M132.364,462.231c-31.241-57.795-14.206-131.139-2.934-179.671c2.811-12.1,5.237-22.549,6.403-30.707
		C146.835,174.837,99.72,10.052,97.709,3.075c-0.65-2.255-3.004-3.56-5.261-2.906c-2.255,0.65-3.557,3.005-2.906,5.261
		c0.487,1.691,48.623,169.994,37.876,245.222c-1.113,7.794-3.501,18.078-6.268,29.986c-11.562,49.781-29.034,125.01,3.777,185.71
		l17,30c0.782,1.38,2.22,2.155,3.702,2.155c0.71,0,1.43-0.178,2.091-0.553c2.042-1.157,2.76-3.751,1.603-5.793L132.364,462.231z"/>
	<path d="M159.283,454.983c-0.764-2.22-3.183-3.4-5.401-2.636c-2.22,0.764-3.399,3.182-2.636,5.401l13.037,37.887
		c0.606,1.762,2.254,2.868,4.018,2.868c0.459,0,0.925-0.075,1.383-0.232c2.22-0.764,3.399-3.182,2.636-5.401L159.283,454.983z"/>
	<path d="M155.556,191.273c2.288,24.344,2.357,44.322,0.206,59.378c-0.331,2.324,1.283,4.477,3.606,4.809
		c0.204,0.029,0.406,0.043,0.606,0.043c2.081,0,3.899-1.53,4.202-3.649c2.245-15.718,2.192-36.367-0.159-61.375
		c-0.22-2.337-2.293-4.059-4.629-3.834C157.053,186.864,155.336,188.936,155.556,191.273z"/>
	<path d="M149.683,146.544c0.339,2.086,2.143,3.568,4.189,3.568c0.227,0,0.457-0.018,0.687-0.056c2.317-0.376,3.89-2.56,3.513-4.877
		C146.643,74.864,126.258,3.785,126.054,3.075c-0.65-2.255-3.004-3.557-5.261-2.907c-2.255,0.65-3.557,3.006-2.907,5.261
		C118.089,6.134,138.334,76.723,149.683,146.544z"/>
	<path d="M237.625,131.002h-17c-2.347,0-4.25,1.903-4.25,4.25c0,2.347,1.903,4.25,4.25,4.25h17c2.347,0,4.25-1.903,4.25-4.25
		C241.875,132.905,239.972,131.002,237.625,131.002z"/>
</g>
<g>
</g>
<g>
</g>
<g>
</g>
<g>
</g>
<g>
</g>
<g>
</g>
<g>
</g>
<g>
</g>
<g>
</g>
<g>
</g>
<g>
</g>
<g>
</g>
<g>
</g>
<g>
</g>
<g>
</g>
</svg>
