<?xml version="1.0" encoding="iso-8859-1"?>
<!-- Generator: Adobe Illustrator 18.0.0, SVG Export Plug-In . SVG Version: 6.00 Build 0)  -->
<!DOCTYPE svg PUBLIC "-//W3C//DTD SVG 1.1//EN" "http://www.w3.org/Graphics/SVG/1.1/DTD/svg11.dtd">
<svg version="1.1" id="Capa_1" xmlns="http://www.w3.org/2000/svg" xmlns:xlink="http://www.w3.org/1999/xlink" x="0px" y="0px"
	 viewBox="0 0 498.412 498.412" style="enable-background:new 0 0 498.412 498.412;" xml:space="preserve">
<g>
	<path d="M408.807,243.078c-2.279,0.563-3.669,2.867-3.106,5.146c0.479,1.936,2.214,3.231,4.122,3.231
		c0.338,0,0.681-0.041,1.023-0.125c23.339-5.771,46.418-16.655,68.594-32.35c1.916-1.356,2.37-4.009,1.014-5.924
		c-1.357-1.917-4.009-2.369-5.924-1.014C453.224,227.122,431.111,237.564,408.807,243.078z"/>
	<path d="M363.565,256.134c2.313,0.098,4.631,0.147,6.954,0.147c8.249,0,16.537-0.619,24.72-1.85
		c2.321-0.349,3.919-2.514,3.57-4.835c-0.349-2.321-2.515-3.922-4.835-3.57c-9.95,1.496-20.058,2.04-30.048,1.616
		c-2.333-0.082-4.326,1.721-4.426,4.066C359.4,254.052,361.22,256.034,363.565,256.134z"/>
	<path d="M493.933,269.401c-0.118,0.005-10.577,0.45-20.461-8.179c2.997-1.928,5.983-3.936,8.956-6.041
		c1.126-0.797,1.795-2.09,1.795-3.469v-18.336c0-1.589-0.886-3.045-2.297-3.775c-1.412-0.73-3.112-0.612-4.408,0.306
		c-33.503,23.712-68.482,35.737-103.966,35.74c-0.006,0-0.007,0-0.014,0c-53.254,0-89.523-27.587-89.88-27.863
		c-1.282-0.996-3.019-1.175-4.476-0.461c-1.458,0.713-2.382,2.194-2.382,3.817v18.026c-6.353,26.258,17.474,60.186,18.493,61.62
		c0.829,1.166,2.138,1.788,3.467,1.788c0.852,0,1.712-0.255,2.459-0.787c1.913-1.36,2.361-4.013,1.001-5.926
		c-0.208-0.293-19.087-27.166-17.953-49.004c5.886,3.771,16.034,9.55,29.619,14.672c-0.745,28.313,35.815,54.175,37.428,55.301
		c0.741,0.517,1.588,0.765,2.428,0.765c1.341,0,2.661-0.633,3.487-1.816c1.344-1.923,0.874-4.573-1.049-5.918
		c-0.342-0.239-31.87-22.561-33.723-45.352c10.591,3.366,22.834,6.122,36.444,7.321c10.21,23.272,46.368,36.831,47.957,37.416
		c0.484,0.179,0.98,0.263,1.468,0.263c1.729,0,3.354-1.063,3.987-2.78c0.812-2.201-0.314-4.645-2.515-5.458
		c-0.33-0.122-29.923-11.233-40.996-28.862c1.568,0.044,3.148,0.074,4.748,0.074c0.003,0-0.001,0,0.001,0
		c8.036,0,16.042-0.587,24.008-1.75c12.192,15.88,44.383,26.761,45.811,27.237c0.446,0.149,0.899,0.219,1.344,0.219
		c1.779,0,3.438-1.126,4.031-2.907c0.742-2.227-0.461-4.633-2.688-5.375c-8.048-2.683-28.317-10.985-38.663-20.912
		c9.881-2.044,19.693-4.988,29.418-8.821c12.02,16.003,39.997,20.397,41.23,20.583c0.215,0.032,0.428,0.048,0.639,0.048
		c2.066,0,3.876-1.509,4.195-3.614c0.351-2.32-1.245-4.485-3.564-4.838c-0.255-0.039-23.674-3.738-34.336-15.614
		c7.05-3.158,14.052-6.782,20.995-10.882c11.524,11.307,24.538,12.048,27.713,12.048c0.391,0,0.633-0.011,0.705-0.015
		c2.344-0.126,4.142-2.129,4.015-4.473C498.279,271.071,496.261,269.263,493.933,269.401z M373.552,283.983
		c-46.876,0-80.6-21.373-88.251-26.682v-8.124c13.359,8.379,45.243,24.971,88.237,24.969c0.003,0,0.012,0,0.015,0
		c34.902-0.003,69.236-11.004,102.17-32.719v8.073C442.761,272.385,408.398,283.983,373.552,283.983z"/>
	<path d="M18.971,218.98c22.177,15.696,45.256,26.58,68.595,32.351c0.343,0.084,0.686,0.125,1.024,0.125
		c1.908,0,3.643-1.295,4.122-3.231c0.563-2.278-0.827-4.583-3.106-5.146c-22.304-5.515-44.417-15.957-65.725-31.037
		c-1.916-1.355-4.568-0.903-5.924,1.014C16.601,214.972,17.055,217.624,18.971,218.98z"/>
	<path d="M99.602,249.596c-0.349,2.321,1.25,4.486,3.57,4.835c8.184,1.231,16.47,1.85,24.718,1.85c2.323,0,4.643-0.049,6.956-0.147
		c2.345-0.1,4.165-2.082,4.065-4.427c-0.1-2.344-2.056-4.15-4.427-4.065c-9.988,0.425-20.096-0.119-30.048-1.616
		C102.116,245.676,99.951,247.275,99.602,249.596z"/>
	<path d="M221.611,259.232V241.14c0-1.623-0.924-3.104-2.382-3.817c-1.458-0.713-3.194-0.535-4.476,0.461
		c-0.359,0.278-36.481,27.863-89.894,27.863c-35.479,0-70.458-12.024-103.965-35.74c-1.296-0.917-2.997-1.035-4.408-0.306
		c-1.411,0.73-2.297,2.186-2.297,3.775v18.336c0,1.379,0.669,2.672,1.795,3.469c2.901,2.054,5.815,4.015,8.739,5.9
		c-9.669,8.311-19.774,8.006-20.265,7.985c-2.335-0.114-4.325,1.68-4.451,4.016c-0.126,2.344,1.671,4.346,4.015,4.473
		c0.071,0.004,0.313,0.015,0.704,0.015c3.156,0,16.031-0.732,27.502-11.843c7.012,4.151,14.083,7.819,21.205,11.01
		c-10.661,11.875-34.08,15.575-34.335,15.613c-2.319,0.351-3.916,2.515-3.566,4.835c0.317,2.106,2.13,3.617,4.197,3.617
		c0.21,0,0.424-0.016,0.639-0.048c1.233-0.186,29.21-4.58,41.23-20.583c9.723,3.833,19.534,6.776,29.415,8.821
		c-10.342,9.915-30.611,18.225-38.662,20.912c-2.226,0.744-3.429,3.15-2.686,5.376c0.594,1.78,2.252,2.906,4.031,2.906
		c0.445,0,0.898-0.07,1.344-0.219c1.428-0.476,33.619-11.357,45.811-27.236c7.966,1.163,15.973,1.75,24.009,1.75
		c1.6,0,3.18-0.03,4.748-0.074c-11.073,17.629-40.665,28.741-40.995,28.862c-2.201,0.812-3.328,3.255-2.517,5.456
		c0.633,1.718,2.258,2.782,3.988,2.782c0.488,0,0.984-0.084,1.469-0.263c1.588-0.585,37.746-14.145,47.957-37.416
		c13.61-1.199,25.853-3.955,36.444-7.321c-1.85,22.757-33.286,45.045-33.721,45.35c-1.925,1.344-2.396,3.993-1.053,5.918
		c0.827,1.184,2.147,1.818,3.489,1.818c0.839,0,1.688-0.249,2.428-0.765c1.613-1.125,38.172-26.988,37.427-55.301
		c13.593-5.124,23.744-10.908,29.628-14.678c1.229,21.837-17.733,48.884-17.942,49.178c-1.358,1.913-0.91,4.565,1.003,5.924
		c0.747,0.531,1.607,0.787,2.459,0.787c1.329,0,2.639-0.622,3.467-1.788c1.02-1.435,24.906-35.444,18.474-61.716
		C221.612,259.235,221.611,259.234,221.611,259.232z M213.111,257.301c-7.66,5.315-41.382,26.683-88.252,26.683
		c-34.846,0-69.209-11.599-102.17-34.482v-8.073c32.938,21.717,67.272,32.719,102.17,32.719c43.003,0,74.894-16.593,88.252-24.97
		V257.301z"/>
	<path d="M30.448,208.974c0.546,0.234,1.114,0.345,1.672,0.345c1.649,0,3.218-0.965,3.908-2.577
		c0.14-0.327,14.641-32.71,70.453-37.44c2.339-0.198,4.074-2.255,3.876-4.594c-0.199-2.339-2.265-4.075-4.594-3.876
		c-60.843,5.156-76.894,41.036-77.547,42.561C27.291,205.551,28.291,208.05,30.448,208.974z"/>
	<path d="M396.764,169.302c55.428,4.697,69.859,36.091,70.459,37.455c0.694,1.602,2.258,2.561,3.901,2.561
		c0.559,0,1.126-0.111,1.672-0.345c2.157-0.924,3.157-3.423,2.232-5.58c-0.653-1.525-16.705-37.404-77.547-42.561
		c-2.331-0.196-4.396,1.537-4.594,3.876C392.689,167.048,394.425,169.104,396.764,169.302z"/>
</g>
<g>
</g>
<g>
</g>
<g>
</g>
<g>
</g>
<g>
</g>
<g>
</g>
<g>
</g>
<g>
</g>
<g>
</g>
<g>
</g>
<g>
</g>
<g>
</g>
<g>
</g>
<g>
</g>
<g>
</g>
</svg>
